<svg width="18" height="19" viewBox="0 0 18 19" fill="none" xmlns="http://www.w3.org/2000/svg">
<g opacity="0.4">
<path d="M6.1574 4.46749C6.0871 4.53721 6.0313 4.62016 5.99323 4.71155C5.95515 4.80295 5.93555 4.90098 5.93555 4.99999C5.93555 5.09899 5.95515 5.19702 5.99323 5.28842C6.0313 5.37981 6.0871 5.46276 6.1574 5.53248L9.5924 8.96749C9.66269 9.03721 9.71849 9.12016 9.75656 9.21155C9.79464 9.30295 9.81424 9.40098 9.81424 9.49999C9.81424 9.59899 9.79464 9.69702 9.75656 9.78842C9.71849 9.87981 9.66269 9.96276 9.5924 10.0325L6.1574 13.4675C6.0871 13.5372 6.0313 13.6202 5.99323 13.7116C5.95515 13.8029 5.93555 13.901 5.93555 14C5.93555 14.099 5.95515 14.197 5.99323 14.2884C6.0313 14.3798 6.0871 14.4628 6.1574 14.5325C6.29792 14.6722 6.48801 14.7506 6.68615 14.7506C6.88428 14.7506 7.07437 14.6722 7.2149 14.5325L10.6574 11.09C11.0787 10.6681 11.3154 10.0962 11.3154 9.49999C11.3154 8.90373 11.0787 8.33186 10.6574 7.90999L7.2149 4.46749C7.07437 4.3278 6.88428 4.24939 6.68615 4.24939C6.48801 4.24939 6.29792 4.3278 6.1574 4.46749Z" fill="white"/>
</g>
</svg>
