<svg width="7" height="13" viewBox="0 0 7 13" fill="none" xmlns="http://www.w3.org/2000/svg">
<path d="M0.841225 1.18792C0.763118 1.26152 0.701123 1.34907 0.658815 1.44555C0.616508 1.54202 0.594727 1.64549 0.594727 1.75C0.594727 1.85451 0.616508 1.95799 0.658815 2.05446C0.701123 2.15093 0.763118 2.23849 0.841225 2.31209L4.65789 5.93792C4.736 6.01152 4.79799 6.09907 4.8403 6.19555C4.88261 6.29202 4.90439 6.39549 4.90439 6.5C4.90439 6.60451 4.88261 6.70799 4.8403 6.80446C4.79799 6.90093 4.736 6.98849 4.65789 7.06209L0.841225 10.6879C0.763118 10.7615 0.701123 10.8491 0.658815 10.9455C0.616508 11.042 0.594727 11.1455 0.594727 11.25C0.594727 11.3545 0.616508 11.458 0.658815 11.5545C0.701123 11.6509 0.763118 11.7385 0.841225 11.8121C0.99736 11.9595 1.20857 12.0423 1.42873 12.0423C1.64888 12.0423 1.86009 11.9595 2.01622 11.8121L5.84123 8.17834C6.30939 7.73302 6.57236 7.12938 6.57236 6.5C6.57236 5.87063 6.30939 5.26698 5.84123 4.82167L2.01622 1.18792C1.86009 1.04047 1.64888 0.957708 1.42873 0.957708C1.20857 0.957708 0.99736 1.04047 0.841225 1.18792Z" fill="#fff"/>
</svg>
