<svg width="120" height="120" viewBox="0 0 120 120" fill="none" xmlns="http://www.w3.org/2000/svg">
<path opacity="0.5" d="M97.5 37.5C97.5 44.4036 91.9036 50 85 50C78.0964 50 72.5 44.4036 72.5 37.5C72.5 30.5964 78.0964 25 85 25C91.9036 25 97.5 30.5964 97.5 37.5Z" fill="#1C84CF"/>
<path opacity="0.5" d="M22.5 37.5C22.5 44.4036 28.0964 50 35 50C41.9036 50 47.5 44.4036 47.5 37.5C47.5 30.5964 41.9036 25 35 25C28.0964 25 22.5 30.5964 22.5 37.5Z" fill="#1C84CF"/>
<path opacity="0.5" d="M110 82.5C110 89.4036 101.046 95 90 95C78.9543 95 70 89.4036 70 82.5C70 75.5964 78.9543 70 90 70C101.046 70 110 75.5964 110 82.5Z" fill="#1C84CF"/>
<path opacity="0.5" d="M10 82.5C10 89.4036 18.9543 95 30 95C41.0457 95 50 89.4036 50 82.5C50 75.5964 41.0457 70 30 70C18.9543 70 10 75.5964 10 82.5Z" fill="#1C84CF"/>
<path d="M77.5 37.5C77.5 47.165 69.665 55 60 55C50.335 55 42.5 47.165 42.5 37.5C42.5 27.835 50.335 20 60 20C69.665 20 77.5 27.835 77.5 37.5Z" fill="#009990"/>
<path d="M90 82.5C90 92.165 76.5685 100 60 100C43.4315 100 30 92.165 30 82.5C30 72.835 43.4315 65 60 65C76.5685 65 90 72.835 90 82.5Z" fill="#009990"/>
</svg>
