<svg width="22" height="23" viewBox="0 0 22 23" fill="none" xmlns="http://www.w3.org/2000/svg">
<path d="M15.583 13.3332C16.0893 13.3332 16.4997 12.9228 16.4997 12.4165C16.4997 11.9102 16.0893 11.4998 15.583 11.4998C15.0767 11.4998 14.6663 11.9102 14.6663 12.4165C14.6663 12.9228 15.0767 13.3332 15.583 13.3332Z" fill="#009990"/>
<path d="M15.583 16.9998C16.0893 16.9998 16.4997 16.5894 16.4997 16.0832C16.4997 15.5769 16.0893 15.1665 15.583 15.1665C15.0767 15.1665 14.6663 15.5769 14.6663 16.0832C14.6663 16.5894 15.0767 16.9998 15.583 16.9998Z" fill="#009990"/>
<path d="M11.9163 12.4165C11.9163 12.9228 11.5059 13.3332 10.9997 13.3332C10.4934 13.3332 10.083 12.9228 10.083 12.4165C10.083 11.9102 10.4934 11.4998 10.9997 11.4998C11.5059 11.4998 11.9163 11.9102 11.9163 12.4165Z" fill="#009990"/>
<path d="M11.9163 16.0832C11.9163 16.5894 11.5059 16.9998 10.9997 16.9998C10.4934 16.9998 10.083 16.5894 10.083 16.0832C10.083 15.5769 10.4934 15.1665 10.9997 15.1665C11.5059 15.1665 11.9163 15.5769 11.9163 16.0832Z" fill="#009990"/>
<path d="M6.41634 13.3332C6.9226 13.3332 7.33301 12.9228 7.33301 12.4165C7.33301 11.9102 6.9226 11.4998 6.41634 11.4998C5.91008 11.4998 5.49968 11.9102 5.49968 12.4165C5.49968 12.9228 5.91008 13.3332 6.41634 13.3332Z" fill="#009990"/>
<path d="M6.41634 16.9998C6.9226 16.9998 7.33301 16.5894 7.33301 16.0832C7.33301 15.5769 6.9226 15.1665 6.41634 15.1665C5.91008 15.1665 5.49968 15.5769 5.49968 16.0832C5.49968 16.5894 5.91008 16.9998 6.41634 16.9998Z" fill="#009990"/>
<path fill-rule="evenodd" clip-rule="evenodd" d="M6.41634 2.104C6.79604 2.104 7.10384 2.41181 7.10384 2.7915V3.49066C7.71067 3.47899 8.37922 3.479 9.11451 3.479H12.8847C13.62 3.479 14.2887 3.47899 14.8955 3.49066V2.7915C14.8955 2.41181 15.2033 2.104 15.583 2.104C15.9627 2.104 16.2705 2.41181 16.2705 2.7915V3.54967C16.5088 3.56783 16.7344 3.59067 16.9479 3.61938C18.0227 3.76387 18.8925 4.06831 19.5785 4.75431C20.2645 5.44031 20.569 6.31018 20.7135 7.3849C20.8539 8.42917 20.8539 9.76349 20.8538 11.4481V13.3849C20.8539 15.0695 20.8539 16.4038 20.7135 17.4481C20.569 18.5228 20.2645 19.3927 19.5785 20.0787C18.8925 20.7647 18.0227 21.0691 16.9479 21.2136C15.9037 21.354 14.5694 21.354 12.8848 21.354H9.11463C7.43004 21.354 6.09568 21.354 5.0514 21.2136C3.97668 21.0691 3.10681 20.7647 2.42081 20.0787C1.73481 19.3927 1.43037 18.5228 1.28588 17.4481C1.14548 16.4038 1.14549 15.0695 1.14551 13.3849V11.4481C1.14549 9.76351 1.14548 8.42918 1.28588 7.3849C1.43037 6.31018 1.73481 5.44031 2.42081 4.75431C3.10681 4.06831 3.97668 3.76387 5.0514 3.61938C5.26492 3.59067 5.49056 3.56783 5.72884 3.54967V2.7915C5.72884 2.41181 6.03665 2.104 6.41634 2.104ZM5.23462 4.98212C4.31237 5.10611 3.78103 5.33864 3.39309 5.72658C3.00514 6.11452 2.77261 6.64587 2.64862 7.56811C2.62762 7.7243 2.61006 7.88873 2.59538 8.06234H19.404C19.3893 7.88873 19.3717 7.7243 19.3507 7.56812C19.2267 6.64587 18.9942 6.11452 18.6063 5.72658C18.2183 5.33864 17.687 5.10611 16.7647 4.98212C15.8227 4.85546 14.5809 4.854 12.833 4.854H9.16634C7.41842 4.854 6.17665 4.85546 5.23462 4.98212ZM2.52051 11.4998C2.52051 10.717 2.5208 10.0357 2.5325 9.43734H19.4668C19.4785 10.0357 19.4788 10.717 19.4788 11.4998V13.3332C19.4788 15.0811 19.4774 16.3229 19.3507 17.2649C19.2267 18.1871 18.9942 18.7185 18.6063 19.1064C18.2183 19.4944 17.687 19.7269 16.7647 19.8509C15.8227 19.9775 14.5809 19.979 12.833 19.979H9.16634C7.41842 19.979 6.17664 19.9775 5.23462 19.8509C4.31237 19.7269 3.78103 19.4944 3.39309 19.1064C3.00514 18.7185 2.77261 18.1871 2.64862 17.2649C2.52197 16.3229 2.52051 15.0811 2.52051 13.3332V11.4998Z" fill="#009990"/>
</svg>
