<svg width="18" height="18" viewBox="0 0 18 18" fill="none" xmlns="http://www.w3.org/2000/svg">
<path fill-rule="evenodd" clip-rule="evenodd" d="M2.00745 1.40691C3.68752 -0.273164 6.52266 -0.145446 7.69248 1.95068L8.34149 3.11361C9.10541 4.48243 8.77987 6.20951 7.66157 7.34148C7.64668 7.36188 7.56774 7.47681 7.55791 7.67763C7.54536 7.93395 7.63639 8.52673 8.55482 9.44516C9.47295 10.3633 10.0656 10.4545 10.3221 10.4421C10.5231 10.4323 10.6381 10.3533 10.6585 10.3384C11.7905 9.2201 13.5176 8.89457 14.8864 9.65848L16.0493 10.3075C18.1454 11.4773 18.2731 14.3125 16.5931 15.9925C15.6944 16.8912 14.4995 17.6897 13.0953 17.7429C11.0144 17.8218 7.55913 17.2844 4.13735 13.8626C0.715564 10.4408 0.178177 6.98561 0.257065 4.90468C0.310297 3.50048 1.10879 2.30556 2.00745 1.40691ZM6.38265 2.68167C5.78363 1.60833 4.17394 1.36173 3.06811 2.46757C2.29276 3.24291 1.7887 4.09873 1.75599 4.9615C1.6902 6.69685 2.11864 9.7226 5.19801 12.802C8.27737 15.8813 11.3031 16.3098 13.0385 16.244C13.9013 16.2113 14.7571 15.7072 15.5324 14.9319C16.6382 13.826 16.3916 12.2163 15.3183 11.6173L14.1554 10.9683C13.432 10.5646 12.4158 10.7023 11.7025 11.4156L11.7023 11.4158C11.6322 11.4858 11.1864 11.9018 10.395 11.9403C9.58474 11.9797 8.604 11.6157 7.49416 10.5058C6.38395 9.39561 6.02003 8.41461 6.0597 7.60427C6.09846 6.81276 6.51468 6.36716 6.58432 6.2975L6.58436 6.29747C7.29767 5.58415 7.43539 4.56801 7.03166 3.8446L6.38265 2.68167Z" fill="#608EE8"/>
</svg>
