<svg width="22" height="23" viewBox="0 0 22 23" fill="none" xmlns="http://www.w3.org/2000/svg">
<path d="M1.83398 11.6869C1.83398 9.58921 1.83398 8.54035 2.30992 7.67086C2.78585 6.80137 3.65535 6.26173 5.39435 5.18246L7.22768 4.04464C9.06592 2.90378 9.98504 2.33334 11.0007 2.33334C12.0163 2.33334 12.9354 2.90378 14.7736 4.04464L16.607 5.18246C18.346 6.26173 19.2154 6.80137 19.6914 7.67086C20.1673 8.54035 20.1673 9.58921 20.1673 11.6869V13.0812C20.1673 16.657 20.1673 18.4449 19.0934 19.5558C18.0194 20.6667 16.291 20.6667 12.834 20.6667H9.16732C5.71035 20.6667 3.98187 20.6667 2.90793 19.5558C1.83398 18.4449 1.83398 16.657 1.83398 13.0812V11.6869Z" stroke="#608EE8" stroke-width="1.5"/>
<path d="M8.25 15.1667C9.02951 15.7445 9.97752 16.0833 11 16.0833C12.0225 16.0833 12.9705 15.7445 13.75 15.1667" stroke="#608EE8" stroke-width="1.5" stroke-linecap="round"/>
</svg>
