<svg width="100" height="100" viewBox="0 0 100 100" fill="none" xmlns="http://www.w3.org/2000/svg">
<path opacity="0.5" d="M50.001 66.6666C26.0013 66.6666 21.7497 42.748 20.9965 23.7769C20.787 18.4998 20.6823 15.8613 22.6644 13.4201C24.6466 10.9788 27.0189 10.5785 31.7636 9.77801C36.4472 8.98778 42.5696 8.33325 50.001 8.33325C57.4325 8.33325 63.5549 8.98779 68.2384 9.77801C72.9832 10.5785 75.3555 10.9788 77.3377 13.4201C79.3198 15.8613 79.2151 18.4998 79.0056 23.7769C78.2524 42.748 74.0008 66.6666 50.001 66.6666Z" fill="#009990"/>
<path d="M73.5012 51.7584L85.2367 45.2384C88.3718 43.4967 89.9394 42.6258 90.8027 41.1586C91.6659 39.6915 91.666 37.8983 91.6661 34.3119L91.6661 34.0097C91.6662 29.6613 91.6663 27.4871 90.4865 25.8503C89.3068 24.2134 87.2442 23.5259 83.1189 22.1508L79.1663 20.8333L79.0958 21.1859C79.0764 21.9745 79.0423 22.8335 79.0048 23.7768C78.6369 33.0451 77.4339 43.4943 73.5012 51.7584Z" fill="#1C84CF"/>
<path d="M20.9958 23.7769C21.3638 33.0456 22.5668 43.4953 26.5 51.7595L14.7624 45.2384C11.6273 43.4967 10.0597 42.6258 9.19646 41.1586C8.33317 39.6915 8.33312 37.8983 8.33302 34.3119L8.33301 34.0097C8.3329 29.6613 8.33284 27.4871 9.51258 25.8503C10.6923 24.2134 12.7549 23.5259 16.8802 22.1508L20.8328 20.8333L20.905 21.1945C20.9245 21.9808 20.9585 22.837 20.9958 23.7769Z" fill="#1C84CF"/>
<path fill-rule="evenodd" clip-rule="evenodd" d="M21.875 91.6667C21.875 89.9409 23.2741 88.5417 25 88.5417H75C76.7259 88.5417 78.125 89.9409 78.125 91.6667C78.125 93.3926 76.7259 94.7917 75 94.7917H25C23.2741 94.7917 21.875 93.3926 21.875 91.6667Z" fill="#1C84CF"/>
<path opacity="0.5" d="M64.407 88.5416H35.5938L36.8305 81.2506C37.22 79.303 38.9301 77.9011 40.9162 77.9011H59.0845C61.0707 77.9011 62.7808 79.303 63.1703 81.2506L64.407 88.5416Z" fill="#009990"/>
<path d="M50.0006 66.6672C48.9192 66.6672 47.8778 66.6187 46.875 66.5242V77.9011H53.125V66.5243C52.1226 66.6187 51.0817 66.6672 50.0006 66.6672Z" fill="#1C84CF"/>
<path d="M46.4415 25.0937C48.0248 22.2534 48.8164 20.8333 50 20.8333C51.1836 20.8333 51.9752 22.2534 53.5585 25.0937L53.9682 25.8285C54.4181 26.6357 54.6431 27.0392 54.9938 27.3055C55.3446 27.5718 55.7814 27.6706 56.6551 27.8683L57.4506 28.0483C60.5252 28.7439 62.0625 29.0918 62.4282 30.2679C62.794 31.4441 61.7459 32.6696 59.6499 35.1207L59.1076 35.7548C58.512 36.4513 58.2141 36.7996 58.0802 37.2304C57.9462 37.6612 57.9912 38.1259 58.0813 39.0552L58.1633 39.9012C58.4802 43.1715 58.6386 44.8066 57.6811 45.5335C56.7235 46.2604 55.2842 45.5977 52.4054 44.2722L51.6606 43.9293C50.8426 43.5526 50.4336 43.3643 50 43.3643C49.5664 43.3643 49.1574 43.5526 48.3394 43.9293L47.5946 44.2722C44.7158 45.5977 43.2765 46.2604 42.3189 45.5335C41.3614 44.8066 41.5198 43.1715 41.8367 39.9013L41.9187 39.0552C42.0088 38.1259 42.0538 37.6612 41.9198 37.2304C41.7858 36.7996 41.488 36.4513 40.8924 35.7548L40.3501 35.1207C38.2541 32.6696 37.206 31.4441 37.5718 30.2679C37.9375 29.0918 39.4748 28.7439 42.5494 28.0483L43.3449 27.8683C44.2186 27.6706 44.6554 27.5718 45.0062 27.3055C45.3569 27.0392 45.5819 26.6357 46.0318 25.8285L46.4415 25.0937Z" fill="#009990"/>
</svg>
