<svg width="20" height="20" viewBox="0 0 20 20" fill="none" xmlns="http://www.w3.org/2000/svg">
<g clip-path="url(#clip0_487_239)">
<path d="M10.0013 7.50002C8.62015 7.50002 7.5013 8.61927 7.5013 10C7.5013 11.3811 8.62057 12.5 10.0013 12.5C11.3824 12.5 12.5013 11.3808 12.5013 10C12.5013 8.61894 11.3821 7.50002 10.0013 7.50002ZM10.0013 5.83335C12.3017 5.83335 14.168 7.6976 14.168 10C14.168 12.3004 12.3037 14.1667 10.0013 14.1667C7.70091 14.1667 5.83464 12.3024 5.83464 10C5.83464 7.69963 7.69889 5.83335 10.0013 5.83335ZM15.418 5.62431C15.418 6.1994 14.9507 6.666 14.3763 6.666C13.8012 6.666 13.3347 6.19869 13.3347 5.62431C13.3347 5.04994 13.8019 4.58335 14.3763 4.58335C14.9499 4.58263 15.418 5.04994 15.418 5.62431ZM10.0013 3.33335C7.93924 3.33335 7.60314 3.33881 6.64404 3.38152C5.99061 3.4122 5.55259 3.50008 5.14562 3.65808C4.78395 3.79835 4.52306 3.96584 4.24509 4.24381C3.96604 4.52285 3.79885 4.78305 3.65915 5.14488C3.50079 5.55279 3.41293 5.99011 3.3828 6.64265C3.33968 7.56269 3.33464 7.88423 3.33464 10C3.33464 12.0621 3.34009 12.3982 3.38279 13.3572C3.41349 14.0104 3.50149 14.449 3.6591 14.855C3.79974 15.2172 3.96757 15.4787 4.2442 15.7554C4.52434 16.0351 4.78531 16.2029 5.14371 16.3412C5.55564 16.5004 5.99339 16.5884 6.64392 16.6185C7.56397 16.6616 7.88551 16.6667 10.0013 16.6667C12.0634 16.6667 12.3995 16.6612 13.3585 16.6185C14.0102 16.5879 14.4492 16.4997 14.8563 16.3422C15.2175 16.2019 15.4798 16.0335 15.7567 15.7571C16.0368 15.4765 16.2042 15.2162 16.3427 14.8569C16.5016 14.4465 16.5897 14.0082 16.6198 13.3574C16.6629 12.4374 16.668 12.1158 16.668 10C16.668 7.93795 16.6625 7.60186 16.6198 6.64283C16.5892 5.9909 16.5009 5.55126 16.3432 5.14434C16.2033 4.78367 16.0352 4.52198 15.7575 4.24381C15.478 3.96431 15.2185 3.79746 14.8564 3.65787C14.4488 3.49964 14.0108 3.41165 13.3587 3.38153C12.4387 3.3384 12.1171 3.33335 10.0013 3.33335ZM10.0013 1.66669C12.2652 1.66669 12.5478 1.67502 13.4367 1.71669C14.3235 1.75766 14.9284 1.89794 15.4597 2.10419C16.0089 2.316 16.4728 2.6021 16.936 3.0653C17.3985 3.5285 17.6847 3.99377 17.8972 4.54169C18.1027 5.07225 18.243 5.6778 18.2847 6.5646C18.3242 7.4535 18.3347 7.73613 18.3347 10C18.3347 12.2639 18.3263 12.5465 18.2847 13.4354C18.2437 14.3223 18.1027 14.9271 17.8972 15.4584C17.6853 16.0077 17.3985 16.4715 16.936 16.9348C16.4728 17.3973 16.0068 17.6834 15.4597 17.8959C14.9284 18.1014 14.3235 18.2417 13.4367 18.2834C12.5478 18.3229 12.2652 18.3334 10.0013 18.3334C7.73741 18.3334 7.45477 18.325 6.56589 18.2834C5.67908 18.2424 5.07491 18.1014 4.54297 17.8959C3.99435 17.684 3.52977 17.3973 3.06658 16.9348C2.60339 16.4715 2.31797 16.0056 2.10547 15.4584C1.89922 14.9271 1.75964 14.3223 1.71797 13.4354C1.67839 12.5465 1.66797 12.2639 1.66797 10C1.66797 7.73613 1.6763 7.4535 1.71797 6.5646C1.75894 5.6771 1.89922 5.07294 2.10547 4.54169C2.31727 3.99308 2.60339 3.5285 3.06658 3.0653C3.52977 2.6021 3.99505 2.31669 4.54297 2.10419C5.07422 1.89794 5.67839 1.75835 6.56589 1.71669C7.45477 1.6771 7.73741 1.66669 10.0013 1.66669Z" fill="white"/>
</g>
<defs>
<clipPath id="clip0_487_239">
<rect width="20" height="20" fill="white"/>
</clipPath>
</defs>
</svg>
