<svg width="98" height="101" viewBox="0 0 98 101" fill="none" xmlns="http://www.w3.org/2000/svg">
<path d="M17.9734 85.9445C18.5447 86.0482 19.119 86.1001 19.6868 86.1001C21.5322 86.1001 23.3426 85.5725 25.2152 84.4891C27.0877 85.5725 28.8982 86.1001 30.7442 86.1001C31.3113 86.1001 31.8857 86.0482 32.457 85.9445C32.536 90.3607 30.162 93.9515 25.2152 96.9045C20.2677 93.9509 17.8944 90.3607 17.9734 85.9445ZM17.4918 82.9952C16.8409 81.3107 16.8849 79.6431 17.6274 77.92C18.4024 78.7122 19.4336 79.2952 20.7035 79.6594C20.9681 80.785 21.5708 81.8352 22.4995 82.792C21.4755 83.2001 20.5046 83.4069 19.6078 83.4069C18.8731 83.4069 18.162 83.2689 17.4918 82.9952ZM15.2884 65.1978C14.9443 65.1743 14.6019 65.1616 14.2662 65.1616C12.6426 65.1616 11.0732 65.4456 9.59124 66.0057C10.3223 62.0121 12.5082 59.7681 16.2485 59.1725C15.4306 61.2103 15.1088 63.2317 15.2884 65.1978ZM9.59124 84.368C11.0726 84.9286 12.6414 85.212 14.2656 85.212C14.6013 85.212 14.9443 85.1999 15.2884 85.1758C15.1088 87.1419 15.4306 89.1634 16.2485 91.2011C12.5082 90.6061 10.3223 88.3615 9.59124 84.368ZM3.47762 75.1871C6.18005 70.3911 9.88896 67.944 14.5055 67.9132C14.0662 70.2163 14.5368 72.6592 15.9073 75.1871C14.5368 77.7144 14.0662 80.1574 14.5055 82.4604C9.88896 82.4303 6.18005 79.9837 3.47762 75.1871ZM17.4918 67.3784C18.162 67.1053 18.8731 66.9673 19.6078 66.9673C20.5046 66.9673 21.4755 67.1735 22.4995 67.5816C21.5708 68.539 20.9681 69.5892 20.7035 70.7142C19.4336 71.0784 18.4024 71.662 17.6274 72.4536C16.8849 70.7305 16.8409 69.0629 17.4918 67.3784ZM25.2152 53.4697C30.162 56.4221 32.536 60.0135 32.457 64.4297C31.8857 64.326 31.3107 64.2735 30.743 64.2735C28.8976 64.2735 27.0871 64.8011 25.2152 65.8851C23.3432 64.8011 21.5328 64.2735 19.6874 64.2735C19.1196 64.2735 18.5447 64.326 17.9733 64.4297C17.8944 60.0135 20.2677 56.4226 25.2152 53.4697ZM17.9733 36.1763C18.5447 36.2794 19.119 36.3312 19.6868 36.3312C21.5322 36.3312 23.3426 35.8044 25.2152 34.7211C27.0877 35.8044 28.8982 36.3312 30.7442 36.3312C31.3113 36.3312 31.8857 36.2794 32.457 36.1763C32.536 40.592 30.162 44.1828 25.2152 47.1357C20.2677 44.1828 17.8944 40.592 17.9733 36.1763ZM17.4918 33.2263C16.8409 31.5425 16.8849 29.8749 17.6274 28.1519C18.4024 28.9435 19.4336 29.5271 20.7035 29.8911C20.9681 31.0161 21.5708 32.067 22.4995 33.0233C21.4755 33.4319 20.5046 33.6382 19.6078 33.6382C18.8731 33.6382 18.162 33.5002 17.4918 33.2263ZM15.2884 15.429C14.9442 15.4054 14.6019 15.3934 14.2662 15.3934C12.6426 15.3934 11.0732 15.6767 9.59123 16.2375C10.3223 12.2441 12.5082 9.99943 16.2485 9.40431C15.4306 11.4414 15.1088 13.463 15.2884 15.429ZM9.59124 34.5991C11.0726 35.1598 12.6414 35.4432 14.2656 35.4432C14.6013 35.4432 14.9442 35.4311 15.2884 35.4076C15.1088 37.3738 15.4306 39.3951 16.2485 41.4323C12.5082 40.8374 10.3223 38.5928 9.59124 34.5991ZM3.47762 25.4184C6.18005 20.6223 9.88896 18.1757 14.5055 18.1451C14.0662 20.4476 14.5368 22.891 15.9073 25.4184C14.5368 27.9463 14.0662 30.3892 14.5055 32.6918C9.88896 32.6616 6.18005 30.215 3.47762 25.4184ZM17.4918 17.6103C18.162 17.3366 18.8731 17.1986 19.6078 17.1986C20.5046 17.1986 21.4755 17.4046 22.4995 17.8135C21.5708 18.7704 20.9681 19.8211 20.7035 20.9455C19.4336 21.3096 18.4024 21.8932 17.6274 22.6849C16.8849 20.9617 16.8409 19.2941 17.4918 17.6103ZM25.2152 3.70087C30.162 6.65386 32.536 10.2449 32.457 14.6611C31.8857 14.5579 31.3107 14.5054 30.743 14.5054C28.8976 14.5054 27.0871 15.0329 25.2152 16.1164C23.3432 15.0329 21.5328 14.5054 19.6874 14.5054C19.1196 14.5054 18.5447 14.5579 17.9733 14.6611C17.8944 10.2453 20.2677 6.65386 25.2152 3.70087ZM32.9386 17.6103C33.5895 19.2941 33.5461 20.9617 32.8023 22.6849C32.0279 21.8932 30.9967 21.3096 29.7269 20.9455C29.4623 19.8211 28.8596 18.7704 27.9303 17.8135C28.9548 17.4046 29.9251 17.1986 30.8225 17.1986C31.5572 17.1986 32.2684 17.3366 32.9386 17.6103ZM35.142 35.4076C35.4867 35.4311 35.829 35.4432 36.1647 35.4432C37.7889 35.4432 39.3577 35.1598 40.8391 34.5991C40.1087 38.5933 37.9227 40.8374 34.1819 41.4322C34.9991 39.3951 35.3215 37.3738 35.142 35.4076ZM40.8391 16.2375C39.3571 15.6767 37.7884 15.3934 36.1641 15.3934C35.8284 15.3934 35.4861 15.4054 35.142 15.429C35.3215 13.463 34.9991 11.4414 34.1819 9.40431C37.9227 9.99943 40.1087 12.2433 40.8391 16.2375ZM49.2821 9.1933C51.5856 9.21874 53.933 10.1441 56.266 11.9551C55.3481 13.7529 54.872 15.7022 54.8491 17.7574C52.2184 19.7512 50.388 21.8475 49.2821 24.133C48.1762 21.8475 46.3452 19.7512 43.7151 17.7574C43.6916 15.7022 43.2155 13.7529 42.2982 11.9551C44.6306 10.1441 46.978 9.21874 49.2821 9.1933ZM64.3817 9.40431C63.5645 11.4414 63.2421 13.463 63.4217 15.429C63.0775 15.4054 62.7358 15.3934 62.3995 15.3934C60.7759 15.3934 59.2065 15.6767 57.7245 16.2375C58.4555 12.2441 60.6415 9.99943 64.3817 9.40431ZM65.7613 28.1519C66.5363 28.9434 67.5669 29.527 68.8367 29.8911C69.1019 31.0161 69.704 32.067 70.6333 33.0233C69.6088 33.4319 68.6385 33.6382 67.7417 33.6382C67.0064 33.6382 66.2958 33.5002 65.6257 33.2263C64.9742 31.5425 65.0182 29.8749 65.7613 28.1519ZM65.6257 17.6103C66.2958 17.3366 67.0064 17.1986 67.7417 17.1986C68.6385 17.1986 69.6088 17.4046 70.6333 17.8135C69.704 18.7704 69.1013 19.8211 68.8367 20.9455C67.5669 21.3096 66.5363 21.8932 65.7613 22.6849C65.0182 20.9617 64.9742 19.2941 65.6257 17.6103ZM73.349 3.70086C78.2959 6.65385 80.6698 10.2449 80.5909 14.661C80.0189 14.5579 79.4446 14.5054 78.8769 14.5054C77.0314 14.5054 75.2204 15.0329 73.349 16.1164C71.4771 15.0329 69.666 14.5054 67.8206 14.5054C67.2529 14.5054 66.6785 14.5579 66.1072 14.661C66.0276 10.2453 68.4016 6.65385 73.349 3.70086ZM81.0718 17.6103C81.7233 19.2941 81.6793 20.9617 80.9362 22.6849C80.1612 21.8932 79.1306 21.3096 77.8607 20.9455C77.5961 19.8211 76.9934 18.7704 76.0641 17.8135C77.0887 17.4046 78.059 17.1986 78.9558 17.1986C79.6911 17.1986 80.4016 17.3366 81.0718 17.6103ZM83.2758 35.4076C83.62 35.4311 83.9623 35.4432 84.2986 35.4432C85.9222 35.4432 87.4916 35.1598 88.973 34.5991C88.2419 38.5933 86.0566 40.8374 82.3158 41.4322C83.133 39.3951 83.4554 37.3738 83.2758 35.4076ZM88.973 16.2375C87.491 15.6767 85.9216 15.3934 84.298 15.3934C83.9617 15.3934 83.62 15.4054 83.2758 15.429C83.4554 13.463 83.133 11.4414 82.3158 9.40431C86.0566 9.99942 88.2419 12.2433 88.973 16.2375ZM95.0866 25.4184C92.3842 30.2149 88.6747 32.6616 84.0581 32.6918C84.4981 30.3892 84.0274 27.9463 82.6563 25.4184C84.0274 22.891 84.4981 20.4476 84.0581 18.1451C88.6753 18.1757 92.3842 20.6223 95.0866 25.4184ZM81.0718 33.2263C80.4016 33.5002 79.6911 33.6382 78.9558 33.6382C78.059 33.6382 77.0887 33.4319 76.0641 33.0233C76.9934 32.067 77.5961 31.0161 77.8607 29.8911C79.1306 29.527 80.1612 28.9434 80.9362 28.1519C81.6793 29.8749 81.7233 31.5425 81.0718 33.2263ZM70.8967 27.5549C68.9489 27.2174 67.7182 26.5175 67.1432 25.4184C67.7182 24.3193 68.9489 23.6194 70.8967 23.2817L71.227 23.2245L71.2433 22.8893C71.3288 21.1487 72.0183 19.9321 73.349 19.1789C74.6798 19.9321 75.3692 21.1487 75.4542 22.8893L75.4705 23.2245L75.8008 23.2817C77.7486 23.6194 78.9793 24.3193 79.5543 25.4184C78.9793 26.5175 77.7486 27.2174 75.8008 27.5549L75.4705 27.6124L75.4542 27.9475C75.3692 29.6886 74.6798 30.9047 73.349 31.6583C72.0183 30.9047 71.3288 29.6886 71.2433 27.9475L71.227 27.6124L70.8967 27.5549ZM73.349 47.1357C68.4016 44.1828 66.0276 40.592 66.1072 36.1763C66.6785 36.2794 67.2529 36.3312 67.82 36.3312C69.6655 36.3312 71.4765 35.8044 73.349 34.7211C75.221 35.8044 77.032 36.3312 78.8774 36.3312C79.4452 36.3312 80.0189 36.2794 80.5909 36.1763C80.6698 40.592 78.2959 44.1828 73.349 47.1357ZM80.5909 64.4297C80.0189 64.326 79.4446 64.2735 78.8769 64.2735C77.0314 64.2735 75.2204 64.8011 73.349 65.8851C71.4771 64.8011 69.666 64.2735 67.8206 64.2735C67.2529 64.2735 66.6785 64.326 66.1072 64.4297C66.0276 60.0135 68.4016 56.4226 73.349 53.4697C78.2959 56.4221 80.6698 60.0135 80.5909 64.4297ZM81.0718 67.3784C81.7233 69.0629 81.6793 70.7305 80.9362 72.4536C80.1612 71.662 79.1306 71.0784 77.8607 70.7142C77.5961 69.5892 76.9934 68.539 76.0641 67.5816C77.0887 67.1735 78.059 66.9673 78.9558 66.9673C79.6911 66.9673 80.4016 67.1053 81.0718 67.3784ZM83.2758 85.1758C83.62 85.1999 83.9623 85.212 84.2986 85.212C85.9222 85.212 87.4916 84.9286 88.973 84.3679C88.2419 88.3621 86.0566 90.6061 82.3158 91.2011C83.133 89.1634 83.4554 87.1418 83.2758 85.1758ZM88.973 66.0056C87.491 65.4456 85.9216 65.1616 84.298 65.1616C83.9617 65.1616 83.62 65.1743 83.2758 65.1978C83.4554 63.2317 83.133 61.2102 82.3158 59.1725C86.0566 59.7681 88.2419 62.0121 88.973 66.0056ZM95.0866 75.1871C92.3842 79.9837 88.6747 82.4303 84.0581 82.4604C84.4981 80.1573 84.0274 77.7144 82.6563 75.1871C84.0274 72.6592 84.4981 70.2162 84.0581 67.9132C88.6753 67.9439 92.3842 70.3911 95.0866 75.1871ZM81.0718 82.9952C80.4016 83.2689 79.6911 83.4069 78.9558 83.4069C78.059 83.4069 77.0887 83.2001 76.0641 82.792C76.9934 81.8352 77.5961 80.785 77.8607 79.6593C79.1306 79.2952 80.1612 78.7122 80.9362 77.92C81.6793 79.6431 81.7233 81.3107 81.0718 82.9952ZM73.349 96.9045C68.4016 93.9509 66.0276 90.3607 66.1072 85.9445C66.6785 86.0482 67.2529 86.1001 67.82 86.1001C69.6655 86.1001 71.4765 85.5725 73.349 84.4891C75.221 85.5725 77.032 86.1001 78.8774 86.1001C79.4452 86.1001 80.0189 86.0482 80.5909 85.9445C80.6698 90.3607 78.2959 93.9515 73.349 96.9045ZM65.6257 82.9952C64.9742 81.3107 65.0182 79.6431 65.7613 77.92C66.5363 78.7122 67.5669 79.2952 68.8367 79.6594C69.1019 80.785 69.704 81.8352 70.6333 82.792C69.6088 83.2001 68.6385 83.4069 67.7417 83.4069C67.0064 83.4069 66.2958 83.2689 65.6257 82.9952ZM63.4217 65.1978C63.0775 65.1743 62.7358 65.1616 62.3995 65.1616C60.7759 65.1616 59.2065 65.4456 57.7245 66.0056C58.4555 62.0121 60.6415 59.7681 64.3817 59.1725C63.5645 61.2103 63.2421 63.2317 63.4217 65.1978ZM57.7245 84.3679C59.2065 84.9286 60.7753 85.212 62.3995 85.212C62.7352 85.212 63.0775 85.1999 63.4217 85.1758C63.2421 87.1418 63.5645 89.1634 64.3817 91.2011C60.6415 90.6061 58.4555 88.3615 57.7245 84.3679ZM49.2821 91.4121C46.9786 91.3874 44.6312 90.4614 42.2982 88.6503C43.2155 86.8525 43.6916 84.9033 43.7151 82.8481C46.3452 80.8543 48.1762 78.7574 49.2821 76.4725C50.388 78.7574 52.2184 80.8543 54.8491 82.8481C54.872 84.9033 55.3481 86.8525 56.266 88.6503C53.933 90.4614 51.5856 91.3874 49.2821 91.4121ZM34.1819 91.2011C34.9991 89.1634 35.3216 87.1419 35.142 85.1758C35.4867 85.1999 35.829 85.212 36.1647 85.212C37.789 85.212 39.3577 84.9286 40.8391 84.3679C40.1087 88.3621 37.9228 90.6061 34.1819 91.2011ZM34.1819 59.1725C37.9227 59.7681 40.1087 62.0121 40.8391 66.0057C39.3571 65.4456 37.7884 65.1616 36.1641 65.1616C35.8284 65.1616 35.4861 65.1743 35.142 65.1978C35.3216 63.2317 34.9991 61.2103 34.1819 59.1725ZM34.523 75.1871C35.8935 72.6592 36.3642 70.2163 35.9249 67.9132C40.5414 67.944 44.2503 70.3911 46.9534 75.1871C44.2503 79.9837 40.5408 82.4303 35.9249 82.4604C36.3642 80.1574 35.8935 77.7144 34.523 75.1871ZM54.8491 67.5261C52.2184 69.5193 50.388 71.6162 49.2821 73.9011C48.1762 71.6162 46.3452 69.5193 43.7151 67.5261C43.6916 65.4703 43.2155 63.5211 42.2982 61.7239C44.6306 59.9128 46.978 58.9868 49.2821 58.9621C51.5856 58.9868 53.933 59.9128 56.266 61.7239C55.3481 63.5211 54.872 65.4709 54.8491 67.5261ZM64.0412 75.1871C62.6701 77.7144 62.2 80.1574 62.6394 82.4604C58.0228 82.4303 54.3133 79.9837 51.6109 75.1871C54.3133 70.3911 58.0222 67.944 62.6394 67.9132C62.2 70.2163 62.6701 72.6592 64.0412 75.1871ZM70.8967 73.0498L71.227 72.9926L71.2433 72.658C71.3288 70.9168 72.0183 69.7008 73.349 68.9472C74.6798 69.7008 75.3692 70.9168 75.4542 72.658L75.4705 72.9926L75.8008 73.0498C77.7486 73.3875 78.9793 74.0874 79.5543 75.1871C78.9793 76.2862 77.7486 76.9861 75.8008 77.3237L75.4705 77.381L75.4542 77.7156C75.3692 79.4568 74.6798 80.6728 73.349 81.4264C72.0183 80.6728 71.3288 79.4568 71.2433 77.7156L71.227 77.381L70.8967 77.3237C68.9489 76.9861 67.7182 76.2862 67.1432 75.1871C67.7182 74.0874 68.9489 73.3875 70.8967 73.0498ZM68.8367 70.7142C67.5669 71.0784 66.5363 71.662 65.7613 72.4536C65.0182 70.7305 64.9742 69.0629 65.6257 67.3784C66.2958 67.1053 67.0064 66.9673 67.7417 66.9673C68.6385 66.9673 69.6088 67.1735 70.6333 67.5816C69.704 68.539 69.1013 69.5892 68.8367 70.7142ZM64.3817 41.4322C60.6415 40.8374 58.4555 38.5928 57.7245 34.5991C59.2065 35.1598 60.7753 35.4432 62.3995 35.4432C62.7352 35.4432 63.0775 35.4311 63.4217 35.4076C63.2421 37.3738 63.5645 39.3951 64.3817 41.4322ZM64.0412 25.4184C62.6701 27.9463 62.2 30.3892 62.6393 32.6918C58.0228 32.6616 54.3133 30.2149 51.6109 25.4184C54.3133 20.6223 58.0222 18.1757 62.6393 18.1451C62.2 20.4476 62.6701 22.891 64.0412 25.4184ZM43.7151 33.0794C46.3452 31.0861 48.1762 28.9894 49.2821 26.7038C50.388 28.9887 52.2184 31.0861 54.8491 33.0794C54.872 35.1346 55.3481 37.0844 56.266 38.8815C53.933 40.6926 51.5856 41.6188 49.2821 41.6435C46.9786 41.6188 44.6312 40.6926 42.2982 38.8815C43.2155 37.0844 43.6916 35.1351 43.7151 33.0794ZM34.523 25.4184C35.8935 22.891 36.3642 20.4476 35.9248 18.1451C40.5414 18.1757 44.2503 20.6223 46.9534 25.4184C44.2503 30.2149 40.5408 32.6616 35.9248 32.6918C36.3642 30.3892 35.8935 27.9463 34.523 25.4184ZM39.7923 41.8573C41.6732 44.5023 42.6128 47.1972 42.5863 49.8742L42.5821 50.2967L45.4768 50.2967L45.4738 49.8747C45.4623 48.3933 44.9506 45.4086 43.6669 42.8232C45.0844 43.533 46.9672 44.2967 48.768 44.495L48.768 44.5607L49.2014 44.5452L49.2821 44.5379L49.3629 44.5452L49.7962 44.5607L49.7962 44.495C51.5964 44.2967 53.4792 43.533 54.8967 42.8232C53.6136 45.4086 53.1019 48.3933 53.0905 49.8747L53.0874 50.2967L55.9821 50.2967L55.9779 49.8742C55.9514 47.1972 56.891 44.5023 58.7719 41.8573C60.6686 43.2946 63.1113 44.1345 66.0415 44.3558C68.3829 47.1188 70.7141 49.0494 73.164 50.2538L73.2635 50.3028L73.164 50.3516C70.7141 51.5561 68.3829 53.4861 66.0415 56.2498C63.1113 56.4709 60.6686 57.3107 58.7719 58.748C56.891 56.103 55.9514 53.4089 55.9779 50.7314L55.9821 50.3087L53.0874 50.3087L53.0905 50.7302C53.1019 52.212 53.6136 55.1963 54.8967 57.7822C53.4792 57.0733 51.597 56.3086 49.7962 56.1103L49.7962 56.0447L49.3629 56.0609L49.2821 56.0675L49.2014 56.0609L48.768 56.0447L48.768 56.1103C46.9672 56.3086 45.0844 57.0733 43.6669 57.7822C44.9506 55.1963 45.4623 52.212 45.4738 50.7302L45.4768 50.3087L42.5821 50.3087L42.5863 50.7314C42.6128 53.4089 41.6732 56.103 39.7923 58.748C37.895 57.3107 35.4523 56.4709 32.5227 56.2498C30.1813 53.4861 27.8501 51.5561 25.3996 50.3516L25.3002 50.3028L25.3996 50.2538C27.8495 49.0494 30.1813 47.1188 32.5227 44.3559C35.4529 44.1345 37.8956 43.2946 39.7923 41.8573ZM27.6669 27.5549L27.3372 27.6124L27.3203 27.9475C27.2354 29.6886 26.5459 30.9047 25.2152 31.6583C23.8844 30.9047 23.195 29.6886 23.11 27.9475L23.0931 27.6124L22.7635 27.5549C20.815 27.2174 19.5843 26.5175 19.0094 25.4184C19.5843 24.3193 20.815 23.6194 22.7635 23.2817L23.0931 23.2245L23.11 22.8893C23.195 21.1487 23.8844 19.9321 25.2152 19.1789C26.5459 19.9321 27.2354 21.1487 27.3203 22.8893L27.3372 23.2245L27.6669 23.2817C29.6154 23.6194 30.846 24.3193 31.421 25.4184C30.846 26.5175 29.6154 27.2174 27.6669 27.5549ZM29.7269 29.8911C30.9967 29.5271 32.0279 28.9435 32.8023 28.1519C33.5461 29.8749 33.5895 31.5425 32.9386 33.2263C32.2684 33.5002 31.5572 33.6382 30.8225 33.6382C29.9251 33.6382 28.9548 33.4319 27.9309 33.0233C28.8596 32.067 29.4623 31.0161 29.7269 29.8911ZM32.8024 72.4536C32.0279 71.662 30.9967 71.0784 29.7269 70.7142C29.4623 69.5892 28.8596 68.539 27.9303 67.5816C28.9548 67.1735 29.9251 66.9673 30.8225 66.9673C31.5572 66.9673 32.2684 67.1053 32.9386 67.3784C33.5895 69.0629 33.5461 70.7305 32.8024 72.4536ZM27.6669 77.3238L27.3372 77.381L27.3203 77.7156C27.2354 79.4568 26.5459 80.6728 25.2152 81.4264C23.8844 80.6728 23.195 79.4568 23.11 77.7156L23.0931 77.381L22.7635 77.3238C20.815 76.9861 19.5843 76.2862 19.0094 75.1871C19.5843 74.0874 20.815 73.3875 22.7635 73.0498L23.0931 72.9926L23.11 72.658C23.195 70.9168 23.8844 69.7008 25.2152 68.9472C26.5459 69.7008 27.2354 70.9168 27.3203 72.658L27.3372 72.9926L27.6669 73.0498C29.6154 73.3875 30.846 74.0874 31.421 75.1871C30.846 76.2862 29.6154 76.9861 27.6669 77.3238ZM32.9386 82.9952C32.2684 83.2689 31.5572 83.4069 30.8225 83.4069C29.9251 83.4069 28.9548 83.2001 27.9309 82.792C28.8596 81.8352 29.4623 80.785 29.7269 79.6594C30.9967 79.2952 32.0279 78.7122 32.8024 77.92C33.5461 79.6431 33.5895 81.3107 32.9386 82.9952ZM32.5227 94.1246C35.4529 93.9027 37.8956 93.0635 39.7923 91.6256C41.6732 94.2711 42.6128 96.9654 42.5863 99.6428L42.5821 100.065L45.4768 100.065L45.4738 99.6434C45.4623 98.1621 44.9506 95.1766 43.6669 92.592C45.0844 93.301 46.9672 94.0655 48.768 94.2638L48.768 94.3295L49.2014 94.3133L49.2821 94.3066L49.3629 94.3133L49.7962 94.3295L49.7962 94.2638C51.5964 94.0655 53.4792 93.301 54.8967 92.592C53.6136 95.1766 53.1019 98.1621 53.0905 99.6434L53.0875 100.065L55.9821 100.065L55.9779 99.6428C55.9514 96.9654 56.891 94.2711 58.7719 91.6256C60.6686 93.0635 63.1113 93.9027 66.0415 94.1246C68.3829 96.8876 70.7141 98.8181 73.164 100.022L73.349 100.113L73.5335 100.022C75.9834 98.8181 78.3145 96.8876 80.6566 94.1246C83.5862 93.9027 86.0289 93.0635 87.9255 91.6256C89.8065 94.2711 90.7461 96.9654 90.7196 99.6428L90.7153 100.065L93.61 100.065L93.607 99.6434C93.5956 98.1621 93.0839 95.1766 91.8008 92.592C93.375 93.3794 95.5248 94.2415 97.4961 94.3133L97.9301 94.3295L97.9301 91.417L97.5112 91.417C95.177 91.417 92.797 90.4867 90.4321 88.6503C91.3494 86.8525 91.8255 84.9033 91.8484 82.8481C94.9106 80.5269 96.8922 78.0671 97.9042 75.3318L97.9578 75.1871L97.9042 75.0418C96.8922 72.3065 94.9106 69.8467 91.8484 67.5261C91.8255 65.4703 91.3494 63.5211 90.4321 61.7239C92.7964 59.8875 95.177 58.9572 97.5112 58.9572L97.93 58.9572L97.93 56.0447L97.4961 56.0609C95.5242 56.132 93.375 56.9949 91.8008 57.7822C93.0839 55.1963 93.5956 52.212 93.607 50.7302L93.61 50.3087L90.7153 50.3087L90.7196 50.7314C90.7461 53.4089 89.8065 56.103 87.9255 58.748C86.0289 57.3107 83.5862 56.4709 80.6566 56.2498C78.3145 53.4861 75.9834 51.5561 73.5335 50.3516L73.434 50.3028L73.5335 50.2538C75.9834 49.0494 78.3145 47.1188 80.6566 44.3558C83.5862 44.1345 86.0289 43.2946 87.9255 41.8573C89.8065 44.5023 90.7461 47.1972 90.7196 49.8742L90.7153 50.2967L93.61 50.2967L93.607 49.8747C93.5956 48.3933 93.0839 45.4086 91.8008 42.8232C93.375 43.6112 95.5248 44.4734 97.4961 44.5452L97.93 44.5607L97.93 41.6482L97.5112 41.6482C95.177 41.6482 92.797 40.718 90.4321 38.8815C91.3494 37.0844 91.8255 35.1351 91.8484 33.0794C94.9106 30.7587 96.8922 28.2989 97.9041 25.5637L97.9578 25.4184L97.9041 25.2731C96.8922 22.5377 94.9106 20.0779 91.8484 17.7574C91.8255 15.7022 91.3494 13.7529 90.4321 11.9551C92.7964 10.1193 95.177 9.18859 97.5112 9.18859L97.93 9.18859L97.93 6.27656L97.4961 6.29212C95.5242 6.36326 93.375 7.22612 91.8008 8.01343C93.0839 5.42829 93.5955 2.44326 93.607 0.961939L93.61 0.539915L90.7153 0.539915L90.7196 0.962645C90.7461 3.6401 89.8065 6.33498 87.9255 8.97921C86.0289 7.54197 83.5862 6.70214 80.6566 6.48149C78.3145 3.71782 75.9834 1.78809 73.5335 0.582776L73.349 0.492342L73.164 0.582776C70.7141 1.78809 68.3829 3.71782 66.0415 6.48149C63.1113 6.70215 60.6686 7.54198 58.7719 8.97921C56.891 6.33499 55.9514 3.6401 55.9779 0.962648L55.9821 0.539918L53.0874 0.539918L53.0904 0.961943C53.1019 2.44327 53.6136 5.4283 54.8967 8.01344C53.4792 7.30456 51.597 6.53985 49.7962 6.34156L49.7962 6.27657L49.3629 6.29212L49.2821 6.29893L49.2013 6.29212L48.768 6.27657L48.768 6.34156C46.9672 6.53985 45.0844 7.30456 43.6669 8.01344C44.9506 5.4283 45.4623 2.44327 45.4737 0.961943L45.4768 0.539919L42.5821 0.539919L42.5863 0.962649C42.6128 3.64011 41.6732 6.33499 39.7923 8.97921C37.895 7.54198 35.4523 6.70215 32.5227 6.48149C30.1813 3.71782 27.8501 1.78809 25.3996 0.58278L25.2152 0.492346L25.0308 0.58278C22.5803 1.7881 20.2491 3.71782 17.9076 6.48149C14.9774 6.70215 12.5353 7.54198 10.6381 8.97922C8.75713 6.33499 7.81754 3.64011 7.84466 0.962652L7.84886 0.539922L4.95358 0.539922L4.9566 0.961947C4.96806 2.44327 5.47971 5.4283 6.76283 8.01344C5.18922 7.22613 3.03945 6.36327 1.06747 6.29213L0.634148 6.27657L0.634148 9.1886L1.05241 9.1886C3.3872 9.1886 5.76721 10.1193 8.13213 11.9551C7.21425 13.7529 6.73811 15.7022 6.71522 17.7574C3.65299 20.0779 1.67198 22.5377 0.660082 25.2731L0.606432 25.4184L0.660082 25.5637C1.67138 28.2984 3.65299 30.7587 6.71522 33.0794C6.73812 35.1346 7.21425 37.0844 8.13214 38.8815C5.76722 40.718 3.3872 41.6482 1.05241 41.6482L0.634151 41.6482L0.634151 44.5607L1.06748 44.5452C3.03946 44.4734 5.18923 43.6112 6.76283 42.8232C5.47972 45.4086 4.96806 48.3933 4.95661 49.8747L4.95358 50.2967L7.84887 50.2967L7.84466 49.8742C7.81754 47.1972 8.75713 44.5023 10.6381 41.8573C12.5347 43.2946 14.9774 44.1345 17.9076 44.3559C20.2497 47.1188 22.5809 49.0494 25.0308 50.2538L25.1302 50.3028L25.0308 50.3516C22.5803 51.5561 20.2491 53.4861 17.9076 56.2498C14.9774 56.4709 12.5353 57.3107 10.6381 58.748C8.75713 56.103 7.81754 53.4089 7.84466 50.7314L7.84887 50.3087L4.95358 50.3087L4.95661 50.7302C4.96806 52.212 5.47972 55.1963 6.76283 57.7822C5.18923 56.9949 3.03946 56.132 1.06748 56.0609L0.634153 56.0447L0.634153 58.9572L1.05241 58.9572C3.3872 58.9572 5.76722 59.8875 8.13214 61.7239C7.21425 63.5211 6.73812 65.4709 6.71522 67.5261C3.65299 69.8467 1.67199 72.3065 0.660086 75.0418L0.606437 75.1871L0.660086 75.3318C1.67139 78.0671 3.65299 80.5269 6.71522 82.8481C6.73812 84.9033 7.21426 86.8525 8.13214 88.6503C5.76722 90.4867 3.38721 91.417 1.05241 91.417L0.634156 91.417L0.634156 94.3295L1.06748 94.3133C3.03946 94.2415 5.18923 93.3794 6.76283 92.592C5.47972 95.1766 4.96806 98.1621 4.95661 99.6434L4.95358 100.065L7.84887 100.065L7.84467 99.6428C7.81754 96.9654 8.75713 94.2711 10.6381 91.6256C12.5347 93.0635 14.9774 93.9027 17.9076 94.1246C20.2497 96.8876 22.5809 98.8181 25.0308 100.022L25.2152 100.113L25.3996 100.022C27.8495 98.8181 30.1813 96.8876 32.5227 94.1246Z" fill="white"/>
</svg>
