<svg width="20" height="20" viewBox="0 0 20 20" fill="none" xmlns="http://www.w3.org/2000/svg">
<path d="M14.1663 5C12.788 5 11.6663 3.87833 11.6663 2.5C11.6663 1.12167 12.788 0 14.1663 0C15.5447 0 16.6663 1.12167 16.6663 2.5C16.6663 3.87833 15.5447 5 14.1663 5ZM14.1663 20C12.788 20 11.6663 18.8783 11.6663 17.5C11.6663 16.1217 12.788 15 14.1663 15C15.5447 15 16.6663 16.1217 16.6663 17.5C16.6663 18.8783 15.5447 20 14.1663 20ZM14.1663 12.5C12.788 12.5 11.6663 11.3783 11.6663 10C11.6663 8.62167 12.788 7.5 14.1663 7.5C15.5447 7.5 16.6663 8.62167 16.6663 10C16.6663 11.3783 15.5447 12.5 14.1663 12.5ZM5.83301 5C4.45467 5 3.33301 3.87833 3.33301 2.5C3.33301 1.12167 4.45467 0 5.83301 0C7.21134 0 8.33301 1.12167 8.33301 2.5C8.33301 3.87833 7.21134 5 5.83301 5ZM5.83301 20C4.45467 20 3.33301 18.8783 3.33301 17.5C3.33301 16.1217 4.45467 15 5.83301 15C7.21134 15 8.33301 16.1217 8.33301 17.5C8.33301 18.8783 7.21134 20 5.83301 20ZM5.83301 12.5C4.45467 12.5 3.33301 11.3783 3.33301 10C3.33301 8.62167 4.45467 7.5 5.83301 7.5C7.21134 7.5 8.33301 8.62167 8.33301 10C8.33301 11.3783 7.21134 12.5 5.83301 12.5Z" fill="white"/>
</svg>
