<svg width="70" height="70" viewBox="0 0 70 70" fill="none" xmlns="http://www.w3.org/2000/svg">
<path opacity="0.5" d="M37.916 5.8335H32.0827C26.583 5.8335 23.8331 5.8335 22.1246 7.54204C20.416 9.25058 20.416 12.0004 20.416 17.5002V23.3335H49.5827V17.5002C49.5827 12.0004 49.5827 9.25058 47.8741 7.54204C46.1656 5.8335 43.4157 5.8335 37.916 5.8335Z" fill="#009990"/>
<path fill-rule="evenodd" clip-rule="evenodd" d="M29.166 17.5H40.8327C49.0823 17.5 53.2071 17.5 55.7699 20.0628C58.3327 22.6256 58.3327 26.7504 58.3327 35V38.0792C58.3327 45.0956 58.3327 48.6039 56.5903 51.4231C54.8479 54.2424 51.71 55.8113 45.4343 58.9492C40.3138 61.5095 37.7535 62.7896 34.9993 62.7896C32.2452 62.7896 29.6849 61.5095 24.5644 58.9492C18.2887 55.8113 15.1508 54.2424 13.4084 51.4231C11.666 48.6039 11.666 45.0956 11.666 38.0792V35C11.666 26.7504 11.666 22.6256 14.2288 20.0628C16.7916 17.5 20.9164 17.5 29.166 17.5ZM34.9993 29.1667C34.1708 29.1667 33.6167 30.1608 32.5084 32.149L32.2216 32.6634C31.9067 33.2284 31.7492 33.5109 31.5037 33.6972C31.2581 33.8836 30.9523 33.9528 30.3407 34.0912L29.7839 34.2172C27.6317 34.7042 26.5556 34.9476 26.2996 35.7709C26.0436 36.5942 26.7772 37.4521 28.2444 39.1679L28.624 39.6117C29.041 40.0993 29.2494 40.3431 29.3432 40.6447C29.437 40.9463 29.4055 41.2715 29.3425 41.922L29.2851 42.5143C29.0632 44.8034 28.9523 45.948 29.6226 46.4569C30.2929 46.9657 31.3004 46.5018 33.3156 45.5739L33.8369 45.3339C34.4095 45.0702 34.6959 44.9384 34.9993 44.9384C35.3028 44.9384 35.5892 45.0702 36.1618 45.3339L36.6831 45.5739C38.6983 46.5018 39.7058 46.9657 40.3761 46.4569C41.0464 45.948 40.9355 44.8034 40.7136 42.5143L40.6562 41.922C40.5932 41.2715 40.5617 40.9463 40.6555 40.6447C40.7493 40.3431 40.9577 40.0993 41.3746 39.6118L41.7543 39.1679C43.2215 37.4521 43.9551 36.5942 43.6991 35.7709C43.4431 34.9476 42.367 34.7042 40.2148 34.2172L39.6579 34.0912C39.0464 33.9528 38.7406 33.8836 38.495 33.6972C38.2495 33.5109 38.092 33.2284 37.7771 32.6634L37.4903 32.149C36.382 30.1608 35.8279 29.1667 34.9993 29.1667Z" fill="#009990"/>
</svg>
