<svg width="70" height="70" viewBox="0 0 70 70" fill="none" xmlns="http://www.w3.org/2000/svg">
<path opacity="0.5" d="M64.1673 35.0002C64.1673 51.1085 51.109 64.1668 35.0007 64.1668C18.8923 64.1668 5.83398 51.1085 5.83398 35.0002C5.83398 18.8919 18.8923 5.8335 35.0007 5.8335C51.109 5.8335 64.1673 18.8919 64.1673 35.0002Z" fill="#009990"/>
<path d="M26.9785 34.9998C26.9785 33.7917 27.9579 32.8123 29.166 32.8123H32.8118V29.1665C32.8118 27.9584 33.7912 26.979 34.9993 26.979C36.2075 26.979 37.1868 27.9584 37.1868 29.1665V32.8123H40.8327C42.0408 32.8123 43.0202 33.7917 43.0202 34.9998C43.0202 36.208 42.0408 37.1873 40.8327 37.1873H37.1868V40.8332C37.1868 42.0413 36.2075 43.0207 34.9993 43.0207C33.7912 43.0207 32.8118 42.0413 32.8118 40.8332V37.1873H29.166C27.9579 37.1873 26.9785 36.208 26.9785 34.9998Z" fill="#009990"/>
<path d="M5.91478 37.1877C5.86123 36.4655 5.83398 35.736 5.83398 35.0002C5.83398 34.2643 5.86123 33.5348 5.91478 32.8127H14.584C15.7921 32.8127 16.7715 33.792 16.7715 35.0002C16.7715 36.2083 15.7921 37.1877 14.584 37.1877H5.91478Z" fill="#009990"/>
<path d="M37.1881 64.086C36.466 64.1396 35.7365 64.1668 35.0006 64.1668C34.2648 64.1668 33.5353 64.1396 32.8132 64.086V55.4168C32.8132 54.2087 33.7925 53.2293 35.0006 53.2293C36.2088 53.2293 37.1881 54.2087 37.1881 55.4168V64.086Z" fill="#009990"/>
<path d="M64.0865 32.8127C64.1401 33.5348 64.1673 34.2643 64.1673 35.0002C64.1673 35.736 64.1401 36.4655 64.0865 37.1877H55.4173C54.2092 37.1877 53.2298 36.2083 53.2298 35.0002C53.2298 33.792 54.2092 32.8127 55.4173 32.8127H64.0865Z" fill="#009990"/>
<path d="M37.1881 5.91429V14.5835C37.1881 15.7916 36.2088 16.771 35.0006 16.771C33.7925 16.771 32.8132 15.7916 32.8132 14.5835V5.91429C33.5353 5.86075 34.2648 5.8335 35.0006 5.8335C35.7365 5.8335 36.466 5.86075 37.1881 5.91429Z" fill="#009990"/>
</svg>
