<svg width="120" height="120" viewBox="0 0 120 120" fill="none" xmlns="http://www.w3.org/2000/svg">
<path fill-rule="evenodd" clip-rule="evenodd" d="M-5.24082e-06 0.103912L5.92722 0.103912L6.03118 0.207817C8.83882 5.08691 11.3345 7.88937 17.7816 8.61622C18.1974 12.4552 21.8343 16.6059 25.6801 17.1275C25.6709 16.8949 25.6667 16.6637 25.6674 16.4351C25.6207 3.30579 41.6275 -2.97378 49.4974 5.0869C51.54 7.21827 52.5878 10.3431 52.5761 13.3524C52.5921 17.1219 50.9496 20.7313 47.5217 22.0071C40.1387 24.8101 37.1231 19.7237 37.1231 16.0905L37.1233 16.0474L37.123 15.9866C37.123 12.7685 41.2825 6.22837 44.1941 11.2114C44.4796 11.6959 44.6084 12.1724 44.5975 12.6174C44.6271 13.841 43.6146 14.8456 41.9064 15.1558C41.8239 15.4118 41.7826 15.649 41.7769 15.8659C41.8347 18.01 45.487 18.087 46.7938 15.5709C47.3954 14.4158 47.6881 13.4456 47.6993 12.5784C47.6855 11.5418 47.2636 10.6503 46.4818 9.75818C40.9854 3.17399 30.6471 7.7069 30.6094 16.9699C30.6146 18.1919 30.7986 19.4951 31.1958 20.8651C35.4592 35.7097 51.9931 32.3877 51.9931 32.3877C51.9931 32.3877 54.4887 35.5019 55.4246 36.1248L55.3186 36.1527C55.3558 36.1811 55.3912 36.2064 55.4246 36.2287C44.0901 39.239 29.4281 35.7097 26.7244 22.63C26.7244 22.63 14.0885 19.7587 14.1398 11.5692L14.141 11.4765L14.1421 11.4192C9.49165 12.2631 5.52873 7.06724 2.36513 2.91955C1.63807 1.96613 0.953222 1.06847 0.311941 0.311722L-5.24082e-06 0.103912ZM22.149 0.104415L22.0451 0.103911L11.5425 0.103912C11.6231 0.239753 11.7078 0.373565 11.7963 0.505851C13.8535 3.5805 17.964 5.6404 21.7237 2.68639C21.6856 3.6322 21.6043 7.80371 22.9809 10.2772L23.0033 10.224C23.0299 10.2772 23.0572 10.3294 23.0849 10.3811C25.1032 5.50659 28.222 3.72446 30.4763 2.43651C31.8226 1.66708 32.8605 1.07405 33.1716 0.103911L33.0676 0.104414L28.2842 0.103911L28.1802 0.104415C27.8683 0.62345 26.6204 2.38785 25.1647 2.38785C23.7088 2.38785 22.357 0.62345 22.149 0.104415ZM50.6413 0.10391L51.0205 0.10391L50.8492 -2.22269e-06L56.4645 -2.46814e-06L56.4645 0.10391L56.9844 1.76491C56.9844 1.76491 58.8561 1.5571 63.0156 3.52981C67.175 5.60594 69.1508 11.1075 69.1508 11.1075L69.1112 11.1064L69.1508 11.2114L65.3033 11.1075C65.3033 11.1075 62.8076 7.99328 60.104 6.74791C58.0401 5.7509 55.8909 5.43461 54.6663 5.25468C53.9782 5.1533 53.582 5.09501 53.6569 4.983C53.6646 4.97286 53.6719 4.9612 53.6787 4.94954C53.6475 4.92826 53.6395 4.90494 53.6568 4.87909C53.7138 4.80306 53.743 4.68547 53.7483 4.53747C53.7259 3.85117 53.2861 2.65142 52.721 1.76491C52.0971 0.830755 51.0572 0.207815 50.6413 0.10391ZM74.3501 0.104413L74.2461 0.103909L67.799 0.103909L67.8266 0.134824L67.8312 0.139897C68.2777 0.637639 73.2015 6.12497 73.1022 6.12497L78.1976 6.22888L78.1283 6.12142L78.3015 6.12497L74.3501 0.104413ZM42.3224 37.3707L42.2664 37.3555C42.3013 37.2957 42.3223 37.2668 42.3223 37.2668L37.747 36.0209L37.747 36.1248L37.7083 36.579C37.576 38.4828 37.484 39.8072 37.487 40.9588C37.4819 43.1779 37.8171 44.7223 38.8738 48.4184C37.9895 50.7317 37.0852 52.3628 36.2914 53.7947C35.3161 55.5535 34.5075 57.0118 34.1074 59.0661C33.7784 60.7697 33.6649 62.3105 33.6681 63.8053C33.6654 65.4932 33.8139 67.1182 33.9718 68.8456C34.1476 70.7686 34.335 72.8189 34.3385 75.2255C34.3361 78.4 34.0115 82.1949 32.9216 87.1267L32.6516 87.405L32.8705 87.3563L32.8596 87.405L32.8893 87.3761L32.8596 87.5089L33.0603 87.3147C41.7374 85.4196 46.8846 85.8879 51.3471 86.2949C54.577 86.5889 57.4483 86.8505 61.0398 86.1591C63.0977 85.7597 64.5585 84.9528 66.3205 83.9791L66.3246 83.9775C67.7669 83.1797 69.4114 82.2714 71.7504 81.3844C77.3896 82.9922 78.0554 82.9461 83.5689 82.5644L84.1248 82.5259L82.8769 77.9585C82.8769 77.9585 81.0052 79.3083 76.4298 78.3736C72.3333 77.4557 69.9171 75.7324 69.3975 75.3618C69.2708 75.2716 69.2568 75.2615 69.3587 75.3634C66.6551 78.9966 63.6395 80.4498 60.8319 80.7615C54.2746 81.4888 50.2064 81.2055 46.2627 80.9303L46.2459 80.9287C44.1253 80.7812 42.0397 80.6363 39.6214 80.653L39.6216 80.6241C39.6232 80.4477 39.6247 80.2729 39.6244 80.1C39.6257 77.8257 39.4867 75.8383 39.3454 73.8179C39.2015 71.7601 39.0553 69.6667 39.0524 67.2038C39.0536 64.9802 39.1724 62.453 39.5147 59.3773C39.8267 56.5749 41.2825 53.5641 44.922 50.8655C45.024 50.9674 45.014 50.9532 44.9233 50.8265L44.8926 50.7834L44.922 50.7616C45.024 50.8635 45.014 50.8493 44.9233 50.7226C44.5517 50.2036 42.8259 47.7914 41.9064 43.7025C41.671 42.5534 41.5803 41.5747 41.5765 40.754C41.5867 38.387 42.3224 37.3707 42.3224 37.3707ZM61.3518 23.9793L64.1595 20.5539L64.0887 20.5362L64.1594 20.45C64.1594 20.45 56.9844 18.5817 50.7452 21.4881C44.922 24.0832 39.9307 30.7272 39.9307 30.7272L40.1613 30.8002L40.1387 30.8306L44.4021 32.1804C47.0017 29.4814 49.1854 27.4052 51.6811 26.0554C54.1768 24.4983 57.1924 23.772 61.3518 23.9793ZM55.3844 19.5828L55.3759 19.5843C53.8365 19.7936 52.4587 19.9807 52.409 19.931C52.409 19.931 52.4316 19.8975 52.4764 19.8352C52.4377 19.8352 52.4147 19.8326 52.409 19.8271C52.409 19.8271 57.4003 12.4567 65.8232 12.1455C71.0225 11.9377 74.2461 14.2216 74.2461 14.2216L74.2461 14.3256L74.3501 19.931L74.3501 20.0349C72.3744 18.5817 69.7747 17.4397 67.1751 17.1285C64.3674 16.6095 61.3518 17.751 59.4801 19.1007C58.9377 19.1007 57.0661 19.3547 55.3844 19.5828ZM67.799 25.952L67.8311 25.9008L67.7989 25.8476L70.0867 22.2144C70.0867 22.2144 77.2617 26.0554 77.7816 35.6058C77.7999 35.9697 77.8085 36.321 77.8075 36.6626C77.8181 40.273 76.7696 42.6943 74.662 45.4674C74.5307 45.6433 74.3952 45.8146 74.2557 45.9814C74.4214 45.841 74.5914 45.7041 74.766 45.5708C77.7816 43.2874 80.3813 42.2493 84.5407 42.4566C94.1075 42.9756 97.955 50.1387 97.955 50.1387L94.3154 52.4221C93.7921 52.1149 93.1866 51.5802 92.4884 50.9633C90.8282 49.4965 88.6433 47.5663 85.7886 47.1279C82.773 46.6089 78.0936 47.6469 77.5737 52.6299C77.0537 57.9241 82.773 53.8753 82.357 51.6958C82.877 51.1767 85.8926 61.2456 77.2617 61.6607C81.4659 64.0592 81.0685 69.9201 80.8593 73.0049L80.8589 73.011L80.8379 73.3237L80.8179 73.641C80.7965 74.0055 80.7854 74.3086 80.7972 74.5331C76.9514 74.9482 71.1314 73.1848 69.6726 69.1401C69.6788 69.1745 69.6554 69.4229 68.6308 71.0033C66.3983 74.3765 61.7499 74.674 56.6766 74.9989C53.0068 75.2336 49.1147 75.4825 45.7539 76.9205C45.9835 74.6857 49.636 72.9882 53.5968 71.1478L53.6021 71.1447C56.8144 69.652 60.2285 68.0655 62.1837 66.0208C65.031 63.0313 66.6268 59.3479 68.1637 55.8004C69.4736 52.7769 70.7407 49.8523 72.7034 47.54C70.4153 49.4899 67.4934 50.7515 64.4745 52.0546C60.9187 53.5899 57.2284 55.1835 54.2808 58.028C52.2312 59.981 50.6408 63.3917 49.1448 66.6002C47.3012 70.5542 45.6011 74.2001 43.3622 74.4292L43.4086 74.3202L43.3622 74.3253C44.8026 70.9704 45.0521 67.0847 45.2873 63.4211C45.6125 58.357 45.9105 53.7166 49.2894 51.4879C50.3254 50.8184 50.7899 50.5771 50.997 50.492C47.4219 49.0859 45.6793 44.2545 45.6947 40.5412C45.6927 40.126 45.7125 39.7246 45.7539 39.3424C46.0969 39.3607 46.6219 39.3257 47.2703 39.2821L47.2845 39.2806C50.3746 39.0718 56.2458 38.6749 58.6482 42.8722C59.0641 34.256 69.1508 37.2663 68.6308 37.7853L68.6243 37.7843C68.656 37.8254 68.6593 37.8614 68.6308 37.8897C67.2546 37.6277 65.1761 39.7986 65.1289 41.3101C65.1562 42.1434 65.8485 42.745 67.695 42.5605C71.9144 42.1216 73.31 38.7154 73.3267 35.8542C73.3251 35.5805 73.311 35.3123 73.2855 35.0528C73.2657 34.8506 73.2391 34.6539 73.2062 34.4638C72.6971 31.6325 70.7636 29.4606 69.2915 27.8072C68.6589 27.0971 68.1115 26.4822 67.799 25.952ZM62.5997 30.8306L58.4402 29.5853L58.5225 29.5057L58.4402 29.4808C58.4402 29.4808 65.4073 22.8374 65.4073 17.8549L69.2547 17.9588L69.2403 18.0622L69.2548 18.0627C68.4229 24.0832 66.4471 26.5745 62.5997 30.8306ZM51.0572 27.9243L51.0835 27.9141L51.0572 27.8198L55.6326 26.0554C55.6326 26.0554 55.5286 30.6228 60.7279 31.557C64.2455 32.1155 66.9026 30.2812 68.0377 29.4976C68.379 29.2619 68.5827 29.1215 68.6308 29.1696L71.4385 32.2838L71.3902 32.334L71.4385 32.3877C65.4073 38.72 53.6569 37.3707 51.0572 27.9243ZM74.1421 23.8759L74.1626 23.8055L74.1421 23.772C74.1421 23.772 74.974 20.969 75.3899 17.751C75.8059 14.3256 75.8059 10.4845 75.8059 10.4845L79.5446 11.9362C79.5244 11.9306 79.5155 11.9625 79.515 12.0284L79.5446 12.0396C79.5289 12.0355 79.5201 12.0533 79.5166 12.0923C79.5219 12.2084 79.5407 12.3873 79.5659 12.6235C79.6358 13.2799 79.7528 14.3773 79.7502 15.7899C79.7527 16.9167 79.6803 18.2497 79.4454 19.7237C78.7175 24.6023 76.6378 27.9243 76.6378 27.9243L74.1421 23.8759ZM95.0433 15.1558C93.8046 15.7265 91.6053 16.9947 91.5662 18.5609C91.5674 18.6065 91.5707 18.6527 91.5761 18.6988C91.5837 18.7632 91.5955 18.828 91.6118 18.8929C92.2357 21.1763 94.5234 22.7334 94.5234 22.7334L94.351 22.7122C94.4598 22.7948 94.5234 22.8379 94.5234 22.8379L88.7002 22.111C87.7643 26.3672 84.6447 28.0282 80.5893 28.6506L80.7203 28.5259L80.5893 28.5467C83.675 25.6423 84.5183 23.0365 85.2342 20.8241C86.205 17.8239 86.9417 15.5471 92.7175 14.2303L91.9237 12.2494L90.7799 10.0694C85.9051 13.4938 83.7123 12.5373 80.7947 11.2646C78.6711 10.338 76.1635 9.24422 71.9584 9.55037L72.096 9.43683L71.9584 9.44646C75.078 6.85131 78.4055 5.60543 82.1491 7.78546L85.4766 3.01027C85.4766 3.01027 85.47 3.05488 85.4611 3.13699L85.4766 3.11469C85.4766 3.11469 85.4602 3.22519 85.4445 3.4183C85.4309 3.58506 85.4178 3.81264 85.4164 4.08331C85.4222 5.07981 85.5907 6.58672 86.4125 7.78546C87.4523 9.34255 90.3639 8.30449 91.7158 7.78546C92.4437 10.4845 93.5875 12.9758 95.0433 15.0519L94.9886 15.0772L95.0433 15.1558ZM82.0451 37.6814L82.1491 37.578L82.1539 37.5643L82.461 30.3116L82.461 30.2077L85.7886 28.1316L87.015 33.406L92.0277 34.5672L89.948 37.8892L82.1491 37.6819L82.0451 37.6814ZM61.1438 41.1073C60.8396 41.2158 60.6716 41.5463 60.6588 41.9903C60.7 43.6726 62.8307 46.7528 67.9755 45.9236C65.2084 45.1597 63.869 43.4891 62.9324 42.3208C62.2548 41.4753 61.788 40.8929 61.1438 41.1073ZM49.4037 57.0483C49.4409 55.3133 51.3471 52.3643 56.3333 52.7151C53.6937 53.7095 52.5074 55.5069 51.6781 56.7639C51.0762 57.6763 50.6624 58.3033 50.0173 58.1314C49.6361 58.0301 49.4165 57.6124 49.4037 57.0483ZM51.4731 43.2874C51.0865 43.4977 50.887 43.9189 50.8751 44.4547C50.9331 47.1005 55.3326 52.2614 64.1294 49.2861C59.4038 48.8081 56.7124 46.4233 54.8283 44.7542C53.4334 43.5185 52.4809 42.6751 51.4731 43.2874ZM120 108.581C116.776 106.505 114.593 102.353 117.712 98.5119C117.712 98.5119 107.522 99.55 109.913 97.2666C112.927 94.3095 115.448 91.7934 117.215 90.029C118.985 88.2621 120 87.2489 120 87.3011L120 92.0757L120 92.1802C120 92.1802 117.608 93.5294 117.608 95.2943C117.608 96.7414 119.217 97.9093 119.796 98.2828L119.792 98.2007C119.842 98.2499 119.891 98.2757 119.93 98.2894C119.972 98.3041 120 98.3041 120 98.3041L120 98.4085L120 102.664L120 108.581ZM111.577 102.457C112.305 108.893 115.113 111.384 120 114.187L120 120C119.242 119.36 118.343 118.677 117.388 117.951C113.233 114.793 108.028 110.837 108.873 106.194C100.555 106.401 97.643 93.6333 97.643 93.6333C84.5407 90.9343 81.0052 76.4014 84.0208 64.8788C84.6447 65.813 87.7643 68.3047 87.7643 68.3047C87.7643 68.3047 84.4367 84.8098 99.3067 89.066C111.161 92.4914 118.024 80.0346 110.537 73.8063C108.873 72.3531 107.21 72.1453 104.61 73.495C101.802 74.9482 102.218 79.3078 105.13 78.3736C105.546 76.0902 107.21 75.0521 108.977 76.0902C113.969 78.9966 107.418 83.1488 104.194 83.1488C100.555 83.1488 95.4593 80.1385 98.2669 72.7682C100.555 66.6437 110.329 66.2286 115.113 70.796C123.328 78.7888 116.672 95.1904 103.05 94.5675C103.57 98.4085 107.73 102.042 111.577 102.457ZM99.7227 56.1592L96.2911 58.9622C96.4991 63.0105 95.7712 66.0208 94.2114 68.7199C92.8596 71.2111 90.7799 73.3911 88.0762 75.9863L89.4281 80.2424C89.4281 80.2424 96.0832 75.26 98.6828 69.5506C101.594 63.3222 99.7227 56.1592 99.7227 56.1592ZM120 63.7369L118.44 63.3217C118.44 63.3217 118.648 61.4534 116.672 57.3012C114.593 53.1489 109.081 51.1762 109.081 51.1762L109.185 55.0173C109.185 55.0173 112.305 57.5085 113.553 60.2076C114.551 62.268 114.868 64.4135 115.049 65.6361C115.15 66.3229 115.208 66.7182 115.321 66.6437C115.737 66.332 117.4 66.8511 118.544 67.5779C119.584 68.2008 119.792 69.4462 119.792 69.5501L119.792 69.7574C119.792 69.6535 119.896 69.4462 120 69.2384L120 67.0589L120 63.8403L120 63.7369ZM100.694 64.8246C100.923 63.1438 101.179 61.2694 101.179 60.7271C102.53 58.9622 103.674 55.9519 103.154 53.045C102.842 50.4499 101.698 47.8547 100.243 45.8825L105.962 45.9864C105.962 45.9864 108.25 49.2045 108.042 54.3948C107.73 62.8032 100.347 67.7857 100.347 67.7857C100.297 67.736 100.484 66.3609 100.694 64.8246ZM74.2461 52.1109C72.9983 58.9622 78.6135 60.6227 79.1335 59.1695C79.3482 58.5263 78.7648 58.0605 77.9181 57.3843C76.7145 56.4228 74.9786 55.036 74.2461 52.1109ZM67.487 63.7369C68.1109 70.6921 62.3917 71.8341 61.9757 70.277C61.8012 69.58 62.4509 69.1573 63.3868 68.548C64.6807 67.7056 66.5215 66.5079 67.487 63.7369ZM70.9186 55.9514C67.0711 66.8511 75.7019 71.1072 76.9497 68.8238C77.5673 67.767 76.7066 66.8034 75.4551 65.4024C73.7564 63.5007 71.3377 60.793 70.9186 55.9514ZM90.6759 61.8686L89.4281 57.7163C93.6915 53.7719 96.1872 51.9031 102.218 51.0728L102.322 54.9133C97.331 54.9133 90.6759 61.8686 90.6759 61.8686ZM94.1075 64.6715L92.3397 69.2389C82.8769 66.6437 81.5251 54.9139 87.8683 48.8928L90.9879 51.6958C91.0359 51.7439 90.8952 51.9472 90.6593 52.2878C89.8745 53.4201 88.0365 56.0731 88.5962 59.5851C89.636 64.7754 94.1075 64.6715 94.1075 64.6715ZM96.3951 46.1937L92.3397 43.7025C92.3397 43.7025 95.6672 41.5225 100.555 40.8995C103.816 40.382 106.39 40.6552 107.562 40.7794L107.576 40.7809C107.714 40.7956 107.832 40.8078 107.929 40.8164L108.012 40.8235C108.056 40.827 108.095 40.8291 108.128 40.8296C108.215 40.8316 108.258 40.8235 108.251 40.8002L109.705 44.5327C109.705 44.5327 105.858 44.5327 102.426 44.9479C99.2028 45.3635 96.3951 46.1937 96.3951 46.1937ZM114.073 42.0415L114.177 47.1279L119.792 52.526L120 52.3182L120 49.5157L120 45.8825L114.073 42.0415ZM112.409 33.9448C110.849 32.8028 111.993 29.6887 112.513 28.4428C109.809 27.7164 107.314 26.5745 105.234 25.2252C104.61 26.4706 103.05 29.2735 101.282 28.7545C98.9948 28.1316 97.435 25.8476 97.435 25.8476L98.1629 31.6609C93.8995 32.595 92.2357 35.7092 91.6118 39.7581C94.5212 36.6778 97.1316 35.8359 99.348 35.1212C102.36 34.1496 104.644 33.4131 105.962 27.6125L108.042 28.4428L110.225 29.5848C106.795 34.4512 107.753 36.6403 109.028 39.5528C109.956 41.6725 111.052 44.1759 110.745 48.3738C113.345 45.2596 114.593 41.9376 112.409 38.201L117.192 34.879C117.192 34.879 114.385 35.2941 112.409 33.9448Z" fill="#EAECF2"/>
</svg>
