<svg width="120" height="240" viewBox="0 0 120 240" fill="none" xmlns="http://www.w3.org/2000/svg">
<g opacity="0.1">
<path fill-rule="evenodd" clip-rule="evenodd" d="M120 120.104L114.073 120.104L113.969 120.208C111.161 125.087 108.666 127.889 102.218 128.616C101.803 132.455 98.1657 136.606 94.3199 137.128C94.3291 136.895 94.3333 136.664 94.3326 136.435C94.3793 123.306 78.3725 117.026 70.5026 125.087C68.46 127.218 67.4122 130.343 67.4239 133.352C67.4079 137.122 69.0504 140.731 72.4783 142.007C79.8614 144.81 82.8769 139.724 82.8769 136.091L82.8767 136.047L82.877 135.987C82.877 132.769 78.7175 126.228 75.8059 131.211C75.5204 131.696 75.3916 132.172 75.4025 132.617C75.3729 133.841 76.3854 134.846 78.0936 135.156C78.1761 135.412 78.2174 135.649 78.2231 135.866C78.1653 138.01 74.513 138.087 73.2062 135.571C72.6046 134.416 72.3119 133.446 72.3007 132.578C72.3145 131.542 72.7364 130.65 73.5182 129.758C79.0146 123.174 89.3529 127.707 89.3906 136.97C89.3854 138.192 89.2014 139.495 88.8042 140.865C84.5408 155.71 68.0069 152.388 68.0069 152.388C68.0069 152.388 65.5113 155.502 64.5754 156.125L64.6814 156.153C64.6442 156.181 64.6088 156.207 64.5754 156.229C75.9099 159.239 90.5719 155.71 93.2756 142.63C93.2756 142.63 105.911 139.759 105.86 131.569L105.859 131.477L105.858 131.419C110.508 132.263 114.471 127.067 117.635 122.92C118.362 121.966 119.047 121.069 119.688 120.312L120 120.104ZM97.851 120.104L97.9549 120.104L108.458 120.104C108.377 120.24 108.292 120.374 108.204 120.506C106.147 123.581 102.036 125.64 98.2763 122.686C98.3144 123.632 98.3957 127.804 97.0191 130.277L96.9967 130.224C96.9701 130.277 96.9428 130.329 96.9151 130.381C94.8968 125.507 91.778 123.725 89.5237 122.437C88.1774 121.667 87.1395 121.074 86.8284 120.104L86.9324 120.104L91.7158 120.104L91.8198 120.104C92.1317 120.624 93.3796 122.388 94.8353 122.388C96.2912 122.388 97.643 120.624 97.851 120.104ZM69.3587 120.104L68.9795 120.104L69.1508 120L63.5355 120L63.5355 120.104L63.0156 121.765C63.0156 121.765 61.1439 121.557 56.9844 123.53C52.825 125.606 50.8492 131.108 50.8492 131.108L50.8888 131.107L50.8492 131.211L54.6967 131.108C54.6967 131.108 57.1924 127.993 59.896 126.748C61.9599 125.751 64.1091 125.435 65.3337 125.255C66.0218 125.153 66.418 125.095 66.3432 124.983C66.3354 124.973 66.3281 124.961 66.3214 124.95C66.3525 124.928 66.3605 124.905 66.3432 124.879C66.2862 124.803 66.257 124.686 66.2517 124.538C66.2741 123.851 66.7139 122.651 67.279 121.765C67.9029 120.831 68.9428 120.208 69.3587 120.104ZM45.6499 120.104L45.7539 120.104L52.201 120.104L52.1734 120.135L52.1688 120.14C51.7223 120.638 46.7985 126.125 46.8978 126.125L41.8024 126.229L41.8717 126.121L41.6985 126.125L45.6499 120.104ZM77.6776 157.371L77.7336 157.356C77.6987 157.296 77.6777 157.267 77.6777 157.267L82.2531 156.021L82.2531 156.125L82.2917 156.579C82.424 158.483 82.516 159.807 82.513 160.959C82.5181 163.178 82.1829 164.722 81.1262 168.418C82.0105 170.732 82.9148 172.363 83.7086 173.795C84.6839 175.554 85.4925 177.012 85.8926 179.066C86.2216 180.77 86.3351 182.311 86.332 183.805C86.3346 185.493 86.1861 187.118 86.0282 188.846C85.8525 190.769 85.665 192.819 85.6615 195.226C85.6639 198.4 85.9885 202.195 87.0784 207.127L87.3484 207.405L87.1295 207.356L87.1404 207.405L87.1107 207.376L87.1404 207.509L86.9397 207.315C78.2626 205.42 73.1154 205.888 68.6529 206.295C65.423 206.589 62.5517 206.85 58.9602 206.159C56.9023 205.76 55.4415 204.953 53.6796 203.979L53.6755 203.978C52.2331 203.18 50.5886 202.271 48.2496 201.384C42.6104 202.992 41.9446 202.946 36.4311 202.564L35.8752 202.526L37.1231 197.959C37.1231 197.959 38.9948 199.308 43.5702 198.374C47.6667 197.456 50.0829 195.732 50.6025 195.362C50.7292 195.272 50.7432 195.262 50.6413 195.363C53.3449 198.997 56.3605 200.45 59.1681 200.762C65.7254 201.489 69.7936 201.206 73.7373 200.93L73.7541 200.929C75.8747 200.781 77.9603 200.636 80.3786 200.653L80.3784 200.624C80.3768 200.448 80.3753 200.273 80.3756 200.1C80.3743 197.826 80.5133 195.838 80.6546 193.818C80.7985 191.76 80.9448 189.667 80.9476 187.204C80.9464 184.98 80.8276 182.453 80.4853 179.377C80.1733 176.575 78.7175 173.564 75.078 170.866C74.976 170.967 74.986 170.953 75.0767 170.827L75.1074 170.783L75.078 170.762C74.976 170.864 74.986 170.849 75.0767 170.723C75.4483 170.204 77.1741 167.791 78.0936 163.703C78.329 162.553 78.4197 161.575 78.4235 160.754C78.4133 158.387 77.6776 157.371 77.6776 157.371ZM58.6482 143.979L55.8406 140.554L55.9113 140.536L55.8406 140.45C55.8406 140.45 63.0156 138.582 69.2548 141.488C75.078 144.083 80.0693 150.727 80.0693 150.727L79.8387 150.8L79.8614 150.831L75.5979 152.18C72.9983 149.481 70.8146 147.405 68.3189 146.056C65.8232 144.498 62.8076 143.772 58.6482 143.979ZM64.6156 139.583L64.6242 139.584C66.1635 139.794 67.5413 139.981 67.591 139.931C67.591 139.931 67.5684 139.898 67.5236 139.835C67.5623 139.835 67.5853 139.833 67.591 139.827C67.591 139.827 62.5997 132.457 54.1768 132.146C48.9775 131.938 45.7539 134.222 45.7539 134.222L45.7539 134.326L45.6499 139.931L45.6499 140.035C47.6257 138.582 50.2253 137.44 52.825 137.129C55.6326 136.61 58.6482 137.751 60.5199 139.101C61.0623 139.101 62.9339 139.355 64.6156 139.583ZM52.201 145.952L52.1689 145.901L52.2011 145.848L49.9134 142.214C49.9134 142.214 42.7383 146.056 42.2184 155.606C42.2001 155.97 42.1915 156.321 42.1925 156.663C42.182 160.273 43.2304 162.694 45.338 165.467C45.4693 165.643 45.6049 165.815 45.7443 165.981C45.5786 165.841 45.4086 165.704 45.234 165.571C42.2184 163.287 39.6187 162.249 35.4593 162.457C25.8926 162.976 22.0451 170.139 22.0451 170.139L25.6846 172.422C26.208 172.115 26.8134 171.58 27.5117 170.963C29.1718 169.497 31.3567 167.566 34.2114 167.128C37.227 166.609 41.9064 167.647 42.4263 172.63C42.9463 177.924 37.227 173.875 37.643 171.696C37.123 171.177 34.1074 181.246 42.7383 181.661C38.5341 184.059 38.9315 189.92 39.1407 193.005L39.1411 193.011L39.1621 193.324L39.1821 193.641C39.2035 194.005 39.2146 194.309 39.2028 194.533C43.0486 194.948 48.8686 193.185 50.3274 189.14C50.3212 189.175 50.3447 189.423 51.3692 191.003C53.6017 194.377 58.2501 194.674 63.3234 194.999C66.9932 195.234 70.8853 195.483 74.2461 196.92C74.0165 194.686 70.364 192.988 66.4032 191.148L66.3979 191.145C63.1856 189.652 59.7715 188.066 57.8163 186.021C54.969 183.031 53.3732 179.348 51.8363 175.8C50.5265 172.777 49.2593 169.852 47.2966 167.54C49.5847 169.49 52.5066 170.752 55.5255 172.055C59.0813 173.59 62.7716 175.184 65.7192 178.028C67.7688 179.981 69.3593 183.392 70.8552 186.6C72.6988 190.554 74.3989 194.2 76.6378 194.429L76.5914 194.32L76.6378 194.325C75.1974 190.97 74.9479 187.085 74.7127 183.421C74.3875 178.357 74.0895 173.717 70.7106 171.488C69.6746 170.818 69.2101 170.577 69.003 170.492C72.5781 169.086 74.3207 164.255 74.3053 160.541C74.3073 160.126 74.2875 159.725 74.2461 159.342C73.9031 159.361 73.3781 159.326 72.7297 159.282L72.7155 159.281C69.6254 159.072 63.7542 158.675 61.3518 162.872C60.9359 154.256 50.8493 157.266 51.3692 157.785L51.3757 157.784C51.344 157.825 51.3407 157.861 51.3692 157.89C52.7454 157.628 54.8239 159.799 54.8711 161.31C54.8438 162.143 54.1515 162.745 52.3051 162.561C48.0856 162.122 46.69 158.715 46.6733 155.854C46.6749 155.581 46.6891 155.312 46.7145 155.053C46.7343 154.851 46.7609 154.654 46.7938 154.464C47.3029 151.633 49.2364 149.461 50.7085 147.807C51.3411 147.097 51.8885 146.482 52.201 145.952ZM57.4003 150.831L61.5598 149.585L61.4775 149.506L61.5598 149.481C61.5598 149.481 54.5927 142.837 54.5927 137.855L50.7453 137.959L50.7597 138.062L50.7452 138.063C51.5771 144.083 53.5529 146.575 57.4003 150.831ZM68.9428 147.924L68.9165 147.914L68.9428 147.82L64.3675 146.056C64.3675 146.056 64.4714 150.623 59.2721 151.557C55.7546 152.116 53.0974 150.281 51.9623 149.498C51.621 149.262 51.4173 149.122 51.3692 149.17L48.5616 152.284L48.6098 152.334L48.5615 152.388C54.5927 158.72 66.3432 157.371 68.9428 147.924ZM45.8579 143.876L45.8374 143.806L45.8579 143.772C45.8579 143.772 45.026 140.969 44.6101 137.751C44.1941 134.326 44.1941 130.485 44.1941 130.485L40.4554 131.936C40.4756 131.931 40.4845 131.963 40.485 132.029L40.4554 132.04C40.4711 132.036 40.4799 132.053 40.4834 132.092C40.4781 132.208 40.4593 132.387 40.4341 132.624C40.3642 133.28 40.2472 134.377 40.2498 135.79C40.2473 136.917 40.3197 138.25 40.5546 139.724C41.2825 144.602 43.3622 147.924 43.3622 147.924L45.8579 143.876ZM24.9567 135.156C26.1954 135.727 28.3947 136.995 28.4338 138.561C28.4326 138.607 28.4293 138.653 28.4239 138.699C28.4163 138.763 28.4045 138.828 28.3882 138.893C27.7643 141.176 25.4766 142.734 25.4766 142.734L25.649 142.712C25.5402 142.795 25.4766 142.838 25.4766 142.838L31.2998 142.111C32.2357 146.367 35.3553 148.028 39.4108 148.651L39.2797 148.526L39.4108 148.547C36.325 145.642 35.4818 143.037 34.7658 140.824C33.795 137.824 33.0583 135.547 27.2825 134.23L28.0763 132.25L29.2201 130.069C34.0949 133.494 36.2877 132.537 39.2053 131.265C41.3289 130.338 43.8365 129.244 48.0416 129.55L47.904 129.437L48.0416 129.447C44.922 126.851 41.5945 125.606 37.851 127.786L34.5234 123.01C34.5234 123.01 34.5301 123.055 34.5389 123.137L34.5234 123.115C34.5234 123.115 34.5398 123.225 34.5555 123.418C34.5691 123.585 34.5822 123.813 34.5836 124.083C34.5778 125.08 34.4093 126.587 33.5876 127.786C32.5477 129.343 29.6361 128.305 28.2843 127.786C27.5563 130.485 26.4125 132.976 24.9567 135.052L25.0114 135.077L24.9567 135.156ZM37.955 157.681L37.851 157.578L37.8461 157.564L37.539 150.312L37.539 150.208L34.2114 148.132L32.985 153.406L27.9723 154.567L30.052 157.889L37.851 157.682L37.955 157.681ZM58.8562 161.107C59.1604 161.216 59.3284 161.546 59.3412 161.99C59.3 163.673 57.1693 166.753 52.0245 165.924C54.7916 165.16 56.131 163.489 57.0676 162.321C57.7452 161.475 58.212 160.893 58.8562 161.107ZM70.5963 177.048C70.5591 175.313 68.6529 172.364 63.6667 172.715C66.3063 173.71 67.4926 175.507 68.3219 176.764C68.9238 177.676 69.3376 178.303 69.9827 178.131C70.3639 178.03 70.5836 177.612 70.5963 177.048ZM68.5269 163.287C68.9135 163.498 69.113 163.919 69.1249 164.455C69.0669 167.101 64.6674 172.261 55.8706 169.286C60.5962 168.808 63.2876 166.423 65.1717 164.754C66.5667 163.519 67.5191 162.675 68.5269 163.287ZM8.12852e-06 228.581C3.22359 226.505 5.4073 222.353 2.28772 218.512C2.28772 218.512 12.4783 219.55 10.0867 217.267C7.07283 214.31 4.55235 211.793 2.78474 210.029C1.01505 208.262 9.06099e-06 207.249 9.05871e-06 207.301L8.85e-06 212.076L8.84544e-06 212.18C8.84544e-06 212.18 2.39171 213.529 2.39171 215.294C2.39171 216.741 0.782731 217.909 0.204156 218.283L0.207994 218.201C0.158303 218.25 0.108605 218.276 0.0702372 218.289C0.0283518 218.304 8.57775e-06 218.304 8.57775e-06 218.304L8.57319e-06 218.409L8.38717e-06 222.664L8.12852e-06 228.581ZM8.42289 222.457C7.69501 228.893 4.88737 231.384 3.84011e-05 234.187L3.8147e-05 240C0.757721 239.36 1.65697 238.677 2.61163 237.951C6.76678 234.793 11.9721 230.837 11.1265 226.194C19.4454 226.401 22.357 213.633 22.357 213.633C35.4593 210.934 38.9948 196.401 35.9792 184.879C35.3553 185.813 32.2357 188.305 32.2357 188.305C32.2357 188.305 35.5633 204.81 20.6933 209.066C8.83886 212.491 1.97577 200.035 9.46276 193.806C11.1265 192.353 12.7903 192.145 15.39 193.495C18.1976 194.948 17.7816 199.308 14.8701 198.374C14.4541 196.09 12.7903 195.052 11.0225 196.09C6.03123 198.997 12.5823 203.149 15.8059 203.149C19.4454 203.149 24.5407 200.139 21.7331 192.768C19.4454 186.644 9.67074 186.229 4.88737 190.796C-3.32753 198.789 3.32758 215.19 16.9498 214.568C16.4298 218.409 12.2704 222.042 8.42289 222.457ZM20.2773 176.159L23.7089 178.962C23.5009 183.011 24.2288 186.021 25.7886 188.72C27.1404 191.211 29.2201 193.391 31.9238 195.986L30.5719 200.242C30.5719 200.242 23.9168 195.26 21.3172 189.551C18.4056 183.322 20.2773 176.159 20.2773 176.159ZM1.00887e-05 183.737L1.5598 183.322C1.5598 183.322 1.35185 181.453 3.32758 177.301C5.40731 173.149 10.9186 171.176 10.9186 171.176L10.8146 175.017C10.8146 175.017 7.69498 177.509 6.44717 180.208C5.44853 182.268 5.13185 184.414 4.95141 185.636C4.85002 186.323 4.79163 186.718 4.67938 186.644C4.26345 186.332 2.59967 186.851 1.45581 187.578C0.415949 188.201 0.207995 189.446 0.207995 189.55L0.207995 189.757C0.207995 189.654 0.104006 189.446 9.84825e-06 189.238L9.94352e-06 187.059L1.00842e-05 183.84L1.00887e-05 183.737ZM19.3062 184.825C19.077 183.144 18.8215 181.269 18.8215 180.727C17.4697 178.962 16.3258 175.952 16.8458 173.045C17.1577 170.45 18.3016 167.855 19.7574 165.883L14.0381 165.986C14.0381 165.986 11.7504 169.205 11.9584 174.395C12.2704 182.803 19.6534 187.786 19.6534 187.786C19.7031 187.736 19.5156 186.361 19.3062 184.825ZM45.7539 172.111C47.0017 178.962 41.3865 180.623 40.8665 179.17C40.6518 178.526 41.2352 178.061 42.0819 177.384C43.2855 176.423 45.0214 175.036 45.7539 172.111ZM52.513 183.737C51.8891 190.692 57.6083 191.834 58.0243 190.277C58.1988 189.58 57.5491 189.157 56.6132 188.548C55.3193 187.706 53.4785 186.508 52.513 183.737ZM49.0814 175.951C52.9289 186.851 44.2981 191.107 43.0503 188.824C42.4327 187.767 43.2934 186.803 44.5449 185.402C46.2436 183.501 48.6623 180.793 49.0814 175.951ZM29.3241 181.869L30.5719 177.716C26.3085 173.772 23.8128 171.903 17.7816 171.073L17.6777 174.913C22.669 174.913 29.3241 181.869 29.3241 181.869ZM25.8926 184.672L27.6603 189.239C37.1231 186.644 38.4749 174.914 32.1317 168.893L29.0121 171.696C28.9641 171.744 29.1048 171.947 29.3407 172.288C30.1255 173.42 31.9635 176.073 31.4038 179.585C30.364 184.775 25.8926 184.672 25.8926 184.672ZM23.6049 166.194L27.6603 163.703C27.6603 163.703 24.3328 161.523 19.4454 160.9C16.1843 160.382 13.6099 160.655 12.4377 160.779L12.424 160.781C12.2862 160.796 12.1682 160.808 12.0712 160.816L11.9884 160.824C11.9435 160.827 11.9048 160.829 11.8722 160.83C11.7847 160.832 11.7423 160.824 11.7486 160.8L10.2946 164.533C10.2946 164.533 14.1421 164.533 17.5737 164.948C20.7972 165.364 23.6049 166.194 23.6049 166.194ZM5.92723 162.042L5.82325 167.128L0.207996 172.526L1.05879e-05 172.318L1.07104e-05 169.516L1.08692e-05 165.883L5.92723 162.042ZM7.59102 153.945C9.15081 152.803 8.00696 149.689 7.48703 148.443C10.1907 147.717 12.6863 146.575 14.7661 145.225C15.39 146.471 16.9498 149.274 18.7175 148.755C21.0052 148.132 22.565 145.848 22.565 145.848L21.8371 151.661C26.1005 152.595 27.7643 155.709 28.3882 159.758C25.4788 156.678 22.8684 155.836 20.6521 155.121C17.6402 154.15 15.3561 153.413 14.0382 147.613L11.9585 148.443L9.77474 149.585C13.2051 154.451 12.2469 156.64 10.9719 159.553C10.0439 161.673 8.94816 164.176 9.2548 168.374C6.65515 165.26 5.40731 161.938 7.59102 158.201L2.80765 154.879C2.80765 154.879 5.61529 155.294 7.59102 153.945Z" fill="#F6F7FB"/>
<path fill-rule="evenodd" clip-rule="evenodd" d="M120 120.409L114.073 120.409L113.969 120.305C111.161 115.426 108.666 112.623 102.218 111.896C101.803 108.057 98.1657 103.907 94.3199 103.385C94.3291 103.618 94.3333 103.849 94.3326 104.077C94.3793 117.207 78.3725 123.486 70.5026 115.426C68.46 113.294 67.4122 110.17 67.4239 107.16C67.4079 103.391 69.0504 99.7813 72.4783 98.5055C79.8613 95.7026 82.8769 100.789 82.8769 104.422L82.8767 104.465L82.877 104.526C82.877 107.744 78.7175 114.284 75.8059 109.301C75.5203 108.817 75.3916 108.34 75.4025 107.895C75.3729 106.672 76.3854 105.667 78.0936 105.357C78.1761 105.101 78.2174 104.864 78.2231 104.647C78.1653 102.503 74.513 102.426 73.2062 104.942C72.6046 106.097 72.3119 107.067 72.3007 107.934C72.3144 108.971 72.7364 109.862 73.5182 110.754C79.0146 117.339 89.3529 112.806 89.3906 103.543C89.3854 102.321 89.2014 101.018 88.8042 99.6475C84.5408 84.8029 68.0069 88.1249 68.0069 88.1249C68.0069 88.1249 65.5113 85.0107 64.5754 84.3878L64.6814 84.3599C64.6442 84.3315 64.6088 84.3062 64.5754 84.2839C75.9099 81.2736 90.5719 84.8029 93.2755 97.8826C93.2755 97.8826 105.911 100.754 105.86 108.943L105.859 109.036L105.858 109.093C110.508 108.25 114.471 113.445 117.635 117.593C118.362 118.546 119.047 119.444 119.688 120.201L120 120.409ZM97.851 120.408L97.9549 120.409L108.458 120.409C108.377 120.273 108.292 120.139 108.204 120.007C106.146 116.932 102.036 114.872 98.2763 117.826C98.3144 116.88 98.3957 112.709 97.0191 110.235L96.9966 110.289C96.9701 110.235 96.9428 110.183 96.9151 110.131C94.8968 115.006 91.778 116.788 89.5237 118.076C88.1774 118.846 87.1395 119.439 86.8284 120.409L86.9324 120.408L91.7158 120.409L91.8198 120.408C92.1317 119.889 93.3796 118.125 94.8353 118.125C96.2912 118.125 97.643 119.889 97.851 120.408ZM69.3587 120.409L68.9794 120.409L69.1508 120.513L63.5355 120.513L63.5355 120.409L63.0156 118.748C63.0156 118.748 61.1439 118.956 56.9844 116.983C52.825 114.907 50.8492 109.405 50.8492 109.405L50.8888 109.406L50.8492 109.301L54.6967 109.405C54.6967 109.405 57.1924 112.519 59.896 113.765C61.9599 114.762 64.1091 115.078 65.3337 115.258C66.0218 115.359 66.418 115.418 66.3431 115.53C66.3354 115.54 66.3281 115.551 66.3213 115.563C66.3525 115.584 66.3605 115.608 66.3432 115.634C66.2862 115.71 66.257 115.827 66.2517 115.975C66.2741 116.661 66.7139 117.861 67.279 118.748C67.9029 119.682 68.9428 120.305 69.3587 120.409ZM45.6499 120.408L45.7539 120.409L52.201 120.409L52.1734 120.378L52.1687 120.373C51.7223 119.875 46.7985 114.388 46.8978 114.388L41.8024 114.284L41.8717 114.391L41.6985 114.388L45.6499 120.408ZM77.6776 83.1419L77.7336 83.1571C77.6987 83.2169 77.6777 83.2458 77.6777 83.2458L82.253 84.4917L82.253 84.3878L82.2917 83.9336C82.424 82.0299 82.516 80.7054 82.513 79.5538C82.5181 77.3348 82.1829 75.7903 81.1262 72.0943C82.0105 69.7809 82.9148 68.1498 83.7086 66.718C84.6839 64.9591 85.4925 63.5009 85.8926 61.4466C86.2216 59.743 86.3351 58.2021 86.3319 56.7074C86.3346 55.0195 86.1861 53.3945 86.0282 51.6671C85.8524 49.744 85.665 47.6938 85.6615 45.2872C85.6639 42.1127 85.9885 38.3178 87.0784 33.386L87.3484 33.1077L87.1295 33.1564L87.1404 33.1077L87.1107 33.1366L87.1404 33.0038L86.9397 33.1979C78.2626 35.0931 73.1154 34.6247 68.6529 34.2177C65.423 33.9237 62.5517 33.6622 58.9602 34.3536C56.9023 34.753 55.4415 35.5599 53.6795 36.5336L53.6755 36.5351C52.2331 37.3329 50.5886 38.2412 48.2496 39.1282C42.6104 37.5205 41.9446 37.5666 36.4311 37.9483L35.8752 37.9868L37.1231 42.5541C37.1231 42.5541 38.9948 41.2044 43.5702 42.139C47.6667 43.057 50.0829 44.7803 50.6025 45.1508C50.7292 45.241 50.7432 45.2512 50.6413 45.1493C53.3449 41.5161 56.3605 40.0629 59.1681 39.7512C65.7254 39.0238 69.7936 39.3072 73.7373 39.5824L73.7541 39.5839C75.8747 39.7314 77.9603 39.8764 80.3786 39.8597L80.3784 39.8885C80.3768 40.0649 80.3753 40.2398 80.3756 40.4126C80.3743 42.6869 80.5133 44.6744 80.6546 46.6947C80.7985 48.7526 80.9447 50.846 80.9476 53.3088C80.9464 55.5324 80.8276 58.0597 80.4853 61.1353C80.1733 63.9378 78.7175 66.9486 75.078 69.6471C74.976 69.5452 74.986 69.5594 75.0767 69.6862L75.1074 69.7292L75.078 69.751C74.976 69.6492 74.986 69.6634 75.0767 69.7901C75.4483 70.3091 77.1741 72.7213 78.0936 76.8102C78.329 77.9592 78.4197 78.938 78.4235 79.7586C78.4133 82.1257 77.6776 83.1419 77.6776 83.1419ZM58.6482 96.5333L55.8405 99.9587L55.9113 99.9764L55.8406 100.063C55.8406 100.063 63.0156 101.931 69.2548 99.0245C75.078 96.4294 80.0693 89.7854 80.0693 89.7854L79.8387 89.7124L79.8613 89.682L75.5979 88.3322C72.9983 91.0313 70.8146 93.1074 68.3189 94.4572C65.8232 96.0143 62.8076 96.7406 58.6482 96.5333ZM64.6156 100.93L64.6241 100.928C66.1635 100.719 67.5413 100.532 67.591 100.582C67.591 100.582 67.5684 100.615 67.5236 100.677C67.5623 100.677 67.5853 100.68 67.591 100.686C67.591 100.686 62.5997 108.056 54.1768 108.367C48.9775 108.575 45.7539 106.291 45.7539 106.291L45.7539 106.187L45.6499 100.582L45.6499 100.478C47.6256 101.931 50.2253 103.073 52.8249 103.384C55.6326 103.903 58.6482 102.762 60.5199 101.412C61.0623 101.412 62.9339 101.158 64.6156 100.93ZM52.201 94.5606L52.1689 94.6118L52.2011 94.665L49.9133 98.2982C49.9133 98.2982 42.7383 94.4572 42.2184 84.9068C42.2001 84.5429 42.1915 84.1916 42.1925 83.85C42.1819 80.2396 43.2304 77.8183 45.338 75.0452C45.4693 74.8694 45.6048 74.698 45.7443 74.5313C45.5786 74.6717 45.4086 74.8085 45.234 74.9418C42.2184 77.2253 39.6187 78.2633 35.4593 78.056C25.8925 77.537 22.045 70.374 22.045 70.374L25.6846 68.0905C26.208 68.3977 26.8134 68.9324 27.5116 69.5493C29.1718 71.0162 31.3567 72.9463 34.2114 73.3848C37.227 73.9038 41.9064 72.8657 42.4263 67.8827C42.9463 62.5885 37.227 66.6374 37.643 68.8169C37.123 69.3359 34.1074 59.267 42.7383 58.8519C38.5341 56.4534 38.9315 50.5925 39.1407 47.5077L39.1411 47.5017L39.1621 47.1889L39.1821 46.8716C39.2035 46.5072 39.2146 46.2041 39.2028 45.9795C43.0486 45.5644 48.8686 47.3278 50.3274 51.3726C50.3212 51.3381 50.3446 51.0898 51.3692 49.5094C53.6017 46.1362 58.2501 45.8386 63.3234 45.5137C66.9932 45.2791 70.8853 45.0302 74.2461 43.5922C74.0165 45.827 70.364 47.5245 66.4032 49.3649L66.3979 49.3679C63.1856 50.8607 59.7715 52.4472 57.8163 54.4918C54.969 57.4813 53.3732 61.1647 51.8363 64.7123C50.5265 67.7357 49.2593 70.6604 47.2966 72.9727C49.5847 71.0228 52.5066 69.7612 55.5255 68.458C59.0813 66.9227 62.7716 65.3291 65.7192 62.4846C67.7688 60.5317 69.3592 57.121 70.8552 53.9125C72.6988 49.9584 74.3989 46.3126 76.6378 46.0835L76.5914 46.1924L76.6378 46.1874C75.1974 49.5423 74.9479 53.4279 74.7127 57.0916C74.3875 62.1557 74.0895 66.796 70.7106 69.0247C69.6746 69.6943 69.2101 69.9355 69.003 70.0207C72.5781 71.4267 74.3207 76.2582 74.3053 79.9715C74.3073 80.3866 74.2875 80.788 74.2461 81.1702C73.9031 81.152 73.3781 81.1869 72.7297 81.2305L72.7155 81.232C69.6254 81.4409 63.7542 81.8378 61.3518 77.6404C60.9359 86.2566 50.8492 83.2463 51.3692 82.7273L51.3757 82.7283C51.344 82.6873 51.3407 82.6513 51.3692 82.6229C52.7454 82.8849 54.8239 80.714 54.8711 79.2026C54.8438 78.3693 54.1515 77.7676 52.3051 77.9521C48.0856 78.3911 46.69 81.7972 46.6733 84.6585C46.6749 84.9322 46.689 85.2003 46.7145 85.4598C46.7343 85.6621 46.7609 85.8587 46.7938 86.0488C47.3029 88.8801 49.2364 91.0521 50.7085 92.7055C51.3411 93.4156 51.8885 94.0304 52.201 94.5606ZM57.4003 89.682L61.5598 90.9274L61.4775 91.0069L61.5598 91.0318C61.5598 91.0318 54.5927 97.6753 54.5927 102.658L50.7453 102.554L50.7597 102.45L50.7452 102.45C51.5771 96.4294 53.5529 93.9382 57.4003 89.682ZM68.9428 92.5884L68.9165 92.5985L68.9428 92.6928L64.3674 94.4572C64.3674 94.4572 64.4714 89.8898 59.2721 88.9557C55.7545 88.3971 53.0974 90.2314 51.9623 91.0151C51.621 91.2508 51.4173 91.3912 51.3692 91.343L48.5615 88.2288L48.6098 88.1786L48.5615 88.1249C54.5927 81.7926 66.3431 83.1419 68.9428 92.5884ZM45.8579 96.6367L45.8374 96.7072L45.8579 96.7406C45.8579 96.7406 45.026 99.5436 44.61 102.762C44.1941 106.187 44.1941 110.028 44.1941 110.028L40.4554 108.576C40.4756 108.582 40.4845 108.55 40.485 108.484L40.4554 108.473C40.4711 108.477 40.4799 108.459 40.4834 108.42C40.4781 108.304 40.4593 108.125 40.4341 107.889C40.3642 107.233 40.2472 106.135 40.2498 104.723C40.2472 103.596 40.3197 102.263 40.5546 100.789C41.2825 95.9104 43.3622 92.5884 43.3622 92.5884L45.8579 96.6367ZM24.9567 105.357C26.1954 104.786 28.3947 103.518 28.4338 101.952C28.4326 101.906 28.4293 101.86 28.4239 101.814C28.4163 101.749 28.4045 101.685 28.3882 101.62C27.7643 99.3363 25.4766 97.7792 25.4766 97.7792L25.649 97.8005C25.5402 97.7178 25.4766 97.6748 25.4766 97.6748L31.2998 98.4016C32.2357 94.1455 35.3553 92.4845 39.4107 91.862L39.2797 91.9867L39.4107 91.9659C36.325 94.8703 35.4818 97.4761 34.7658 99.6885C33.795 102.689 33.0583 104.966 27.2825 106.282L28.0763 108.263L29.2201 110.443C34.0949 107.019 36.2877 107.975 39.2053 109.248C41.3289 110.175 43.8365 111.268 48.0416 110.962L47.904 111.076L48.0416 111.066C44.922 113.661 41.5945 114.907 37.8509 112.727L34.5234 117.502C34.5234 117.502 34.53 117.458 34.5389 117.376L34.5234 117.398C34.5234 117.398 34.5398 117.287 34.5555 117.094C34.5691 116.928 34.5822 116.7 34.5836 116.429C34.5778 115.433 34.4093 113.926 33.5875 112.727C32.5477 111.17 29.6361 112.208 28.2842 112.727C27.5563 110.028 26.4125 107.537 24.9567 105.461L25.0114 105.435L24.9567 105.357ZM37.9549 82.8312L37.8509 82.9346L37.8461 82.9483L37.539 90.201L37.539 90.3049L34.2114 92.3811L32.985 87.1066L27.9723 85.9454L30.052 82.6234L37.8509 82.8307L37.9549 82.8312ZM58.8562 79.4053C59.1604 79.2968 59.3284 78.9664 59.3412 78.5223C59.3 76.8401 57.1693 73.7598 52.0245 74.5891C54.7916 75.3529 56.131 77.0235 57.0676 78.1919C57.7452 79.0373 58.212 79.6197 58.8562 79.4053ZM70.5963 63.4644C70.5591 65.1994 68.6529 68.1483 63.6667 67.7976C66.3063 66.8031 67.4926 65.0058 68.3219 63.7487C68.9238 62.8364 69.3376 62.2094 69.9827 62.3812C70.3639 62.4826 70.5835 62.9002 70.5963 63.4644ZM68.5269 77.2253C68.9135 77.0149 69.113 76.5937 69.1249 76.058C69.0669 73.4121 64.6674 68.2512 55.8706 71.2265C60.5962 71.7045 63.2876 74.0893 65.1717 75.7584C66.5667 76.9941 67.5191 77.8376 68.5269 77.2253ZM7.13027e-06 11.9314C3.22359 14.0075 5.4073 18.1597 2.28772 22.0007C2.28772 22.0007 12.4783 20.9627 10.0867 23.2461C7.07283 26.2032 4.55235 28.7193 2.78474 30.4837C1.01505 32.2506 6.1978e-06 33.2638 6.20008e-06 33.2116L6.40879e-06 28.4369L6.41335e-06 28.3325C6.41335e-06 28.3325 2.39171 26.9832 2.39171 25.2183C2.39171 23.7712 0.782729 22.6034 0.204154 22.2299L0.207992 22.312C0.158301 22.2628 0.108603 22.2369 0.0702353 22.2233C0.0283499 22.2086 6.68104e-06 22.2086 6.68104e-06 22.2086L6.6856e-06 22.1041L6.87162e-06 17.8485L7.13027e-06 11.9314ZM8.42289 18.0558C7.69501 11.6201 4.88737 9.12839 3.78929e-05 6.32593L3.8147e-05 0.51269C0.757721 1.15286 1.65697 1.83612 2.61163 2.56144C6.76678 5.71972 11.9721 9.67581 11.1265 14.3187C19.4454 14.1114 22.357 26.8793 22.357 26.8793C35.4593 29.5784 38.9948 44.1112 35.9792 55.6338C35.3553 54.6997 32.2357 52.2079 32.2357 52.2079C32.2357 52.2079 35.5633 35.7028 20.6933 31.4467C8.83886 28.0213 1.97577 40.478 9.46275 46.7064C11.1265 48.1596 12.7903 48.3674 15.39 47.0176C18.1976 45.5644 17.7816 41.2049 14.87 42.139C14.4541 44.4225 12.7903 45.4605 11.0225 44.4225C6.03123 41.5161 12.5823 37.3638 15.8059 37.3638C19.4454 37.3638 24.5407 40.3741 21.7331 47.7445C19.4454 53.8689 9.67074 54.284 4.88737 49.7167C-3.32753 41.7239 3.32757 25.3222 16.9498 25.9452C16.4298 22.1042 12.2704 18.4709 8.42289 18.0558ZM20.2773 64.3534L23.7089 61.5505C23.5009 57.5021 24.2288 54.4918 25.7886 51.7928C27.1404 49.3015 29.2201 47.1215 31.9238 44.5264L30.5719 40.2702C30.5719 40.2702 23.9168 45.2527 21.3172 50.962C18.4056 57.1904 20.2773 64.3534 20.2773 64.3534ZM5.17006e-06 56.7758L1.5598 57.1909C1.5598 57.1909 1.35185 59.0592 3.32757 63.2115C5.4073 67.3637 10.9186 69.3364 10.9186 69.3364L10.8146 65.4954C10.8146 65.4954 7.69497 63.0041 6.44716 60.3051C5.44852 58.2447 5.13185 56.0991 4.95141 54.8766C4.85002 54.1898 4.79162 53.7944 4.67938 53.8689C4.26345 54.1806 2.59966 53.6616 1.45581 52.9348C0.415945 52.3118 0.20799 51.0664 0.20799 50.9625L0.20799 50.7552C0.20799 50.8591 0.104002 51.0664 5.41054e-06 51.2743L5.31527e-06 53.4538L5.17458e-06 56.6724L5.17006e-06 56.7758ZM19.3062 55.688C19.077 57.3688 18.8215 59.2432 18.8215 59.7855C17.4697 61.5505 16.3258 64.5607 16.8458 67.4676C17.1577 70.0628 18.3016 72.6579 19.7574 74.6301L14.0381 74.5262C14.0381 74.5262 11.7504 71.3081 11.9584 66.1178C12.2704 57.7094 19.6534 52.7269 19.6534 52.7269C19.703 52.7766 19.5156 54.1517 19.3062 55.688ZM45.7539 68.4018C47.0017 61.5505 41.3865 59.89 40.8665 61.3431C40.6518 61.9864 41.2352 62.4522 42.0819 63.1283C43.2855 64.0899 45.0214 65.4766 45.7539 68.4018ZM52.513 56.7758C51.8891 49.8206 57.6083 48.6786 58.0243 50.2357C58.1988 50.9326 57.5491 51.3554 56.6132 51.9646C55.3193 52.807 53.4785 54.0048 52.513 56.7758ZM49.0814 64.5612C52.9289 53.6616 44.2981 49.4054 43.0503 51.6889C42.4327 52.7457 43.2934 53.7092 44.5449 55.1102C46.2436 57.012 48.6623 59.7197 49.0814 64.5612ZM29.3241 58.6441L30.5719 62.7963C26.3085 66.7408 23.8128 68.6096 17.7816 69.4398L17.6776 65.5993C22.669 65.5993 29.3241 58.6441 29.3241 58.6441ZM25.8925 55.8411L27.6603 51.2738C37.1231 53.8689 38.4749 65.5988 32.1317 71.6198L29.0121 68.8169C28.9641 68.7687 29.1048 68.5655 29.3407 68.2249C30.1255 67.0925 31.9635 64.4396 31.4038 60.9275C30.364 55.7372 25.8925 55.8411 25.8925 55.8411ZM23.6049 74.3189L27.6603 76.8102C27.6603 76.8102 24.3328 78.9902 19.4454 79.6131C16.1843 80.1306 13.6099 79.8574 12.4377 79.7332L12.424 79.7317C12.2862 79.717 12.1682 79.7049 12.0712 79.6962L11.9884 79.6891C11.9435 79.6856 11.9048 79.6836 11.8722 79.6831C11.7847 79.681 11.7423 79.6891 11.7486 79.7125L10.2946 75.9799C10.2946 75.9799 14.1421 75.9799 17.5737 75.5648C20.7972 75.1492 23.6049 74.3189 23.6049 74.3189ZM5.92723 78.4711L5.82324 73.3848L0.20799 67.9866L4.67093e-06 68.1944L4.54843e-06 70.9969L4.38962e-06 74.6301L5.92723 78.4711ZM7.59101 86.5678C9.15081 87.7098 8.00695 90.824 7.48702 92.0698C10.1907 92.7962 12.6863 93.9382 14.766 95.2874C15.39 94.0421 16.9498 91.2391 18.7175 91.7581C21.0052 92.3811 22.565 94.665 22.565 94.665L21.8371 88.8518C26.1005 87.9176 27.7643 84.8034 28.3882 80.7546C25.4788 83.8348 22.8684 84.6767 20.6521 85.3914C17.6402 86.363 15.3561 87.0995 14.0382 92.9001L11.9584 92.0698L9.77473 90.9279C13.2051 86.0615 12.2468 83.8723 10.9719 80.9599C10.0439 78.8401 8.94815 76.3367 9.2548 72.1389C6.65515 75.2531 5.4073 78.5751 7.59102 82.3117L2.80764 85.6337C2.80764 85.6337 5.61528 85.2185 7.59101 86.5678Z" fill="#F6F7FB"/>
</g>
</svg>
