<svg width="120" height="240" viewBox="0 0 120 240" fill="none" xmlns="http://www.w3.org/2000/svg">
<g opacity="0.1">
<path fill-rule="evenodd" clip-rule="evenodd" d="M-5.24082e-06 120.104L5.92722 120.104L6.03118 120.208C8.83882 125.087 11.3345 127.889 17.7816 128.616C18.1974 132.455 21.8343 136.606 25.6801 137.128C25.6709 136.895 25.6667 136.664 25.6674 136.435C25.6207 123.306 41.6275 117.026 49.4974 125.087C51.54 127.218 52.5878 130.343 52.5761 133.352C52.5921 137.122 50.9496 140.731 47.5217 142.007C40.1386 144.81 37.1231 139.724 37.1231 136.091L37.1233 136.047L37.123 135.987C37.123 132.769 41.2825 126.228 44.1941 131.211C44.4796 131.696 44.6084 132.172 44.5975 132.617C44.6271 133.841 43.6146 134.846 41.9064 135.156C41.8239 135.412 41.7826 135.649 41.7769 135.866C41.8347 138.01 45.487 138.087 46.7938 135.571C47.3954 134.416 47.6881 133.446 47.6993 132.578C47.6855 131.542 47.2636 130.65 46.4818 129.758C40.9854 123.174 30.6471 127.707 30.6094 136.97C30.6146 138.192 30.7986 139.495 31.1958 140.865C35.4592 155.71 51.9931 152.388 51.9931 152.388C51.9931 152.388 54.4887 155.502 55.4246 156.125L55.3186 156.153C55.3558 156.181 55.3912 156.207 55.4246 156.229C44.0901 159.239 29.4281 155.71 26.7244 142.63C26.7244 142.63 14.0885 139.759 14.1398 131.569L14.141 131.477L14.1421 131.419C9.49165 132.263 5.52873 127.067 2.36513 122.92C1.63807 121.966 0.953222 121.069 0.31194 120.312L-5.24082e-06 120.104ZM22.149 120.104L22.0451 120.104L11.5425 120.104C11.6231 120.24 11.7078 120.374 11.7963 120.506C13.8535 123.581 17.964 125.64 21.7237 122.686C21.6856 123.632 21.6043 127.804 22.9809 130.277L23.0033 130.224C23.0299 130.277 23.0572 130.329 23.0849 130.381C25.1032 125.507 28.222 123.725 30.4763 122.437C31.8226 121.667 32.8605 121.074 33.1716 120.104L33.0676 120.104L28.2842 120.104L28.1802 120.104C27.8683 120.624 26.6204 122.388 25.1647 122.388C23.7088 122.388 22.357 120.624 22.149 120.104ZM50.6413 120.104L51.0205 120.104L50.8492 120L56.4645 120L56.4645 120.104L56.9844 121.765C56.9844 121.765 58.8561 121.557 63.0156 123.53C67.175 125.606 69.1508 131.108 69.1508 131.108L69.1112 131.107L69.1508 131.211L65.3033 131.108C65.3033 131.108 62.8076 127.993 60.104 126.748C58.0401 125.751 55.8909 125.435 54.6663 125.255C53.9782 125.153 53.582 125.095 53.6568 124.983C53.6646 124.973 53.6719 124.961 53.6786 124.95C53.6475 124.928 53.6395 124.905 53.6568 124.879C53.7138 124.803 53.743 124.686 53.7483 124.538C53.7259 123.851 53.2861 122.651 52.721 121.765C52.0971 120.831 51.0572 120.208 50.6413 120.104ZM74.3501 120.104L74.2461 120.104L67.799 120.104L67.8266 120.135L67.8312 120.14C68.2777 120.638 73.2015 126.125 73.1022 126.125L78.1976 126.229L78.1283 126.121L78.3015 126.125L74.3501 120.104ZM42.3224 157.371L42.2664 157.356C42.3013 157.296 42.3223 157.267 42.3223 157.267L37.7469 156.021L37.7469 156.125L37.7083 156.579C37.576 158.483 37.484 159.807 37.487 160.959C37.4819 163.178 37.8171 164.722 38.8738 168.418C37.9895 170.732 37.0852 172.363 36.2914 173.795C35.3161 175.554 34.5075 177.012 34.1074 179.066C33.7784 180.77 33.6649 182.311 33.668 183.805C33.6654 185.493 33.8139 187.118 33.9718 188.846C34.1475 190.769 34.335 192.819 34.3385 195.226C34.3361 198.4 34.0115 202.195 32.9216 207.127L32.6516 207.405L32.8705 207.356L32.8596 207.405L32.8893 207.376L32.8596 207.509L33.0603 207.315C41.7374 205.42 46.8846 205.888 51.3471 206.295C54.577 206.589 57.4483 206.85 61.0398 206.159C63.0977 205.76 64.5585 204.953 66.3204 203.979L66.3245 203.978C67.7669 203.18 69.4114 202.271 71.7504 201.384C77.3896 202.992 78.0554 202.946 83.5689 202.564L84.1248 202.526L82.8769 197.959C82.8769 197.959 81.0052 199.308 76.4298 198.374C72.3333 197.456 69.9171 195.732 69.3975 195.362C69.2708 195.272 69.2568 195.262 69.3587 195.363C66.6551 198.997 63.6395 200.45 60.8319 200.762C54.2746 201.489 50.2064 201.206 46.2627 200.93L46.2459 200.929C44.1253 200.781 42.0397 200.636 39.6214 200.653L39.6216 200.624C39.6232 200.448 39.6247 200.273 39.6244 200.1C39.6257 197.826 39.4867 195.838 39.3454 193.818C39.2015 191.76 39.0552 189.667 39.0524 187.204C39.0536 184.98 39.1724 182.453 39.5147 179.377C39.8267 176.575 41.2825 173.564 44.922 170.866C45.024 170.967 45.014 170.953 44.9233 170.827L44.8926 170.783L44.922 170.762C45.024 170.864 45.014 170.849 44.9233 170.723C44.5517 170.204 42.8259 167.791 41.9064 163.703C41.671 162.553 41.5803 161.575 41.5765 160.754C41.5867 158.387 42.3224 157.371 42.3224 157.371ZM61.3518 143.979L64.1594 140.554L64.0887 140.536L64.1594 140.45C64.1594 140.45 56.9844 138.582 50.7452 141.488C44.922 144.083 39.9307 150.727 39.9307 150.727L40.1613 150.8L40.1386 150.831L44.4021 152.18C47.0017 149.481 49.1854 147.405 51.6811 146.056C54.1768 144.498 57.1924 143.772 61.3518 143.979ZM55.3844 139.583L55.3758 139.584C53.8365 139.794 52.4587 139.981 52.409 139.931C52.409 139.931 52.4316 139.898 52.4764 139.835C52.4377 139.835 52.4147 139.833 52.409 139.827C52.409 139.827 57.4003 132.457 65.8232 132.146C71.0225 131.938 74.2461 134.222 74.2461 134.222L74.2461 134.326L74.3501 139.931L74.3501 140.035C72.3743 138.582 69.7747 137.44 67.175 137.129C64.3674 136.61 61.3518 137.751 59.4801 139.101C58.9377 139.101 57.0661 139.355 55.3844 139.583ZM67.799 145.952L67.8311 145.901L67.7989 145.848L70.0866 142.214C70.0866 142.214 77.2617 146.056 77.7816 155.606C77.7999 155.97 77.8085 156.321 77.8075 156.663C77.818 160.273 76.7696 162.694 74.662 165.467C74.5307 165.643 74.3951 165.815 74.2557 165.981C74.4214 165.841 74.5914 165.704 74.766 165.571C77.7816 163.287 80.3813 162.249 84.5407 162.457C94.1074 162.976 97.9549 170.139 97.9549 170.139L94.3154 172.422C93.792 172.115 93.1866 171.58 92.4883 170.963C90.8282 169.497 88.6433 167.566 85.7886 167.128C82.773 166.609 78.0936 167.647 77.5737 172.63C77.0537 177.924 82.773 173.875 82.357 171.696C82.877 171.177 85.8926 181.246 77.2617 181.661C81.4659 184.059 81.0685 189.92 80.8593 193.005L80.8589 193.011L80.8379 193.324L80.8179 193.641C80.7965 194.005 80.7854 194.309 80.7972 194.533C76.9514 194.948 71.1314 193.185 69.6726 189.14C69.6788 189.175 69.6553 189.423 68.6308 191.003C66.3983 194.377 61.7499 194.674 56.6766 194.999C53.0068 195.234 49.1147 195.483 45.7539 196.92C45.9835 194.686 49.636 192.988 53.5968 191.148L53.6021 191.145C56.8144 189.652 60.2285 188.066 62.1837 186.021C65.031 183.031 66.6268 179.348 68.1637 175.8C69.4735 172.777 70.7407 169.852 72.7034 167.54C70.4153 169.49 67.4934 170.752 64.4745 172.055C60.9187 173.59 57.2284 175.184 54.2808 178.028C52.2312 179.981 50.6407 183.392 49.1448 186.6C47.3012 190.554 45.6011 194.2 43.3622 194.429L43.4086 194.32L43.3622 194.325C44.8026 190.97 45.0521 187.085 45.2873 183.421C45.6125 178.357 45.9105 173.717 49.2894 171.488C50.3254 170.818 50.7899 170.577 50.997 170.492C47.4219 169.086 45.6793 164.255 45.6947 160.541C45.6927 160.126 45.7125 159.725 45.7539 159.342C46.0969 159.361 46.6219 159.326 47.2703 159.282L47.2845 159.281C50.3746 159.072 56.2458 158.675 58.6482 162.872C59.0641 154.256 69.1507 157.266 68.6308 157.785L68.6243 157.784C68.656 157.825 68.6593 157.861 68.6308 157.89C67.2546 157.628 65.1761 159.799 65.1289 161.31C65.1562 162.143 65.8485 162.745 67.6949 162.561C71.9144 162.122 73.31 158.715 73.3267 155.854C73.3251 155.581 73.3109 155.312 73.2855 155.053C73.2657 154.851 73.2391 154.654 73.2062 154.464C72.6971 151.633 70.7636 149.461 69.2915 147.807C68.6589 147.097 68.1115 146.482 67.799 145.952ZM62.5997 150.831L58.4402 149.585L58.5225 149.506L58.4402 149.481C58.4402 149.481 65.4073 142.837 65.4073 137.855L69.2547 137.959L69.2403 138.062L69.2548 138.063C68.4229 144.083 66.4471 146.575 62.5997 150.831ZM51.0572 147.924L51.0835 147.914L51.0572 147.82L55.6325 146.056C55.6325 146.056 55.5286 150.623 60.7279 151.557C64.2454 152.116 66.9026 150.281 68.0377 149.498C68.379 149.262 68.5827 149.122 68.6308 149.17L71.4384 152.284L71.3902 152.334L71.4385 152.388C65.4073 158.72 53.6568 157.371 51.0572 147.924ZM74.1421 143.876L74.1626 143.806L74.1421 143.772C74.1421 143.772 74.974 140.969 75.3899 137.751C75.8059 134.326 75.8059 130.485 75.8059 130.485L79.5446 131.936C79.5244 131.931 79.5155 131.963 79.515 132.029L79.5446 132.04C79.5289 132.036 79.5201 132.053 79.5166 132.092C79.5219 132.208 79.5407 132.387 79.5659 132.624C79.6358 133.28 79.7528 134.377 79.7502 135.79C79.7527 136.917 79.6803 138.25 79.4454 139.724C78.7175 144.602 76.6378 147.924 76.6378 147.924L74.1421 143.876ZM95.0433 135.156C93.8046 135.727 91.6053 136.995 91.5662 138.561C91.5674 138.607 91.5707 138.653 91.5761 138.699C91.5837 138.763 91.5955 138.828 91.6118 138.893C92.2357 141.176 94.5234 142.734 94.5234 142.734L94.351 142.712C94.4598 142.795 94.5234 142.838 94.5234 142.838L88.7002 142.111C87.7643 146.367 84.6447 148.028 80.5892 148.651L80.7203 148.526L80.5892 148.547C83.675 145.642 84.5182 143.037 85.2342 140.824C86.205 137.824 86.9417 135.547 92.7175 134.23L91.9237 132.25L90.7799 130.069C85.9051 133.494 83.7123 132.537 80.7947 131.265C78.6711 130.338 76.1635 129.244 71.9584 129.55L72.096 129.437L71.9584 129.447C75.078 126.851 78.4055 125.606 82.149 127.786L85.4766 123.01C85.4766 123.01 85.4699 123.055 85.4611 123.137L85.4766 123.115C85.4766 123.115 85.4602 123.225 85.4445 123.418C85.4309 123.585 85.4178 123.813 85.4164 124.083C85.4222 125.08 85.5907 126.587 86.4124 127.786C87.4523 129.343 90.3639 128.305 91.7157 127.786C92.4437 130.485 93.5875 132.976 95.0433 135.052L94.9886 135.077L95.0433 135.156ZM82.045 157.681L82.149 157.578L82.1539 157.564L82.461 150.312L82.461 150.208L85.7886 148.132L87.015 153.406L92.0277 154.567L89.948 157.889L82.149 157.682L82.045 157.681ZM61.1438 161.107C60.8396 161.216 60.6716 161.546 60.6588 161.99C60.7 163.673 62.8307 166.753 67.9755 165.924C65.2084 165.16 63.869 163.489 62.9324 162.321C62.2548 161.475 61.788 160.893 61.1438 161.107ZM49.4037 177.048C49.4409 175.313 51.3471 172.364 56.3333 172.715C53.6937 173.71 52.5074 175.507 51.6781 176.764C51.0762 177.676 50.6624 178.303 50.0173 178.131C49.6361 178.03 49.4164 177.612 49.4037 177.048ZM51.4731 163.287C51.0865 163.498 50.887 163.919 50.8751 164.455C50.9331 167.101 55.3326 172.261 64.1294 169.286C59.4038 168.808 56.7124 166.423 54.8283 164.754C53.4333 163.519 52.4809 162.675 51.4731 163.287ZM120 228.581C116.776 226.505 114.593 222.353 117.712 218.512C117.712 218.512 107.522 219.55 109.913 217.267C112.927 214.31 115.448 211.793 117.215 210.029C118.985 208.262 120 207.249 120 207.301L120 212.076L120 212.18C120 212.18 117.608 213.529 117.608 215.294C117.608 216.741 119.217 217.909 119.796 218.283L119.792 218.201C119.842 218.25 119.891 218.276 119.93 218.289C119.972 218.304 120 218.304 120 218.304L120 218.409L120 222.664L120 228.581ZM111.577 222.457C112.305 228.893 115.113 231.384 120 234.187L120 240C119.242 239.36 118.343 238.677 117.388 237.951C113.233 234.793 108.028 230.837 108.873 226.194C100.555 226.401 97.643 213.633 97.643 213.633C84.5407 210.934 81.0052 196.401 84.0208 184.879C84.6447 185.813 87.7643 188.305 87.7643 188.305C87.7643 188.305 84.4367 204.81 99.3067 209.066C111.161 212.491 118.024 200.035 110.537 193.806C108.873 192.353 107.21 192.145 104.61 193.495C101.802 194.948 102.218 199.308 105.13 198.374C105.546 196.09 107.21 195.052 108.977 196.09C113.969 198.997 107.418 203.149 104.194 203.149C100.555 203.149 95.4593 200.139 98.2669 192.768C100.555 186.644 110.329 186.229 115.113 190.796C123.328 198.789 116.672 215.19 103.05 214.568C103.57 218.409 107.73 222.042 111.577 222.457ZM99.7227 176.159L96.2911 178.962C96.4991 183.011 95.7712 186.021 94.2114 188.72C92.8596 191.211 90.7799 193.391 88.0762 195.986L89.4281 200.242C89.4281 200.242 96.0832 195.26 98.6828 189.551C101.594 183.322 99.7227 176.159 99.7227 176.159ZM120 183.737L118.44 183.322C118.44 183.322 118.648 181.453 116.672 177.301C114.593 173.149 109.081 171.176 109.081 171.176L109.185 175.017C109.185 175.017 112.305 177.509 113.553 180.208C114.551 182.268 114.868 184.414 115.049 185.636C115.15 186.323 115.208 186.718 115.321 186.644C115.737 186.332 117.4 186.851 118.544 187.578C119.584 188.201 119.792 189.446 119.792 189.55L119.792 189.757C119.792 189.654 119.896 189.446 120 189.238L120 187.059L120 183.84L120 183.737ZM100.694 184.825C100.923 183.144 101.178 181.269 101.178 180.727C102.53 178.962 103.674 175.952 103.154 173.045C102.842 170.45 101.698 167.855 100.243 165.883L105.962 165.986C105.962 165.986 108.25 169.205 108.042 174.395C107.73 182.803 100.347 187.786 100.347 187.786C100.297 187.736 100.484 186.361 100.694 184.825ZM74.2461 172.111C72.9983 178.962 78.6135 180.623 79.1335 179.17C79.3482 178.526 78.7648 178.061 77.9181 177.384C76.7145 176.423 74.9786 175.036 74.2461 172.111ZM67.487 183.737C68.1109 190.692 62.3917 191.834 61.9757 190.277C61.8012 189.58 62.4509 189.157 63.3868 188.548C64.6807 187.706 66.5215 186.508 67.487 183.737ZM70.9186 175.951C67.0711 186.851 75.7019 191.107 76.9497 188.824C77.5673 187.767 76.7066 186.803 75.4551 185.402C73.7564 183.501 71.3377 180.793 70.9186 175.951ZM90.6759 181.869L89.4281 177.716C93.6915 173.772 96.1872 171.903 102.218 171.073L102.322 174.913C97.331 174.913 90.6759 181.869 90.6759 181.869ZM94.1074 184.672L92.3397 189.239C82.8769 186.644 81.5251 174.914 87.8683 168.893L90.9879 171.696C91.0359 171.744 90.8952 171.947 90.6593 172.288C89.8745 173.42 88.0365 176.073 88.5962 179.585C89.636 184.775 94.1074 184.672 94.1074 184.672ZM96.3951 166.194L92.3397 163.703C92.3397 163.703 95.6672 161.523 100.555 160.9C103.816 160.382 106.39 160.655 107.562 160.779L107.576 160.781C107.714 160.796 107.832 160.808 107.929 160.816L108.012 160.824C108.056 160.827 108.095 160.829 108.128 160.83C108.215 160.832 108.258 160.824 108.251 160.8L109.705 164.533C109.705 164.533 105.858 164.533 102.426 164.948C99.2028 165.364 96.3951 166.194 96.3951 166.194ZM114.073 162.042L114.177 167.128L119.792 172.526L120 172.318L120 169.516L120 165.883L114.073 162.042ZM112.409 153.945C110.849 152.803 111.993 149.689 112.513 148.443C109.809 147.717 107.314 146.575 105.234 145.225C104.61 146.471 103.05 149.274 101.282 148.755C98.9948 148.132 97.435 145.848 97.435 145.848L98.1629 151.661C93.8995 152.595 92.2357 155.709 91.6118 159.758C94.5212 156.678 97.1316 155.836 99.3479 155.121C102.36 154.15 104.644 153.413 105.962 147.613L108.042 148.443L110.225 149.585C106.795 154.451 107.753 156.64 109.028 159.553C109.956 161.673 111.052 164.176 110.745 168.374C113.345 165.26 114.593 161.938 112.409 158.201L117.192 154.879C117.192 154.879 114.385 155.294 112.409 153.945Z" fill="#F6F7FB"/>
<path fill-rule="evenodd" clip-rule="evenodd" d="M5.24082e-06 120.409L5.92723 120.409L6.03119 120.305C8.83883 115.426 11.3345 112.623 17.7816 111.896C18.1974 108.057 21.8343 103.907 25.6801 103.385C25.6709 103.618 25.6667 103.849 25.6674 104.077C25.6207 117.207 41.6275 123.486 49.4974 115.426C51.54 113.294 52.5878 110.17 52.5761 107.16C52.5921 103.391 50.9496 99.7813 47.5217 98.5055C40.1387 95.7026 37.1231 100.789 37.1231 104.422L37.1233 104.465L37.123 104.526C37.123 107.744 41.2825 114.284 44.1941 109.301C44.4797 108.817 44.6084 108.34 44.5975 107.895C44.6271 106.672 43.6146 105.667 41.9064 105.357C41.8239 105.101 41.7826 104.864 41.7769 104.647C41.8347 102.503 45.487 102.426 46.7938 104.942C47.3954 106.097 47.6881 107.067 47.6993 107.934C47.6856 108.971 47.2636 109.862 46.4818 110.754C40.9854 117.339 30.6471 112.806 30.6094 103.543C30.6146 102.321 30.7986 101.018 31.1958 99.6475C35.4592 84.8029 51.9931 88.1249 51.9931 88.1249C51.9931 88.1249 54.4887 85.0107 55.4246 84.3878L55.3186 84.3599C55.3558 84.3315 55.3912 84.3062 55.4246 84.2839C44.0901 81.2736 29.4281 84.8029 26.7245 97.8826C26.7245 97.8826 14.0885 100.754 14.1398 108.943L14.141 109.036L14.1421 109.093C9.49166 108.25 5.52874 113.445 2.36514 117.593C1.63809 118.546 0.953233 119.444 0.311951 120.201L5.24082e-06 120.409ZM22.149 120.408L22.0451 120.409L11.5425 120.409C11.6231 120.273 11.7078 120.139 11.7963 120.007C13.8535 116.932 17.964 114.872 21.7237 117.826C21.6856 116.88 21.6043 112.709 22.9809 110.235L23.0034 110.289C23.0299 110.235 23.0572 110.183 23.0849 110.131C25.1032 115.006 28.222 116.788 30.4763 118.076C31.8226 118.846 32.8605 119.439 33.1716 120.409L33.0676 120.408L28.2842 120.409L28.1802 120.408C27.8683 119.889 26.6204 118.125 25.1647 118.125C23.7088 118.125 22.357 119.889 22.149 120.408ZM50.6413 120.409L51.0206 120.409L50.8492 120.513L56.4645 120.513L56.4645 120.409L56.9844 118.748C56.9844 118.748 58.8561 118.956 63.0156 116.983C67.175 114.907 69.1508 109.405 69.1508 109.405L69.1112 109.406L69.1508 109.301L65.3033 109.405C65.3033 109.405 62.8076 112.519 60.104 113.765C58.0401 114.762 55.8909 115.078 54.6663 115.258C53.9782 115.359 53.582 115.418 53.6569 115.53C53.6646 115.54 53.6719 115.551 53.6787 115.563C53.6475 115.584 53.6395 115.608 53.6568 115.634C53.7138 115.71 53.743 115.827 53.7483 115.975C53.7259 116.661 53.2861 117.861 52.721 118.748C52.0971 119.682 51.0572 120.305 50.6413 120.409ZM74.3501 120.408L74.2461 120.409L67.799 120.409L67.8266 120.378L67.8313 120.373C68.2777 119.875 73.2015 114.388 73.1022 114.388L78.1976 114.284L78.1283 114.391L78.3015 114.388L74.3501 120.408ZM42.3224 83.1419L42.2664 83.1571C42.3013 83.2169 42.3223 83.2458 42.3223 83.2458L37.747 84.4917L37.747 84.3878L37.7083 83.9336C37.576 82.0299 37.484 80.7054 37.487 79.5538C37.4819 77.3348 37.8171 75.7903 38.8738 72.0943C37.9895 69.7809 37.0852 68.1498 36.2914 66.718C35.3161 64.9591 34.5075 63.5009 34.1074 61.4466C33.7784 59.743 33.6649 58.2021 33.6681 56.7074C33.6654 55.0195 33.8139 53.3945 33.9718 51.6671C34.1476 49.744 34.335 47.6938 34.3385 45.2872C34.3361 42.1127 34.0115 38.3178 32.9216 33.386L32.6516 33.1077L32.8705 33.1564L32.8596 33.1077L32.8893 33.1366L32.8596 33.0038L33.0603 33.1979C41.7374 35.0931 46.8846 34.6247 51.3471 34.2177C54.577 33.9237 57.4483 33.6622 61.0398 34.3536C63.0977 34.753 64.5585 35.5599 66.3205 36.5336L66.3245 36.5351C67.7669 37.3329 69.4114 38.2412 71.7504 39.1282C77.3896 37.5205 78.0554 37.5666 83.5689 37.9483L84.1248 37.9868L82.8769 42.5541C82.8769 42.5541 81.0052 41.2044 76.4298 42.139C72.3333 43.057 69.9171 44.7803 69.3975 45.1508C69.2708 45.241 69.2568 45.2512 69.3587 45.1493C66.6551 41.5161 63.6395 40.0629 60.8319 39.7512C54.2746 39.0238 50.2064 39.3072 46.2627 39.5824L46.2459 39.5839C44.1253 39.7314 42.0397 39.8764 39.6214 39.8597L39.6216 39.8885C39.6232 40.0649 39.6247 40.2398 39.6244 40.4126C39.6257 42.6869 39.4867 44.6744 39.3454 46.6947C39.2015 48.7526 39.0553 50.846 39.0524 53.3088C39.0536 55.5324 39.1724 58.0597 39.5147 61.1353C39.8267 63.9378 41.2825 66.9486 44.922 69.6471C45.024 69.5452 45.014 69.5594 44.9233 69.6862L44.8926 69.7292L44.922 69.751C45.024 69.6492 45.014 69.6634 44.9233 69.7901C44.5517 70.3091 42.8259 72.7213 41.9064 76.8102C41.671 77.9592 41.5803 78.938 41.5765 79.7586C41.5867 82.1257 42.3224 83.1419 42.3224 83.1419ZM61.3518 96.5333L64.1595 99.9587L64.0887 99.9764L64.1594 100.063C64.1594 100.063 56.9844 101.931 50.7452 99.0245C44.922 96.4294 39.9307 89.7854 39.9307 89.7854L40.1613 89.7124L40.1387 89.682L44.4021 88.3322C47.0017 91.0313 49.1854 93.1074 51.6811 94.4572C54.1768 96.0143 57.1924 96.7406 61.3518 96.5333ZM55.3844 100.93L55.3759 100.928C53.8365 100.719 52.4587 100.532 52.409 100.582C52.409 100.582 52.4316 100.615 52.4764 100.677C52.4377 100.677 52.4147 100.68 52.409 100.686C52.409 100.686 57.4003 108.056 65.8232 108.367C71.0225 108.575 74.2461 106.291 74.2461 106.291L74.2461 106.187L74.3501 100.582L74.3501 100.478C72.3744 101.931 69.7747 103.073 67.1751 103.384C64.3674 103.903 61.3518 102.762 59.4801 101.412C58.9377 101.412 57.0661 101.158 55.3844 100.93ZM67.799 94.5606L67.8311 94.6118L67.7989 94.665L70.0867 98.2982C70.0867 98.2982 77.2617 94.4572 77.7816 84.9068C77.7999 84.5429 77.8085 84.1916 77.8075 83.85C77.8181 80.2396 76.7696 77.8183 74.662 75.0452C74.5307 74.8694 74.3952 74.698 74.2557 74.5313C74.4214 74.6717 74.5914 74.8085 74.766 74.9418C77.7816 77.2253 80.3813 78.2633 84.5407 78.056C94.1075 77.537 97.955 70.374 97.955 70.374L94.3154 68.0905C93.792 68.3977 93.1866 68.9324 92.4884 69.5493C90.8282 71.0162 88.6433 72.9463 85.7886 73.3848C82.773 73.9038 78.0936 72.8657 77.5737 67.8827C77.0537 62.5885 82.773 66.6374 82.357 68.8169C82.877 69.3359 85.8926 59.267 77.2617 58.8519C81.4659 56.4534 81.0685 50.5925 80.8593 47.5077L80.8589 47.5017L80.8379 47.1889L80.8179 46.8716C80.7965 46.5072 80.7854 46.2041 80.7972 45.9795C76.9514 45.5644 71.1314 47.3278 69.6726 51.3726C69.6788 51.3381 69.6554 51.0898 68.6308 49.5094C66.3983 46.1362 61.7499 45.8386 56.6766 45.5137C53.0068 45.2791 49.1147 45.0302 45.7539 43.5922C45.9835 45.827 49.636 47.5245 53.5968 49.3649L53.6021 49.3679C56.8144 50.8607 60.2285 52.4472 62.1837 54.4918C65.031 57.4813 66.6268 61.1647 68.1637 64.7123C69.4735 67.7357 70.7407 70.6604 72.7034 72.9727C70.4153 71.0228 67.4934 69.7612 64.4745 68.458C60.9187 66.9227 57.2284 65.3291 54.2808 62.4846C52.2312 60.5317 50.6408 57.121 49.1448 53.9125C47.3012 49.9584 45.6011 46.3126 43.3622 46.0835L43.4086 46.1924L43.3622 46.1874C44.8026 49.5423 45.0521 53.4279 45.2873 57.0916C45.6125 62.1557 45.9105 66.796 49.2894 69.0247C50.3254 69.6943 50.7899 69.9355 50.997 70.0207C47.4219 71.4267 45.6793 76.2582 45.6947 79.9715C45.6927 80.3866 45.7125 80.788 45.7539 81.1702C46.0969 81.152 46.6219 81.1869 47.2703 81.2305L47.2845 81.232C50.3746 81.4409 56.2458 81.8378 58.6482 77.6404C59.0641 86.2566 69.1508 83.2463 68.6308 82.7273L68.6243 82.7283C68.656 82.6873 68.6593 82.6513 68.6308 82.6229C67.2546 82.8849 65.1761 80.714 65.1289 79.2026C65.1562 78.3693 65.8485 77.7676 67.6949 77.9521C71.9144 78.3911 73.31 81.7972 73.3267 84.6585C73.3251 84.9322 73.311 85.2003 73.2855 85.4598C73.2657 85.6621 73.2391 85.8587 73.2062 86.0488C72.6971 88.8801 70.7636 91.0521 69.2915 92.7055C68.6589 93.4156 68.1115 94.0304 67.799 94.5606ZM62.5997 89.682L58.4402 90.9274L58.5225 91.0069L58.4402 91.0318C58.4402 91.0318 65.4073 97.6753 65.4073 102.658L69.2547 102.554L69.2403 102.45L69.2548 102.45C68.4229 96.4294 66.4471 93.9382 62.5997 89.682ZM51.0572 92.5884L51.0835 92.5985L51.0572 92.6928L55.6326 94.4572C55.6326 94.4572 55.5286 89.8898 60.7279 88.9557C64.2455 88.3971 66.9026 90.2314 68.0377 91.0151C68.379 91.2508 68.5827 91.3912 68.6308 91.343L71.4385 88.2288L71.3902 88.1786L71.4385 88.1249C65.4073 81.7926 53.6569 83.1419 51.0572 92.5884ZM74.1421 96.6367L74.1626 96.7072L74.1421 96.7406C74.1421 96.7406 74.974 99.5436 75.39 102.762C75.8059 106.187 75.8059 110.028 75.8059 110.028L79.5446 108.576C79.5244 108.582 79.5155 108.55 79.515 108.484L79.5446 108.473C79.5289 108.477 79.5201 108.459 79.5166 108.42C79.5219 108.304 79.5407 108.125 79.5659 107.889C79.6358 107.233 79.7528 106.135 79.7502 104.723C79.7528 103.596 79.6803 102.263 79.4454 100.789C78.7175 95.9104 76.6378 92.5884 76.6378 92.5884L74.1421 96.6367ZM95.0433 105.357C93.8046 104.786 91.6053 103.518 91.5662 101.952C91.5674 101.906 91.5707 101.86 91.5761 101.814C91.5837 101.749 91.5955 101.685 91.6118 101.62C92.2357 99.3363 94.5234 97.7792 94.5234 97.7792L94.351 97.8005C94.4598 97.7178 94.5234 97.6748 94.5234 97.6748L88.7002 98.4016C87.7643 94.1455 84.6447 92.4845 80.5893 91.862L80.7203 91.9867L80.5893 91.9659C83.675 94.8703 84.5182 97.4761 85.2342 99.6885C86.205 102.689 86.9417 104.966 92.7175 106.282L91.9237 108.263L90.7799 110.443C85.9051 107.019 83.7123 107.975 80.7947 109.248C78.6711 110.175 76.1635 111.268 71.9584 110.962L72.096 111.076L71.9584 111.066C75.078 113.661 78.4055 114.907 82.1491 112.727L85.4766 117.502C85.4766 117.502 85.47 117.458 85.4611 117.376L85.4766 117.398C85.4766 117.398 85.4602 117.287 85.4445 117.094C85.4309 116.928 85.4178 116.7 85.4164 116.429C85.4222 115.433 85.5907 113.926 86.4125 112.727C87.4523 111.17 90.3639 112.208 91.7158 112.727C92.4437 110.028 93.5875 107.537 95.0433 105.461L94.9886 105.435L95.0433 105.357ZM82.0451 82.8312L82.1491 82.9346L82.1539 82.9483L82.461 90.201L82.461 90.3049L85.7886 92.3811L87.015 87.1066L92.0277 85.9454L89.948 82.6234L82.1491 82.8307L82.0451 82.8312ZM61.1438 79.4053C60.8396 79.2968 60.6716 78.9664 60.6588 78.5223C60.7 76.8401 62.8307 73.7598 67.9755 74.5891C65.2084 75.3529 63.869 77.0235 62.9324 78.1919C62.2548 79.0373 61.788 79.6197 61.1438 79.4053ZM49.4037 63.4644C49.4409 65.1994 51.3471 68.1483 56.3333 67.7976C53.6937 66.8031 52.5074 65.0058 51.6781 63.7487C51.0762 62.8364 50.6624 62.2094 50.0173 62.3812C49.6361 62.4826 49.4165 62.9002 49.4037 63.4644ZM51.4731 77.2253C51.0865 77.0149 50.887 76.5937 50.8751 76.058C50.9331 73.4121 55.3326 68.2512 64.1294 71.2265C59.4038 71.7045 56.7124 74.0893 54.8283 75.7584C53.4333 76.9941 52.4809 77.8376 51.4731 77.2253ZM120 11.9314C116.776 14.0075 114.593 18.1597 117.712 22.0007C117.712 22.0007 107.522 20.9627 109.913 23.2461C112.927 26.2032 115.448 28.7193 117.215 30.4837C118.985 32.2506 120 33.2638 120 33.2116L120 28.4369L120 28.3325C120 28.3325 117.608 26.9832 117.608 25.2183C117.608 23.7712 119.217 22.6034 119.796 22.2299L119.792 22.312C119.842 22.2628 119.891 22.2369 119.93 22.2233C119.972 22.2086 120 22.2086 120 22.2086L120 22.1041L120 17.8485L120 11.9314ZM111.577 18.0558C112.305 11.6201 115.113 9.12839 120 6.32593L120 0.51269C119.242 1.15286 118.343 1.83612 117.388 2.56144C113.233 5.71972 108.028 9.67581 108.873 14.3187C100.555 14.1114 97.643 26.8793 97.643 26.8793C84.5407 29.5784 81.0052 44.1112 84.0208 55.6338C84.6447 54.6997 87.7643 52.2079 87.7643 52.2079C87.7643 52.2079 84.4367 35.7028 99.3067 31.4467C111.161 28.0213 118.024 40.478 110.537 46.7064C108.873 48.1596 107.21 48.3674 104.61 47.0176C101.802 45.5644 102.218 41.2049 105.13 42.139C105.546 44.4225 107.21 45.4605 108.977 44.4225C113.969 41.5161 107.418 37.3638 104.194 37.3638C100.555 37.3638 95.4593 40.3741 98.2669 47.7445C100.555 53.8689 110.329 54.284 115.113 49.7167C123.328 41.7239 116.672 25.3222 103.05 25.9452C103.57 22.1042 107.73 18.4709 111.577 18.0558ZM99.7227 64.3534L96.2911 61.5505C96.4991 57.5021 95.7712 54.4918 94.2114 51.7928C92.8596 49.3015 90.7799 47.1215 88.0762 44.5264L89.4281 40.2702C89.4281 40.2702 96.0832 45.2527 98.6828 50.962C101.594 57.1904 99.7227 64.3534 99.7227 64.3534ZM120 56.7758L118.44 57.1909C118.44 57.1909 118.648 59.0592 116.672 63.2115C114.593 67.3637 109.081 69.3364 109.081 69.3364L109.185 65.4954C109.185 65.4954 112.305 63.0041 113.553 60.3051C114.551 58.2447 114.868 56.0991 115.049 54.8766C115.15 54.1898 115.208 53.7944 115.321 53.8689C115.737 54.1806 117.4 53.6616 118.544 52.9348C119.584 52.3118 119.792 51.0664 119.792 50.9625L119.792 50.7552C119.792 50.8591 119.896 51.0664 120 51.2743L120 53.4538L120 56.6724L120 56.7758ZM100.694 55.688C100.923 57.3688 101.178 59.2432 101.178 59.7855C102.53 61.5505 103.674 64.5607 103.154 67.4676C102.842 70.0628 101.698 72.6579 100.243 74.6301L105.962 74.5262C105.962 74.5262 108.25 71.3081 108.042 66.1178C107.73 57.7094 100.347 52.7269 100.347 52.7269C100.297 52.7766 100.484 54.1517 100.694 55.688ZM74.2461 68.4018C72.9983 61.5505 78.6135 59.89 79.1335 61.3431C79.3482 61.9864 78.7648 62.4522 77.9181 63.1283C76.7145 64.0899 74.9786 65.4766 74.2461 68.4018ZM67.487 56.7758C68.1109 49.8206 62.3917 48.6786 61.9757 50.2357C61.8012 50.9326 62.4509 51.3554 63.3868 51.9646C64.6807 52.807 66.5215 54.0048 67.487 56.7758ZM70.9186 64.5612C67.0711 53.6616 75.7019 49.4054 76.9497 51.6889C77.5673 52.7457 76.7066 53.7092 75.4551 55.1102C73.7564 57.012 71.3377 59.7197 70.9186 64.5612ZM90.6759 58.6441L89.4281 62.7963C93.6915 66.7408 96.1872 68.6096 102.218 69.4398L102.322 65.5993C97.331 65.5993 90.6759 58.6441 90.6759 58.6441ZM94.1075 55.8411L92.3397 51.2738C82.8769 53.8689 81.5251 65.5988 87.8683 71.6198L90.9879 68.8169C91.0359 68.7687 90.8952 68.5655 90.6593 68.2249C89.8745 67.0925 88.0365 64.4396 88.5962 60.9275C89.636 55.7372 94.1075 55.8411 94.1075 55.8411ZM96.3951 74.3189L92.3397 76.8102C92.3397 76.8102 95.6672 78.9902 100.555 79.6131C103.816 80.1306 106.39 79.8574 107.562 79.7332L107.576 79.7317C107.714 79.717 107.832 79.7049 107.929 79.6962L108.012 79.6891C108.056 79.6856 108.095 79.6836 108.128 79.6831C108.215 79.681 108.258 79.6891 108.251 79.7125L109.705 75.9799C109.705 75.9799 105.858 75.9799 102.426 75.5648C99.2028 75.1492 96.3951 74.3189 96.3951 74.3189ZM114.073 78.4711L114.177 73.3848L119.792 67.9866L120 68.1944L120 70.9969L120 74.6301L114.073 78.4711ZM112.409 86.5678C110.849 87.7098 111.993 90.824 112.513 92.0698C109.809 92.7962 107.314 93.9382 105.234 95.2874C104.61 94.0421 103.05 91.2391 101.282 91.7581C98.9948 92.3811 97.435 94.665 97.435 94.665L98.1629 88.8518C93.8995 87.9176 92.2357 84.8034 91.6118 80.7546C94.5212 83.8348 97.1316 84.6767 99.3479 85.3914C102.36 86.363 104.644 87.0995 105.962 92.9001L108.042 92.0698L110.225 90.9279C106.795 86.0615 107.753 83.8723 109.028 80.9599C109.956 78.8401 111.052 76.3367 110.745 72.1389C113.345 75.2531 114.593 78.5751 112.409 82.3117L117.192 85.6337C117.192 85.6337 114.385 85.2185 112.409 86.5678Z" fill="#F6F7FB"/>
</g>
</svg>
