<svg width="96" height="24" viewBox="0 0 96 24" fill="none" xmlns="http://www.w3.org/2000/svg">
<g opacity="0.8" clip-path="url(#clip0_259_2165)">
<path fill-rule="evenodd" clip-rule="evenodd" d="M0.0517578 4.79736V19.181L4.84039 23.9752V9.59188H14.4175L9.62879 4.79736H0.0517578Z" fill="white"/>
<path fill-rule="evenodd" clip-rule="evenodd" d="M4.83984 14.3865H14.4169V0.00292969L19.2055 4.79745V19.181H9.62824L4.83984 14.3865Z" fill="white"/>
<path d="M93.7333 19.1802L93.5283 18.0502H93.4253C93.2203 18.3105 92.9741 18.5364 92.6867 18.7284C92.03 19.1665 91.2503 19.3859 90.3474 19.3859C88.9792 19.3859 87.8331 18.8826 86.9096 17.8758C85.9862 16.8687 85.5244 15.5572 85.5244 13.9409C85.5244 12.3247 85.9862 11.0129 86.9096 10.0061C87.8331 8.99931 88.9792 8.49602 90.3474 8.49602C91.1678 8.49602 91.9205 8.72192 92.6049 9.17397C92.8917 9.36574 93.1314 9.58504 93.3228 9.83147H93.4253V4.79736H95.9908V19.1802H93.7333ZM88.8285 16.2112C89.3208 16.7523 89.964 17.0229 90.7579 17.0229C91.5512 17.0229 92.1944 16.7523 92.6867 16.2112C93.1791 15.6701 93.4253 14.9134 93.4253 13.9407C93.4253 12.9683 93.1791 12.2113 92.6867 11.6704C92.1944 11.1294 91.5512 10.8587 90.7579 10.8587C89.964 10.8587 89.3208 11.1294 88.8285 11.6704C88.3361 12.2115 88.0899 12.9683 88.0899 13.9407C88.0899 14.9134 88.3361 15.6701 88.8285 16.2112Z" fill="white"/>
<path d="M73.8281 19.1805V8.70148H76.1875L76.393 9.72882H76.4955C76.6598 9.52338 76.8925 9.31775 77.1934 9.11231C77.8224 8.70148 78.548 8.49609 79.3684 8.49609C80.5587 8.49609 81.5405 8.90374 82.3138 9.71856C83.0865 10.5336 83.4729 11.5985 83.4729 12.9135V19.1803H80.908V13.1188C80.908 12.4477 80.6995 11.9032 80.2819 11.4853C79.8649 11.0674 79.3207 10.8586 78.6505 10.8586C77.9803 10.8586 77.4361 11.0674 77.0191 11.4853C76.6015 11.9032 76.393 12.4475 76.393 13.1188V19.1803H73.8281V19.1805Z" fill="white"/>
<path d="M68.6968 16.0984H71.3648C71.2964 16.3587 71.1628 16.6497 70.9649 16.9717C70.7664 17.2937 70.486 17.6499 70.1233 18.0403C69.7605 18.4306 69.2646 18.7526 68.6355 19.0059C68.0059 19.2593 67.3086 19.386 66.5424 19.386C64.9964 19.386 63.7207 18.8758 62.7148 17.8551C61.7094 16.8346 61.207 15.5299 61.207 13.941C61.207 12.3521 61.7094 11.0474 62.7148 10.027C63.7207 9.00646 64.9964 8.49609 66.5424 8.49609C67.9789 8.49609 69.1927 8.99939 70.1851 10.0062C71.1763 11.013 71.6728 12.256 71.6728 13.7353C71.6728 13.8588 71.6522 14.1054 71.611 14.475L71.5697 14.7629H63.7714C63.8809 15.5023 64.1889 16.0984 64.6948 16.5504C65.2013 17.0025 65.8168 17.2286 66.5418 17.2286C67.0889 17.2286 67.5542 17.1089 67.9376 16.869C68.3205 16.6294 68.5737 16.3726 68.6968 16.0986V16.0984ZM63.7719 13.0164H69.1073C68.9842 12.3179 68.7003 11.7495 68.2557 11.3112C67.8116 10.8727 67.2397 10.6534 66.5424 10.6534C65.8032 10.6534 65.1978 10.8691 64.726 11.3007C64.2543 11.7322 63.9363 12.3041 63.7719 13.0162V13.0164Z" fill="white"/>
<path d="M50.4019 10.0269C51.4072 9.00646 52.6829 8.49609 54.2289 8.49609C55.7749 8.49609 57.0506 9.00646 58.056 10.0269C59.0619 11.0474 59.5649 12.3521 59.5649 13.941C59.5649 15.5299 59.0619 16.8346 58.056 17.8551C57.0506 18.8756 55.7749 19.386 54.2289 19.386C52.6829 19.386 51.4072 18.8758 50.4019 17.8551C49.3959 16.8346 48.8936 15.5299 48.8936 13.941C48.8936 12.3521 49.3959 11.0474 50.4019 10.0269ZM52.2589 16.1601C52.7925 16.7353 53.4491 17.0229 54.2289 17.0229C55.0087 17.0229 55.6654 16.7353 56.199 16.1601C56.7326 15.5848 56.9994 14.8451 56.9994 13.941C56.9994 13.0369 56.7326 12.2972 56.199 11.7219C55.6654 11.1467 55.0087 10.8591 54.2289 10.8591C53.4491 10.8591 52.7925 11.1469 52.2589 11.7219C51.7259 12.2972 51.4585 13.0369 51.4585 13.941C51.4585 14.8451 51.7253 15.5848 52.2589 16.1601Z" fill="white"/>
<path d="M41.916 19.1802V8.70117H44.0709L44.2761 9.62579H44.3787C44.5019 9.46139 44.6523 9.31084 44.8302 9.17374C45.2544 8.85879 45.7196 8.70117 46.2257 8.70117H48.2778V11.1669H46.4308C45.1311 11.1669 44.4813 11.8175 44.4813 13.1188V19.1802H41.916Z" fill="white"/>
<path d="M28.7822 19.1802V4.79736H35.2465C36.601 4.79736 37.6921 5.2355 38.5196 6.11229C39.3473 6.98909 39.7613 8.16008 39.7613 9.62579C39.7613 11.0915 39.3476 12.2628 38.5196 13.1393C37.6919 14.0158 36.6008 14.4543 35.2465 14.4543H31.4501V19.18H28.7822V19.1802ZM31.4501 11.8861H35.144C35.7324 11.8861 36.2043 11.6873 36.5599 11.2901C36.9156 10.893 37.0935 10.3382 37.0935 9.62579C37.0935 8.91345 36.9156 8.35868 36.5599 7.96153C36.2041 7.56409 35.7324 7.36554 35.144 7.36554H31.4501V11.8859V11.8861Z" fill="white"/>
</g>
<defs>
<clipPath id="clip0_259_2165">
<rect width="96" height="24" fill="white"/>
</clipPath>
</defs>
</svg>
