<svg width="20" height="20" viewBox="0 0 20 20" fill="none" xmlns="http://www.w3.org/2000/svg">
<g clip-path="url(#clip0_487_242)">
<path d="M14.2448 5.95538C14.739 5.77605 14.9843 5.7115 15.1203 5.68842C15.1213 5.73188 15.1203 5.76711 15.118 5.79023C14.9242 7.82683 14.075 12.8374 13.6388 15.1689C13.5368 15.7149 13.4584 15.9748 12.9311 15.665C12.584 15.461 12.2699 15.2044 11.9334 14.9838C10.8296 14.2601 9.24951 13.1824 9.37926 13.2473C8.29253 12.5311 8.74743 12.0926 9.35409 11.5078C9.45234 11.4131 9.55451 11.3146 9.65476 11.2104C9.69951 11.1639 9.91843 10.9604 10.2271 10.6734C11.2172 9.75294 13.1304 7.97421 13.1788 7.76837C13.1867 7.7346 13.194 7.60873 13.1192 7.54225C13.0444 7.47579 12.9341 7.49852 12.8544 7.5166C12.7415 7.54222 10.9433 8.73077 7.45987 11.0822C6.94946 11.4327 6.48715 11.6035 6.07293 11.5945L6.07664 11.5964C5.53102 11.4039 4.98693 11.2383 4.43997 11.0717C4.08064 10.9622 3.72008 10.8524 3.35704 10.7344C3.26825 10.7055 3.18162 10.6781 3.1002 10.6525C6.87268 9.0091 9.38534 7.92705 10.6444 7.40335C12.4732 6.64272 13.5579 6.20461 14.2448 5.95538ZM16.2636 4.3484C16.0524 4.17705 15.8203 4.09841 15.6591 4.0599C15.4926 4.02012 15.3343 4.00732 15.2143 4.00944C14.8173 4.01643 14.3909 4.12934 13.6763 4.38866C12.9473 4.6532 11.827 5.10638 10.0043 5.86449C8.71934 6.39897 6.16108 7.50098 2.33588 9.16752C1.99989 9.30185 1.69189 9.45427 1.44854 9.63494C1.22383 9.80185 0.909284 10.1004 0.851743 10.5595C0.808275 10.9062 0.909359 11.2262 1.11436 11.4782C1.29283 11.6975 1.52147 11.8308 1.69558 11.9151C1.95405 12.0403 2.30181 12.1493 2.60744 12.2451C3.08504 12.3948 3.56154 12.5477 4.04017 12.6942C5.52193 13.1478 6.74173 13.5211 8.08384 14.4055C9.06826 15.0543 10.0337 15.7313 11.0198 16.3776C11.3794 16.6134 11.7156 16.8839 12.0869 17.102C12.4925 17.3404 13.0082 17.5577 13.6358 17.4999C14.5844 17.4126 15.0779 16.5399 15.2771 15.4753C15.7122 13.1497 16.5753 8.06961 16.7772 5.94814C16.8035 5.67122 16.7727 5.36085 16.747 5.211C16.7206 5.05669 16.6398 4.65375 16.2636 4.3484Z" fill="white"/>
</g>
<defs>
<clipPath id="clip0_487_242">
<rect width="20" height="20" fill="white"/>
</clipPath>
</defs>
</svg>
