<svg width="22" height="23" viewBox="0 0 22 23" fill="none" xmlns="http://www.w3.org/2000/svg">
<path fill-rule="evenodd" clip-rule="evenodd" d="M10.9997 8.06234C9.1012 8.06234 7.56217 9.60136 7.56217 11.4998C7.56217 13.3983 9.1012 14.9373 10.9997 14.9373C12.8982 14.9373 14.4372 13.3983 14.4372 11.4998C14.4372 9.60136 12.8982 8.06234 10.9997 8.06234ZM8.93717 11.4998C8.93717 10.3608 9.86059 9.43734 10.9997 9.43734C12.1388 9.43734 13.0622 10.3608 13.0622 11.4998C13.0622 12.6389 12.1388 13.5623 10.9997 13.5623C9.86059 13.5623 8.93717 12.6389 8.93717 11.4998Z" fill="#009990"/>
<path fill-rule="evenodd" clip-rule="evenodd" d="M10.9997 3.479C6.86172 3.479 4.07453 5.95785 2.45686 8.05946L2.42769 8.09735C2.06184 8.57249 1.7249 9.0101 1.4963 9.52754C1.25152 10.0816 1.14551 10.6856 1.14551 11.4998C1.14551 12.3141 1.25152 12.918 1.4963 13.4721C1.7249 13.9896 2.06185 14.4272 2.42769 14.9023L2.45686 14.9402C4.07453 17.0418 6.86172 19.5207 10.9997 19.5207C15.1376 19.5207 17.9248 17.0418 19.5425 14.9402L19.5716 14.9023C19.9375 14.4272 20.2744 13.9896 20.503 13.4721C20.7478 12.918 20.8538 12.3141 20.8538 11.4998C20.8538 10.6856 20.7478 10.0816 20.503 9.52754C20.2744 9.01009 19.9375 8.57248 19.5716 8.09733L19.5425 8.05946C17.9248 5.95785 15.1376 3.479 10.9997 3.479ZM3.54646 8.89815C5.04009 6.95768 7.47084 4.854 10.9997 4.854C14.5285 4.854 16.9593 6.95768 18.4529 8.89815C18.8549 9.42046 19.0904 9.73256 19.2453 10.0832C19.3901 10.4109 19.4788 10.8114 19.4788 11.4998C19.4788 12.1883 19.3901 12.5888 19.2453 12.9165C19.0904 13.2671 18.8549 13.5792 18.4529 14.1015C16.9593 16.042 14.5285 18.1457 10.9997 18.1457C7.47084 18.1457 5.04009 16.042 3.54646 14.1015C3.14442 13.5792 2.90893 13.2671 2.75404 12.9165C2.60928 12.5888 2.52051 12.1883 2.52051 11.4998C2.52051 10.8114 2.60928 10.4109 2.75404 10.0832C2.90893 9.73256 3.14442 9.42046 3.54646 8.89815Z" fill="#009990"/>
</svg>
