<svg width="20" height="20" viewBox="0 0 20 20" fill="none" xmlns="http://www.w3.org/2000/svg">
<g clip-path="url(#clip0_487_245)">
<path d="M16.3396 5.829C16.2761 5.58077 16.0965 5.39349 15.8908 5.33571C15.5254 5.23383 13.7513 4.99998 10.0013 4.99998C6.2513 4.99998 4.47759 5.23392 4.11069 5.336C3.90695 5.39267 3.7274 5.57992 3.66307 5.829C3.5724 6.18267 3.33464 7.66327 3.33464 9.99998C3.33464 12.3366 3.5724 13.8173 3.66332 14.172C3.72654 14.4192 3.90612 14.6065 4.11091 14.664C4.47759 14.7661 6.2513 15 10.0013 15C13.7513 15 15.5254 14.7661 15.8919 14.664C16.0957 14.6073 16.2752 14.4201 16.3396 14.171C16.4302 13.8173 16.668 12.3333 16.668 9.99998C16.668 7.66665 16.4302 6.18267 16.3396 5.829ZM17.954 5.41513C18.3347 6.89998 18.3347 9.99998 18.3347 9.99998C18.3347 9.99998 18.3347 13.1 17.954 14.5848C17.7419 15.4061 17.123 16.0515 16.3385 16.2696C14.9147 16.6666 10.0013 16.6666 10.0013 16.6666C10.0013 16.6666 5.09079 16.6666 3.66413 16.2696C2.8767 16.0485 2.25781 15.403 2.0486 14.5848C1.66797 13.1 1.66797 9.99998 1.66797 9.99998C1.66797 9.99998 1.66797 6.89998 2.0486 5.41513C2.26071 4.59392 2.87961 3.94846 3.66413 3.73028C5.09079 3.33331 10.0013 3.33331 10.0013 3.33331C10.0013 3.33331 14.9147 3.33331 16.3385 3.73028C17.1259 3.9515 17.7448 4.59695 17.954 5.41513ZM8.33465 12.9166V7.08331L13.3347 9.99998L8.33465 12.9166Z" fill="white"/>
</g>
<defs>
<clipPath id="clip0_487_245">
<rect width="20" height="20" fill="white"/>
</clipPath>
</defs>
</svg>
