<?xml version="1.0" standalone="no"?>
<!DOCTYPE svg PUBLIC "-//W3C//DTD SVG 1.1//EN" "http://www.w3.org/Graphics/SVG/1.1/DTD/svg11.dtd" >
<svg xmlns="http://www.w3.org/2000/svg">
<metadata>
<json>
<![CDATA[
{
	"fontFamily": "goldenFundOfNation",
	"majorVersion": 1,
	"minorVersion": 0,
	"version": "Version 1.0",
	"fontId": "goldenFundOfNation",
	"psName": "goldenFundOfNation",
	"subFamily": "Regular",
	"fullName": "goldenFundOfNation",
	"description": "Font generated by IcoMoon."
}
]]>
</json>
</metadata>
<defs>
<font id="goldenFundOfNation" horiz-adv-x="1024">
<font-face units-per-em="1024" ascent="960" descent="-64" />
<missing-glyph horiz-adv-x="1024" />
<glyph unicode="&#x20;" horiz-adv-x="512" d="" />
<glyph unicode="&#xe900;" glyph-name="acc-hear" data-tags="acc-hear" d="M517.981 750.526c-30.473-14.804-69.089-40.186-124.121-76.47l-9.341-6.159c-0.711-0.469-1.413-0.932-2.105-1.388-16.222-10.7-27.456-18.111-39.768-23.545-12.133-5.355-24.884-9.18-37.96-11.388-13.269-2.241-26.728-2.238-46.161-2.234-0.829 0-1.67 0-2.521 0-61.597 0-82.388-0.695-100.065-8.873-17.082-7.903-35.275-25.021-44.203-41.591-9.313-17.285-11.023-35-14.31-88.936-0.903-14.806-1.425-28.998-1.425-41.933 0-12.94 0.523-27.127 1.425-41.933 3.288-53.937 4.997-71.652 14.31-88.939 8.927-16.566 27.121-33.685 44.203-41.588 17.677-8.178 38.468-8.872 100.065-8.872 0.851 0 1.691 0 2.521 0 19.433 0.005 32.892 0.005 46.161-2.234 13.076-2.211 25.828-6.037 37.96-11.39 12.311-5.432 23.546-12.842 39.768-23.543 0.693-0.456 1.394-0.922 2.105-1.392l9.341-6.158c55.032-36.282 93.648-61.668 124.121-76.47 30.394-14.764 45.587-15.355 56.218-11.729 5.865 2.001 11.599 4.92 16.668 8.485 9.244 6.493 17.673 19.060 23.599 51.973 5.953 33.061 8.145 78.797 11.18 144.109 2.22 47.77 3.686 87.845 3.686 109.68s-1.466 61.91-3.686 109.677c-3.035 65.312-5.227 111.048-11.18 144.11-5.925 32.912-14.355 45.48-23.599 51.976-5.069 3.562-10.803 6.481-16.668 8.481-10.631 3.628-25.823 3.036-56.218-11.727zM490.017 808.093c35.244 17.121 69.944 26.644 104.853 14.731 11.604-3.959 22.77-9.641 32.796-16.689 30.129-21.171 42.878-54.622 49.785-92.999 6.796-37.732 9.118-87.735 12.009-150.024l0.116-2.454c2.211-47.572 3.756-89.096 3.756-112.648s-1.545-65.075-3.756-112.649l-0.116-2.453c-2.89-62.287-5.213-112.291-12.009-150.025-6.907-38.377-19.656-71.829-49.785-92.998-10.026-7.047-21.192-12.73-32.796-16.691-34.909-11.911-69.609-2.388-104.853 14.732-34.71 16.863-76.827 44.632-129.344 79.262l-11.383 7.503c-19.111 12.6-25.685 16.812-32.484 19.814-7.28 3.212-14.93 5.506-22.776 6.833-7.328 1.238-15.135 1.341-38.026 1.341-2.321 0-4.61-0.005-6.87-0.005-51.922-0.028-87.999-0.047-120.069 14.792-29.645 13.717-58.178 40.56-73.672 69.315-16.752 31.092-18.717 63.604-21.512 109.838-0.111 1.834-0.223 3.686-0.337 5.567-0.958 15.709-1.544 31.251-1.544 45.824s0.586 30.11 1.544 45.824c0.114 1.879 0.227 3.733 0.337 5.567 2.795 46.231 4.761 78.745 21.512 109.835 15.494 28.755 44.027 55.602 73.672 69.318 32.070 14.837 68.147 14.819 120.068 14.791 2.26-0.001 4.55-0.002 6.871-0.002 22.891 0 30.698 0.102 38.026 1.34 7.846 1.325 15.496 3.62 22.776 6.833 6.799 3.001 13.373 7.212 32.484 19.813l11.384 7.506c52.517 34.627 94.633 62.397 129.343 79.259zM832.847 728.583c13.577 11.314 33.755 9.48 45.070-4.097l-24.585-20.486c24.585 20.486 24.585 20.486 24.585 20.486l0.047-0.059 0.056-0.066 0.126-0.154 0.321-0.396c0.242-0.303 0.545-0.684 0.903-1.144 0.712-0.921 1.638-2.158 2.755-3.718 2.225-3.12 5.194-7.532 8.648-13.285 6.907-11.513 15.732-28.373 24.427-50.977 17.417-45.285 34.132-113.181 34.132-206.687 0-93.505-16.714-161.401-34.132-206.685-8.695-22.607-17.52-39.466-24.427-50.977-3.454-5.758-6.423-10.166-8.648-13.289-1.117-1.559-2.043-2.797-2.755-3.719-0.214-0.275-0.41-0.521-0.582-0.74-0.116-0.144-0.223-0.279-0.321-0.4l-0.321-0.396-0.126-0.154-0.056-0.070c0 0-0.047-0.056-24.632 20.429l24.585-20.485c-11.315-13.577-31.493-15.411-45.070-4.101-13.512 11.264-15.393 31.302-4.259 44.874zM828.588 212.289c0 0 0.074 0.098 0.149 0.191 0.223 0.293 0.67 0.88 1.308 1.769 1.271 1.778 3.3 4.771 5.851 9.016 5.092 8.485 12.265 22.025 19.572 41.021 14.583 37.916 29.864 98.020 29.864 183.715 0 85.693-15.281 145.798-29.864 183.713-7.308 18.996-14.48 32.536-19.572 41.023-2.551 4.246-4.58 7.235-5.851 9.014-0.638 0.89-1.085 1.478-1.308 1.77-0.074 0.094-0.149 0.19-0.149 0.19l0.149-0.19-0.065 0.091-0.084 0.1c-11.134 13.575-9.253 33.613 4.259 44.873zM752.458 603.973c-15.318-8.51-20.918-27.734-12.646-43.119l0.214-0.437c0.293-0.614 0.852-1.839 1.597-3.702 1.489-3.721 3.724-10.006 6.046-19.063 4.641-18.094 9.663-47.417 9.663-89.652s-5.022-71.559-9.663-89.651c-2.323-9.058-4.557-15.341-6.046-19.065-0.745-1.862-1.303-3.086-1.597-3.7l-0.214-0.438c-8.271-15.383-2.672-34.611 12.646-43.12 15.448-8.583 34.932-3.016 43.515 12.432l-26.796 14.885c26.796-14.885 26.829-14.829 26.829-14.829l0.033 0.061 0.070 0.13 0.163 0.303 0.41 0.782c0.312 0.6 0.689 1.359 1.126 2.276 0.875 1.839 1.983 4.31 3.235 7.452 2.513 6.279 5.609 15.192 8.62 26.936 6.028 23.505 11.669 58.182 11.669 105.546s-5.641 82.041-11.669 105.548c-3.011 11.743-6.107 20.658-8.62 26.936-1.252 3.138-2.36 5.613-3.235 7.449-0.438 0.917-0.815 1.675-1.126 2.276l-0.41 0.783-0.233 0.433-0.033 0.060-0.033 0.056c0 0 0 0-26.796-14.886l26.796 14.886c-8.583 15.449-28.067 21.015-43.515 12.432z" />
<glyph unicode="&#xe901;" glyph-name="acc-mobile" data-tags="acc-mobile" d="M509.608 906.666h4.813c78.415 0.001 140.521 0.001 189.128-6.534 50.022-6.725 90.512-20.896 122.442-52.826s46.099-72.419 52.824-122.442c6.535-48.606 6.535-110.714 6.535-189.125v-175.478c0-78.415 0-140.521-6.535-189.128-6.726-50.022-20.894-90.512-52.824-122.442s-72.42-46.099-122.442-52.824c-48.607-6.535-110.713-6.535-189.128-6.535h-4.813c-78.41 0-140.517 0-189.124 6.535-50.023 6.726-90.512 20.894-122.442 52.824s-46.1 72.42-52.826 122.442c-6.535 48.607-6.535 110.713-6.534 189.123v175.483c0 78.411-0.001 140.518 6.534 189.124 6.725 50.023 20.896 90.512 52.826 122.442s72.419 46.1 122.442 52.826c48.606 6.535 110.713 6.535 189.124 6.534zM329.011 836.703c-42.926-5.771-67.658-16.594-85.715-34.651s-28.88-42.789-34.652-85.715c-5.895-43.847-5.963-101.646-5.963-183.004v-170.665c0-81.361 0.068-139.157 5.963-183.007 5.772-42.924 16.595-67.654 34.652-85.713 18.057-18.055 42.789-28.881 85.715-34.653 43.847-5.893 101.646-5.962 183.003-5.962s139.157 0.070 183.003 5.962c42.929 5.772 67.658 16.598 85.718 34.653 18.055 18.060 28.881 42.789 34.648 85.713 5.897 43.85 5.967 101.646 5.967 183.007v170.665c0 81.358-0.070 139.157-5.967 183.004-5.767 42.927-16.593 67.658-34.648 85.715-18.060 18.057-42.789 28.88-85.718 34.651-43.846 5.895-101.646 5.963-183.003 5.963s-139.156-0.068-183.003-5.963zM352.015 149.332c0-17.673 14.327-32 32-32h255.999c17.673 0 32 14.327 32 32s-14.327 32-32 32h-255.999c-17.673 0-32-14.327-32-32z" />
<glyph unicode="&#xe902;" glyph-name="acc-visual" data-tags="acc-visual" d="M511.986 608c-88.367 0-160.001-71.634-160.001-160s71.635-160 160.001-160c88.367 0 160 71.633 160 160s-71.633 160-160 160zM415.985 448c0 53.019 42.981 96 96.001 96s96-42.981 96-96c0-53.020-42.98-96-96-96s-96.001 42.98-96.001 96zM511.986 821.334c-192.604 0-322.335-115.379-397.63-213.2l-1.358-1.764c-17.029-22.116-32.712-42.484-43.352-66.569-11.393-25.791-16.328-53.9-16.328-91.802s4.934-66.011 16.328-91.802c10.64-24.083 26.324-44.451 43.352-66.569l1.358-1.764c75.295-97.82 205.026-213.197 397.63-213.197 192.6 0 322.332 115.377 397.629 213.197l1.354 1.764c17.031 22.114 32.712 42.487 43.352 66.569 11.394 25.791 16.328 53.9 16.328 91.802s-4.934 66.011-16.328 91.802c-10.64 24.085-26.321 44.454-43.352 66.57l-1.354 1.763c-75.297 97.82-205.028 213.2-397.629 213.2zM165.072 569.097c69.522 90.32 182.662 188.237 346.914 188.237 164.25 0 277.392-97.917 346.913-188.237 18.711-24.311 29.673-38.838 36.883-55.157 6.74-15.252 10.868-33.893 10.868-65.94s-4.129-50.688-10.868-65.941c-7.21-16.319-18.171-30.846-36.883-55.156-69.52-90.321-182.663-188.234-346.913-188.234-164.252 0-277.393 97.913-346.914 188.234-18.713 24.311-29.674 38.838-36.884 55.156-6.738 15.253-10.87 33.894-10.87 65.941s4.132 50.688 10.87 65.94c7.209 16.319 18.17 30.846 36.884 55.157z" />
<glyph unicode="&#xe903;" glyph-name="add-image" data-tags="add-image" horiz-adv-x="1067" d="M1045.333 149.333c0-23.595-19.115-42.667-42.667-42.667h-128v-128c0-23.595-19.115-42.667-42.667-42.667s-42.667 19.072-42.667 42.667v128h-128c-23.552 0-42.667 19.072-42.667 42.667s19.115 42.667 42.667 42.667h128v128c0 23.595 19.115 42.667 42.667 42.667s42.667-19.072 42.667-42.667v-128h128c23.552 0 42.667-19.072 42.667-42.667zM704 661.333c23.509 0 42.667 19.115 42.667 42.667s-19.157 42.667-42.667 42.667c-23.509 0-42.667-19.115-42.667-42.667s19.157-42.667 42.667-42.667zM226.475 569.557l-205.141-205.141v382.251c0 117.632 95.701 213.333 213.333 213.333h512c117.632 0 213.333-95.701 213.333-213.333v-298.667h-128c-67.627 0-123.093-52.693-127.659-119.168l-240.725 240.725c-65.408 65.408-171.776 65.408-237.141 0zM576 704c0-70.571 57.429-128 128-128s128 57.429 128 128c0 70.571-57.429 128-128 128s-128-57.429-128-128zM533.333 149.333c0 62.421 44.885 114.517 104.107 125.739l-234.155 234.155c-32.085 32.043-84.309 32.085-116.48 0l-265.472-265.472v-9.088c0-117.632 95.701-213.333 213.333-213.333h298.667v128z" />
<glyph unicode="&#xe904;" glyph-name="arrow-blue" data-tags="arrow-blue" horiz-adv-x="970" d="M331.851 719.231c-3.789-3.758-6.796-8.229-8.848-13.154s-3.109-10.209-3.109-15.545c0-5.336 1.056-10.619 3.109-15.545s5.059-9.396 8.848-13.154l185.128-185.128c3.788-3.758 6.796-8.229 8.847-13.154s3.109-10.209 3.109-15.545c0-5.336-1.056-10.619-3.109-15.545s-5.059-9.396-8.847-13.154l-185.128-185.128c-3.789-3.756-6.796-8.23-8.848-13.156s-3.109-10.208-3.109-15.543c0-5.336 1.056-10.617 3.109-15.543s5.059-9.399 8.848-13.156c7.573-7.529 17.818-11.754 28.497-11.754s20.923 4.225 28.497 11.754l185.533 185.533c22.706 22.738 35.463 53.561 35.463 85.693 0 32.135-12.757 62.956-35.463 85.693l-185.533 185.533c-7.574 7.528-17.819 11.754-28.497 11.754s-20.924-4.226-28.497-11.754z" />
<glyph unicode="&#xe905;" glyph-name="arrow-dark-blue" data-tags="arrow-dark-blue" horiz-adv-x="1078" d="M368.706 734.293c-4.21-3.967-7.551-8.685-9.831-13.885s-3.454-10.776-3.454-16.408c0-5.633 1.174-11.21 3.454-16.409s5.621-9.918 9.831-13.885l205.698-195.413c4.209-3.967 7.551-8.685 9.83-13.885s3.455-10.776 3.455-16.408c0-5.633-1.175-11.21-3.455-16.409s-5.621-9.918-9.83-13.885l-205.698-195.412c-4.21-3.967-7.551-8.688-9.831-13.883-2.28-5.201-3.454-10.779-3.454-16.411s1.174-11.21 3.454-16.411c2.28-5.195 5.621-9.917 9.831-13.883 8.415-7.944 19.798-12.407 31.663-12.407s23.248 4.462 31.663 12.407l206.146 195.843c25.234 23.999 39.408 56.53 39.408 90.452 0 33.92-14.174 66.453-39.408 90.453l-206.146 195.84c-8.415 7.947-19.798 12.407-31.663 12.407s-23.249-4.46-31.663-12.407z" />
<glyph unicode="&#xe906;" glyph-name="breadcrumb-arrow" data-tags="breadcrumb-arrow" horiz-adv-x="970" d="M331.851 719.226c-3.789-3.758-6.796-8.228-8.848-13.154s-3.109-10.209-3.109-15.545c0-5.336 1.056-10.619 3.109-15.545s5.059-9.396 8.848-13.154l185.128-185.129c3.788-3.758 6.796-8.228 8.847-13.154s3.109-10.209 3.109-15.545c0-5.336-1.056-10.619-3.109-15.545s-5.059-9.396-8.847-13.155l-185.128-185.128c-3.789-3.756-6.796-8.23-8.848-13.156-2.052-4.921-3.109-10.208-3.109-15.543s1.056-10.617 3.109-15.543c2.052-4.926 5.059-9.399 8.848-13.156 7.573-7.529 17.818-11.754 28.497-11.754s20.923 4.225 28.497 11.754l185.533 185.533c22.706 22.738 35.463 53.561 35.463 85.693 0 32.135-12.757 62.956-35.463 85.693l-185.533 185.533c-7.574 7.529-17.819 11.754-28.497 11.754s-20.924-4.226-28.497-11.754z" />
<glyph unicode="&#xe907;" d="M725.333 448c117.821 0 213.333 95.513 213.333 213.333s-95.513 213.333-213.333 213.333c-117.821 0-213.333-95.513-213.333-213.333 0-34.127 8.013-66.382 22.261-94.986 3.785-7.601 5.046-16.29 2.851-24.493l-12.706-47.489c-5.516-20.616 13.344-39.475 33.959-33.959l47.489 12.706c8.203 2.195 16.892 0.934 24.493-2.851 28.605-14.248 60.86-22.261 94.986-22.261z" />
<glyph unicode="&#xe908;" d="M342.937 647.843l27.692-49.618c24.99-44.778 14.958-103.519-24.401-142.878 0 0-47.741-47.741 38.819-134.301 86.558-86.559 134.301-38.819 134.301-38.819 39.359 39.359 98.1 49.391 142.878 24.401l49.619-27.691c67.615-37.735 75.6-132.559 16.168-191.991-35.713-35.712-79.462-63.497-127.823-65.331-81.414-3.089-219.675 17.519-358.367 156.207-138.691 138.691-159.295 276.953-156.209 358.367 1.833 48.362 29.621 92.111 65.333 127.823 59.433 59.433 154.256 51.447 191.991-16.168z" />
<glyph unicode="&#xe909;" d="M512.011 277.333c-245.757 0-289.295 244.926-297.007 439.191-2.145 54.036-3.218 81.056 17.079 106.053s44.59 29.097 93.176 37.295c47.96 8.092 110.653 14.794 186.751 14.794s138.79-6.702 186.75-14.794c48.586-8.198 72.879-12.297 93.176-37.295s19.225-52.017 17.079-106.053c-7.712-194.265-51.249-439.191-297.006-439.191z" />
<glyph unicode="&#xe90a;" d="M752.655 429.994l120.168 66.764c32.111 17.836 48.162 26.754 57.003 41.777s8.841 33.387 8.841 70.112v3.094c0 44.528 0 66.791-12.083 83.552-12.075 16.761-33.203 23.802-75.442 37.883l-40.474 13.491-0.722-3.611c-0.2-8.075-0.549-16.871-0.932-26.531-3.768-94.907-16.086-201.907-56.358-286.531z" />
<glyph unicode="&#xe90b;" d="M215.001 716.524c3.767-94.912 16.087-201.917 56.363-286.543l-120.194 66.776c-32.102 17.836-48.154 26.754-56.995 41.777s-8.841 33.387-8.841 70.112v3.094c-0.001 44.527-0.002 66.791 12.079 83.552s33.201 23.802 75.444 37.883l40.474 13.491 0.74-3.699c0.2-8.052 0.548-16.819 0.93-26.443z" />
<glyph unicode="&#xe90c;" d="M224 21.333c0 17.673 14.327 32 32 32h512c17.673 0 32-14.327 32-32s-14.327-32-32-32h-512c-17.673 0-32 14.327-32 32z" />
<glyph unicode="&#xe90d;" d="M659.531 53.333h-295.048l12.664 74.659c3.988 19.944 21.5 34.3 41.838 34.3h186.043c20.338 0 37.85-14.356 41.838-34.3l12.664-74.659z" />
<glyph unicode="&#xe90e;" d="M512.007 277.327c-11.075 0-21.739 0.497-32.007 1.465v-116.5h64v116.499c-10.265-0.967-20.924-1.464-31.993-1.464z" />
<glyph unicode="&#xe90f;" d="M475.56 703.039c16.213 29.085 24.32 43.628 36.44 43.628s20.227-14.543 36.44-43.628l4.194-7.524c4.607-8.265 6.911-12.398 10.503-15.124s8.065-3.739 17.012-5.763l8.145-1.842c31.484-7.124 47.226-10.685 50.971-22.729s-6.987-24.593-28.45-49.692l-5.553-6.493c-6.099-7.133-9.149-10.699-10.521-15.111s-0.911-9.17 0.011-18.685l0.84-8.664c3.245-33.487 4.867-50.231-4.937-57.674s-24.544-0.657-54.023 12.915l-7.626 3.511c-8.377 3.857-12.565 5.786-17.005 5.786s-8.628-1.929-17.005-5.786l-7.626-3.511c-29.478-13.572-44.217-20.359-54.023-12.915s-8.183 24.187-4.937 57.674l0.84 8.664c0.922 9.516 1.383 14.274 0.011 18.685s-4.422 7.978-10.521 15.111l-5.553 6.493c-21.463 25.099-32.195 37.648-28.45 49.692s19.488 15.606 50.971 22.729l8.145 1.842c8.947 2.024 13.42 3.037 17.012 5.763s5.896 6.859 10.503 15.124l4.194 7.525z" />
<glyph unicode="&#xe910;" d="M250.824 837.176c-37.49-37.49-37.49-97.83-37.49-218.51v-341.333c0-120.679 0-181.018 37.49-218.513 37.49-37.487 97.83-37.487 218.51-37.487h85.333c120.679 0 181.019 0 218.51 37.487 37.49 37.495 37.49 97.834 37.49 218.513v341.333c0 120.679 0 181.019-37.49 218.51s-97.83 37.49-218.51 37.49h-85.333c-120.679 0-181.019 0-218.51-37.49zM352 234.667c0 17.673 14.327 32 32 32h128c17.673 0 32-14.327 32-32s-14.327-32-32-32h-128c-17.673 0-32 14.327-32 32zM384 437.333h256c17.673 0 32-14.327 32-32s-14.327-32-32-32h-256c-17.673 0-32 14.327-32 32s14.327 32 32 32zM352 576c0 17.673 14.327 32 32 32h256c17.673 0 32-14.327 32-32s-14.327-32-32-32h-256c-17.673 0-32 14.327-32 32z" />
<glyph unicode="&#xe911;" d="M223.37 786.848c-10.037-37.687-10.037-90.401-10.037-168.181v-341.333c0-77.782 0-130.498 10.039-168.184l-10.039 0.763c-41.603 4.093-69.608 13.341-90.51 34.243-37.49 37.49-37.49 97.83-37.49 218.51v170.667c0 120.68 0 181.019 37.49 218.51 20.902 20.902 48.906 30.151 90.51 34.243l10.037 0.765z" />
<glyph unicode="&#xe912;" d="M800.633 109.149c10.039 37.687 10.039 90.402 10.039 168.184v341.333c0 77.78 0 130.494-10.038 168.181l10.038-0.765c41.603-4.092 69.61-13.34 90.508-34.243 37.495-37.49 37.495-97.83 37.495-218.51v-170.667c0-120.679 0-181.019-37.495-218.51-20.898-20.902-48.905-30.15-90.508-34.243l-10.039-0.763z" />
<glyph unicode="&#xe913;" glyph-name="breadcrumb-helper" data-tags="breadcrumb-helper" horiz-adv-x="445" d="M247.343 960h197.874l-247.343-1024h-197.874l247.343 1024z" />
<glyph unicode="&#xe914;" glyph-name="breadcrumb-home" data-tags="breadcrumb-home" horiz-adv-x="979" d="M489.739 889.478c-57.7 0-103.736-30.408-185.567-81.208l-81.653-50.621c-77.423-48.083-122.346-74.485-148.97-123.103s-25.288-101.465-25.288-194.872v-62.063c0-79.605-0.178-139.932 6.233-189.574 6.5-49.642 20.836-90.646 50.977-121.811s70.611-46.481 118.962-53.203 106.763-6.456 183.741-6.456h163.217c76.934 0 135.346-0.312 183.741 6.456 48.351 6.678 88.821 22.038 118.962 53.203s44.522 72.17 50.933 121.811c6.456 49.642 6.278 109.969 6.278 189.574v62.108c0 93.362 1.336 146.209-25.288 194.827s-71.635 75.108-149.059 123.147l-81.564 50.577c-81.831 50.755-127.955 81.208-185.656 81.208zM489.739 822.695c32.723 0 68.563-20.346 150.439-71.146l81.519-50.666c77.423-48.083 109.88-69.677 125.64-98.438 15.761-28.806 17.141-69.409 17.141-162.771v-62.108c0-79.605-0.223-138.641-5.743-180.936-5.476-42.34-15.004-65.803-32.679-84.146-17.72-18.254-39.624-27.693-80.184-33.391-40.515-5.61-97.592-5.788-174.525-5.788h-163.172c-76.978 0-134.010 0.178-174.525 5.788-40.515 5.699-62.509 15.137-80.139 33.391-17.72 18.343-27.247 41.806-32.723 84.146-5.521 42.296-5.743 101.331-5.743 180.936v62.108c0 93.362 1.336 134.010 17.141 162.771 15.761 28.761 48.128 50.354 125.551 98.393l81.653 50.755c81.831 50.71 117.626 71.057 150.35 71.057zM362.407 317.729c-9.022-1.377-16.717-6.195-21.842-13.047l-0.062-0.087c-4.108-5.485-6.577-12.404-6.577-19.899 0-10.94 5.261-20.651 13.391-26.742l0.087-0.062c39.199-29.507 88.683-47.285 142.316-47.371h0.020c53.653 0.086 103.137 17.865 142.948 47.812l-0.612-0.441c8.229 6.152 13.499 15.87 13.499 26.82 0 7.508-2.478 14.437-6.661 20.015l0.062-0.087c-6.151 8.246-15.879 13.528-26.841 13.528-7.499 0-14.42-2.472-19.994-6.645l0.087 0.062c-28.185-21.36-63.829-34.233-102.478-34.282h-0.012c-38.676 0.038-74.337 12.913-102.961 34.592l0.427-0.31c-5.468 4.068-12.354 6.512-19.811 6.512-1.744 0-3.457-0.134-5.13-0.392l0.187 0.024z" />
<glyph unicode="&#xe915;" d="M512 274.442l-160.916-166.612c-23.045-23.862-34.568-35.791-44.326-39.921-22.235-9.404-46.901-1.357-58.598 19.132-5.133 8.986-6.733 25.199-9.932 57.626v0c-1.807 18.308-2.709 27.463-5.45 35.13-6.137 17.166-19.034 30.518-35.612 36.873-7.404 2.838-16.247 3.773-33.928 5.643l-0.002 0.001c-31.318 3.312-46.977 4.968-55.659 10.283-19.783 12.111-27.559 37.65-18.473 60.673 3.988 10.103 15.51 22.034 38.555 45.895v0l105.118 108.84 52.83 52.83 226.391-226.391 226.391 226.391 52.83-52.83 105.12-108.84c23.040-23.861 34.569-35.791 38.554-45.895 9.088-23.023 1.306-48.561-18.475-60.673-8.678-5.315-24.337-6.971-55.654-10.283-17.686-1.871-26.528-2.806-33.933-5.644-16.579-6.355-29.475-19.707-35.612-36.873-2.741-7.667-3.644-16.821-5.45-35.128v-0.003c-3.199-32.427-4.799-48.64-9.932-57.626-11.697-20.489-36.362-28.535-58.598-19.132-9.759 4.13-21.28 16.060-44.326 39.921l-160.916 166.612z" />
<glyph unicode="&#xe916;" d="M512 277.333c-164.949 0-298.667 133.717-298.667 298.667s133.717 298.667 298.667 298.667c164.949 0 298.667-133.717 298.667-298.667s-133.717-298.667-298.667-298.667zM512 704c-12.12 0-20.227-14.543-36.44-43.628l-4.194-7.525c-4.607-8.265-6.911-12.397-10.503-15.124s-8.065-3.739-17.012-5.763l-8.145-1.842c-31.484-7.124-47.226-10.685-50.971-22.729s6.987-24.593 28.45-49.692l5.553-6.493c6.099-7.132 9.149-10.699 10.521-15.111s0.911-9.17-0.011-18.685l-0.84-8.664c-3.245-33.487-4.867-50.231 4.937-57.674s24.544-0.657 54.023 12.915l7.626 3.511c8.377 3.857 12.565 5.786 17.005 5.786s8.628-1.929 17.005-5.786l7.626-3.511c29.478-13.572 44.217-20.359 54.023-12.915s8.183 24.187 4.937 57.674l-0.84 8.664c-0.922 9.516-1.383 14.274-0.011 18.685s4.421 7.978 10.521 15.11l5.553 6.494c21.463 25.099 32.195 37.648 28.45 49.692s-19.488 15.606-50.971 22.729l-8.145 1.842c-8.947 2.024-13.42 3.037-17.012 5.763s-5.896 6.859-10.503 15.124l-4.194 7.524c-16.213 29.085-24.32 43.628-36.44 43.628z" />
<glyph unicode="&#xe917;" d="M832 640c0-58.911-47.756-106.667-106.667-106.667s-106.667 47.756-106.667 106.667c0 58.911 47.756 106.667 106.667 106.667s106.667-47.756 106.667-106.667z" />
<glyph unicode="&#xe918;" d="M192 640c0-58.911 47.756-106.667 106.667-106.667s106.667 47.756 106.667 106.667c0 58.911-47.756 106.667-106.667 106.667s-106.667-47.756-106.667-106.667z" />
<glyph unicode="&#xe919;" d="M938.667 256c0-58.911-76.407-106.667-170.667-106.667-94.257 0-170.667 47.756-170.667 106.667s76.41 106.667 170.667 106.667c94.259 0 170.667-47.756 170.667-106.667z" />
<glyph unicode="&#xe91a;" d="M85.333 256c0-58.911 76.41-106.667 170.667-106.667s170.667 47.756 170.667 106.667c0 58.911-76.41 106.667-170.667 106.667s-170.667-47.756-170.667-106.667z" />
<glyph unicode="&#xe91b;" d="M661.333 640c0-82.475-66.859-149.333-149.333-149.333s-149.333 66.859-149.333 149.333c0 82.475 66.859 149.333 149.333 149.333s149.333-66.859 149.333-149.333z" />
<glyph unicode="&#xe91c;" d="M768 256c0-82.475-114.615-149.333-256-149.333s-256 66.859-256 149.333c0 82.475 114.615 149.333 256 149.333s256-66.859 256-149.333z" />
<glyph unicode="&#xe91d;" glyph-name="building-green" data-tags="building-green" horiz-adv-x="979" d="M446.834 886.723h85.869c36.668 0.001 67.246 0.002 91.519-3.261 25.622-3.445 48.751-11.022 67.339-29.611 18.592-18.589 26.17-41.72 29.611-67.342 0.931-6.9 1.594-14.309 2.070-22.222 24.051-0.014 44.384-0.171 61.142-1.876 19.327-1.966 37.256-6.239 53.417-17.038 12.257-8.188 22.777-18.71 30.965-30.965 10.801-16.161 15.071-34.093 17.038-53.416 1.879-18.46 1.879-41.263 1.879-68.59v-521.911h10.2c16.905 0 30.609-13.704 30.609-30.609s-13.704-30.609-30.609-30.609h-816.231c-16.904 0-30.609 13.704-30.609 30.609s13.704 30.609 30.609 30.609h10.203v521.912c0 27.327-0.001 50.129 1.877 68.589 1.966 19.323 6.239 37.254 17.038 53.416 8.188 12.255 18.71 22.776 30.964 30.965 16.161 10.798 34.093 15.072 53.416 17.038 16.758 1.705 37.095 1.861 61.146 1.876 0.475 7.913 1.139 15.322 2.067 22.222 3.445 25.621 11.022 48.753 29.611 67.342s41.72 26.166 67.342 29.611c24.274 3.263 54.851 3.263 91.518 3.261zM255.102 703.066c-23.777-0.026-40.574-0.217-53.757-1.558-14.483-1.473-21.175-4.078-25.601-7.035-5.57-3.722-10.353-8.505-14.075-14.075-2.958-4.426-5.562-11.118-7.035-25.601-1.525-14.994-1.562-34.662-1.562-63.959v-520.347h102.029v265.274h-30.609c-16.905 0-30.609 13.704-30.609 30.609s13.704 30.609 30.609 30.609h30.609v61.217h-30.609c-16.905 0-30.609 13.704-30.609 30.609s13.704 30.61 30.609 30.61h30.609v61.217h-30.609c-16.905 0-30.609 13.704-30.609 30.609s13.704 30.609 30.609 30.609h30.609v53.137c0 2.726 0 5.418 0.001 8.077zM316.319 70.491h142.843v91.826c0 16.905 13.704 30.609 30.609 30.609 16.9 0 30.609-13.704 30.609-30.609v-91.826h142.839v622.377c0 39.343-0.067 65.771-2.716 85.484-2.533 18.833-6.91 26.893-12.226 32.212-5.32 5.318-13.379 9.694-32.211 12.226-19.714 2.65-46.142 2.715-85.486 2.715h-81.622c-39.343 0-65.772-0.065-85.485-2.715-18.833-2.532-26.893-6.908-32.212-12.226s-9.694-13.379-12.226-32.212c-2.65-19.713-2.715-46.141-2.715-85.484v-622.377zM724.435 580.636v-61.217h30.609c16.905 0 30.609-13.705 30.609-30.61s-13.704-30.609-30.609-30.609h-30.609v-61.217h30.609c16.905 0 30.609-13.704 30.609-30.609s-13.704-30.609-30.609-30.609h-30.609v-265.274h102.030v520.347c0 29.296-0.040 48.965-1.563 63.959-1.474 14.483-4.078 21.175-7.039 25.601-3.722 5.571-8.504 10.353-14.073 14.075-4.425 2.957-11.117 5.562-25.6 7.035-13.183 1.341-29.981 1.532-53.756 1.558 0-2.658 0-5.351 0-8.077v-53.137h30.609c16.905 0 30.609-13.704 30.609-30.609s-13.704-30.609-30.609-30.609h-30.609zM489.77 703.070c-28.178 0-51.017-22.84-51.017-51.014s22.839-51.014 51.017-51.014c28.173 0 51.013 22.84 51.013 51.014s-22.84 51.014-51.013 51.014zM377.536 652.056c0 61.984 50.248 112.232 112.234 112.232 61.983 0 112.23-50.248 112.23-112.232s-50.247-112.232-112.23-112.232c-61.986 0-112.234 50.248-112.234 112.232zM377.536 448c0-16.905 13.704-30.609 30.609-30.609h163.247c16.905 0 30.609 13.704 30.609 30.609s-13.704 30.609-30.609 30.609h-163.247c-16.905 0-30.609-13.704-30.609-30.609zM377.536 325.565c0-16.905 13.704-30.609 30.609-30.609h163.247c16.905 0 30.609 13.704 30.609 30.609s-13.704 30.609-30.609 30.609h-163.247c-16.905 0-30.609-13.704-30.609-30.609z" />
<glyph unicode="&#xe91e;" glyph-name="call-green" data-tags="call-green" d="M565.763 879.781c2.826 17.446 19.318 29.281 36.765 26.456 1.078-0.207 4.554-0.856 6.374-1.262 3.642-0.811 8.72-2.059 15.050-3.903 12.662-3.688 30.355-9.764 51.584-19.498 42.509-19.488 99.078-53.579 157.779-112.28s92.79-115.269 112.278-157.778c9.734-21.229 15.811-38.922 19.498-51.584 1.846-6.33 3.094-11.408 3.904-15.050 0.406-1.821 0.701-3.283 0.909-4.362l0.246-1.331c2.822-17.446-8.902-34.621-26.349-37.446-17.398-2.816-33.786 8.963-36.678 26.326-0.090 0.467-0.336 1.718-0.598 2.899-0.525 2.365-1.437 6.112-2.88 11.066-2.886 9.914-7.901 24.65-16.227 42.81-16.634 36.282-46.544 86.38-99.36 139.195-52.813 52.815-102.912 82.724-139.194 99.357-18.16 8.326-32.896 13.341-42.81 16.229-4.954 1.444-11.184 2.873-13.546 3.399-17.366 2.894-29.562 19.36-26.746 36.756zM575.418 732.604c4.854 16.993 22.566 26.833 39.558 21.978l-8.79-30.769c8.79 30.769 8.79 30.769 8.79 30.769l0.064-0.018 0.064-0.019 0.144-0.042 0.33-0.099 0.845-0.263c0.643-0.205 1.446-0.474 2.403-0.813 1.917-0.68 4.448-1.647 7.555-2.978 6.218-2.664 14.71-6.778 25.142-12.952 20.883-12.36 49.392-32.89 82.886-66.382 33.491-33.493 54.022-62.002 66.381-82.885 6.176-10.432 10.288-18.928 12.954-25.142 1.331-3.107 2.298-5.638 2.976-7.555 0.342-0.957 0.608-1.76 0.816-2.403l0.262-0.845 0.099-0.333 0.042-0.141 0.019-0.064c0 0 0.016-0.064-30.752-8.854l30.768 8.79c4.854-16.992-4.986-34.704-21.978-39.558-16.848-4.816-34.403 4.819-39.434 21.546l-0.157 0.461c-0.227 0.64-0.698 1.904-1.488 3.747-1.581 3.683-4.442 9.709-9.203 17.754-9.514 16.077-26.698 40.365-56.56 70.227-29.866 29.866-54.154 47.048-70.227 56.561-8.048 4.762-14.074 7.625-17.757 9.204-1.843 0.79-3.107 1.26-3.747 1.488l-0.461 0.158c-16.726 5.029-26.358 22.585-21.546 39.433zM213.672 771.973c71.683 71.683 192.648 66.234 242.562-23.201l27.69-49.618c32.595-58.403 18.704-132.091-29.008-180.389-0.637-0.87-4.003-5.776-4.422-14.342-0.538-10.938 3.347-36.227 42.534-75.414 39.171-39.174 64.461-43.069 75.402-42.534 8.576 0.416 13.485 3.786 14.355 4.422 48.298 47.715 121.987 61.603 180.387 29.008l49.619-27.69c89.434-49.914 94.883-170.877 23.203-242.56-38.346-38.346-89.328-72.413-149.238-74.685-88.787-3.366-236.211 19.562-382.208 165.558s-168.924 293.421-165.559 382.208c2.271 59.911 36.34 110.894 74.683 149.237zM400.349 717.583c-25.558 45.796-94.24 56.317-141.422 9.135-33.081-33.082-54.588-69.596-55.984-106.408-2.807-74.042 15.473-203.139 146.859-334.528 131.389-131.386 260.486-149.664 334.528-146.858 36.813 1.395 73.325 22.902 106.406 55.984 47.184 47.181 36.662 115.862-9.133 141.421l-49.619 27.69c-30.864 17.226-74.221 11.35-104.656-19.085-2.989-2.986-22.019-20.742-55.789-22.387-34.57-1.68-76.413 13.853-123.766 61.206-47.37 47.366-62.896 89.226-61.203 123.798 1.651 33.77 19.411 52.784 22.384 55.757 30.432 30.432 36.31 73.789 19.085 104.656l-27.69 49.619z" />
<glyph unicode="&#xe91f;" glyph-name="case-blue" data-tags="case-blue" horiz-adv-x="979" d="M431.872 886.723h-0.833c-4.633 0.001-8.238 0.001-11.65-0.205-43.278-2.621-81.175-29.936-97.347-70.164-1.275-3.171-2.415-6.593-3.88-10.988l-1.31-3.93c-0.775-2.325-0.991-2.966-1.179-3.485-6.525-18.038-28.206-33.090-51.144-33.671l-74.253-3.633c-32.087-3.77-59.562-11.798-82.78-30.689-8.11-6.599-15.522-14.011-22.121-22.121-18.891-23.218-26.919-50.693-30.689-82.78-3.644-31.008-3.643-69.998-3.642-118.358v-3.206c-0.001-11.585-0.003-22.448 0.926-31.593 1.027-10.12 3.389-20.872 9.843-31.25 2.098-3.37 4.473-6.567 7.102-9.545 6.902-7.818 14.917-12.862 22.961-16.593 0.118-65.914 0.952-132.541 6.867-189.605 3.466-33.436 8.785-64.824 17.222-91.586 8.3-26.33 20.555-51.258 39.955-68.501 33.606-29.874 75.902-43.044 128.701-49.352 51.827-6.193 118.255-6.193 203.058-6.193h4.181c84.805 0 151.231 0 203.059 6.193 52.798 6.309 95.094 19.478 128.699 49.352 19.398 17.243 31.655 42.171 39.954 68.501 8.437 26.762 13.757 58.15 17.225 91.586 5.912 57.064 6.749 123.69 6.865 189.605 8.045 3.731 16.059 8.775 22.96 16.593 2.631 2.979 5.004 6.171 7.101 9.545 6.456 10.378 8.82 21.13 9.844 31.25 0.931 9.145 0.931 20.008 0.926 31.593v3.206c0 48.361 0 87.35-3.642 118.358-3.771 32.087-11.798 59.562-30.689 82.78-6.598 8.11-14.011 15.522-22.123 22.121-23.218 18.891-50.692 26.919-82.779 30.689l-74.253 3.633c-22.929 0.581-44.597 15.628-51.124 33.672-0.187 0.516-0.405 1.171-1.18 3.484l-1.309 3.932c-1.465 4.395-2.605 7.816-3.878 10.987-16.175 40.228-54.072 67.543-97.347 70.164-3.415 0.207-7.017 0.206-11.651 0.205h-116.645zM308.986 703.070h361.565c49.9-0.001 84.827-0.082 111.567-3.224 26.348-3.096 40.751-8.802 51.285-17.375 4.866-3.959 9.314-8.407 13.272-13.272 8.575-10.537 14.283-24.938 17.377-51.288 3.174-27.017 3.223-62.399 3.223-113.142 0-13.308-0.036-21.014-0.61-26.691-0.343-3.357-0.775-4.719-0.935-5.116-0.294-0.472-0.628-0.922-0.997-1.345-0.334-0.267-1.514-1.069-4.63-2.36-5.276-2.182-12.644-4.434-25.391-8.254l-212.306-63.693v9.875c0 28.173-22.84 51.013-51.013 51.013h-163.247c-28.174 0-51.014-22.84-51.014-51.013v-9.875l-212.305 63.693c-12.747 3.82-20.116 6.073-25.39 8.254-3.117 1.291-4.298 2.093-4.629 2.364l242.325-74.311-243.325 75.651c-0.161 0.396-0.591 1.759-0.932 5.116-0.576 5.677-0.613 13.383-0.613 26.691 0 50.742 0.049 86.125 3.224 113.142 3.096 26.349 8.802 40.75 17.375 51.288 3.959 4.866 8.407 9.313 13.272 13.272 10.537 8.574 24.939 14.279 51.288 17.375 26.737 3.141 61.665 3.222 111.566 3.224zM431.872 825.505h115.813c5.85 0 7.466-0.013 8.78-0.093 19.674-1.191 36.9-13.607 44.25-31.893 0.49-1.223 1.015-2.751 2.867-8.302l1.158-3.472c0.61-1.841 1.091-3.275 1.576-4.62 1.612-4.451 3.513-8.733 5.681-12.837h-244.435c2.166 4.104 4.069 8.387 5.679 12.838 0.487 1.346 0.964 2.779 1.578 4.62l1.158 3.472c1.85 5.551 2.373 7.078 2.865 8.302 7.351 18.286 24.577 30.702 44.249 31.893 1.317 0.080 2.93 0.093 8.782 0.093zM153.158 394.592l203.973-61.195v-14.425c0-20.858 12.7-39.615 32.068-47.367l28.574-11.429c46.215-18.485 97.776-18.485 143.994 0l28.57 11.429c19.371 7.751 32.069 26.508 32.069 47.367v14.425l203.972 61.195c-0.276-58.64-1.456-114.977-6.473-163.373-3.259-31.428-8.023-58.27-14.714-79.494-6.83-21.664-14.746-34.491-22.243-41.151-20.182-17.942-48.070-28.681-95.294-34.322-47.767-5.712-110.539-5.761-197.881-5.761-87.348 0-150.116 0.049-197.886 5.761-47.223 5.641-75.11 16.38-95.294 34.322-7.496 6.66-15.412 19.487-22.24 41.151-6.692 21.224-11.458 48.066-14.716 79.494-5.017 48.395-6.197 104.733-6.475 163.373zM418.348 396.983h142.84v-71.101l-22.158-8.864c-31.624-12.649-66.898-12.649-98.521 0l-22.16 8.864v71.101z" />
<glyph unicode="&#xe920;" d="M85.333 213.333c0 106.038 85.961 192 192 192h115.2c26.883 0 40.323 0 50.591-5.231 9.031-4.602 16.375-11.947 20.978-20.978 5.231-10.268 5.231-23.708 5.231-50.591v-115.2c0-106.038-85.962-192-192-192s-192 85.962-192 192z" />
<glyph unicode="&#xe921;" d="M554.667 682.667c0 106.039 85.962 192 192 192s192-85.961 192-192c0-106.038-85.962-192-192-192h-137.142c-6.369 0-9.554 0-12.231 0.302-22.255 2.509-39.817 20.070-42.325 42.325-0.302 2.677-0.302 5.862-0.302 12.231v137.142z" />
<glyph unicode="&#xe922;" d="M85.333 682.667c0 106.039 85.961 192 192 192s192-85.961 192-192v-128c0-14.879 0-22.32-1.636-28.425-4.437-16.563-17.377-29.503-33.94-33.94-6.104-1.636-13.545-1.636-28.425-1.636h-128c-106.039 0-192 85.962-192 192z" />
<glyph unicode="&#xe923;" d="M554.667 341.333c0 14.879 0 22.32 1.636 28.425 4.437 16.563 17.377 29.503 33.94 33.94 6.104 1.636 13.545 1.636 28.425 1.636h128c106.038 0 192-85.962 192-192s-85.962-192-192-192c-106.038 0-192 85.962-192 192v128z" />
<glyph unicode="&#xe924;" d="M889.572 588.242c65.525 65.525 65.525 171.758 0 237.282-65.522 65.523-171.756 65.523-237.281 0l-37.845-37.847c0.518-1.565 1.055-3.152 1.613-4.759 13.872-39.985 40.047-92.401 89.284-141.638 49.237-49.24 101.655-75.412 141.639-89.284 1.599-0.555 3.18-1.092 4.736-1.607l37.854 37.854z" />
<glyph unicode="&#xe925;" d="M616.047 789.333l-1.63-1.63c0.518-1.565 1.055-3.152 1.613-4.759 13.872-39.985 40.047-92.401 89.284-141.639s101.655-75.412 141.639-89.284c1.587-0.549 3.152-1.081 4.696-1.593l-365.244-365.247c-24.624-24.622-36.941-36.938-50.517-47.528-16.014-12.49-33.343-23.199-51.675-31.937-15.545-7.407-32.063-12.914-65.101-23.927l-174.223-58.072c-16.259-5.422-34.184-1.189-46.302 10.928-12.118 12.12-16.35 30.046-10.931 46.305l58.074 174.222c11.013 33.038 16.519 49.556 23.927 65.101 8.738 18.332 19.447 35.661 31.939 51.675 10.588 13.577 22.901 25.89 47.524 50.512l366.927 366.874z" />
<glyph unicode="&#xe926;" d="M234.311 787.397l-61.709-61.709c-58.179-58.18-87.269-87.27-87.269-123.418s29.090-65.237 87.269-123.418l66.461-66.46c3.11 3.12 6.451 6.463 10.056 10.066l298.505 298.46-66.478 66.477c-58.18 58.179-87.27 87.269-123.418 87.269s-65.237-29.090-123.418-87.269z" />
<glyph unicode="&#xe927;" d="M784.882 483.661l-298.476-298.479c-3.607-3.604-6.949-6.949-10.072-10.058l66.52-66.52c58.18-58.18 87.27-87.27 123.418-87.27s65.237 29.090 123.418 87.27l61.707 61.707c58.18 58.18 87.27 87.27 87.27 123.418s-29.090 65.237-87.27 123.418l-66.514 66.514z" />
<glyph unicode="&#xe928;" d="M857.978 410.578l-49.883-49.88c-12.498-12.498-12.498-32.759 0-45.255 12.496-12.498 32.757-12.498 45.255 0l49.072 49.072c-11.893 13.338-26.706 28.308-44.444 46.063z" />
<glyph unicode="&#xe929;" d="M416.691 848.521l-56.596-56.596c-12.498-12.497-12.498-32.758 0-45.255 12.496-12.497 32.757-12.497 45.255 0l58.249 58.25c-18.167 18.028-33.303 32.562-46.908 43.6z" />
<glyph unicode="&#xe92a;" d="M606.592 810.682c-60.629 28.424-128.575 28.425-189.204 0l-183.183-85.88c33.363-3.6 63.864-24.616 78.023-57.657 20.887-48.731-1.687-105.168-50.421-126.052l-45.895-19.672c-22.806-9.774-35.748-15.42-44.486-19.9-0.048-0.697-0.093-1.417-0.136-2.159l246.099-115.376c60.629-28.425 128.575-28.425 189.204 0l285.488 133.842c62.1 29.113 62.1 129.894 0 159.008l-285.491 133.845z" />
<glyph unicode="&#xe92b;" d="M236.605 599.913c16.244 6.96 23.769 25.774 16.807 42.018s-25.774 23.768-42.018 16.805l-47.419-20.321c-23.786-10.192-43.943-18.83-59.761-27.73-16.832-9.469-31.318-20.582-42.17-37.038s-15.359-34.15-17.432-53.35c-1.948-18.045-1.948-39.973-1.947-65.852v-123.787c0-17.673 14.327-32 32-32s32 14.327 32 32v122.129c0 27.981 0.043 46.436 1.577 60.641 1.45 13.431 3.989 20.070 7.232 24.988s8.344 9.865 20.119 16.489c12.452 7.006 29.397 14.316 55.115 25.338l45.895 19.669z" />
<glyph unicode="&#xe92c;" d="M213.333 479.653l204.058-95.667c60.629-28.425 128.575-28.425 189.204 0l204.072 95.673v-229.003c0-43.008-21.484-83.277-59.108-104.112-62.652-34.697-162.93-82.534-239.559-82.534s-176.907 47.838-239.559 82.534c-37.625 20.836-59.108 61.104-59.108 104.112v228.998z" />
<glyph unicode="&#xe92d;" d="M458.667 874.667c-80.441 0-120.69 0-145.664-25.003-25.003-24.974-25.003-65.223-25.003-145.664v-650.667h-213.333c-17.673 0-32-14.327-32-32s14.327-32 32-32h853.333c17.673 0 32 14.327 32 32s-14.327 32-32 32h-213.333v650.667c0 80.441 0 120.69-25.003 145.664-24.974 25.003-65.223 25.003-145.664 25.003h-85.333zM384 448c0 17.664 14.336 32 32 32h170.667c17.673 0 32-14.327 32-32s-14.327-32-32-32v0h-170.667c-17.673 0-32 14.327-32 32v0zM384 320c0 17.664 14.336 32 32 32h170.667c17.673 0 32-14.327 32-32s-14.327-32-32-32v0h-170.667c-17.673 0-32 14.327-32 32v0zM501.333 181.333c17.664 0 32-14.336 32-32v-96h-64v96c0 17.664 14.336 32 32 32zM394.667 661.333c0 64.801 52.532 117.333 117.333 117.333s117.333-52.532 117.333-117.333v0c0-64.801-52.532-117.333-117.333-117.333s-117.333 52.532-117.333 117.333v0z" />
<glyph unicode="&#xe92e;" d="M458.667 661.333c0 29.455 23.878 53.333 53.333 53.333s53.333-23.878 53.333-53.333v0c0-29.455-23.878-53.333-53.333-53.333s-53.333 23.878-53.333 53.333v0z" />
<glyph unicode="&#xe92f;" d="M892.302 708.75c14.364-21.532 14.364-51.484 14.364-111.417v-544h21.333c17.673 0 32-14.327 32-32s-14.327-32-32-32v0h-853.333c-17.673 0-32 14.327-32 32s14.327 32 32 32v0h21.333v544c0 59.932 0 89.884 14.393 111.417 6.322 9.372 14.151 17.201 23.222 23.331l0.302 0.192c18.83 12.601 108.231 14.165 154.396 14.364q-0.256-18.688-0.171-38.827v-57.145h-106.809c-17.673 0-32-14.327-32-32s14.327-32 32-32v0h106.809v-64h-106.809c-17.673 0-32-14.327-32-32s14.327-32 32-32v0h106.809v-64h-106.809c-17.673 0-32-14.327-32-32s14.327-32 32-32v0h106.809v-277.333h426.667v277.333h106.524c17.673 0 32 14.327 32 32s-14.327 32-32 32v0h-106.553v64h106.553c17.673 0 32 14.327 32 32s-14.327 32-32 32v0h-106.553v64h106.553c17.673 0 32 14.327 32 32s-14.327 32-32 32v0h-106.553v57.145q0.028 20.139-0.171 38.827c46.137-0.199 135.31-1.764 154.14-14.364 9.372-6.322 17.201-14.151 23.331-23.222l0.192-0.302z" />
<glyph unicode="&#xe930;" d="M147.817 83.814c62.484-62.484 163.049-62.484 364.183-62.484s301.699 0 364.183 62.484c62.484 62.484 62.484 163.052 62.484 364.186s0 301.699-62.484 364.183c-62.484 62.484-163.049 62.484-364.183 62.484s-301.699 0-364.183-62.484c-62.484-62.484-62.484-163.052-62.484-364.186s0-301.699 62.484-364.183z" />
<glyph unicode="&#xe931;" d="M298.667 224c-17.673 0-32-14.327-32-32s14.327-32 32-32h426.667c17.673 0 32 14.327 32 32s-14.327 32-32 32h-426.667z" />
<glyph unicode="&#xe932;" d="M331.304 452.369c-0.626 10.809-0.637 25.313-0.637 46.507v372.858c49.314 2.933 108.78 2.933 181.333 2.933s132.019 0 181.333-2.933v-372.858c0-21.194-0.011-35.698-0.637-46.507-0.643-11.199-1.823-14.643-2.119-15.303-6.278-14.134-21.766-21.757-36.793-18.108-0.703 0.171-4.153 1.337-13.42 7.657-8.946 6.101-20.443 14.939-37.237 27.87l-2.859 2.204c-15.795 12.177-28.106 21.666-41.515 27.494-29.824 12.956-63.684 12.956-93.508 0-13.409-5.828-25.719-15.317-41.515-27.494l-2.859-2.204c-16.794-12.931-28.291-21.769-37.237-27.87-9.267-6.32-12.718-7.487-13.42-7.657-15.027-3.649-30.515 3.974-36.793 18.108-0.296 0.66-1.476 4.105-2.119 15.303z" />
<glyph unicode="&#xe933;" d="M514.219 906.667h-4.437c-38.335 0.001-70.303 0.002-95.679-3.41-26.786-3.601-50.97-11.523-70.403-30.957s-27.355-43.617-30.956-70.403c-3.413-25.377-3.41-57.343-3.41-95.677v-3.317c19.499 0.638 40.761 0.905 64 1.017v0.080c0 41.131 0.068 68.76 2.839 89.37 2.648 19.689 7.222 28.116 12.783 33.676s13.986 10.135 33.675 12.782c20.608 2.771 48.239 2.839 89.37 2.839s68.762-0.068 89.37-2.839c19.689-2.647 28.117-7.222 33.675-12.782 5.561-5.56 10.135-13.987 12.783-33.676 2.77-20.61 2.839-48.239 2.839-89.37v-0.080c23.239-0.112 44.501-0.379 64-1.017v3.316c0 38.335 0.003 70.302-3.41 95.679-3.601 26.786-11.523 50.97-30.956 70.403s-43.617 27.355-70.403 30.957c-25.375 3.412-57.344 3.411-95.679 3.41z" />
<glyph unicode="&#xe934;" d="M85.333 362.667c0 160.907 0 241.36 49.987 291.345 49.987 49.988 130.44 49.988 291.346 49.988h170.667c160.907 0 241.36 0 291.345-49.988 49.988-49.985 49.988-130.438 49.988-291.345s0-241.36-49.988-291.345c-49.985-49.988-130.441-49.988-291.345-49.988h-170.667c-160.906 0-241.359 0-291.346 49.988-49.987 49.985-49.987 130.438-49.987 291.345zM544 426.667c0 17.673-14.327 32-32 32s-32-14.327-32-32v-32h-32c-17.673 0-32-14.327-32-32s14.327-32 32-32h32v-32c0-17.673 14.327-32 32-32s32 14.327 32 32v32h32c17.673 0 32 14.327 32 32s-14.327 32-32 32h-32v32z" />
<glyph unicode="&#xe935;" d="M512 192c-94.256 0-170.667 76.41-170.667 170.667s76.41 170.667 170.667 170.667c94.256 0 170.667-76.41 170.667-170.667s-76.41-170.667-170.667-170.667zM544 426.667c0 17.673-14.327 32-32 32s-32-14.327-32-32v-32h-32c-17.673 0-32-14.327-32-32s14.327-32 32-32h32v-32c0-17.673 14.327-32 32-32s32 14.327 32 32v32h32c17.673 0 32 14.327 32 32s-14.327 32-32 32h-32v32z" />
<glyph unicode="&#xe936;" d="M250.824 837.176c-37.49-37.49-37.49-97.83-37.49-218.51v-341.333c0-120.678 0-181.020 37.49-218.51 37.489-37.49 97.831-37.49 218.51-37.49h85.333c120.678 0 181.020 0 218.51 37.49s37.49 97.832 37.49 218.51v341.333c0 120.68 0 181.019-37.49 218.51s-97.832 37.49-218.51 37.49h-85.333c-120.678 0-181.020 0-218.51-37.49zM352 234.667c0 17.673 14.327 32 32 32h128c17.673 0 32-14.327 32-32s-14.327-32-32-32h-128c-17.673 0-32 14.327-32 32zM384 437.333h256c17.673 0 32-14.327 32-32s-14.327-32-32-32h-256c-17.673 0-32 14.327-32 32s14.327 32 32 32zM352 576c0 17.673 14.327 32 32 32h256c17.673 0 32-14.327 32-32s-14.327-32-32-32h-256c-17.673 0-32 14.327-32 32z" />
<glyph unicode="&#xe937;" d="M223.371 786.847c-10.037-37.687-10.037-90.402-10.037-168.181v-341.333c0-77.784 0-130.497 10.038-168.186l-10.038 0.765c-41.604 4.090-69.608 13.34-90.51 34.241-37.49 37.49-37.49 97.832-37.49 218.51v170.667c0 120.678 0 181.019 37.49 218.51 20.902 20.902 48.906 30.15 90.51 34.243l10.037 0.765z" />
<glyph unicode="&#xe938;" d="M800.612 109.147c10.038 37.689 10.038 90.402 10.038 168.186v341.333c0 77.779 0 130.494-10.038 168.181l10.038-0.765c41.603-4.092 69.606-13.341 90.51-34.243 37.49-37.49 37.49-97.831 37.49-218.51v-170.667c0-120.678 0-181.020-37.49-218.51-20.904-20.901-48.907-30.151-90.51-34.241l-10.038-0.765z" />
<glyph unicode="&#xe939;" d="M788.625 244.594c-27.15-6.491-55.487-9.927-84.625-9.927-200.294 0-362.667 162.372-362.667 362.667 0 20.628 1.721 40.855 5.032 60.541-1.545-1.485-3.14-2.853-4.821-4.127-11.972-9.091-26.883-12.464-56.707-19.211l-27.15-6.144c-104.946-23.743-157.419-35.615-169.904-75.762s23.289-81.977 94.834-165.641l18.51-21.643c20.331-23.777 30.496-35.664 35.069-50.369s3.036-30.566-0.037-62.285l-2.799-28.88c-10.817-111.625-16.225-167.438 16.459-192.247 32.684-24.812 81.814-2.19 180.076 43.051l25.421 11.705c27.924 12.857 41.884 19.285 56.684 19.285s28.76-6.428 56.684-19.285l25.421-11.705c98.261-45.241 147.391-67.863 180.076-43.051 32.683 24.809 27.275 80.623 16.458 192.247l-2.014 20.782z" />
<glyph unicode="&#xe93a;" d="M390.528 729.243l-13.98-25.082c-15.357-27.55-23.037-41.326-35.009-50.414 1.681 1.274 3.277 2.642 4.818 4.127-3.308-19.686-5.029-39.913-5.029-60.541 0-200.294 162.372-362.667 362.667-362.667 29.138 0 57.475 3.436 84.625 9.927l-0.785 8.098c-3.075 31.718-4.611 47.579-0.037 62.285s14.737 26.593 35.069 50.369l18.509 21.643c71.546 83.664 107.321 125.494 94.837 165.641s-64.959 52.019-169.904 75.765l-27.15 6.141c-29.824 6.747-44.735 10.123-56.707 19.211s-19.652 22.864-35.009 50.413l-13.983 25.082c-54.042 96.949-81.064 145.424-121.463 145.424s-67.422-48.475-121.466-145.424z" />
<glyph unicode="&#xe93b;" d="M702.771 257.234c210.716 210.716 296.127 466.946 190.768 572.304s-361.586 19.949-572.302-190.768c-210.716-210.716-296.126-466.947-190.768-572.305s361.585-19.948 572.302 190.768z" />
<glyph unicode="&#xe93c;" d="M321.229 257.229c-210.716 210.716-296.126 466.946-190.768 572.304s361.585 19.949 572.302-190.768c210.716-210.716 296.127-466.947 190.768-572.305s-361.586-19.948-572.302 190.768z" />
<glyph unicode="&#xe93d;" d="M618.667 448c0-58.911-47.755-106.667-106.667-106.667s-106.667 47.755-106.667 106.667c0 58.911 47.755 106.667 106.667 106.667s106.667-47.755 106.667-106.667z" />
<glyph unicode="&#xe93e;" d="M705.18 874.667h-386.375c-51.32 0-76.98 0-97.601-12.745s-32.097-35.696-55.048-81.598l-59.888-151.386c-13.837-34.978-25.942-76.203-2.652-105.737 15.625-19.814 39.846-32.535 67.040-32.535 47.128 0 85.333 38.204 85.333 85.333 0-47.13 38.204-85.333 85.334-85.333 47.127 0 85.333 38.204 85.333 85.333 0-47.13 38.204-85.333 85.333-85.333 47.127 0 85.333 38.204 85.333 85.333 0-47.13 38.204-85.333 85.333-85.333 47.127 0 85.333 38.204 85.333 85.333 0-47.13 38.204-85.333 85.333-85.333 27.193 0 51.416 12.72 67.041 32.535 23.293 29.534 11.187 70.758-2.648 105.737l-59.89 151.386c-22.949 45.902-34.426 68.853-55.046 81.598-20.622 12.745-46.282 12.745-97.601 12.745z" />
<glyph unicode="&#xe93f;" d="M405.333 53.333v117.333c0 39.876 0 59.816 8.573 74.667 5.618 9.728 13.699 17.809 23.427 23.427 14.851 8.573 34.79 8.573 74.667 8.573s59.816 0 74.667-8.573c9.728-5.618 17.809-13.699 23.427-23.427 8.573-14.851 8.573-34.79 8.573-74.667v-117.333h-213.333z" />
<glyph unicode="&#xe940;" d="M170.667 490.667c47.124 0.006 85.324 38.209 85.324 85.333 0-47.13 38.204-85.333 85.334-85.333 47.127 0 85.333 38.204 85.333 85.333 0-47.13 38.204-85.333 85.333-85.333 47.127 0 85.333 38.204 85.333 85.333 0-47.13 38.204-85.333 85.333-85.333 47.127 0 85.333 38.204 85.333 85.333 0-47.13 38.204-85.333 85.333-85.333l0.009-437.333h-234.667v117.333c0 39.876 0 59.816-8.573 74.667-5.618 9.728-13.699 17.809-23.427 23.427-14.851 8.573-34.79 8.573-74.667 8.573s-59.816 0-74.667-8.573c-9.728-5.618-17.809-13.699-23.427-23.427-8.573-14.851-8.573-34.79-8.573-74.667v-117.333h-234.667v437.333z" />
<glyph unicode="&#xe941;" d="M618.667 53.333h-533.333c-17.673 0-32-14.327-32-32s14.327-32 32-32h853.333c17.673 0 32 14.327 32 32s-14.327 32-32 32h-320z" />
<glyph unicode="&#xe942;" d="M938.667 320c0 80.452 0 120.678-24.994 145.673s-65.22 24.994-145.673 24.994c-80.452 0-120.678 0-145.673-24.994s-24.994-65.22-24.994-145.673v-128c0-80.452 0-120.678 24.994-145.673s65.22-24.994 145.673-24.994c80.452 0 120.678 0 145.673 24.994s24.994 65.22 24.994 145.673v128zM693.333 106.667c0 17.673 14.327 32 32 32h85.333c17.673 0 32-14.327 32-32s-14.327-32-32-32h-85.333c-17.673 0-32 14.327-32 32z" />
<glyph unicode="&#xe943;" d="M341.322 234.667c-120.68 0-181.019 0-218.51 37.49-24.29 24.292-34.468 58.172-37.479 111.844v21.333h448.691v-21.333c-0.708-18.625-0.705-38.895-0.703-60.183v-135.634c-0.006-36.935-0.009-70.798 3.695-98.344 4.079-30.336 13.673-62.396 40.044-88.767l1.084-1.072h-236.823c-17.673 0-32 14.327-32 32s14.327 32 32 32h138.667v170.667h-138.667z" />
<glyph unicode="&#xe944;" d="M426.678 874.667h170.667c160.907 0 241.36 0 291.348-49.987 49.985-49.987 49.985-130.44 49.985-291.346v-5.902c-21.686 14.231-45.588 20.46-68.503 23.541-27.548 3.703-61.412 3.701-98.344 3.695h-7.637c-36.932 0.006-70.798 0.009-98.344-3.695-30.333-4.079-62.396-13.673-88.767-40.044-25.068-25.068-34.975-55.279-39.398-84.261v-21.333h-452.339l0.001 21.333c-0.278 19.223-0.001 40.465-0.001 64v42.667c0 160.906 0 241.359 49.987 291.346s130.44 49.987 291.345 49.987z" />
<glyph unicode="&#xe945;" glyph-name="chat-send" data-tags="chat-send" d="M7.32 801.789c-16.555 45.312-4.096 95.488 31.787 127.787 35.798 32.171 86.784 39.424 130.048 18.389l771.84-360.277c41.385-19.37 70.999-54.741 82.985-96.981h-851.283l-162.944 305.664c-0.896 1.749-1.707 3.584-2.432 5.418zM173.293 405.33l-160.128-306.135c-0.896-1.705-1.664-3.41-2.304-5.202-16.512-45.358-3.925-95.447 31.957-127.703 22.23-19.927 50.304-30.208 78.55-30.208 17.45 0 34.944 3.927 51.242 11.904l768.471 360.023c41.513 19.456 71.081 54.953 82.985 97.28l-850.774 0.041z" />
<glyph unicode="&#xe946;" glyph-name="chat-smile" data-tags="chat-smile" d="M512-64c-101.264 0-200.254 30.029-284.452 86.289-84.198 56.256-149.822 136.222-188.574 229.777s-48.891 196.501-29.136 295.82c19.756 99.318 68.519 190.548 140.123 262.153s162.834 120.368 262.153 140.123c99.319 19.756 202.265 9.616 295.82-29.136s173.521-104.376 229.777-188.574c56.26-84.198 86.289-183.188 86.289-284.452-0.145-135.744-54.135-265.89-150.123-361.877s-226.133-149.978-361.877-150.123zM512 874.666c-84.386 0-166.878-25.024-237.043-71.906s-124.852-113.519-157.145-191.482c-32.294-77.962-40.743-163.752-24.28-246.516s57.099-158.788 116.77-218.462c59.67-59.669 135.695-100.305 218.46-116.77 82.765-16.461 168.555-8.013 246.515 24.282 77.965 32.294 144.602 86.98 191.484 157.146s71.906 152.657 71.906 237.043c-0.124 113.121-45.116 221.573-125.103 301.562-79.991 79.988-188.442 124.98-301.564 125.105zM753.749 288.171c8.452 7.526 13.572 18.099 14.225 29.397 0.657 11.298-3.2 22.396-10.726 30.848s-18.099 13.572-29.397 14.225c-11.298 0.657-22.396-3.2-30.848-10.726-52.16-43.917-116.971-70.042-185.003-74.581-67.994 4.535-132.769 30.63-184.917 74.496-8.442 7.535-19.532 11.409-30.83 10.769s-21.879-5.743-29.416-14.182c-7.537-8.444-11.411-19.533-10.771-30.831s5.742-21.879 14.184-29.414c67.749-57.877 152.756-91.695 241.749-96.171 88.994 4.476 173.999 38.293 241.749 96.171zM256 533.333c0-42.667 38.187-42.667 85.333-42.667s85.333 0 85.333 42.667c0 22.632-8.99 44.336-24.993 60.34s-37.708 24.993-60.34 24.993c-22.632 0-44.337-8.99-60.34-24.993s-24.993-37.708-24.993-60.34zM597.333 533.333c0-42.667 38.187-42.667 85.333-42.667s85.333 0 85.333 42.667c0 22.632-8.99 44.336-24.994 60.34s-37.709 24.993-60.339 24.993c-22.63 0-44.335-8.99-60.339-24.993s-24.994-37.708-24.994-60.34z" />
<glyph unicode="&#xe947;" glyph-name="clip" data-tags="clip" d="M979.191 550.392c-8 7.999-18.854 12.492-30.165 12.492-11.315 0-22.165-4.493-30.165-12.492l-464.725-466.731c-19.81-19.81-43.328-35.529-69.212-46.251-25.884-10.726-53.626-16.243-81.643-16.247-56.583-0.004-110.85 22.468-150.863 62.477s-62.494 94.272-62.499 150.857c-0.004 56.58 22.47 110.848 62.477 150.861l450.092 451.926c24.068 23.685 56.521 36.899 90.287 36.766s66.112-13.605 89.993-37.479c23.881-23.874 37.359-56.217 37.5-89.984s-13.065-66.222-36.745-90.295l-450.092-451.926c-8.117-7.774-18.924-12.117-30.165-12.117s-22.048 4.343-30.165 12.117c-7.999 8-12.492 18.854-12.492 30.165 0 11.315 4.494 22.165 12.492 30.165l400.726 402.56c7.77 8.047 12.070 18.825 11.977 30.012-0.098 11.187-4.587 21.888-12.497 29.799s-18.611 12.398-29.798 12.495c-11.187 0.097-21.965-4.204-30.012-11.976l-400.726-402.56c-11.888-11.887-21.318-25.997-27.753-41.527s-9.745-32.179-9.745-48.99c0-16.811 3.311-33.455 9.745-48.99 6.434-15.531 15.864-29.641 27.753-41.527 24.389-23.275 56.806-36.258 90.517-36.258s66.128 12.983 90.517 36.258l450.049 451.969c39.168 40.179 60.928 94.171 60.57 150.281-0.363 56.11-22.814 109.82-62.49 149.493-39.68 39.674-93.393 62.118-149.504 62.469s-110.101-21.417-150.272-60.591l-450.092-451.926c-56.014-56.013-87.482-131.985-87.482-211.2s31.468-155.187 87.482-211.2c56.014-56.013 131.985-87.479 211.2-87.479s155.188 31.467 211.201 87.479l464.725 466.603c3.985 3.964 7.147 8.678 9.306 13.871s3.273 10.756 3.273 16.38c0 5.623-1.114 11.191-3.273 16.381s-5.321 9.905-9.306 13.87z" />
<glyph unicode="&#xe948;" glyph-name="download-white" data-tags="download-white" horiz-adv-x="979" d="M512.329 264.099c-5.797-6.34-13.998-9.955-22.59-9.955s-16.789 3.615-22.59 9.955l-163.246 178.55c-11.407 12.479-10.54 31.837 1.936 43.244 12.476 11.411 31.837 10.543 43.244-1.932l110.047-120.365v451.709c0 16.905 13.704 30.609 30.609 30.609s30.609-13.704 30.609-30.609v-451.709l110.049 120.365c11.406 12.475 30.765 13.343 43.244 1.932 12.475-11.406 13.343-30.765 1.937-43.244l-163.248-178.55zM153.043 325.565c0 16.905-13.704 30.609-30.609 30.609s-30.609-13.704-30.609-30.609v-2.239c-0.001-55.812-0.001-100.802 4.755-136.183 4.939-36.735 15.505-67.664 40.070-92.231 24.565-24.563 55.495-35.132 92.23-40.070 35.382-4.755 80.37-4.755 136.183-4.755h249.348c55.812 0 100.802 0 136.183 4.755 36.735 4.937 67.664 15.507 92.231 40.070 24.563 24.567 35.132 55.496 40.070 92.231 4.755 35.381 4.755 80.371 4.755 136.183v2.239c0 16.905-13.704 30.609-30.609 30.609s-30.609-13.704-30.609-30.609c0-58.582-0.067-99.439-4.207-130.266-4.029-29.945-11.393-45.804-22.688-57.099s-27.154-18.659-57.099-22.684c-30.827-4.145-71.684-4.212-130.266-4.212h-244.87c-58.582 0-99.438 0.067-130.266 4.212-29.947 4.025-45.805 11.389-57.1 22.684s-18.659 27.154-22.686 57.099c-4.145 30.827-4.21 71.684-4.21 130.266z" />
<glyph unicode="&#xe949;" glyph-name="dropdown-white" data-tags="dropdown-white" d="M798.271 609.707c-3.965 3.999-8.687 7.173-13.881 9.339-5.2 2.166-10.78 3.281-16.412 3.281s-11.207-1.116-16.407-3.281c-5.2-2.166-9.921-5.341-13.887-9.339l-195.412-195.413c-3.966-3.999-8.685-7.173-13.885-9.339s-10.776-3.281-16.408-3.281c-5.633 0-11.209 1.115-16.408 3.281s-9.919 5.34-13.885 9.339l-195.413 195.413c-3.966 3.999-8.686 7.173-13.885 9.339s-10.776 3.281-16.408 3.281c-5.633 0-11.209-1.116-16.408-3.281s-9.919-5.341-13.885-9.339c-7.947-7.994-12.407-18.808-12.407-30.080s4.461-22.086 12.407-30.080l195.84-195.84c24-23.973 56.533-37.433 90.453-37.433s66.451 13.46 90.452 37.433l195.84 195.84c7.947 7.994 12.407 18.808 12.407 30.080s-4.46 22.086-12.407 30.080z" />
<glyph unicode="&#xe94a;" glyph-name="exit" data-tags="exit" d="M558.933 905.387c52.821 1.749 212.011 0.64 243.2-1.707 77.867-5.845 122.24-29.995 145.963-79.36 15.019-31.317 19.029-57.643 21.461-140.8 2.347-79.616 0.939-495.531-1.749-527.915-7.979-95.445-44.459-141.867-124.203-158.037-30.507-6.187-63.659-7.552-182.272-7.552s-151.765 1.365-182.272 7.552c-74.88 15.147-112.725 58.453-122.368 139.819-2.901 24.704-5.12 95.659-3.243 103.979 6.059 26.923 40.832 33.408 56.917 10.624l5.035-7.125 1.237-41.685c1.835-61.867 4.565-80.469 15.232-102.741 14.251-29.739 38.315-40.917 96.469-44.885 33.067-2.261 232.917-2.261 265.984 0 56.875 3.883 82.005 15.189 95.659 43.136 6.912 14.165 10.325 26.496 13.269 48.085 3.072 22.229 3.072 580.224 0 602.453-5.973 43.52-17.664 64.896-42.027 76.8-14.080 6.869-26.453 10.283-48 13.227-21.803 3.029-281.984 3.029-303.787 0-31.872-4.395-55.083-13.525-66.603-26.283-12.117-13.397-20.395-37.163-23.851-68.523-0.64-5.461-1.664-28.544-2.347-51.285-1.152-38.955-1.451-41.771-5.12-47.701-15.019-24.277-52.139-18.859-57.941 8.448-2.005 9.515 0.043 78.635 3.115 104.704 9.259 78.165 45.568 121.941 114.603 138.155 22.101 5.205 41.429 7.125 87.637 8.619zM227.285 606.72c11.733 2.773 23.211-1.195 31.787-10.965 8.405-9.557 9.557-27.008 2.475-36.693-1.749-2.389-22.571-21.077-46.251-41.472l-43.051-37.12 475.435-0.896 7.125-3.797 0.166-0.077c7.884-4.013 13.708-11.493 15.492-20.617l-0.043 0.216c0.557-2.362 0.852-4.825 0.852-7.358 0-12.212-6.859-22.823-17.108-28.272-6.229-3.115-15.445-3.285-243.925-4.096l-237.44-0.853 43.264-37.12c23.765-20.395 44.501-38.997 45.995-41.301 3.456-5.248 4.949-15.829 3.456-23.893-1.323-7.083-9.344-16.939-16.981-20.907-7.552-3.883-21.675-3.499-28.971 0.811-10.581 6.229-158.848 134.656-162.347 140.587-4.523 7.723-4.523 22.485 0 30.165 2.901 4.864 142.976 126.805 158.848 138.325l-0.127-0.084c3.345 2.332 7.074 4.152 11.348 5.417z" />
<glyph unicode="&#xe94b;" glyph-name="eye-green" data-tags="eye-green" horiz-adv-x="979" d="M489.77 601.040c-84.526 0-153.046-68.52-153.046-153.044s68.52-153.043 153.046-153.043c84.52 0 153.043 68.519 153.043 153.043s-68.523 153.044-153.043 153.044zM397.942 447.996c0 50.715 41.112 91.827 91.828 91.827 50.71 0 91.826-41.112 91.826-91.827s-41.116-91.826-91.826-91.826c-50.716 0-91.828 41.111-91.828 91.826zM489.77 805.098c-184.231 0-308.322-110.363-380.343-203.93l-1.299-1.687c-16.288-21.154-31.289-40.637-41.467-63.674-10.898-24.67-15.618-51.557-15.618-87.811s4.72-63.141 15.618-87.81c10.177-23.036 25.179-42.518 41.467-63.675l1.299-1.687c72.021-93.567 196.112-203.927 380.343-203.927 184.227 0 308.317 110.36 380.34 203.927l1.296 1.687c16.291 21.157 31.29 40.639 41.468 63.675 10.899 24.669 15.618 51.556 15.618 87.81s-4.719 63.141-15.618 87.811c-10.178 23.038-25.177 42.521-41.468 63.675l-1.296 1.686c-72.023 93.567-196.114 203.93-380.34 203.93zM157.938 563.828c66.499 86.394 174.72 180.053 331.833 180.053 157.108 0 265.327-93.659 331.829-180.053 17.898-23.254 28.383-37.149 35.279-52.758 6.442-14.59 10.396-32.421 10.396-63.074s-3.954-48.484-10.396-63.069c-6.896-15.614-17.381-29.509-35.279-52.763-66.502-86.39-174.721-180.050-331.829-180.050-157.112 0-265.333 93.66-331.833 180.050-17.899 23.254-28.383 37.149-35.28 52.763-6.445 14.585-10.397 32.416-10.397 63.069s3.952 48.484 10.397 63.074c6.896 15.609 17.381 29.504 35.28 52.758z" />
<glyph unicode="&#xe94c;" glyph-name="facebook-blue" data-tags="facebook-blue" d="M554.752 109.312c169.294 21.94 298.726 165.217 298.726 338.724 0 188.551-152.851 341.402-341.402 341.402s-341.402-152.851-341.402-341.402c0-173.507 129.433-316.784 297.012-338.542l1.714-0.182v253.338h-85.35v85.35h85.35v70.656c0 57.037 5.939 77.722 17.101 98.611s27.494 37.222 48.384 48.384c16.333 8.704 36.557 13.978 71.987 16.23q21.094 1.382 54.528-3.43v-81.050h-21.35c-39.117 0-55.296-1.843-64.922-7.014-5.775-2.996-10.367-7.589-13.283-13.193l-0.081-0.17c-5.171-9.677-7.014-19.251-7.014-58.368v-70.656h106.65l-21.35-85.299h-85.299zM512 21.35c-235.646 0-426.675 191.029-426.675 426.675s191.029 426.675 426.675 426.675v0c235.646 0 426.675-191.029 426.675-426.675s-191.029-426.675-426.675-426.675v0z" />
<glyph unicode="&#xe94d;" glyph-name="facebook-white" data-tags="facebook-white" d="M554.737 109.307c168.371 20.997 298.665 164.628 298.665 338.693 0 188.512-152.822 341.332-341.335 341.332s-341.333-152.82-341.333-341.332c0-174.065 130.291-317.696 298.668-338.693v253.358h-85.335v85.335h85.335v70.578c0 57.056 5.939 77.746 17.096 98.606 11.153 20.859 27.525 37.23 48.384 48.386 16.328 8.732 36.582 14.002 71.977 16.263 14.049 0.897 32.23-0.247 54.543-3.433v-81.066h-21.335c-39.137 0-55.286-1.848-64.942-7.011-5.985-3.203-10.173-7.392-13.379-13.381-5.166-9.653-7.009-19.226-7.009-58.362v-70.578h106.665l-21.335-85.335h-85.33v-253.358zM512.067 21.33c-235.641 0-426.666 191.027-426.666 426.67 0 235.64 191.025 426.665 426.666 426.665 235.643 0 426.67-191.025 426.67-426.665 0-235.643-191.027-426.67-426.67-426.67z" />
<glyph unicode="&#xe94e;" glyph-name="filter-academic" data-tags="filter-academic" d="M606.632 810.682c-60.63 28.424-128.577 28.424-189.205 0l-285.487-133.843c-45.909-21.524-57.879-82.216-35.908-124.163v-211.344c0-17.673 14.327-32 32-32s32 14.327 32 32v163.328l257.4-120.674c60.629-28.425 128.576-28.425 189.206 0l285.487 133.842c62.101 29.114 62.101 129.895 0 159.009l-285.491 133.845zM213.363 408.972v-158.324c0-43.008 21.483-83.274 59.108-104.113 62.651-34.695 162.93-82.534 239.562-82.534 76.628 0 176.905 47.839 239.555 82.534 37.627 20.838 59.108 61.105 59.108 104.113v158.324l-176.896-82.935c-77.843-36.492-165.697-36.492-243.537 0l-176.899 82.935z" />
<glyph unicode="&#xe94f;" glyph-name="filter-crown" data-tags="filter-crown" d="M931.793 485.283c7.68 81.603 11.52 122.406-2.439 139.272-7.554 9.124-17.822 14.714-28.802 15.679-20.294 1.783-45.782-27.234-96.763-85.268-26.363-30.013-39.545-45.019-54.249-47.343-8.15-1.288-16.449 0.036-23.976 3.822-13.577 6.833-22.63 25.385-40.737 62.488l-95.441 195.57c-34.216 70.111-51.321 105.167-77.354 105.167-26.038 0-43.143-35.056-77.36-105.168l-95.439-195.569c-18.107-37.103-27.16-55.655-40.739-62.488-7.524-3.786-15.826-5.11-23.974-3.822-14.706 2.324-27.887 17.33-54.251 47.343-50.978 58.034-76.467 87.051-96.763 85.268-10.979-0.964-21.248-6.555-28.8-15.679-13.96-16.867-10.12-57.669-2.439-139.272l9.779-103.903c16.113-171.208 24.17-256.81 74.628-308.424 50.458-51.619 126.083-51.619 277.333-51.619h116.044c151.249 0 226.877 0 277.336 51.619 50.455 51.614 58.512 137.216 74.626 308.424l9.779 103.903zM352.030 192.005c0 17.673 14.327 32 32 32h256.002c17.669 0 32-14.327 32-32s-14.331-32-32-32h-256.002c-17.673 0-32 14.327-32 32z" />
<glyph unicode="&#xe950;" glyph-name="filter-globe" data-tags="filter-globe" d="M86.546 480.005h212.719c1.519 42.729 6.074 84.823 13.561 124.752 9.338 49.811 23.136 95.71 40.899 134.953 17.659 39.013 39.491 72.017 65.327 95.66 25.966 23.762 57.528 39.302 92.977 39.302-224.875 0-409.119-173.971-425.482-394.666zM86.546 416.005c16.364-220.695 200.608-394.668 425.482-394.668-35.449 0-67.011 15.542-92.977 39.303-25.836 23.64-47.668 56.646-65.327 95.66-17.763 39.242-31.561 85.141-40.899 134.954-7.486 39.927-12.042 82.022-13.561 124.751h-212.719zM512.028 815.136c-11.729 0-26.889-4.993-44.516-21.123-17.757-16.249-35.532-41.717-51.238-76.414-15.601-34.468-28.269-76.076-36.987-122.574-6.865-36.618-11.124-75.434-12.619-115.020h290.726c-1.499 39.586-5.758 78.403-12.623 115.020-8.713 46.498-21.383 88.106-36.985 122.574-15.704 34.697-33.48 60.165-51.237 76.414-17.627 16.13-32.787 21.123-44.521 21.123zM379.287 300.982c8.717-46.494 21.386-88.106 36.987-122.573 15.705-34.7 33.481-60.165 51.238-76.414 17.627-16.133 32.787-21.122 44.516-21.122 11.734 0 26.894 4.99 44.521 21.122 17.757 16.249 35.533 41.714 51.237 76.414 15.602 34.467 28.272 76.079 36.985 122.573 6.865 36.617 11.124 75.436 12.623 115.023h-290.726c1.495-39.587 5.753-78.406 12.619-115.023zM512.028 874.671c35.454 0 67.016-15.54 92.979-39.302 25.837-23.643 47.672-56.646 65.331-95.66 17.762-39.243 31.558-85.142 40.899-134.953 7.485-39.929 12.041-82.022 13.559-124.752h212.717c-16.361 220.695-200.606 394.666-425.486 394.666zM711.233 291.254c-9.337-49.813-23.133-95.711-40.895-134.954-17.659-39.014-39.494-72.020-65.331-95.66-25.963-23.761-57.526-39.303-92.979-39.303 224.88 0 409.125 173.973 425.486 394.668h-212.717c-1.517-42.729-6.074-84.824-13.563-124.751z" />
<glyph unicode="&#xe951;" glyph-name="filter-job-title" data-tags="filter-job-title" d="M512.037 842.671c-41.747 0-77.35-26.668-90.544-63.997-5.889-16.663-24.172-25.397-40.835-19.507s-25.397 24.172-19.507 40.835c21.949 62.1 81.172 106.67 150.886 106.67 69.716 0 128.94-44.569 150.891-106.67 5.888-16.663-2.849-34.945-19.507-40.835-16.663-5.889-34.946 2.844-40.839 19.507-13.191 37.329-48.794 63.997-90.545 63.997zM597.364 426.668h-170.667c-11.782 0-21.334-9.551-21.334-21.332v-92.221c0-8.727 5.311-16.57 13.411-19.81l29.872-11.948c40.691-16.277 86.077-16.277 126.767 0l29.873 11.948c8.099 3.24 13.41 11.082 13.41 19.81v92.221c0 11.781-9.551 21.332-21.332 21.332zM341.823 304.254l-213.543 64.061c1.284-132.883 9.047-255.265 55.981-296.983 56.235-49.985 146.745-49.985 327.767-49.985 181.015 0 271.528 0 327.764 49.985 46.932 41.719 54.696 164.101 55.98 296.983l-213.532-64.061c-3.254-31.26-23.557-58.517-53.183-70.372l-29.873-11.948c-55.948-22.379-118.36-22.379-174.307 0l-29.872 11.948c-29.629 11.855-49.928 39.112-53.182 70.372zM324.678 746.671h374.705c104.541 0 156.812 0 192.098-28.714 6.786-5.519 12.986-11.718 18.502-18.501 28.714-35.29 28.714-87.56 28.714-192.1 0-26.528 0-39.788-6.433-50.136-1.252-2.015-2.672-3.924-4.24-5.702-8.062-9.137-20.769-12.949-46.178-20.568l-199.149-59.746v34.132c0 47.127-38.205 85.332-85.332 85.332h-170.667c-47.128 0-85.334-38.205-85.334-85.332v-34.132l-199.151 59.746c-25.408 7.619-38.112 11.432-46.173 20.568-1.57 1.778-2.99 3.686-4.243 5.702-6.434 10.347-6.434 23.608-6.434 50.136 0 104.54 0 156.81 28.714 192.1 5.519 6.783 11.718 12.982 18.501 18.501 35.29 28.714 87.56 28.714 192.1 28.714z" />
<glyph unicode="&#xe952;" glyph-name="filter-location" data-tags="filter-location" d="M511.967 874.671c188.514 0 341.336-170.777 341.336-362.667 0-190.384-108.944-397.33-278.914-476.778-39.624-18.52-85.215-18.52-124.838 0-169.973 79.448-278.915 286.394-278.915 476.778 0 191.89 152.82 362.667 341.331 362.667zM511.967 448.005c47.132 0 85.336 38.205 85.336 85.332s-38.205 85.334-85.336 85.334c-47.126 0-85.331-38.205-85.331-85.334s38.205-85.332 85.331-85.332z" />
<glyph unicode="&#xe953;" glyph-name="filter-star" data-tags="filter-star" d="M390.565 729.246c54.044 96.95 81.066 145.424 121.467 145.424 40.397 0 67.421-48.475 121.465-145.424l13.978-25.082c15.36-27.55 23.040-41.325 35.011-50.414s26.885-12.463 56.706-19.211l27.15-6.143c104.946-23.745 157.421-35.618 169.905-75.763s-23.291-81.975-94.836-165.641l-18.506-21.644c-20.331-23.775-30.497-35.663-35.072-50.367-4.571-14.708-3.035-30.566 0.037-62.287l2.797-28.877c10.817-111.625 16.226-167.438-16.458-192.251-32.684-24.809-81.813-2.188-180.075 43.055l-25.418 11.702c-27.923 12.861-41.886 19.288-56.683 19.288-14.801 0-28.765-6.428-56.685-19.288l-25.421-11.702c-98.262-45.242-147.392-67.863-180.076-43.055-32.684 24.813-27.276 80.626-16.459 192.247l2.799 28.881c3.073 31.721 4.61 47.579 0.037 62.287-4.573 14.704-14.739 26.591-35.070 50.367l-18.51 21.644c-71.545 83.665-107.318 125.495-94.834 165.641s64.957 52.018 169.903 75.763l27.151 6.143c29.823 6.748 44.734 10.122 56.707 19.211s19.651 22.864 35.009 50.413l13.982 25.082z" />
<glyph unicode="&#xe954;" glyph-name="footer-after" data-tags="footer-after" horiz-adv-x="512" d="M0 447.556l1.331-0.887c2.736-3.23 5.658-7.057 8.76-11.127 13.498-17.694 30.406-39.863 50.248-36.262l-0.005-0.247-0.005-0.393c-0.219-34.944 53.694-47.194 53.694-47.194 11.536-55.808 74.094-70.865 122.454-58.022-0.143 0.094-0.294 0.205-0.452 0.324l0.452 0.119c-3.993 2.658-14.641 15.945-14.641 15.945s-70.545-14.174-88.735 49.165c-1.695 5.845-2.48 11.405-2.502 16.619 0.161 39.522 44.271 58.863 67.722 30.771 3.336-3.806 5.136-7.612 5.195-12.032-0.048-3.703-1.297-7.842-3.863-12.77-5.576-10.735-21.159-10.406-21.405-1.259 0.024 0.926 0.201 1.937 0.553 3.029 7.288 1.323 11.608 5.611 11.482 10.833 0.047 1.899-0.503 3.93-1.721 5.999-12.423 21.261-30.17-6.647-30.17-20.378l0.001-0.256-0.001-0.188c0-15.501 12.866-37.201 44.367-25.242 14.626 5.444 21.634 20.843 21.565 36.928 0.050 12.838-4.421 26.172-13.136 35.264-33.578 34.394-101.874 7.599-101.675-48.418-0.003-0.977 0.015-1.963 0.054-2.957-16.409 2.227-31.926 19.938-33.7 36.318-27.508 3.102-38.156 15.057-50.135 35.874l-0.444 0.444h-25.289zM94.502 447.556c0.887-2.219 6.655-9.745 12.867-9.745s11.535 7.526 12.866 9.745h21.297c-1.327-4.139-5.756-6.669-11.5-9.954-9.618-5.495-22.925-13.099-31.537-33.894-0.118 0.222-0.235 0.444-0.348 0.67l-0.096-0.226c-5.873 10.551-5.527 28.352-5.364 32.388-16.041-12.604-33.58-3.819-42.357 9.301-0.378 0.563-0.739 1.135-1.083 1.715h45.254zM216.070 447.556c1.775-0.444 6.211-3.102 8.873-7.087 2.411-3.78 4.288-8.9 4.383-11.831-0.023-0.631-0.147-1.131-0.39-1.455-0.074-0.111-0.040-0.209 0.093-0.303-0.029-0.047-0.060-0.098-0.093-0.141-0.319-0.478 1.371-0.725 4.307-1.161 5.225-0.768 14.395-2.116 23.201-6.37 11.535-5.312 22.184-18.603 22.184-18.603l16.416-0.439-0.169 0.444 0.169-0.004c0 0-8.43 23.475-26.177 32.333-17.747 8.418-25.733 7.531-25.733 7.531l-2.218 7.087v0.444h-23.959l0.731-0.444h-1.618zM317.227 447.556l16.859-25.69-0.739 0.017 0.296-0.461-21.74 0.444c0.424 0-20.585 23.411-22.49 25.536l-0.020 0.021-0.118 0.132h27.951zM180.576 288.55c0 0-3.139-4.335-3.183-14.434 0.016-3.503 0.403-7.676 1.408-12.582 3.923-17.442 11.287-27.738 12.872-29.952 0.387-0.538 0.43-0.602-0.006-0.166l-0.125-0.090 0.131-0.188c0.387-0.538 0.43-0.597-0.006-0.166-15.529-11.511-21.74-24.358-23.071-36.314-1.46-13.124-1.967-23.906-1.972-33.395 0.012-10.509 0.636-19.439 1.25-28.22 0.603-8.619 1.196-17.101 1.19-26.803 0.001-0.738-0.005-1.485-0.012-2.236l-0.001-0.124c10.318 0.073 19.217-0.546 28.265-1.178l0.072-0.004c16.826-1.178 34.184-2.385 62.162 0.717 11.979 1.331 24.846 7.531 36.381 23.036-0.435 0.431-0.375 0.388 0.166 0.004 2.217-1.579 12.526-8.934 30.004-12.851 19.522-3.985 27.508 1.771 27.508 1.771l5.324-19.486-2.372-0.162c-23.524-1.63-26.365-1.826-50.426 5.035-9.98-3.785-16.996-7.663-23.151-11.068l-0.017-0.004c-7.517-4.156-13.75-7.599-22.531-9.301-15.324-2.948-27.575-1.835-41.356-0.58-19.040 1.737-41.001 3.733-78.024-4.352l-0.856-0.828 0.127 0.567-0.127-0.124 0.047 0.209-0.934-0.209 1.152 1.186c4.65 21.043 6.035 37.235 6.045 50.778-0.015 10.27-0.815 19.017-1.565 27.221-0.674 7.373-1.307 14.306-1.296 21.508-0.013 6.374 0.471 12.949 1.875 20.22 1.707 8.764 5.157 14.985 9.318 22.49 3.387 6.11 7.245 13.069 11.018 22.942-4.509 15.77-5.939 22.357-5.917 31.825-0.013 4.915 0.38 10.564 0.944 18.688l0.165 1.937v0.444l19.522-5.316c0 0-0.090-0.124-0.239-0.38l0.239-0.064zM261.768 345.69c-17.747 0.883-30.613-2.214-41.262-8.862-10.648-5.756-19.965-14.613-31.057-26.129l-18.191 5.756 0.097 0.132-0.984 0.311c0 0 21.296 28.348 46.142 39.42 26.621 12.399 57.234 4.429 57.234 4.429l-0.302-0.367 0.302-0.077-11.979-14.613zM236.307 364.446c7.175 0.973 15.161 2.057 17.475 2.057 7.986 5.76 20.852 10.628 32.832 8.414 11.092-1.327 22.184-6.199 30.614-12.399v0.444l-0.444 23.915v0.444c0 0-13.754 9.745-35.938 8.858-35.938-1.327-57.234-32.772-57.234-32.772 0.024-0.026 0.122-0.034 0.288-0.034-0.191-0.269-0.288-0.41-0.288-0.41 0.212-0.213 6.091 0.585 12.658 1.481l0.037 0.004zM289.276 337.271l0.137 0.218-0.137 0.226 9.761 15.505c0 0 30.614-16.393 32.832-57.139 0.078-1.553 0.115-3.051 0.111-4.51 0.045-15.403-4.428-25.732-13.421-37.564-0.56-0.751-1.139-1.485-1.734-2.193 0.707 0.597 1.432 1.182 2.177 1.749 12.867 9.745 23.959 14.174 41.705 13.286 40.818-2.214 57.234-32.777 57.234-32.777l-15.529-9.741c-2.233 1.31-4.816 3.593-7.796 6.225-7.083 6.255-16.405 14.494-28.585 16.363-12.867 2.214-32.832-2.214-35.050-23.475-2.219-22.588 22.184-5.312 20.409 3.985 2.219 2.214 15.085-40.747-21.74-42.517 17.938-10.231 16.242-35.238 15.35-48.401l-0.002-0.026-0.090-1.335-0.085-1.353c-0.091-1.553-0.139-2.85-0.088-3.806-16.409-1.771-41.241 5.751-47.465 23.010 0.026-0.149-0.074-1.207-4.445-7.949-9.525-14.396-29.359-15.663-51.005-17.050-15.658-1.003-32.264-2.065-46.604-8.196 0.98 9.532 16.564 16.777 33.463 24.627l0.023 0.013c13.706 6.37 28.273 13.137 36.615 21.862 12.148 12.757 18.957 28.471 25.515 43.61 5.588 12.898 10.995 25.378 19.369 35.243-9.763-8.32-22.229-13.705-35.11-19.264-15.171-6.549-30.917-13.35-43.493-25.485-8.745-8.333-15.531-22.886-21.914-36.574-7.866-16.87-15.12-32.427-24.672-33.404l0.198 0.465-0.198-0.021c6.146 14.315 7.21 30.891 8.214 46.524 1.388 21.606 2.659 41.404 17.076 50.914 4.42 2.859 6.402 3.887 7.286 4.25-15.254 5.999-22.689 26.611-22.623 42.458-0.009 1.771 0.076 3.482 0.253 5.116 1.463-0.081 3.703 0.068 6.47 0.256l0.061 0.004c13.184 0.892 38.235 2.586 48.485-15.322 1.775 36.762 44.811 23.919 42.592 21.705l-0.028 0.004c0.135-0.175 0.149-0.329 0.028-0.452-5.872 1.118-14.74-8.145-14.941-14.592 0.116-3.554 3.070-6.123 10.948-5.338 18.003 1.873 23.958 16.41 24.029 28.617-0.007 1.165-0.067 2.313-0.176 3.418-0.084 0.862-0.198 1.702-0.338 2.513-2.172 12.079-10.422 21.346-16.703 28.403-2.699 3.029-5.035 5.653-6.368 7.915zM267.092 316.454c16.416 18.159 24.846 28.791 28.395 54.477l-0.062 0.004 0.061 0.439-16.416 0.444c0-21.257-29.726-49.604-29.726-49.604l0.351-0.107-0.351-0.337 17.747-5.316zM217.844 328.858c11.092-40.307 61.227-46.063 86.96-19.046l-0.206 0.23 0.206 0.213-11.979 13.286c-0.205 0.205-1.074-0.393-2.531-1.399-4.843-3.341-16.18-11.17-31.188-8.785-22.184 3.985-21.74 23.471-21.74 23.471l-19.521-7.526 0.112-0.401-0.112-0.043zM316.34 346.129l10.648-17.271c0 0 8.873 14.174 11.979 34.987 1.002 6.289 1.311 11.977 1.3 16.785 0.011 6.029-0.488 10.709-0.786 13.508-0.108 1.011-0.188 1.775-0.21 2.27 0.015 0.166 0.052 0.239 0.119 0.222l-0.126 0.047c0.002 0.282 0.040 0.418 0.126 0.397l-15.952 6.191c0 0 0-16.388-1.775-31.002-1.775-13.73-5.324-25.69-5.324-25.69l0.087-0.145-0.087-0.299zM405.518 383.334l-0.233 0.337 0.233 0.107c-6.211 8.858-11.092 19.486-14.198 31.002-5.768-2.214-18.191-6.643-22.627 0-3.506 5.116-4.225 11.546-4.25 15.799 0.006 1.152 0.062 2.125 0.12 2.837 0.067 0.823 0.137 1.293 0.137 1.293l-0.066-0.094c0.038 0.35 0.066 0.542 0.066 0.542l-14.198-20.378c-15.972 9.301-30.17 3.989-43.48-7.087l0.587 0.043-0.587-0.482c17.942 1.306 28.641-3.362 37.702-7.317 12.448-5.427 21.804-9.51 42.604 5.103l4.88-9.306 3.387-8.448c-24.643-5.619-27.787-15.334-31.929-28.134-3.055-9.442-6.653-20.557-19.819-32.951l0.559 0.090-0.559-0.533c17.303 2.658 30.614 9.745 34.607 27.904l24.846-3.102c0 0-0.271 0.183-0.736 0.538l0.736-0.094c0 0-9.761 6.647-12.423 16.388-0.070 0.277-0.12 0.555-0.152 0.828-0.023 0.196-0.037 0.393-0.042 0.589 0.167 6.682 9.551 12.092 14.836 14.528zM350.059 287.228l33.719-0.887 8.873 14.174-21.388 4.954-5.233 22.502-14.198-8.858v-0.444l-1.31-30.942-0.021-0.060-0.444-0.439zM260.88 272.61c-1.298-0.465-2.015-1.873-2.069-3.767 0.176-7.181 9.267-20.322 31.218-16.785-11.806 3.26-17.521 10.389-21.517 15.373-2.891 3.61-4.883 6.093-7.631 5.18zM210.789 204.595c0.054-2.406 0.992-4.19 2.618-4.621 2.752-0.734 4.518 1.941 7.086 5.833 3.538 5.363 8.6 13.030 19.862 17.276-21.274 1.498-29.408-11.085-29.566-18.487zM219.619 263.309c-1.649-0.9-2.501-2.697-2.551-4.983 0.247-11.29 19.019-33.306 56.552-20.612-20.163 2.039-31.646 12.215-39.685 19.337-5.952 5.269-10.016 8.87-14.316 6.259zM512-15.279v43.849c0 0-0.119 0-0.299 0.064-0.166 0.055-0.375 0.166-0.589 0.375l0.017-0.35c-2.47 1.596-9.335 6.579-9.335 12.753 0 7.531 10.206 13.286 10.206 13.286v20.817c0 0.222-4.331-4.1-11.883-11.639-7.539-7.526-18.295-18.266-31.155-30.882-10.202-9.741 33.276-5.312 33.276-5.312-13.308-16.388-3.994-34.103 9.762-42.961zM476.062 10.85c-16.414 1.771-34.163 17.271-36.382 33.66 58.121-2.654 86.519 67.324 51.469 101.427-20.412 19.486-62.114 17.715-71.877-8.414-11.979-31.45 9.763-44.292 25.289-44.292 13.756 0 41.707 17.715 20.407 30.118-7.539 4.429-14.639 0-16.414-9.745-12.425-3.985-14.199 14.618-2.219 20.817 11.093 5.76 18.189 4.873 25.289-1.327 31.945-26.577 2.662-79.723-47.916-65.109-63.445 18.159-49.248 88.58-49.248 88.58s-13.31 10.633-15.972 14.618c-12.867-49.161 2.218-111.168 58.121-122.684 0 0 12.425-54.477 47.915-53.594-3.605-19.81 18.603-36.689 36.331-50.163 4.075-3.098 7.91-6.012 11.145-8.742v24.802c-20.851 11.959-32.832 22.588-35.938 50.048zM425.484 208.388c0 0 7.984-30.562-4.437-57.139-11.092-24.358-39.487-45.615-39.487-45.615l-5.768 18.159c11.536 11.072 20.409 20.373 26.177 31.002 6.655 11.516 9.761 24.358 8.873 41.634l14.641 11.959zM512 176.055v-23.471c-0.444-0.887-0.887-1.775-0.887-2.214v0.883c0 0.444-0.887 5.756-5.325 8.414-4.881 3.102-11.977 5.316-13.751 3.985-0.482-0.316-0.73 1.37-1.161 4.301-0.772 5.214-2.125 14.37-6.383 23.159-5.325 11.516-18.637 22.148-18.637 22.148l-0.444 16.388c0 0 23.518-8.418 32.388-26.133 8.431-17.715 7.543-25.69 7.543-25.69l6.656-1.771zM429.628 171.413c-0.896-6.554-1.694-12.42-1.481-12.634 0 0 31.501 21.261 32.832 57.135 0.887 22.144-8.875 35.878-8.875 35.878l-24.401 0.439c6.208-8.414 11.089-19.486 12.42-30.558 2.219-12.403-2.662-25.246-8.431-32.777 0-2.313-1.088-10.313-2.065-17.485zM316.783 225.66c-5.324-29.231 18.634-36.318 20.853-30.118 0.916 2.748-1.573 4.732-5.186 7.62-5.135 4.1-12.542 10.018-15.667 22.498zM287.945 176.055c2.662-29.675-21.74-34.547-23.515-27.904-0.745 2.974 2.028 4.779 6.021 7.377 5.521 3.593 13.375 8.704 17.494 20.527zM302.586 209.276c-16.416-46.507 20.409-64.666 25.733-54.925 2.635 4.51-1.037 8.623-6.377 14.601-7.248 8.111-17.568 19.665-19.356 40.324zM386.884 184.026c0 0 28.395 29.679 49.69 29.679l-0.444 16.384c-25.731-3.541-36.38-11.516-54.57-28.343l5.324-17.719zM401.525 172.066c0 0-19.078-0.439-23.514 21.705-2.388 14.985 5.454 26.304 8.803 31.134 1.007 1.455 1.607 2.321 1.402 2.526l-13.31 11.959c-27.064-25.69-21.297-75.738 19.078-86.81l7.542 19.486zM411.286 250.906c0 0 11.98 3.541 25.732 5.316 14.643 1.771 31.057 1.771 31.057 1.771l-6.204 15.927c0.030-0.102-0.154-0.137-0.525-0.128-0.141 0.004-0.307 0.013-0.495 0.026l-0.354 0.034c-0.414 0.034-0.917 0.085-1.506 0.149l-0.060 0.009c-5.001 0.529-15.983 1.694-29.897-0.516-20.855-2.658-35.052-11.959-35.052-11.959l17.303-10.628zM486.711 268.621l25.289-16.388v-27.456l-0.887-0.887-23.957 23.031-0.444 21.7zM479.612 303.168c8.431-5.756 20.407-3.985 20.407-3.985l-20.407-14.174c9.318-15.945 3.994-30.118-7.1-43.405 1.31 17.911-3.366 28.591-7.326 37.636-5.44 12.429-9.527 21.769 5.107 42.53l-9.314 4.873-8.875 3.541c-5.623-24.747-15.369-27.891-28.22-32.034-9.456-3.051-20.594-6.643-33.007-19.785 2.662 17.276 9.761 30.562 27.951 34.547l-3.106 24.802c0 0 6.655-9.745 16.414-12.403 7.543-2.214 14.199 9.745 16.862 15.061 8.875-5.76 19.52-10.633 31.057-13.73-2.219-5.316-7.1-18.603-0.444-23.475zM0 446.255l1.331 0.887c2.736 3.23 5.658 7.061 8.76 11.127 13.498 17.698 30.406 39.863 50.248 36.267l-0.005 0.243-0.005 0.397c-0.219 34.94 53.695 47.191 53.695 47.191 11.535 55.807 74.093 70.865 122.454 58.021-0.143-0.095-0.294-0.203-0.452-0.324l0.452-0.119c-3.993-2.658-14.641-15.945-14.641-15.945s-70.545 14.174-88.735-49.163c-1.695-5.847-2.48-11.407-2.502-16.621 0.161-39.522 44.271-58.863 67.722-30.767 3.336 3.806 5.136 7.607 5.195 12.032-0.048 3.699-1.297 7.838-3.863 12.766-5.576 10.735-21.159 10.406-21.405 1.259 0.024-0.926 0.201-1.937 0.553-3.029 7.288-1.323 11.608-5.611 11.482-10.829 0.047-1.899-0.503-3.934-1.721-5.999-12.423-21.261-30.17 6.643-30.17 20.373l0.001 0.26-0.001 0.183c0 15.501 12.867 37.203 44.367 25.244 14.626-5.443 21.634-20.845 21.565-36.926 0.050-12.843-4.421-26.172-13.136-35.268-33.578-34.389-101.874-7.599-101.675 48.422-0.003 0.973 0.015 1.958 0.054 2.953-16.409-2.227-31.926-19.934-33.7-36.314-27.508-3.102-38.156-15.061-50.135-35.878l-0.444-0.444h-25.289zM94.502 446.259c0.887 2.214 6.655 9.741 12.867 9.741s11.535-7.526 12.866-9.741l21.297-0.004c-1.327 4.139-5.756 6.669-11.5 9.954-9.618 5.495-22.925 13.099-31.537 33.899-0.118-0.222-0.235-0.444-0.348-0.674l-0.096 0.23c-5.873-10.556-5.527-28.352-5.364-32.388-16.041 12.604-33.58 3.814-42.357-9.306-0.378-0.563-0.739-1.135-1.083-1.715l45.254 0.004zM216.070 446.255c1.775 0.444 6.211 3.102 8.873 7.087 2.411 3.785 4.288 8.905 4.383 11.831-0.023 0.631-0.147 1.131-0.39 1.455-0.074 0.111-0.040 0.213 0.093 0.303-0.029 0.051-0.060 0.098-0.093 0.141-0.32 0.478 1.371 0.73 4.307 1.161 5.225 0.768 14.395 2.116 23.201 6.37 11.535 5.316 22.184 18.603 22.184 18.603l16.416 0.444-0.169-0.448 0.169 0.004c0 0-8.43-23.475-26.177-32.333-17.747-8.418-25.733-7.531-25.733-7.531l-2.218-7.087v-0.444h-23.959l0.731 0.444h-1.618zM317.227 446.259l16.859 25.685-0.739-0.013 0.296 0.457-21.74-0.444c0.424 0-20.585-23.411-22.489-25.536l-0.020-0.021-0.118-0.132 27.952 0.004zM180.576 605.261c0 0-3.139 4.336-3.183 14.435 0.016 3.501 0.403 7.677 1.408 12.58 3.923 17.446 11.287 27.738 12.872 29.952 0.387 0.541 0.43 0.601-0.006 0.167l-0.125 0.093 0.131 0.183c0.387 0.541 0.43 0.602-0.006 0.167-15.529 11.514-21.74 24.36-23.071 36.317-1.46 13.123-1.967 23.906-1.972 33.393 0.012 10.508 0.636 19.44 1.25 28.22 0.603 8.62 1.196 17.1 1.19 26.804 0.001 0.737-0.005 1.484-0.012 2.236l-0.001 0.123c10.318-0.071 19.217 0.547 28.265 1.177l0.072 0.006c16.826 1.174 34.184 2.383 62.162-0.72 11.979-1.33 24.846-7.53 36.381-23.032-0.435-0.435-0.375-0.391 0.166-0.006 2.217 1.581 12.526 8.934 30.004 12.85 19.522 3.988 27.508-1.771 27.508-1.771l5.324 19.487-2.372 0.164c-23.524 1.629-26.365 1.825-50.426-5.034-9.98 3.785-16.996 7.66-23.151 11.064l-0.017 0.006c-7.518 4.154-13.751 7.597-22.531 9.301-15.324 2.95-27.575 1.834-41.356 0.58-19.040-1.737-41.001-3.735-78.024 4.351l-0.856 0.828 0.127-0.567-0.127 0.123 0.047-0.208-0.934 0.208 1.152-1.187c4.65-21.042 6.035-37.234 6.045-50.778-0.015-10.268-0.815-19.016-1.565-27.221-0.674-7.37-1.307-14.304-1.296-21.505-0.014-6.377 0.471-12.952 1.874-20.221 1.707-8.765 5.157-14.987 9.318-22.491 3.387-6.109 7.245-13.068 11.018-22.939-4.509-15.77-5.939-22.359-5.917-31.827-0.013-4.913 0.38-10.565 0.944-18.687l0.165-1.938v-0.443l19.521 5.316c0 0-0.090 0.123-0.239 0.378l0.239 0.065zM261.768 548.125c-17.747-0.884-30.613 2.214-41.262 8.858-10.648 5.759-19.965 14.617-31.057 26.133l-18.191-5.759 0.096-0.13-0.984-0.311c0 0 21.296-28.348 46.142-39.42 26.621-12.401 57.234-4.431 57.234-4.431l-0.302 0.369 0.302 0.076-11.98 14.615zM236.307 529.365c7.175-0.973 15.161-2.057 17.475-2.057 7.986-5.76 20.852-10.628 32.832-8.414 11.092 1.327 22.184 6.199 30.613 12.399v-0.444l-0.444-23.915v-0.444c0 0-13.754-9.745-35.938-8.858-35.938 1.327-57.234 32.772-57.234 32.772 0.024 0.026 0.122 0.038 0.288 0.038-0.191 0.265-0.288 0.405-0.288 0.405 0.212 0.213 6.091-0.585 12.659-1.476l0.036-0.009zM289.276 556.541l0.137-0.218-0.137-0.227 9.761-15.502c0 0 30.613 16.388 32.832 57.137 0.078 1.553 0.115 3.052 0.111 4.509 0.045 15.404-4.428 25.735-13.421 37.567-0.56 0.75-1.138 1.481-1.734 2.193 0.707-0.599 1.432-1.183 2.177-1.751 12.867-9.743 23.959-14.172 41.705-13.287 40.818 2.214 57.234 32.777 57.234 32.777l-15.529 9.743c-2.233-1.311-4.816-3.592-7.795-6.224-7.084-6.259-16.406-14.494-28.586-16.365-12.867-2.214-32.832 2.215-35.050 23.476-2.219 22.589 22.184 5.313 20.409-3.986 2.219-2.214 15.085 40.746-21.74 42.517 17.938 10.234 16.242 35.24 15.35 48.402l-0.002 0.026-0.090 1.335-0.085 1.354c-0.091 1.555-0.139 2.848-0.088 3.806-16.409 1.771-41.241-5.753-47.465-23.011 0.026 0.147-0.073 1.207-4.445 7.95-9.525 14.392-29.359 15.662-51.005 17.048-15.658 1.001-32.264 2.063-46.604 8.198 0.98-9.535 16.564-16.778 33.463-24.63l0.023-0.013c13.706-6.369 28.273-13.138 36.615-21.862 12.148-12.755 18.957-28.471 25.515-43.607 5.588-12.9 10.995-25.379 19.369-35.244-9.763 8.32-22.229 13.702-35.11 19.263-15.171 6.551-30.917 13.35-43.493 25.487-8.745 8.332-15.531 22.885-21.914 36.574-7.866 16.871-15.12 32.426-24.672 33.404l0.198-0.465-0.198 0.021c6.146-14.314 7.21-30.893 8.214-46.525 1.388-21.607 2.659-41.405 17.076-50.915 4.42-2.857 6.402-3.886 7.286-4.25-15.254-5.999-22.689-26.613-22.623-42.457-0.009-1.771 0.076-3.484 0.253-5.114 1.463 0.078 3.703-0.071 6.47-0.257l0.061-0.006c13.184-0.891 38.235-2.585 48.485 15.324 1.775-36.762 44.811-23.919 42.592-21.704l-0.028-0.004c0.135 0.175 0.149 0.329 0.028 0.45-5.872-1.118-14.74 8.145-14.941 14.593 0.116 3.555 3.070 6.123 10.948 5.335 18.003-1.873 23.958-16.406 24.029-28.614-0.007-1.168-0.067-2.312-0.176-3.419-0.084-0.863-0.198-1.702-0.338-2.513-2.172-12.080-10.422-21.347-16.703-28.402-2.699-3.030-5.035-5.653-6.368-7.915zM267.092 577.357c16.416-18.16 24.846-28.789 28.395-54.477h-0.062l0.061-0.444-16.416-0.444c0 21.26-29.726 49.605-29.726 49.605l0.351 0.106-0.351 0.339 17.747 5.314zM217.844 564.956c11.092 40.305 61.227 46.062 86.96 19.044l-0.206-0.229 0.206-0.214-11.98-13.287c-0.205-0.206-1.074 0.393-2.531 1.399-4.843 3.344-16.18 11.17-31.188 8.787-22.184-3.985-21.74-23.473-21.74-23.473l-19.522 7.528 0.112 0.402-0.112 0.043zM316.34 547.683l10.648 17.273c0 0 8.873-14.174 11.979-34.989 1.002-6.289 1.312-11.977 1.3-16.785 0.011-6.025-0.488-10.709-0.786-13.508-0.108-1.007-0.188-1.771-0.21-2.266 0.015-0.166 0.052-0.243 0.119-0.226l-0.126-0.047c0.002-0.282 0.040-0.418 0.126-0.393l-15.952-6.195c0 0 0 16.388-1.775 31.002-1.775 13.732-5.324 25.691-5.324 25.691l0.087 0.143-0.087 0.301zM405.518 510.477l-0.233-0.333 0.233-0.111c-6.211-8.858-11.092-19.486-14.197-31.002-5.768 2.214-18.191 6.643-22.627 0-3.506-5.116-4.225-11.546-4.25-15.795 0.006-1.156 0.062-2.129 0.12-2.837 0.067-0.823 0.137-1.297 0.137-1.297l-0.066 0.094c0.038-0.35 0.066-0.538 0.066-0.538l-14.197 20.373c-15.973-9.301-30.17-3.985-43.48 7.087l0.587-0.043-0.587 0.486c17.942-1.306 28.641 3.358 37.702 7.313 12.448 5.431 21.804 9.51 42.604-5.099l4.88 9.301 3.387 8.452c-24.643 5.615-27.787 15.33-31.929 28.132-3.055 9.44-6.653 20.558-19.818 32.95l0.559-0.089-0.559 0.532c17.303-2.656 30.613-9.743 34.607-27.902l24.846 3.101c0 0-0.271-0.183-0.736-0.536l0.736 0.091c0 0-9.761-6.644-12.423-16.387-0.070-0.277-0.12-0.55-0.152-0.828-0.023-0.196-0.037-0.393-0.042-0.589 0.167-6.682 9.551-12.092 14.836-14.528zM350.059 606.587l33.719 0.887 8.873-14.174-21.388-4.954-5.233-22.505-14.198 8.858v0.443l-1.31 30.945-0.020 0.058-0.444 0.441zM260.88 621.204c-1.298 0.463-2.015 1.873-2.069 3.767 0.176 7.177 9.267 20.32 31.218 16.782-11.806-3.259-17.521-10.387-21.517-15.372-2.891-3.607-4.883-6.092-7.631-5.177zM210.789 689.219c0.055 2.407 0.992 4.189 2.618 4.622 2.752 0.733 4.518-1.942 7.086-5.835 3.538-5.364 8.6-13.032 19.862-17.275-21.274-1.496-29.408 11.086-29.566 18.488zM219.619 630.505c-1.649 0.898-2.501 2.695-2.551 4.98 0.247 11.289 19.019 33.309 56.552 20.614-20.163-2.039-31.646-12.215-39.685-19.336-5.952-5.272-10.016-8.871-14.316-6.259zM512 909.093v-43.849c0 0-0.119 0-0.299-0.063-0.166-0.058-0.375-0.169-0.589-0.378l0.017 0.35c-2.47-1.594-9.335-6.576-9.335-12.751 0-7.53 10.206-13.287 10.206-13.287v-20.817c0-0.223-4.331 4.1-11.883 11.639-7.539 7.528-18.295 18.263-31.155 30.88-10.202 9.743 33.276 5.314 33.276 5.314-13.308 16.388-3.994 34.104 9.762 42.962zM476.062 882.962c-16.414-1.771-34.163-17.273-36.382-33.661 58.121 2.658 86.519-67.322 51.469-101.425-20.412-19.487-62.114-17.716-71.877 8.415-11.979 31.447 9.763 44.291 25.289 44.291 13.756 0 41.707-17.716 20.407-30.117-7.539-4.429-14.639 0-16.414 9.743-12.425 3.985-14.199-14.615-2.219-20.815 11.093-5.759 18.189-4.873 25.289 1.328 31.945 26.575 2.662 79.723-47.916 65.108-63.445-18.159-49.248-88.581-49.248-88.581s-13.31-10.632-15.972-14.617c-12.867 49.163 2.218 111.17 58.121 122.686 0 0 12.425 54.476 47.915 53.592-3.605 19.81 18.603 36.689 36.331 50.164 4.075 3.095 7.91 6.010 11.145 8.741v-24.803c-20.851-11.957-32.832-22.588-35.938-50.047zM425.484 685.425c0 0 7.984 30.562-4.437 57.137-11.092 24.36-39.487 45.618-39.487 45.618l-5.768-18.16c11.536-11.072 20.409-20.374 26.177-31.003 6.655-11.516 9.761-24.36 8.873-41.633l14.641-11.959zM512 717.757v23.473c-0.444 0.887-0.887 1.772-0.887 2.215v-0.884c0-0.443-0.887-5.757-5.325-8.415-4.881-3.101-11.977-5.315-13.751-3.985-0.482 0.318-0.73-1.369-1.161-4.3-0.772-5.216-2.125-14.371-6.383-23.162-5.325-11.516-18.637-22.145-18.637-22.145l-0.444-16.388c0 0 23.518 8.417 32.388 26.133 8.431 17.716 7.543 25.688 7.543 25.688l6.656 1.771zM429.628 722.398c-0.896 6.555-1.694 12.422-1.481 12.634 0 0 31.501-21.259 32.832-57.135 0.887-22.145-8.875-35.876-8.875-35.876l-24.401-0.443c6.208 8.415 11.089 19.487 12.42 30.56 2.219 12.403-2.662 25.246-8.431 32.777 0 2.314-1.088 10.311-2.065 17.483zM316.783 668.152c-5.324 29.232 18.634 36.317 20.853 30.117 0.916-2.745-1.573-4.732-5.186-7.617-5.135-4.103-12.542-10.019-15.667-22.5zM287.945 717.757c-4.119 11.823-11.974 16.934-17.494 20.528-3.993 2.599-6.765 4.403-6.021 7.377 1.775 6.644 26.177 1.771 23.515-27.904zM302.586 684.539c-16.416 46.505 20.409 64.665 25.733 54.922 2.635-4.509-1.037-8.62-6.377-14.598-7.248-8.114-17.568-19.667-19.356-40.324zM386.884 709.785c0 0 28.395-29.676 49.69-29.676l-0.444-16.386c-25.731 3.542-36.38 11.516-54.57 28.346l5.324 17.716zM401.525 721.745c0 0-19.078 0.443-23.515-21.702-2.388-14.985 5.454-26.304 8.803-31.136 1.007-1.453 1.607-2.32 1.402-2.526l-13.31-11.959c-27.064 25.69-21.297 75.737 19.078 86.81l7.543-19.487zM411.286 642.906c0 0 11.98-3.543 25.732-5.316 14.643-1.771 31.057-1.771 31.057-1.771l-6.204-15.926c0.030 0.1-0.154 0.134-0.525 0.125-0.141-0.002-0.307-0.011-0.495-0.026l-0.354-0.030c-0.414-0.037-0.917-0.089-1.506-0.151l-0.060-0.006c-5.001-0.53-15.983-1.696-29.897 0.512-20.855 2.658-35.052 11.959-35.052 11.959l17.303 10.63zM486.711 625.19l25.289 16.388v27.459l-0.887 0.887-23.957-23.032-0.444-21.702zM479.612 590.644c8.431 5.757 20.407 3.985 20.407 3.985l-20.407 14.174c9.318 15.943 3.994 30.117-7.1 43.404 1.31-17.911-3.366-28.592-7.326-37.636-5.44-12.426-9.527-21.767 5.107-42.53l-9.314-4.872-8.875-3.543c-5.623 24.749-15.369 27.892-28.22 32.037-9.456 3.049-20.594 6.641-33.007 19.784 2.662-17.275 9.761-30.562 27.951-34.548l-3.106-24.803c0 0 6.655 9.745 16.414 12.403 7.543 2.214 14.199-9.745 16.862-15.058 8.875 5.757 19.52 10.629 31.057 13.728-2.219 5.315-7.1 18.603-0.444 23.475z" />
</font>
</defs>
</svg>
