<svg width="36" height="36" viewBox="0 0 36 36" fill="none" xmlns="http://www.w3.org/2000/svg">
<path opacity="0.3" d="M24.7068 24.7066C32.1148 17.2986 35.1175 8.29052 31.4135 4.58652C27.7095 0.882518 18.7015 3.8852 11.2935 11.2932C3.8855 18.7012 0.88282 27.7093 4.58681 31.4133C8.2908 35.1173 17.2988 32.1146 24.7068 24.7066Z" fill="#B7BBCB"/>
<path opacity="0.3" d="M11.2932 24.7068C3.8852 17.2988 0.882524 8.29073 4.58651 4.58673C8.29051 0.882728 17.2985 3.88541 24.7065 11.2934C32.1145 18.7014 35.1172 27.7095 31.4132 31.4135C27.7092 35.1175 18.7012 32.1148 11.2932 24.7068Z" fill="#B7BBCB"/>
<path d="M21.75 18C21.75 20.0711 20.0711 21.75 18 21.75C15.9289 21.75 14.25 20.0711 14.25 18C14.25 15.9289 15.9289 14.25 18 14.25C20.0711 14.25 21.75 15.9289 21.75 18Z" fill="#B7BBCB"/>
</svg>
