<svg width="36" height="36" viewBox="0 0 36 36" fill="none" xmlns="http://www.w3.org/2000/svg">
<path opacity="0.5" d="M5.1967 30.8034C7.3934 33.0001 10.9289 33.0001 18 33.0001C25.0711 33.0001 28.6066 33.0001 30.8033 30.8034C33 28.6067 33 25.0711 33 18C33 10.9289 33 7.3934 30.8033 5.1967C28.6066 3 25.0711 3 18 3C10.9289 3 7.3934 3 5.1967 5.1967C3 7.3934 3 10.929 3 18.0001C3 25.0712 3 28.6067 5.1967 30.8034Z" fill="#B7BBCB"/>
<path d="M10.5 25.875C9.87868 25.875 9.375 26.3787 9.375 27C9.375 27.6213 9.87868 28.125 10.5 28.125H25.5C26.1213 28.125 26.625 27.6213 26.625 27C26.625 26.3787 26.1213 25.875 25.5 25.875H10.5Z" fill="#B7BBCB"/>
<path d="M11.6474 17.8464C11.6254 17.4664 11.625 16.9565 11.625 16.2114V3.1031C13.3587 3 15.4493 3 18 3C20.5507 3 22.6413 3 24.375 3.1031V16.2114C24.375 16.9565 24.3746 17.4664 24.3526 17.8464C24.33 18.2401 24.2885 18.3612 24.2781 18.3844C24.0574 18.8813 23.5129 19.1493 22.9846 19.021C22.9599 19.015 22.8386 18.974 22.5128 18.7518C22.1983 18.5373 21.7941 18.2266 21.2037 17.772L21.1032 17.6945C20.5479 17.2664 20.1151 16.9328 19.6437 16.7279C18.5952 16.2724 17.4048 16.2724 16.3563 16.7279C15.8849 16.9328 15.4521 17.2664 14.8968 17.6945L14.7963 17.772C14.2059 18.2266 13.8017 18.5373 13.4872 18.7518C13.1614 18.974 13.0401 19.015 13.0154 19.021C12.4871 19.1493 11.9426 18.8813 11.7219 18.3844C11.7115 18.3612 11.67 18.2401 11.6474 17.8464Z" fill="#B7BBCB"/>
</svg>
