<svg width="85" height="167" viewBox="0 0 85 167" fill="none" xmlns="http://www.w3.org/2000/svg">
<g opacity="0.15">
<path fill-rule="evenodd" clip-rule="evenodd" d="M84.1582 83.3936L80.0092 83.3936L79.9364 83.4661C77.971 86.8684 76.2241 88.8226 71.7111 89.3295C71.42 92.0065 68.8742 94.9009 66.1821 95.2646C66.1886 95.1024 66.1915 94.9412 66.191 94.7818C66.2237 85.6264 55.0189 81.2475 49.51 86.8684C48.0802 88.3547 47.3468 90.5337 47.3549 92.6321C47.3438 95.2607 48.4935 97.7776 50.893 98.6673C56.0612 100.622 58.1721 97.075 58.1721 94.5414L58.1719 94.5114L58.1721 94.469C58.1721 92.2249 55.2605 87.6644 53.2223 91.1391C53.0225 91.477 52.9324 91.8093 52.94 92.1196C52.9192 92.9728 53.628 93.6734 54.8237 93.8897C54.8815 94.0682 54.9104 94.2336 54.9144 94.3849C54.8739 95.88 52.3173 95.9337 51.4026 94.1792C50.9814 93.3736 50.7765 92.6971 50.7687 92.0924C50.7783 91.3696 51.0737 90.7479 51.6209 90.1258C55.4684 85.5345 62.7053 88.6954 62.7317 95.1547C62.728 96.0068 62.5992 96.9156 62.3211 97.8709C59.3367 108.222 47.7631 105.906 47.7631 105.906C47.7631 105.906 46.0161 108.077 45.361 108.512L45.4352 108.531C45.4092 108.551 45.3844 108.569 45.361 108.584C53.2951 110.683 63.5586 108.222 65.4511 99.1016C65.4511 99.1016 74.2962 97.0994 74.2604 91.3887L74.2595 91.324L74.2587 91.284C77.514 91.8725 80.2881 88.2493 82.5026 85.3571C83.0116 84.6922 83.4909 84.0663 83.9398 83.5386L84.1582 83.3936ZM68.6539 83.394L68.7267 83.3936L76.0785 83.3936C76.022 83.4884 75.9627 83.5817 75.9008 83.6739C74.4608 85.818 71.5834 87.2544 68.9516 85.1945C68.9783 85.854 69.0352 88.7629 68.0716 90.4877L68.0559 90.4506C68.0373 90.4877 68.0182 90.5241 67.9988 90.5602C66.586 87.1611 64.4028 85.9183 62.8248 85.0202C61.8824 84.4837 61.1558 84.0701 60.9381 83.3936L61.0109 83.394L64.3592 83.3936L64.4321 83.394C64.6504 83.7559 65.5239 84.9863 66.5429 84.9863C67.562 84.9863 68.5083 83.7559 68.6539 83.394ZM48.7093 83.3936L48.4438 83.3936L48.5638 83.3212L44.6331 83.3212L44.6331 83.3936L44.2691 84.5519C44.2691 84.5519 42.9589 84.407 40.0473 85.7826C37.1357 87.2303 35.7527 91.0667 35.7527 91.0667L35.7803 91.066L35.7527 91.1391L38.4459 91.0667C38.4459 91.0667 40.1929 88.8951 42.0854 88.0267C43.5302 87.3314 45.0346 87.1109 45.8918 86.9854C46.3735 86.9147 46.6508 86.8741 46.5984 86.796C46.593 86.7889 46.5879 86.7808 46.5832 86.7726C46.605 86.7578 46.6106 86.7415 46.5984 86.7235C46.5585 86.6705 46.5381 86.5885 46.5344 86.4853C46.5501 86.0067 46.8579 85.1701 47.2535 84.5519C47.6903 83.9005 48.4182 83.4661 48.7093 83.3936ZM32.1132 83.394L32.1859 83.3936L36.6989 83.3936L36.6796 83.4152L36.6763 83.4187C36.3638 83.7658 32.9171 87.5923 32.9866 87.5923L29.4199 87.6647L29.4684 87.5898L29.3471 87.5923L32.1132 83.394ZM54.5325 109.381L54.5717 109.37C54.5473 109.328 54.5326 109.308 54.5326 109.308L57.7353 108.439L57.7353 108.512L57.7624 108.829C57.855 110.156 57.9194 111.08 57.9173 111.883C57.9209 113.43 57.6862 114.507 56.9465 117.084C57.5656 118.698 58.1985 119.835 58.7542 120.833C59.4369 122.06 60.0029 123.077 60.283 124.509C60.5133 125.697 60.5927 126.772 60.5906 127.814C60.5924 128.991 60.4885 130.124 60.378 131.329C60.2549 132.67 60.1237 134.1 60.1213 135.778C60.1229 137.991 60.3502 140.638 61.1131 144.077L61.3021 144.271L61.1488 144.237L61.1565 144.271L61.1357 144.251L61.1565 144.343L61.016 144.208C54.942 142.886 51.339 143.213 48.2153 143.497C45.9543 143.702 43.9444 143.884 41.4303 143.402C39.9898 143.123 38.9673 142.561 37.7339 141.882L37.731 141.881C36.7214 141.324 35.5702 140.691 33.9329 140.072C29.9855 141.194 29.5194 141.161 25.66 140.895L25.2709 140.868L26.1444 137.683C26.1444 137.683 27.4546 138.625 30.6573 137.973C33.5249 137.333 35.2162 136.131 35.58 135.873C35.6687 135.81 35.6784 135.803 35.6071 135.874C37.4996 138.407 39.6106 139.421 41.5759 139.638C46.166 140.145 49.0137 139.948 51.7743 139.756L51.7861 139.755C53.2705 139.652 54.7304 139.551 56.4233 139.562L56.4231 139.542C56.422 139.419 56.4209 139.297 56.4211 139.177C56.4202 137.591 56.5175 136.205 56.6164 134.796C56.7171 133.361 56.8195 131.901 56.8215 130.184C56.8207 128.633 56.7375 126.871 56.4979 124.726C56.2795 122.772 55.2605 120.673 52.7128 118.791C52.6414 118.862 52.6484 118.852 52.7119 118.764L52.7334 118.734L52.7128 118.718C52.6414 118.789 52.6484 118.78 52.7119 118.691C52.972 118.329 54.1801 116.647 54.8237 113.796C54.9885 112.995 55.052 112.312 55.0547 111.74C55.0475 110.089 54.5325 109.381 54.5325 109.381ZM41.2119 100.043L39.2466 97.6539L39.2961 97.6415L39.2466 97.5815C39.2466 97.5815 44.2691 96.2786 48.6366 98.3053C52.7128 100.115 56.2067 104.748 56.2067 104.748L56.0453 104.799L56.0612 104.82L53.0767 105.761C51.257 103.879 49.7284 102.431 47.9814 101.49C46.2345 100.404 44.1235 99.898 41.2119 100.043ZM45.3891 96.9767L45.3951 96.9778C46.4726 97.1237 47.4371 97.2542 47.4719 97.2195C47.4719 97.2195 47.4561 97.1962 47.4247 97.1527C47.4518 97.1527 47.4679 97.151 47.4719 97.1471C47.4719 97.1471 43.978 92.0076 38.082 91.7905C34.4424 91.6456 32.1859 93.2383 32.1859 93.2383L32.1859 93.3107L32.1132 97.2195L32.1132 97.292C33.4962 96.2786 35.3159 95.4823 37.1357 95.2653C39.101 94.9034 41.2119 95.6993 42.5222 96.6406C42.9018 96.6406 44.212 96.8177 45.3891 96.9767ZM36.6989 101.418L36.6765 101.382L36.699 101.345L35.0976 98.8118C35.0976 98.8118 30.075 101.49 29.7111 108.15C29.6983 108.404 29.6923 108.649 29.6929 108.887C29.6856 111.405 30.4195 113.093 31.8948 115.027C31.9868 115.149 32.0816 115.269 32.1792 115.385C32.0632 115.287 31.9442 115.192 31.822 115.099C29.7111 113.506 27.8913 112.783 24.9797 112.927C18.283 113.289 15.5897 118.284 15.5897 118.284L18.1374 119.876C18.5038 119.662 18.9276 119.289 19.4164 118.859C20.5785 117.836 22.1079 116.49 24.1062 116.185C26.2171 115.823 29.4927 116.546 29.8566 120.021C30.2206 123.713 26.2171 120.89 26.5083 119.37C26.1443 119.008 24.0334 126.029 30.075 126.319C27.1321 127.991 27.4103 132.078 27.5567 134.229L27.557 134.233L27.5717 134.452L27.5857 134.673C27.6007 134.927 27.6084 135.138 27.6001 135.295C30.2923 135.584 34.3662 134.355 35.3874 131.534C35.383 131.558 35.3995 131.731 36.1166 132.833C37.6794 135.186 40.9333 135.393 44.4846 135.62C47.0534 135.783 49.7779 135.957 52.1305 136.96C51.9697 135.401 49.413 134.218 46.6404 132.934L46.6367 132.932C44.3882 131.891 41.9983 130.785 40.6296 129.359C38.6365 127.274 37.5195 124.706 36.4436 122.232C35.5267 120.124 34.6397 118.084 33.2658 116.472C34.8675 117.832 36.9128 118.711 39.026 119.62C41.5151 120.691 44.0983 121.802 46.1617 123.785C47.5963 125.147 48.7097 127.526 49.7568 129.763C51.0474 132.52 52.2375 135.063 53.8046 135.222L53.7722 135.146L53.8047 135.15C52.7964 132.81 52.6218 130.101 52.4571 127.546C52.2294 124.015 52.0209 120.779 49.6556 119.225C48.9304 118.758 48.6053 118.59 48.4603 118.53C50.9629 117.55 52.1827 114.181 52.1719 111.591C52.1733 111.302 52.1595 111.022 52.1305 110.756C51.8904 110.768 51.5229 110.744 51.069 110.714L51.0591 110.712C48.896 110.567 44.7862 110.29 43.1045 113.217C42.8133 107.209 35.7527 109.308 36.1166 109.67L36.1212 109.669C36.099 109.698 36.0967 109.723 36.1166 109.743C37.08 109.56 38.5349 111.074 38.568 112.128C38.5489 112.709 38.0643 113.128 36.7717 113C33.8181 112.694 32.8412 110.318 32.8295 108.323C32.8306 108.132 32.8405 107.945 32.8584 107.764C32.8722 107.623 32.8909 107.486 32.9138 107.354C33.2702 105.379 34.6237 103.865 35.6542 102.712C36.097 102.217 36.4801 101.788 36.6989 101.418ZM40.3384 104.82L43.2501 103.952L43.1925 103.896L43.2501 103.879C43.2501 103.879 38.3731 99.2462 38.3731 95.7718L35.6799 95.8443L35.69 95.9164L35.6799 95.9167C36.2622 100.115 37.6452 101.852 40.3384 104.82ZM48.4182 102.793L48.3998 102.786L48.4182 102.721L45.2154 101.49C45.2154 101.49 45.2882 104.675 41.6487 105.327C39.1864 105.716 37.3264 104.437 36.5318 103.891C36.2929 103.726 36.1503 103.628 36.1166 103.662L34.1513 105.833L34.1851 105.868L34.1513 105.906C38.3731 110.322 46.5984 109.381 48.4182 102.793ZM32.2587 99.9704L32.2444 99.9213L32.2587 99.898C32.2587 99.898 31.6764 97.9434 31.3852 95.6993C31.0941 93.3107 31.0941 90.6323 31.0941 90.6323L28.477 91.6446C28.4911 91.6407 28.4973 91.6629 28.4977 91.7089L28.477 91.7167C28.488 91.7138 28.4941 91.7262 28.4966 91.7534C28.4929 91.8344 28.4797 91.9591 28.4621 92.1238C28.4131 92.5816 28.3313 93.3468 28.3331 94.3318C28.3313 95.1176 28.382 96.0471 28.5464 97.075C29.0559 100.477 30.5118 102.793 30.5118 102.793L32.2587 99.9704ZM17.6279 93.8897C18.495 94.2877 20.0345 95.172 20.0619 96.2641C20.061 96.296 20.0587 96.3281 20.0549 96.3603C20.0496 96.4052 20.0414 96.4504 20.03 96.4957C19.5932 98.0879 17.9918 99.1737 17.9918 99.1737L18.1125 99.1589C18.0363 99.2165 17.9918 99.2466 17.9918 99.2466L22.0681 98.7397C22.7232 101.708 24.9069 102.866 27.7457 103.3L27.654 103.213L27.7457 103.227C25.5857 101.202 24.9954 99.3851 24.4943 97.8423C23.8147 95.7502 23.299 94.1625 19.256 93.2443L19.8116 91.863L20.6123 90.3428C24.0247 92.7307 25.5596 92.0638 27.6019 91.1762C29.0884 90.5301 30.8437 89.7674 33.7873 89.9809L33.691 89.9017L33.7873 89.9084C31.6036 88.0988 29.2743 87.23 26.6539 88.7502L24.3246 85.4203C24.3246 85.4203 24.3292 85.4514 24.3354 85.5087L24.3246 85.4931C24.3246 85.4931 24.3361 85.5702 24.3471 85.7048C24.3566 85.8211 24.3657 85.9798 24.3667 86.1686C24.3627 86.8635 24.2447 87.9143 23.6695 88.7502C22.9416 89.836 20.9034 89.1121 19.9572 88.7502C19.4476 90.6323 18.6469 92.3695 17.6279 93.8172L17.6662 93.8349L17.6279 93.8897ZM26.7267 109.597L26.6539 109.525L26.6505 109.516L26.4355 104.458L26.4355 104.386L24.1062 102.938L23.2477 106.616L19.7388 107.426L21.1946 109.742L26.6539 109.598L26.7267 109.597ZM41.3575 111.986C41.5705 112.062 41.6881 112.292 41.697 112.602C41.6682 113.775 40.1767 115.923 36.5754 115.345C38.5124 114.812 39.4499 113.647 40.1055 112.832C40.5799 112.243 40.9066 111.837 41.3575 111.986ZM49.5756 123.102C49.5496 121.892 48.2152 119.836 44.7249 120.081C46.5726 120.774 47.403 122.027 47.9835 122.904C48.4048 123.54 48.6946 123.977 49.1461 123.858C49.4129 123.787 49.5667 123.496 49.5756 123.102ZM48.127 113.506C48.3977 113.653 48.5373 113.947 48.5457 114.32C48.505 116.165 45.4254 119.764 39.2676 117.69C42.5755 117.356 44.4595 115.693 45.7784 114.529C46.7549 113.668 47.4215 113.08 48.127 113.506ZM0.158211 159.037C2.41472 157.59 3.94332 154.694 1.75961 152.016C1.75961 152.016 8.89305 152.74 7.21888 151.147C5.10919 149.085 3.34486 147.331 2.10752 146.101C0.868745 144.868 0.158212 144.162 0.158212 144.198L0.158212 147.528L0.158212 147.601C0.158212 147.601 1.83241 148.541 1.83241 149.772C1.83241 150.781 0.706116 151.596 0.301118 151.856L0.303803 151.799C0.269021 151.833 0.234231 151.851 0.207375 151.861C0.178055 151.871 0.158211 151.871 0.158211 151.871L0.158211 151.944L0.158211 154.911L0.158211 159.037ZM6.05423 154.767C5.54472 159.255 3.57937 160.992 0.158234 162.946L0.158234 167C0.688614 166.554 1.31808 166.077 1.98634 165.571C4.89496 163.369 8.5387 160.61 7.94679 157.373C13.77 157.517 15.8081 148.614 15.8081 148.614C24.9797 146.732 27.4546 136.598 25.3437 128.563C24.9069 129.214 22.7232 130.952 22.7232 130.952C22.7232 130.952 25.0525 142.461 14.6435 145.429C6.34541 147.818 1.54125 139.131 6.78214 134.788C7.94679 133.775 9.11144 133.63 10.9312 134.571C12.8965 135.584 12.6054 138.624 10.5672 137.973C10.2761 136.381 9.11144 135.657 7.87399 136.381C4.38007 138.407 8.96584 141.303 11.2223 141.303C13.77 141.303 17.3367 139.204 15.3714 134.064C13.77 129.793 6.92773 129.504 3.57937 132.689C-2.17106 138.262 2.48751 149.7 12.023 149.265C11.6591 151.944 8.74748 154.477 6.05423 154.767ZM14.3523 122.482L16.7544 124.437C16.6088 127.26 17.1184 129.359 18.2102 131.241C19.1565 132.978 20.6123 134.499 22.5048 136.308L21.5586 139.276C21.5586 139.276 16.9 135.802 15.0802 131.82C13.0421 127.477 14.3523 122.482 14.3523 122.482ZM0.158212 127.766L1.25007 127.477C1.25007 127.477 1.1045 126.174 2.48751 123.279C3.94332 120.383 7.8012 119.008 7.8012 119.008L7.7284 121.686C7.7284 121.686 5.54469 123.423 4.67122 125.305C3.97218 126.742 3.75051 128.238 3.62419 129.091C3.55322 129.57 3.51235 129.845 3.43378 129.793C3.14263 129.576 1.97798 129.938 1.17728 130.445C0.449373 130.879 0.303804 131.748 0.303804 131.82L0.303804 131.965C0.303804 131.892 0.231012 131.748 0.158212 131.603L0.158212 130.083L0.158212 127.839L0.158212 127.766ZM13.6726 128.525C13.5121 127.353 13.3333 126.046 13.3333 125.668C12.387 124.437 11.5863 122.338 11.9503 120.311C12.1686 118.501 12.9693 116.691 13.9884 115.316L9.9849 115.389C9.9849 115.389 8.38351 117.633 8.5291 121.252C8.74746 127.115 13.9156 130.59 13.9156 130.59C13.9503 130.555 13.8191 129.596 13.6726 128.525ZM32.1859 119.659C33.0594 124.437 29.1287 125.595 28.7648 124.581C28.6145 124.133 29.0228 123.808 29.6155 123.337C30.4581 122.666 31.6732 121.699 32.1859 119.659ZM36.9173 127.766C36.4806 132.616 40.484 133.413 40.7752 132.327C40.8974 131.841 40.4426 131.546 39.7875 131.121C38.8817 130.534 37.5931 129.699 36.9173 127.766ZM34.5152 122.337C37.2085 129.938 31.1669 132.906 30.2934 131.314C29.8611 130.577 30.4636 129.905 31.3396 128.928C32.5287 127.602 34.2218 125.714 34.5152 122.337ZM20.6851 126.464L21.5586 123.568C18.5742 120.818 16.8272 119.514 12.6054 118.935L12.5326 121.614C16.0265 121.614 20.6851 126.464 20.6851 126.464ZM18.283 128.418L19.5204 131.603C26.1444 129.793 27.0906 121.614 22.6504 117.415L20.4667 119.37C20.4331 119.403 20.5316 119.545 20.6967 119.783C21.2461 120.572 22.5327 122.422 22.1409 124.871C21.413 128.491 18.283 128.418 18.283 128.418ZM16.6816 115.533L19.5204 113.796C19.5204 113.796 17.1912 112.276 13.77 111.841C11.4872 111.481 9.68513 111.671 8.86457 111.758L8.855 111.759C8.75855 111.769 8.67596 111.777 8.60805 111.783L8.55007 111.788C8.51868 111.791 8.49156 111.792 8.46877 111.793C8.4075 111.794 8.37783 111.788 8.38224 111.772L7.36445 114.375C7.36445 114.375 10.0577 114.375 12.4598 114.664C14.7163 114.954 16.6816 115.533 16.6816 115.533ZM4.30727 112.638L4.23448 116.185L0.303805 119.949L0.158213 119.804L0.158213 117.85L0.158213 115.316L4.30727 112.638ZM5.47192 106.992C6.56378 106.195 5.76308 104.024 5.39913 103.155C7.29168 102.649 9.03864 101.852 10.4944 100.911C10.9312 101.78 12.023 103.734 13.2605 103.372C14.8619 102.938 15.9537 101.345 15.9537 101.345L15.4442 105.399C18.4286 106.05 19.5932 108.222 20.03 111.045C17.9934 108.897 16.1661 108.31 14.6146 107.812C12.5064 107.134 10.9074 106.621 9.98493 102.576L8.52912 103.155L7.00052 103.951C9.40177 107.345 8.731 108.871 7.83856 110.902C7.18896 112.38 6.42192 114.126 6.63657 117.053C4.81681 114.882 3.94332 112.565 5.47192 109.96L2.12356 107.643C2.12356 107.643 4.08891 107.933 5.47192 106.992Z" fill="white"/>
<path fill-rule="evenodd" clip-rule="evenodd" d="M84.1582 83.6064L80.0091 83.6064L79.9364 83.5339C77.971 80.1316 76.2241 78.1774 71.7111 77.6705C71.42 74.9935 68.8742 72.0991 66.1821 71.7354C66.1886 71.8976 66.1915 72.0588 66.191 72.2182C66.2237 81.3736 55.0189 85.7525 49.51 80.1316C48.0802 78.6453 47.3468 76.4663 47.3549 74.3679C47.3437 71.7393 48.4935 69.2224 50.893 68.3327C56.0611 66.3782 58.1721 69.925 58.1721 72.4586L58.1719 72.4886L58.1721 72.531C58.1721 74.7751 55.2605 79.3356 53.2223 75.8609C53.0224 75.523 52.9323 75.1907 52.9399 74.8804C52.9192 74.0272 53.628 73.3266 54.8237 73.1103C54.8815 72.9318 54.9104 72.7664 54.9144 72.6151C54.8739 71.12 52.3173 71.0663 51.4026 72.8208C50.9814 73.6264 50.7765 74.3029 50.7687 74.9076C50.7783 75.6304 51.0737 76.2521 51.6209 76.8742C55.4684 81.4655 62.7053 78.3046 62.7316 71.8453C62.728 70.9932 62.5992 70.0844 62.3211 69.1291C59.3367 58.7776 47.7631 61.0941 47.7631 61.0941C47.7631 61.0941 46.0161 58.9225 45.361 58.4881L45.4352 58.4687C45.4091 58.4489 45.3844 58.4312 45.361 58.4157C53.2951 56.3165 63.5586 58.7776 65.4511 67.8984C65.4511 67.8984 74.2962 69.9006 74.2604 75.6113L74.2595 75.676L74.2587 75.7159C77.514 75.1275 80.2881 78.7507 82.5026 81.6429C83.0115 82.3078 83.4909 82.9337 83.9398 83.4614L84.1582 83.6064ZM68.6539 83.606L68.7266 83.6064L76.0785 83.6064C76.022 83.5116 75.9627 83.4183 75.9008 83.3261C74.4608 81.182 71.5834 79.7456 68.9516 81.8055C68.9783 81.146 69.0352 78.2371 68.0716 76.5123L68.0559 76.5494C68.0372 76.5123 68.0182 76.4759 67.9987 76.4398C66.586 79.8389 64.4028 81.0817 62.8248 81.9798C61.8824 82.5163 61.1558 82.9299 60.9381 83.6064L61.0109 83.606L64.3592 83.6064L64.432 83.606C64.6504 83.2441 65.5239 82.0137 66.5429 82.0137C67.562 82.0137 68.5083 83.2441 68.6539 83.606ZM48.7093 83.6064L48.4438 83.6064L48.5638 83.6788L44.6331 83.6788L44.6331 83.6064L44.2691 82.4481C44.2691 82.4481 42.9589 82.593 40.0473 81.2174C37.1357 79.7697 35.7527 75.9333 35.7527 75.9333L35.7803 75.934L35.7527 75.8609L38.4459 75.9333C38.4459 75.9333 40.1929 78.1049 42.0854 78.9733C43.5301 79.6686 45.0346 79.8891 45.8918 80.0146C46.3734 80.0853 46.6508 80.1259 46.5984 80.204C46.593 80.2111 46.5879 80.2192 46.5831 80.2274C46.605 80.2422 46.6106 80.2585 46.5984 80.2765C46.5585 80.3295 46.5381 80.4115 46.5344 80.5147C46.55 80.9933 46.8579 81.8299 47.2535 82.4481C47.6903 83.0995 48.4182 83.5339 48.7093 83.6064ZM32.1131 83.606L32.1859 83.6064L36.6989 83.6064L36.6796 83.5848L36.6763 83.5813C36.3638 83.2342 32.9171 79.4077 32.9866 79.4077L29.4199 79.3353L29.4684 79.4102L29.3471 79.4077L32.1131 83.606ZM54.5325 57.6193L54.5717 57.6299C54.5473 57.6716 54.5326 57.6918 54.5326 57.6918L57.7353 58.5606L57.7353 58.4881L57.7624 58.1714C57.855 56.8439 57.9194 55.9203 57.9173 55.1173C57.9209 53.5699 57.6862 52.4929 56.9465 49.9155C57.5656 48.3024 58.1985 47.165 58.7542 46.1665C59.4369 44.94 60.0029 43.9232 60.283 42.4906C60.5133 41.3027 60.5927 40.2282 60.5906 39.1859C60.5924 38.0089 60.4885 36.8757 60.378 35.6712C60.2549 34.3302 60.1237 32.9005 60.1213 31.2223C60.1229 29.0087 60.3502 26.3624 61.1131 22.9233L61.3021 22.7293L61.1488 22.7632L61.1565 22.7293L61.1357 22.7494L61.1565 22.6568L61.016 22.7922C54.942 24.1137 51.339 23.7871 48.2153 23.5033C45.9543 23.2983 43.9444 23.1159 41.4303 23.5981C39.9898 23.8766 38.9673 24.4393 37.7339 25.1182L37.731 25.1193C36.7214 25.6756 35.5702 26.309 33.9329 26.9275C29.9855 25.8064 29.5194 25.8386 25.66 26.1047L25.2709 26.1316L26.1444 29.3165C26.1444 29.3165 27.4546 28.3753 30.6573 29.027C33.5249 29.6671 35.2162 30.8689 35.58 31.1272C35.6687 31.1901 35.6784 31.1972 35.6071 31.1262C37.4996 28.5926 39.6106 27.5793 41.5759 27.3619C46.166 26.8547 49.0137 27.0523 51.7743 27.2442L51.7861 27.2453C53.2705 27.3482 54.7304 27.4492 56.4233 27.4376L56.4231 27.4577C56.422 27.5807 56.4209 27.7027 56.4211 27.8232C56.4202 29.4091 56.5175 30.795 56.6164 32.2038C56.7171 33.6388 56.8195 35.0986 56.8215 36.816C56.8207 38.3666 56.7375 40.1289 56.4979 42.2736C56.2795 44.2278 55.2604 46.3273 52.7128 48.2091C52.6414 48.1381 52.6484 48.1479 52.7119 48.2363L52.7334 48.2664L52.7128 48.2816C52.6414 48.2105 52.6484 48.2204 52.7119 48.3088C52.972 48.6707 54.1801 50.3528 54.8237 53.204C54.9885 54.0053 55.052 54.6878 55.0547 55.2601C55.0475 56.9107 54.5325 57.6193 54.5325 57.6193ZM41.2119 66.9575L39.2466 69.3461L39.2961 69.3584L39.2466 69.4185C39.2466 69.4185 44.2691 70.7213 48.6365 68.6947C52.7128 66.885 56.2067 62.252 56.2067 62.252L56.0453 62.2011L56.0611 62.1799L53.0767 61.2387C51.257 63.1208 49.7284 64.5685 47.9814 65.5097C46.2345 66.5955 44.1235 67.102 41.2119 66.9575ZM45.3891 70.0233L45.3951 70.0222C46.4726 69.8763 47.4371 69.7458 47.4719 69.7805C47.4719 69.7805 47.4561 69.8038 47.4247 69.8473C47.4518 69.8473 47.4679 69.849 47.4719 69.8529C47.4719 69.8529 43.978 74.9924 38.082 75.2095C34.4424 75.3544 32.1859 73.7617 32.1859 73.7617L32.1859 73.6893L32.1131 69.7805L32.1131 69.708C33.4962 70.7213 35.3159 71.5177 37.1357 71.7347C39.101 72.0966 41.2119 71.3007 42.5221 70.3594C42.9018 70.3594 44.212 70.1823 45.3891 70.0233ZM36.6989 65.5818L36.6765 65.6175L36.6989 65.6547L35.0976 68.1882C35.0976 68.1882 30.075 65.5097 29.7111 58.85C29.6983 58.5963 29.6923 58.3513 29.6929 58.1131C29.6856 55.5955 30.4195 53.9071 31.8948 51.9733C31.9867 51.8507 32.0816 51.7312 32.1792 51.6149C32.0632 51.7128 31.9442 51.8083 31.822 51.9012C29.7111 53.4935 27.8913 54.2174 24.9797 54.0728C18.283 53.7109 15.5897 48.7159 15.5897 48.7159L18.1374 47.1237C18.5038 47.3378 18.9276 47.7107 19.4164 48.1409C20.5785 49.1638 22.1079 50.5097 24.1062 50.8154C26.2171 51.1774 29.4927 50.4535 29.8566 46.9787C30.2206 43.287 26.2171 46.1103 26.5083 47.6301C26.1443 47.9921 24.0334 40.9708 30.075 40.6813C27.1321 39.0088 27.4103 34.9219 27.5567 32.7708L27.557 32.7665L27.5717 32.5485L27.5857 32.3272C27.6007 32.0731 27.6084 31.8617 27.6001 31.7051C30.2923 31.4156 34.3662 32.6453 35.3874 35.4658C35.383 35.4418 35.3995 35.2686 36.1166 34.1665C37.6794 31.8143 40.9333 31.6069 44.4846 31.3803C47.0534 31.2167 49.7779 31.0431 52.1305 30.0404C51.9697 31.5987 49.413 32.7824 46.6404 34.0658L46.6367 34.0679C44.3882 35.1088 41.9983 36.2151 40.6296 37.641C38.6365 39.7256 37.5195 42.2941 36.4436 44.7679C35.5267 46.8762 34.6397 48.9156 33.2658 50.5281C34.8675 49.1684 36.9128 48.2886 39.026 47.3799C41.5151 46.3093 44.0983 45.1981 46.1617 43.2145C47.5963 41.8527 48.7097 39.4743 49.7568 37.237C51.0474 34.4797 52.2375 31.9373 53.8046 31.7776L53.7722 31.8536L53.8047 31.85C52.7964 34.1895 52.6218 36.8991 52.4571 39.4538C52.2294 42.9851 52.0208 46.2209 49.6556 47.7751C48.9304 48.242 48.6052 48.4102 48.4603 48.4696C50.9629 49.4501 52.1827 52.8191 52.1719 55.4085C52.1733 55.698 52.1595 55.9779 52.1305 56.2444C51.8904 56.2317 51.5229 56.2561 51.069 56.2865L51.0591 56.2875C48.896 56.4332 44.7862 56.7099 43.1045 53.783C42.8133 59.7913 35.7527 57.6921 36.1166 57.3302L36.1212 57.3309C36.099 57.3023 36.0967 57.2772 36.1166 57.2574C37.08 57.4401 38.5349 55.9263 38.568 54.8723C38.5489 54.2913 38.0643 53.8717 36.7717 54.0004C33.8181 54.3065 32.8412 56.6816 32.8295 58.6769C32.8306 58.8677 32.8405 59.0547 32.8584 59.2357C32.8722 59.3767 32.8909 59.5138 32.9138 59.6464C33.2702 61.6207 34.6237 63.1353 35.6542 64.2882C36.097 64.7834 36.4801 65.2121 36.6989 65.5818ZM40.3384 62.1799L43.2501 63.0483L43.1925 63.1038L43.2501 63.1211C43.2501 63.1211 38.3731 67.7538 38.3731 71.2282L35.6799 71.1557L35.69 71.0836L35.6799 71.0833C36.2622 66.885 37.6452 65.1478 40.3384 62.1799ZM48.4182 64.2066L48.3998 64.2136L48.4182 64.2794L45.2154 65.5097C45.2154 65.5097 45.2882 62.3248 41.6487 61.6734C39.1864 61.2839 37.3264 62.563 36.5318 63.1095C36.2929 63.2738 36.1503 63.3717 36.1166 63.3381L34.1513 61.1666L34.1851 61.1316L34.1513 61.0941C38.3731 56.6784 46.5984 57.6193 48.4182 64.2066ZM32.2587 67.0296L32.2444 67.0787L32.2587 67.102C32.2587 67.102 31.6764 69.0566 31.3852 71.3007C31.0941 73.6893 31.0941 76.3677 31.0941 76.3677L28.477 75.3554C28.4911 75.3593 28.4973 75.337 28.4977 75.2911L28.477 75.2833C28.488 75.2862 28.4941 75.2738 28.4966 75.2466C28.4929 75.1656 28.4797 75.0409 28.4621 74.8761C28.4131 74.4184 28.3313 73.6532 28.3331 72.6681C28.3313 71.8824 28.382 70.9529 28.5464 69.925C29.0559 66.5231 30.5118 64.2066 30.5118 64.2066L32.2587 67.0296ZM17.6279 73.1103C18.495 72.7123 20.0345 71.828 20.0619 70.7358C20.061 70.704 20.0587 70.6719 20.0549 70.6397C20.0496 70.5948 20.0413 70.5496 20.03 70.5043C19.5932 68.912 17.9918 67.8262 17.9918 67.8262L18.1125 67.8411C18.0363 67.7835 17.9918 67.7534 17.9918 67.7534L22.0681 68.2603C22.7232 65.2924 24.9069 64.1341 27.7457 63.7001L27.654 63.787L27.7457 63.7725C25.5857 65.7978 24.9954 67.6149 24.4943 69.1577C23.8147 71.2498 23.299 72.8375 19.256 73.7557L19.8116 75.137L20.6123 76.6572C24.0246 74.2693 25.5596 74.9362 27.6019 75.8238C29.0884 76.4699 30.8437 77.2326 33.7873 77.0191L33.691 77.0983L33.7873 77.0916C31.6036 78.9012 29.2743 79.77 26.6539 78.2498L24.3246 81.5797C24.3246 81.5797 24.3292 81.5486 24.3354 81.4913L24.3246 81.5069C24.3246 81.5069 24.3361 81.4298 24.3471 81.2951C24.3566 81.1789 24.3657 81.0202 24.3667 80.8314C24.3627 80.1365 24.2447 79.0857 23.6695 78.2498C22.9416 77.164 20.9034 77.8879 19.9572 78.2498C19.4476 76.3677 18.6469 74.6305 17.6279 73.1828L17.6662 73.1651L17.6279 73.1103ZM26.7267 57.4027L26.6539 57.4748L26.6505 57.4843L26.4355 62.5418L26.4355 62.6143L24.1062 64.062L23.2477 60.384L19.7388 59.5743L21.1946 57.2578L26.6539 57.4023L26.7267 57.4027ZM41.3575 55.0137C41.5705 54.9381 41.6881 54.7076 41.697 54.398C41.6682 53.2249 40.1767 51.077 36.5753 51.6552C38.5123 52.1879 39.4499 53.3528 40.1055 54.1675C40.5799 54.7571 40.9066 55.1632 41.3575 55.0137ZM49.5756 43.8977C49.5496 45.1076 48.2152 47.1639 44.7249 46.9194C46.5726 46.2259 47.403 44.9726 47.9835 44.096C48.4048 43.4598 48.6945 43.0226 49.1461 43.1424C49.4129 43.2131 49.5667 43.5043 49.5756 43.8977ZM48.127 53.4935C48.3977 53.3468 48.5373 53.0531 48.5456 52.6795C48.505 50.8345 45.4254 47.2357 39.2676 49.3104C42.5755 49.6437 44.4595 51.3067 45.7784 52.4706C46.7549 53.3323 47.4215 53.9205 48.127 53.4935ZM0.15821 7.96251C2.41472 9.41024 3.94332 12.3057 1.75961 14.9841C1.75961 14.9841 8.89305 14.2603 7.21888 15.8526C5.10919 17.9146 3.34486 19.6691 2.10752 20.8995C0.868743 22.1316 0.15821 22.8381 0.15821 22.8017L0.15821 19.4722L0.15821 19.3994C0.15821 19.3994 1.8324 18.4585 1.8324 17.2278C1.8324 16.2187 0.706115 15.4044 0.301116 15.1439L0.303802 15.2012C0.269019 15.1669 0.234229 15.1488 0.207374 15.1393C0.178054 15.129 0.15821 15.129 0.15821 15.129L0.15821 15.0562L0.15821 12.0887L0.15821 7.96251ZM6.05423 12.2332C5.54472 7.74549 3.57937 6.00793 0.158233 4.05371L0.158234 -3.67176e-06C0.688614 0.446403 1.31808 0.922853 1.98634 1.42864C4.89496 3.63098 8.5387 6.38966 7.94678 9.62725C13.77 9.48269 15.8081 18.3861 15.8081 18.3861C24.9797 20.2682 27.4546 30.4023 25.3437 38.4373C24.9069 37.7859 22.7232 36.0483 22.7232 36.0483C22.7232 36.0483 25.0525 24.5389 14.6435 21.571C6.34541 19.1824 1.54124 27.8688 6.78213 32.212C7.94678 33.2253 9.11143 33.3702 10.9312 32.429C12.8965 31.4156 12.6054 28.3756 10.5672 29.027C10.2761 30.6193 9.11143 31.3432 7.87399 30.6193C4.38006 28.5926 8.96584 25.6972 11.2223 25.6972C13.77 25.6972 17.3367 27.7963 15.3714 32.9358C13.77 37.2066 6.92773 37.496 3.57937 34.3111C-2.17106 28.7376 2.48751 17.3003 12.023 17.7347C11.6591 15.0562 8.74748 12.5227 6.05423 12.2332ZM14.3523 44.5177L16.7544 42.5631C16.6088 39.7401 17.1184 37.641 18.2102 35.7588C19.1565 34.0216 20.6123 32.5014 22.5048 30.6918L21.5586 27.7239C21.5586 27.7239 16.9 31.1983 15.0802 35.1795C13.0421 39.5227 14.3523 44.5177 14.3523 44.5177ZM0.158209 39.2336L1.25007 39.5231C1.25007 39.5231 1.1045 40.8259 2.48751 43.7213C3.94332 46.6168 7.80119 47.9924 7.80119 47.9924L7.7284 45.314C7.7284 45.314 5.54469 43.5768 4.67122 41.6947C3.97217 40.2579 3.7505 38.7617 3.62419 37.9092C3.55322 37.4303 3.51234 37.1546 3.43378 37.2066C3.14262 37.4239 1.97797 37.062 1.17728 36.5552C0.44937 36.1208 0.303801 35.2523 0.303801 35.1799L0.303801 35.0353C0.303801 35.1078 0.231009 35.2523 0.158209 35.3973L0.158209 36.9171L0.158209 39.1615L0.158209 39.2336ZM13.6726 38.4751C13.5121 39.6471 13.3333 40.9542 13.3333 41.3324C12.387 42.5631 11.5863 44.6622 11.9502 46.6893C12.1686 48.4989 12.9693 50.3086 13.9884 51.6839L9.9849 51.6114C9.9849 51.6114 8.3835 49.3673 8.5291 45.748C8.74746 39.8847 13.9156 36.4102 13.9156 36.4102C13.9503 36.4449 13.8191 37.4038 13.6726 38.4751ZM32.1859 47.3407C33.0594 42.5631 29.1287 41.4052 28.7648 42.4185C28.6145 42.8671 29.0228 43.1919 29.6155 43.6634C30.4581 44.3339 31.6732 45.3009 32.1859 47.3407ZM36.9173 39.2336C36.4806 34.3836 40.484 33.5872 40.7752 34.673C40.8974 35.159 40.4426 35.4538 39.7874 35.8787C38.8817 36.4661 37.5931 37.3013 36.9173 39.2336ZM34.5152 44.6626C37.2085 37.062 31.1669 34.0941 30.2934 35.6864C29.8611 36.4233 30.4636 37.0952 31.3396 38.0722C32.5287 39.3983 34.2218 41.2864 34.5152 44.6626ZM20.6851 40.5364L21.5586 43.4319C18.5741 46.1824 16.8272 47.4856 12.6054 48.0645L12.5326 45.3864C16.0265 45.3864 20.6851 40.5364 20.6851 40.5364ZM18.283 38.5818L19.5204 35.3969C26.1444 37.2066 27.0906 45.3861 22.6504 49.5847L20.4667 47.6301C20.4331 47.5966 20.5316 47.4548 20.6967 47.2173C21.2461 46.4277 22.5327 44.5778 22.1409 42.1287C21.413 38.5094 18.283 38.5818 18.283 38.5818ZM16.6816 51.4668L19.5204 53.204C19.5204 53.204 17.1912 54.7242 13.77 55.1586C11.4872 55.5195 9.68512 55.329 8.86457 55.2424L8.85499 55.2413C8.75854 55.2311 8.67595 55.2226 8.60805 55.2166L8.55006 55.2116C8.51867 55.2092 8.49155 55.2077 8.46876 55.2074C8.4075 55.206 8.37782 55.2116 8.38224 55.2279L7.36445 52.6251C7.36445 52.6251 10.0577 52.6251 12.4598 52.3356C14.7163 52.0458 16.6816 51.4668 16.6816 51.4668ZM4.30726 54.3623L4.23447 50.8154L0.3038 47.0512L0.158209 47.1961L0.158209 49.1503L0.158208 51.6839L4.30726 54.3623ZM5.47191 60.0083C6.56377 60.8046 5.76307 62.9762 5.39912 63.845C7.29168 64.3515 9.03863 65.1478 10.4944 66.0887C10.9312 65.2203 12.023 63.2657 13.2605 63.6276C14.8619 64.062 15.9537 65.6547 15.9537 65.6547L15.4442 61.6009C18.4286 60.9495 19.5932 58.7779 20.03 55.9546C17.9934 58.1025 16.1661 58.6896 14.6146 59.1879C12.5063 59.8655 10.9074 60.3791 9.98492 64.4239L8.52912 63.845L7.00052 63.0487C9.40177 59.6552 8.73099 58.1287 7.83855 56.0977C7.18895 54.6196 6.42191 52.8739 6.63656 49.9467C4.81681 52.1182 3.94332 54.4348 5.47191 57.0404L2.12356 59.3569C2.12356 59.3569 4.0889 59.0674 5.47191 60.0083Z" fill="white"/>
</g>
</svg>
