<svg width="36" height="36" viewBox="0 0 36 36" fill="none" xmlns="http://www.w3.org/2000/svg">
<path fill-rule="evenodd" clip-rule="evenodd" d="M16.125 3H19.125C21.9534 3 23.3676 3 24.2463 3.87868C25.125 4.75736 25.125 6.17157 25.125 9V31.875H31.875H32.625C33.2463 31.875 33.75 32.3787 33.75 33C33.75 33.6213 33.2463 34.125 32.625 34.125H2.625C2.00368 34.125 1.5 33.6213 1.5 33C1.5 32.3787 2.00368 31.875 2.625 31.875H7.875H10.125V9C10.125 6.17157 10.125 4.75736 11.0037 3.87868C11.8824 3 13.2966 3 16.125 3ZM13.5 18C13.5 17.3787 14.0037 16.875 14.625 16.875H20.625C21.2463 16.875 21.75 17.3787 21.75 18C21.75 18.6213 21.2463 19.125 20.625 19.125H14.625C14.0037 19.125 13.5 18.6213 13.5 18ZM13.5 22.5C13.5 21.8787 14.0037 21.375 14.625 21.375H20.625C21.2463 21.375 21.75 21.8787 21.75 22.5C21.75 23.1213 21.2463 23.625 20.625 23.625H14.625C14.0037 23.625 13.5 23.1213 13.5 22.5ZM17.625 27.375C18.2463 27.375 18.75 27.8787 18.75 28.5V31.875H16.5V28.5C16.5 27.8787 17.0037 27.375 17.625 27.375ZM13.875 10.5C13.875 8.22183 15.7218 6.375 18 6.375C20.2782 6.375 22.125 8.22183 22.125 10.5C22.125 12.7782 20.2782 14.625 18 14.625C15.7218 14.625 13.875 12.7782 13.875 10.5Z" fill="#B7BBCB"/>
<path opacity="0.5" d="M16.125 10.5C16.125 9.46447 16.9645 8.625 18 8.625C19.0355 8.625 19.875 9.46447 19.875 10.5C19.875 11.5355 19.0355 12.375 18 12.375C16.9645 12.375 16.125 11.5355 16.125 10.5Z" fill="#B7BBCB"/>
<path opacity="0.5" d="M31.3694 8.83327C31.875 9.58994 31.875 10.6433 31.875 12.75V31.875H32.625C33.2463 31.875 33.75 32.3787 33.75 33C33.75 33.6213 33.2463 34.125 32.625 34.125H2.625C2.00368 34.125 1.5 33.6213 1.5 33C1.5 32.3787 2.00368 31.875 2.625 31.875H3.375V12.75C3.375 10.6433 3.375 9.58994 3.88059 8.83327C4.09947 8.5057 4.38072 8.22445 4.70829 8.00557C5.37013 7.56335 8.51341 7.50792 10.1355 7.50098C10.1294 7.93802 10.1294 8.3947 10.1295 8.86557V8.86574L10.1295 8.99998V10.875H6.375C5.75368 10.875 5.25 11.3787 5.25 12C5.25 12.6213 5.75368 13.125 6.375 13.125H10.1295V15.375H6.375C5.75368 15.375 5.25 15.8787 5.25 16.5C5.25 17.1213 5.75368 17.625 6.375 17.625H10.1295V19.875H6.375C5.75368 19.875 5.25 20.3787 5.25 21C5.25 21.6213 5.75368 22.125 6.375 22.125H10.1295V31.875H25.1294V22.125H28.875C29.4963 22.125 30 21.6213 30 21C30 20.3787 29.4963 19.875 28.875 19.875H25.1294V17.625H28.875C29.4963 17.625 30 17.1213 30 16.5C30 15.8787 29.4963 15.375 28.875 15.375H25.1294V13.125H28.875C29.4963 13.125 30 12.6213 30 12C30 11.3787 29.4963 10.875 28.875 10.875H25.1294V8.99998L25.1294 8.86575C25.1295 8.39481 25.1295 7.93807 25.1234 7.50098C26.7455 7.50792 29.8799 7.56335 30.5417 8.00557C30.8693 8.22445 31.1505 8.5057 31.3694 8.83327Z" fill="#B7BBCB"/>
</svg>
