<svg width="300" height="300" viewBox="0 0 300 300" fill="none" xmlns="http://www.w3.org/2000/svg">
<g opacity="0.05">
<path d="M149.13 216.542C149.748 215.795 150.469 215.755 151.265 216.429C152.334 217.334 153.542 217.893 155.022 217.774C156.137 217.685 156.676 218.334 156.559 219.435C156.409 220.859 156.907 221.971 158.005 222.859C158.972 223.64 158.952 224.434 157.993 225.226C156.921 226.11 156.366 227.206 156.526 228.645C156.649 229.755 156.099 230.337 154.963 230.253C153.667 230.157 152.55 230.416 151.651 231.472C150.898 232.357 149.956 232.355 149.127 231.566C148.131 230.618 147.038 230.078 145.624 230.213C144.477 230.322 144.042 229.643 144.023 228.575C144.012 227.96 144.185 227.069 143.856 226.777C141.586 224.762 142.171 222.985 143.91 220.98C144.646 220.131 143.323 218.256 145.394 217.709C146.886 217.713 148.168 217.707 149.13 216.542Z" fill="#19191B"/>
<path fill-rule="evenodd" clip-rule="evenodd" d="M149.79 1.58652e-06C160.421 0.0015475 170.978 1.0025 181.375 3.34108C182.661 3.63036 183.674 3.47657 184.793 2.62967C188.626 -0.27319 193.916 1.16092 195.729 5.6072C196.253 6.89489 196.968 7.56057 198.242 7.97909C203.779 9.79907 209.189 11.9543 214.425 14.5253C215.48 15.0435 216.396 15.0802 217.532 14.6029C222.375 12.5679 227.049 15.2368 227.676 20.3996C227.815 21.5373 228.378 22.0718 229.226 22.6013C244.258 31.9892 257.297 43.6114 268.218 57.5893C271.344 61.5901 274.28 65.7316 276.959 70.048C277.594 71.0712 278.286 71.7231 279.607 72.0121C283.706 72.9091 285.974 76.9864 284.683 81.0851C284.27 82.3962 284.408 83.3891 284.984 84.5617C288.561 91.8374 291.414 99.4016 293.732 107.166C294.048 108.227 294.509 108.907 295.543 109.429C300.019 111.689 301.145 116.422 298.179 120.487C297.508 121.406 297.362 122.172 297.567 123.296C299.837 135.759 300.506 148.329 299.627 160.96C299.194 167.177 298.357 173.362 297.081 179.469C296.855 180.553 296.956 181.443 297.388 182.431C298.798 185.656 298.04 188.851 295.273 191.106C294.369 191.843 293.831 192.667 293.504 193.763C291.2 201.466 288.245 208.916 284.684 216.122C284.254 216.992 284.233 217.707 284.568 218.637C286.143 223.005 283.79 227.236 279.274 228.198C278.237 228.419 277.578 228.931 277.033 229.796C265.045 248.843 249.603 264.466 230.638 276.575C229.66 277.199 229.285 277.981 229.076 279.046C228.032 284.351 223.837 286.621 218.785 284.589C217.86 284.217 217.115 284.246 216.258 284.675C210.241 287.682 204.015 290.19 197.635 292.309C196.658 292.634 196.038 293.212 195.467 294.047C193.487 296.946 190.047 298.002 186.778 296.649C185.494 296.117 184.327 296.074 183.001 296.367C173.488 298.469 163.876 299.653 154.117 299.938C141.657 300.302 129.388 299.054 117.234 296.446C116.299 296.245 115.709 296.503 114.989 296.981C110.93 299.681 106.253 298.465 104.107 294.1C103.603 293.074 102.934 292.496 101.909 292.146C95.8728 290.083 89.9723 287.683 84.2446 284.873C83.4135 284.465 82.7459 284.575 81.9163 284.872C77.6157 286.411 73.4832 284.231 72.3481 279.815C72.0364 278.603 71.4555 277.806 70.3798 277.128C51.2953 265.092 35.6099 249.614 23.5317 230.519C22.7883 229.344 22.0004 228.69 20.5205 228.446C15.6966 227.65 13.1929 223.06 15.0578 218.51C15.5876 217.217 15.4986 216.23 14.9156 215.037C11.6271 208.312 8.97308 201.33 6.75859 194.183C6.42732 193.114 5.95179 192.443 4.89751 191.962C0.123593 189.787 -1.17577 184.643 2.03698 180.548C2.81401 179.558 2.89491 178.677 2.68493 177.523C0.766662 166.978 -0.230625 156.347 0.147778 145.626C0.416057 138.026 1.17728 130.461 2.58651 122.979C2.77227 121.992 2.55981 121.351 1.93375 120.582C-1.46487 116.405 -0.269315 111.256 4.62234 109.029C5.60614 108.582 6.13854 107.972 6.43161 106.991C8.83092 98.9584 11.8621 91.1718 15.5768 83.6552C15.9841 82.831 16.2161 82.024 15.9005 81.0899C15.4505 79.758 15.5717 78.3824 15.8146 76.8504C16.5946 74.354 18.1184 72.6955 20.4317 72.0503C21.828 71.661 22.6544 70.9075 23.3834 69.7576C29.914 59.4577 37.5502 50.0512 46.3488 41.609C53.4443 34.801 61.1351 28.7339 69.4615 23.4997C70.8241 22.6432 71.6369 21.6994 71.9677 20.038C72.8917 15.3978 77.3561 13.0171 81.7078 14.831C83.0718 15.3994 84.1067 15.2974 85.3665 14.6814C90.6658 12.0899 96.1243 9.87119 101.729 8.02816C102.961 7.62298 103.765 7.06769 104.267 5.69487C105.838 1.39418 111.203 -0.178267 115.017 2.53356C116.342 3.47601 117.499 3.59034 119.016 3.26185C129.153 1.06694 139.433 -0.00150286 149.79 1.58652e-06ZM155.709 271.54C154.816 270.975 154.104 270.832 153.095 271.386C151.145 272.455 148.992 272.704 146.976 271.66C145.574 270.935 144.602 271.288 143.426 272.084C135.655 277.345 127.839 282.537 120.061 287.787C119.265 288.325 117.8 288.589 118.047 289.799C118.288 290.973 119.738 290.714 120.679 290.919C132.379 293.463 144.233 294.204 156.572 293.83C164.436 293.416 172.233 292.47 179.928 290.78C180.757 290.598 181.982 290.849 182.232 289.498C182.483 288.144 181.417 287.739 180.57 287.205C172.284 281.982 163.986 276.778 155.709 271.54ZM81.1217 235.294C79.116 235.208 77.0431 234.684 74.8524 235.843C74.1152 236.842 72.7612 237.459 73.1062 239.098C75.2342 249.207 77.3301 259.323 79.4289 269.439C79.6264 270.39 80.05 270.963 81.098 271.23C84.3197 272.052 86.0545 274.303 86.4467 277.523C86.6002 278.783 87.1161 279.459 88.2306 279.978C93.0759 282.236 97.9922 284.306 103.042 286.066C104.258 286.49 105.178 286.427 106.247 285.603C108.462 283.895 110.977 283.434 113.578 284.679C114.708 285.221 115.582 285.136 116.606 284.445C124.839 278.887 133.106 273.378 141.347 267.831C142.923 266.771 143.187 263.404 141.79 262.147C134.557 255.64 127.297 249.162 120.062 242.656C119.124 241.812 118.27 241.535 116.943 241.943C113.782 242.916 110.338 241.735 108.966 238.914C108.021 236.971 106.639 236.65 104.898 236.53C104.147 236.478 103.392 236.48 102.641 236.439C95.468 236.048 88.2978 235.6 81.1217 235.294ZM223.724 235.2C219.281 235.349 214.843 235.649 210.016 235.928C204.619 236.22 199.224 236.536 193.825 236.784C192.749 236.833 192.113 237.191 191.574 238.169C189.61 241.729 186.621 242.952 182.773 241.797C181.811 241.508 181.145 241.578 180.378 242.273C172.912 249.029 165.407 255.743 157.929 262.486C156.282 263.972 156.48 266.508 158.319 267.669C166.716 272.972 175.133 278.244 183.515 283.57C184.506 284.2 185.266 284.192 186.322 283.679C189.489 282.139 192.454 282.708 194.891 285.333C195.681 286.184 196.328 286.326 197.372 285.955C202.668 284.076 207.861 281.962 212.913 279.491C214.037 278.941 214.74 278.292 214.957 276.953C215.272 275.004 216.124 272.888 217.997 272.336C221.527 271.298 221.502 268.459 222.083 265.815C222.23 265.148 222.311 264.466 222.438 263.795C223.991 255.597 225.568 247.404 227.087 239.2C227.484 237.055 225.9 235.127 223.724 235.2ZM31.579 225.836C30.4539 225.608 29.2737 224.987 27.7146 225.642C39.8061 245.054 55.4144 260.538 74.5418 272.468C74.7545 272.332 74.9671 272.196 75.1797 272.061C74.6156 269.202 74.0516 266.343 73.3926 263.148C71.8314 255.644 70.2557 248.142 68.7228 240.632C68.4564 239.327 67.9991 238.422 66.5576 238.005C64.6183 237.444 63.1768 236.054 62.5679 234.142C62.048 232.509 61.0405 231.947 59.4961 231.632C50.1842 229.73 40.8925 227.73 31.579 225.836ZM271.882 225.493C271.244 224.441 270.219 225.244 269.449 225.402C259.664 227.399 249.896 229.478 240.115 231.499C238.936 231.742 238.191 232.192 237.812 233.452C237.186 235.53 235.716 236.946 233.416 237.891C232.292 238.068 231.938 238.769 231.734 239.859C229.892 249.678 227.963 259.48 226.119 269.298C225.971 270.086 225.269 270.943 226.037 271.826C227.082 271.782 227.799 271.093 228.584 270.586C235.511 266.113 241.953 261.015 247.988 255.401C256.868 247.141 264.566 237.89 271.105 227.675C271.518 227.03 272.396 226.342 271.882 225.493ZM173.913 241.431C157.78 245.439 142.019 245.343 126.22 241.669C131.908 246.981 137.671 252.041 143.302 257.244C144.79 258.618 146.097 259.254 148.241 258.04C149.745 257.957 151.325 257.696 152.667 258.501C154.005 259.305 154.894 258.919 155.918 257.982C159.81 254.427 163.788 250.966 167.661 247.39C169.673 245.533 171.912 243.896 173.913 241.431ZM64.2603 166.079C62.1188 165.773 61.8879 166.072 62.3381 168.23C62.6037 169.503 62.9598 170.76 63.168 172.042C63.4071 173.513 64.1233 174.025 65.6634 174.063C71.779 174.214 77.7891 175.212 83.6665 176.896C104.191 182.778 121.184 194.308 135.76 209.673C136.797 210.766 137.852 211.864 138.726 213.085C139.294 213.878 139.993 215.1 137.83 214.638C137.629 214.363 137.456 214.062 137.225 213.814C120.54 195.93 100.681 183.806 76.1744 180.135C72.8551 179.637 69.5152 179.413 66.1286 179.463C70.0593 180.342 72.5288 182.541 73.0274 186.629C73.1592 187.708 73.8647 187.935 74.7519 187.987C78.6577 188.216 82.5033 188.897 86.321 189.688C102.768 193.096 118.049 199.183 131.409 209.601C133.616 211.322 135.757 213.128 138.067 215.146C138.56 215.931 139.612 216.572 138.627 218.109C129.566 209.337 119.124 203.101 107.39 199.065C95.7315 195.055 83.8507 192.172 71.1796 191.9C71.4373 192.67 71.5123 193.074 71.697 193.419C74.6555 198.948 78.2937 204.002 82.3421 208.777C83.1801 209.766 84.2965 209.981 85.4296 210.214C98.5716 212.926 111.621 216.033 124.603 219.424C128.224 220.37 131.813 221.434 135.443 222.451C134.228 226.098 138.996 226.513 138.94 229.832C122.721 224.302 106.536 219.54 89.4735 215.771C90.116 216.51 90.31 216.788 90.5553 217.008C95.9911 221.887 101.967 225.982 108.392 229.448C109.499 230.046 110.139 229.521 110.969 229.011C115.37 226.305 120.976 228.588 121.912 233.568C122.177 234.975 122.782 235.477 124.036 235.867C133.221 238.718 142.623 239.81 152.211 239.617C160.339 239.453 168.294 238.26 176.05 235.807C176.93 235.529 177.983 235.441 178.083 234.134C178.498 228.746 185.055 225.995 189.467 229.314C190.236 229.892 190.862 229.923 191.701 229.471C197.881 226.143 203.676 222.257 208.958 217.622C209.437 217.202 209.984 216.809 210.264 215.923C193.777 219.607 177.774 224.272 161.485 229.692C162.154 227.674 163.263 226.814 164.209 225.893C165.242 224.889 166.018 223.93 165.139 222.396C165.893 222.144 166.464 221.928 167.05 221.762C182.86 217.277 198.866 213.605 214.948 210.255C216.053 210.025 217.022 209.658 217.783 208.76C221.653 204.199 225.197 199.41 228.045 194.135C228.375 193.523 229.023 192.938 228.508 191.883C216.42 192.353 204.761 195.202 193.328 199.082C181.739 203.014 171.271 208.976 162.109 217.349C161.348 216.025 161.907 215.36 162.538 214.708C164.358 212.829 166.43 211.262 168.52 209.698C185.529 196.965 204.669 189.886 225.771 188.004C227.044 187.89 227.736 187.556 227.929 186.129C228.313 183.307 230.008 181.447 232.664 180.427C233.187 180.227 233.938 180.356 234.265 179.271C220.199 179.851 207.153 183.543 194.73 189.797C182.319 196.046 171.62 204.549 161.938 214.696C161.102 213.179 161.724 212.393 162.434 211.619C173.741 199.289 186.865 189.41 202.077 182.413C212.498 177.62 223.403 174.595 234.914 174.024C235.724 173.984 236.443 173.845 236.691 172.955C237.276 170.858 238.002 168.782 237.862 166.618C237.19 165.99 236.5 166.207 235.83 166.282C230.845 166.838 225.965 167.928 221.197 169.441C197.314 177.023 177.652 190.769 162.124 210.407C160.51 212.449 158.871 213.292 156.38 212.888C155.376 212.725 154.57 212.387 153.85 211.689C152.729 210.603 151.562 209.563 149.806 207.942C148.701 209.325 147.791 210.718 146.631 211.856C144.748 213.704 140.277 213.294 138.759 211.291C123.466 191.12 103.902 176.98 79.6953 169.41C74.6531 167.834 69.4815 166.826 64.2603 166.079ZM231.775 197.37C225.691 207.612 218.384 216.165 209.304 223.567C205.646 226.562 201.705 229.163 197.314 231.869C202.325 231.641 206.836 231.466 211.343 231.221C214.963 231.024 218.577 230.711 222.197 230.517C223.329 230.456 223.892 230 224.223 228.908C224.948 226.515 226.551 224.903 228.971 224.198C229.97 223.907 230.403 223.333 230.459 222.287C230.61 219.485 230.886 216.689 231.029 213.886C231.301 208.539 231.515 203.188 231.775 197.37ZM68.3817 197.724C68.7187 206.219 69.2363 214.613 69.7242 223.01C69.7826 224.015 70.4354 224.173 71.1977 224.392C72.9795 224.906 74.7844 225.869 75.2645 227.584C76.1368 230.701 78.4393 230.645 80.7947 230.789C81.8197 230.851 82.85 230.829 84.2671 230.852C90.0936 231.053 95.9051 231.736 101.798 231.465C87.9968 222.815 76.7554 211.73 68.3817 197.724ZM37.6865 157.956C36.4501 156.59 34.0834 156.664 32.8917 158.103C26.8121 165.444 20.7616 172.809 14.695 180.161C14.095 180.888 13.7884 181.575 14.1708 182.586C15.1734 185.235 14.7056 187.734 12.9697 189.939C12.3862 190.681 12.3024 191.317 12.5688 192.191C14.7327 199.29 17.4648 206.161 20.6772 212.848C21.1077 213.744 21.7023 214.238 22.6969 214.338C25.5157 214.621 27.4215 216.234 28.3163 218.808C28.8393 220.312 29.7557 220.718 31.1259 221C38.635 222.544 46.1287 224.163 53.9658 225.832C56.2486 226.279 58.5284 226.743 60.8153 227.167C63.3228 227.633 65.0382 226.251 64.9837 223.689C64.921 220.744 64.7365 217.801 64.5664 214.859C64.1865 208.289 63.7736 201.72 63.4006 195.15C63.353 194.311 62.9938 193.811 62.3144 193.324C58.7368 190.761 57.8599 188.028 59.3085 183.882C59.6411 182.93 59.6325 182.252 58.9241 181.471C51.8298 173.646 44.7752 165.785 37.6865 157.956ZM266.01 157.367C264.057 157.248 262.393 157.533 261.179 159.32C260.415 160.444 259.391 161.391 258.284 162.63C252.879 168.642 247.486 174.665 242.058 180.656C241 181.823 240.549 182.802 241.448 184.424C243.181 187.552 241.815 191.823 238.571 193.411C236.922 194.219 236.446 195.349 236.398 196.963C236.336 199.017 236.238 201.07 236.137 203.122C235.799 210.029 235.407 216.935 235.136 223.845C235.058 225.839 237.058 227.429 238.986 227.027C249.091 224.922 259.186 222.767 269.291 220.656C270.176 220.471 270.757 220.146 271.046 219.212C272.051 215.962 274.359 214.284 277.689 214C278.526 213.929 279.1 213.674 279.472 212.891C282.509 206.511 285.248 200.016 287.247 193.224C287.492 192.39 287.398 191.823 286.679 191.265C283.663 188.926 283.193 185.857 284.365 182.427C284.667 181.543 284.603 180.884 284.056 180.148C278.663 172.886 273.287 165.611 267.915 158.334C267.43 157.677 266.85 157.418 266.01 157.367ZM125.154 191.128C125.488 191.618 125.604 191.857 125.781 192.036C130.228 196.514 134.213 201.387 137.969 206.45C138.598 207.297 139.398 207.682 140.742 207.784C142.236 207.933 143.737 208.034 145.223 208.246C146.911 208.487 147.379 207.697 147.356 206.149C147.299 202.246 147.279 198.339 147.355 194.437C147.386 192.801 146.741 192.317 145.17 192.327C141 192.353 136.846 191.978 132.693 191.609C130.278 191.395 127.853 191.296 125.154 191.128ZM175.096 191.197C168.292 191.796 161.481 192.273 154.649 192.347C153.294 192.361 152.858 192.965 152.871 194.231C152.904 197.585 152.875 200.939 152.875 204.293C152.874 208.383 152.875 208.383 157.322 208.154C160.835 208.059 163.508 206.689 165.359 203.519C166.485 201.592 168.099 199.939 169.571 198.23C171.552 195.929 173.608 193.692 175.698 191.353C175.355 191.261 175.222 191.186 175.096 191.197ZM145.098 165.556C138.663 165.631 132.227 165.589 125.38 165.591C122.71 165.597 120.04 165.635 117.371 165.594C116.035 165.574 115.664 166.198 115.928 167.388C117.162 172.953 118.907 178.343 121.338 183.509C121.85 184.597 122.68 185.002 123.77 185.069C130.866 185.505 137.965 185.908 145.058 186.384C146.716 186.495 147.403 185.983 147.379 184.227C147.304 178.745 147.306 173.26 147.385 167.779C147.41 166.054 146.769 165.536 145.098 165.556ZM185.16 165.9C184.115 165.389 183.072 165.686 181.679 165.6C172.852 165.6 164.025 165.604 155.198 165.597C153.974 165.596 152.851 165.549 152.866 167.331C152.914 173.085 152.897 178.839 152.877 184.594C152.873 185.764 153.281 186.361 154.538 186.382C162.069 186.504 169.567 185.92 177.068 185.392C178.639 185.281 179.459 184.443 180.072 183.059C181.822 179.106 183.331 175.076 184.383 170.882C184.793 169.249 185.44 167.642 185.16 165.9ZM193.744 165.617C192.505 165.612 192.184 166.413 191.926 167.436C191.274 170.024 190.536 172.589 189.73 175.472C189.021 177.277 188.311 179.083 187.406 181.384C192.85 177.317 198.156 174.023 203.869 171.521C206.55 170.348 207.105 168.34 207.552 165.946C207.255 165.81 207.076 165.658 206.896 165.657C202.512 165.635 198.128 165.634 193.744 165.617ZM107.594 165.607C103.078 165.621 98.5612 165.611 94.0449 165.618C93.3707 165.619 92.6679 165.805 92.9 166.642C93.3481 168.256 93.5711 170.043 95.5268 170.756C96.55 171.13 97.5059 171.689 98.7649 172.304C103.839 174.706 108.511 177.822 113.359 180.742C111.566 176.141 110.13 171.596 109.168 166.903C108.997 166.065 108.506 165.605 107.594 165.607ZM290.639 123.107C289.659 122.859 289.257 123.86 288.77 124.459C283.245 131.274 277.765 138.126 272.225 144.929C271.449 145.882 271.144 146.709 271.648 147.899C272.378 149.62 272.324 151.435 271.48 153.085C270.896 154.229 271.264 154.996 271.914 155.871C277.228 163.027 282.531 170.192 287.82 177.366C288.352 178.088 288.865 178.506 289.868 178.281C290.849 178.061 291.24 177.506 291.394 176.618C291.744 174.596 292.103 172.575 292.481 170.19C293.225 164.826 293.692 159.447 293.782 154.023C293.943 144.336 293.506 134.705 291.689 125.169C291.54 124.388 291.599 123.351 290.639 123.107ZM11.9655 123.789C11.4331 123.141 10.9925 122.177 9.84447 122.548C8.72702 122.91 8.63282 123.883 8.46181 124.851C6.81128 134.189 6.18902 143.598 6.34163 153.077C6.47095 161.11 7.30079 169.056 8.83499 176.936C8.93801 177.465 8.91038 178.088 9.62072 178.221C10.2026 178.331 10.4706 177.844 10.7632 177.49C16.695 170.302 22.6139 163.104 28.5477 155.917C29.1917 155.138 29.3427 154.384 28.7976 153.485C27.7332 151.73 27.829 149.825 28.2894 147.578C29.3932 145.812 28.9594 144.438 27.6218 142.852C22.3212 136.567 17.185 130.143 11.9655 123.789ZM241.859 126.305C243.428 134.219 244.447 142.075 244.458 150.023C244.469 157.932 243.438 165.753 241.558 173.469C241.726 173.527 241.894 173.584 242.062 173.642C245.709 169.585 249.356 165.528 253.193 161.248C254.693 159.556 256.149 157.821 257.709 156.186C258.635 155.216 258.908 154.341 258.207 153.097C257.477 151.799 257.112 150.141 257.892 148.937C260.035 145.629 257.682 143.862 255.841 141.844C255.101 141.034 254.353 140.232 253.621 139.416C249.698 135.047 245.779 130.675 241.859 126.305ZM58.3058 126.496C58.0187 126.612 57.859 126.627 57.7804 126.715C52.4324 132.693 47.1 138.685 41.7368 144.65C41.0653 145.397 41.1095 146.051 41.5215 146.875C42.5389 148.91 42.557 151.036 41.5079 153.011C40.8811 154.191 41.2288 154.853 41.9931 155.695C47.1527 161.385 52.2779 167.106 57.6057 172.985C58.4872 172.689 58.4993 172.686 58.2142 171.43C55.2172 158.223 54.8764 144.978 57.5225 131.664C57.8534 129.999 58.6785 128.352 58.3058 126.496ZM210.993 115.826C197.723 90.9723 170.161 75.8226 140.466 79.922C126.85 81.8018 114.698 87.1326 104.573 96.3789C84.6771 114.548 77.4245 137.07 82.5606 163.556C83.1046 166.361 84.0045 166.993 87.0521 166.903C86.5116 164.089 85.9707 161.274 85.3348 158.111C79.8158 120.424 106.724 85.3709 146.215 82.7737C164.249 81.5876 180.465 87.0935 193.818 99.3737C214.045 117.975 219.679 141.07 213.238 167.451C215.857 167.296 216.998 165.956 217.498 163.501C218.79 157.147 219.232 150.773 218.923 144.301C218.44 134.19 215.738 124.713 210.993 115.826ZM174.89 63.8299C164.439 60.8848 153.804 59.7828 142.992 60.6449C136.842 61.1353 130.777 62.2219 124.854 64.0065C123.786 64.3282 122.951 64.6943 122.613 66.0458C121.169 71.8142 116.129 73.8104 111.052 70.6733C110.168 70.1272 109.485 70.0711 108.601 70.5406C92.4732 79.1115 80.0296 91.4085 71.239 107.432C70.6312 108.54 70.6824 109.326 71.3495 110.414C74.3179 115.252 72.0824 120.453 66.5753 121.599C65.42 121.839 64.7908 122.355 64.4463 123.476C60.7272 135.577 59.7671 147.921 61.0904 160.481C61.2074 161.591 61.6763 161.965 62.7575 162.09C67.9272 162.688 73.0688 163.474 78.1206 164.766C78.6947 164.913 79.3097 165.166 80.0355 164.498C75.7525 143.612 79.2502 124.044 91.8094 106.554C104.382 89.0456 121.701 79.1241 143.094 77.0092C160.151 75.323 176.243 79.0449 190.274 89.1152C216.455 107.905 225.46 133.754 220.022 165.232C220.876 165.108 221.488 165.067 222.075 164.926C226.671 163.821 231.305 162.945 235.999 162.361C239.096 161.976 239.203 161.794 239.38 158.221C239.937 147.001 239.456 135.888 236.169 125.029C235.664 123.362 235.041 122.395 233.185 121.973C227.516 120.685 226.625 114.522 228.954 111.061C229.858 109.716 229.71 108.823 229.029 107.571C222.635 95.8133 214.069 85.9556 203.105 77.8007C199.695 75.246 196.059 73.0525 192.352 70.9629C191.241 70.3364 190.429 70.2363 189.228 71.0385C185.271 73.6824 179.756 71.7798 178.584 67.2446C178.015 65.0446 176.785 64.3637 174.89 63.8299ZM195.526 137.071C193.611 137.016 192.882 137.679 193.179 139.567C193.831 143.723 193.551 147.915 193.609 152.505C193.527 154.353 193.573 156.219 193.321 158.043C193.119 159.512 193.492 160.039 194.99 160.017C198.964 159.957 202.943 159.886 206.912 160.046C208.923 160.127 209.522 159.221 209.765 157.48C210.624 151.328 210.495 145.188 209.755 139.04C209.584 137.62 208.899 137.054 207.448 137.079C203.475 137.145 199.497 137.184 195.526 137.071ZM107.707 137.323C102.585 136.776 97.4481 137.198 92.3192 137.106C91.1756 137.085 90.893 137.863 90.7288 138.854C89.6541 145.34 89.7835 151.813 90.7658 158.295C90.979 159.702 91.7418 160.043 93.0326 160.027C97.2816 159.975 101.533 159.942 105.781 160.03C107.456 160.064 107.882 159.426 107.822 157.843C107.647 153.195 107.186 148.561 107.669 143.88C107.883 141.813 108.353 139.689 107.707 137.323ZM144.931 137.023C135.621 137.1 126.31 137.107 117.001 137.036C115.144 137.022 114.386 137.776 114.253 139.501C113.763 145.861 113.749 152.208 114.558 158.552C114.71 159.742 115.264 160.008 116.305 160.007C126.026 159.995 135.747 159.986 145.468 160.031C146.933 160.038 147.391 159.413 147.362 158.057C147.315 155.796 147.351 153.534 147.352 150.861C147.353 147.091 147.289 143.32 147.385 139.553C147.431 137.725 146.842 137.007 144.931 137.023ZM155.107 137.075C153.4 137.066 152.838 137.717 152.856 139.384C152.921 145.484 152.94 151.585 152.852 157.684C152.826 159.503 153.461 160.048 155.235 160.031C162.833 159.956 170.433 160 178.443 160.001C180.566 159.999 182.689 159.964 184.81 160.009C186.103 160.036 186.64 159.47 186.746 158.196C187.272 151.905 187.396 145.622 186.845 139.318C186.698 137.634 186.115 137.082 184.477 137.089C174.687 137.132 164.897 137.129 155.107 137.075ZM238.184 73.441C236.624 73.1495 235.24 74.3544 235.134 75.9858C235.081 76.8042 235.122 77.6324 235.169 78.4534C235.691 87.6842 236.243 96.9136 236.729 106.146C236.792 107.348 237.05 108.111 238.231 108.733C241.546 110.476 242.819 113.649 241.721 117.248C241.393 118.323 241.573 119.011 242.317 119.802C244.242 121.849 246.074 123.982 247.955 126.07C252.726 131.366 257.496 136.665 262.285 141.945C263.627 143.425 267.094 143.816 268.103 142.573C273.934 135.389 279.733 128.177 285.543 120.974C286.079 120.308 286.408 119.666 286.031 118.729C284.903 115.926 285.451 113.347 287.333 111.04C287.963 110.267 288.059 109.467 287.787 108.544C285.668 101.363 282.904 94.4332 279.721 87.6655C279.37 86.9201 279.053 86.1548 278.011 86.1325C274.001 86.0465 271.771 83.7709 270.53 79.8388C270.159 79.6745 269.803 79.432 269.415 79.3578C259.008 77.3703 248.599 75.3865 238.184 73.441ZM64.9986 76.5617C65.0469 74.306 62.7082 72.4399 60.5092 72.9178C50.8854 75.0091 41.2696 77.1375 31.6461 79.2299C30.5548 79.4672 29.8954 79.9292 29.5223 81.0951C28.5087 84.262 26.1112 85.8455 22.899 86.044C21.5787 86.1256 20.9567 86.6766 20.4321 87.76C17.2002 94.4353 14.5089 101.318 12.3868 108.425C12.1237 109.307 11.9353 110.15 12.6512 110.932C14.3323 112.769 14.5394 115.013 14.1676 117.303C13.9947 118.368 14.2042 119.085 14.8714 119.895C20.753 127.039 26.5914 134.218 32.4471 141.383C33.9672 143.243 36.4924 143.407 38.109 141.615C44.8116 134.186 51.4609 126.709 58.1476 119.265C58.7994 118.539 58.984 117.908 58.7055 116.884C57.9675 114.168 58.2712 111.578 60.5702 109.223C62.855 108.249 63.5333 106.51 63.6007 104.062C63.7625 98.1754 64.2444 92.2983 64.568 86.416C64.7485 83.133 64.9282 79.8481 64.9986 76.5617ZM115.209 111.133C110.24 111.569 105.81 112.213 101.484 113.489C100.729 113.711 100.388 114.495 99.9704 115.118C97.9806 118.09 96.2871 121.228 94.8957 124.519C93.9753 126.695 92.9947 128.868 92.5923 131.363C96.6086 131.363 100.426 131.426 104.24 131.332C105.791 131.294 107.662 132.107 108.817 131.107C110.016 130.07 109.705 128.034 110.26 126.142C111.442 121.154 113.115 116.317 115.209 111.133ZM154.912 108.716C153.413 108.727 152.856 109.292 152.868 110.792C152.915 117.097 152.915 123.403 152.863 129.708C152.852 131.164 153.395 131.645 154.814 131.558C157.202 131.412 159.599 131.402 162.403 131.334C169.386 131.335 176.369 131.343 183.353 131.333C185.48 131.33 185.783 130.969 185.37 128.904C184.212 123.108 182.388 117.531 180.001 112.12C179.301 110.533 178.31 109.76 176.637 109.67C169.399 109.281 162.172 108.659 154.912 108.716ZM145.262 108.731C138.075 108.979 130.911 109.541 123.745 110.091C122.537 110.184 121.801 110.824 121.287 111.949C119.313 116.266 117.723 120.711 116.647 125.332C116.191 127.293 115.494 129.228 115.563 131.372C116.385 131.437 117.063 131.541 117.739 131.535C127.12 131.452 136.5 131.171 145.88 131.529C146.964 131.57 147.358 131.078 147.346 130.061C147.328 128.483 147.347 126.905 147.35 124.916C147.347 120.249 147.306 115.582 147.36 110.917C147.378 109.383 146.946 108.672 145.262 108.731ZM193.579 111.796C191.177 111.732 188.829 110.808 186.506 110.97C186.135 111.622 186.346 112.006 186.496 112.378C188.746 117.982 190.584 123.71 191.682 129.659C191.906 130.871 192.558 131.401 193.808 131.353C195.449 131.291 197.095 131.338 198.739 131.338C201.659 131.337 204.579 131.338 207.841 131.338C206.977 127.76 205.673 124.639 204.02 121.319C203.464 120.296 202.83 119.306 202.365 118.243C200.673 114.383 198.059 111.916 193.579 111.796ZM126.426 93.3796C119.052 96.1358 112.886 100.527 107.601 106.26C110.12 106.101 112.522 105.479 114.942 105.397C117.447 105.313 119.085 104.35 120.211 101.851C122.059 98.8788 124.332 96.2133 126.426 93.3796ZM175.096 93.775C176.228 95.4971 177.852 96.9085 178.685 98.6905C181.073 103.802 185.033 105.981 190.799 105.948C191.369 105.963 191.976 106.263 192.658 105.671C187.497 100.571 181.792 96.4752 175.096 93.775ZM147.356 90.0088C147.38 88.5442 146.77 88.0895 145.376 88.1999C142.802 88.4038 140.763 89.7904 138.41 91.2225C133.529 94.5332 129.351 98.5172 126.119 103.749C126.702 103.851 126.967 103.959 127.219 103.932C133.397 103.271 139.594 102.897 145.805 102.769C147.167 102.741 147.34 101.957 147.336 100.887C147.325 97.2607 147.298 93.6339 147.356 90.0088ZM154.769 88.2164C153.511 88.0669 152.857 88.5739 152.873 89.9493C152.916 93.6543 152.908 97.3603 152.878 101.066C152.868 102.297 153.397 102.746 154.609 102.776C158.305 102.867 162 103.043 166.089 103.194C168.968 103.243 171.834 103.968 175.035 103.52C170.636 96.9767 165.241 92.0509 158.396 88.812C157.33 88.3079 155.99 88.3613 154.769 88.2164ZM211.657 68.9369C207.14 68.8536 202.638 68.1959 197.783 68.4511C202.184 71.2371 206.237 73.9224 209.978 77.0474C213.718 80.1709 217.289 83.468 220.686 87.3675C224.856 91.9779 228.399 97.0593 231.908 102.821C231.586 96.5686 231.309 90.9078 230.998 85.2489C230.858 82.7207 230.634 80.1972 230.48 77.6696C230.418 76.6501 229.989 76.0694 228.962 75.7799C226.546 75.0992 224.918 73.5019 224.174 71.1097C223.831 70.0078 223.223 69.6339 222.1 69.5803C218.616 69.4139 215.14 69.001 211.657 68.9369ZM102.383 68.2994C94.0789 68.6014 85.885 69.0928 77.6888 69.5409C76.4807 69.6069 75.7198 69.8766 75.2794 71.2162C74.6396 73.1624 73.2941 74.6897 71.2732 75.3592C70.0978 75.7486 69.7179 76.4488 69.6616 77.629C69.2956 85.2937 68.8704 92.9557 68.4846 100.62C68.4664 100.981 68.2726 101.446 68.8349 101.776C69.0645 101.444 69.2908 101.117 69.6772 100.576C77.9857 87.2143 88.9007 76.4878 102.383 68.2994ZM225.059 27.4372C225.007 27.8507 224.931 28.0549 224.966 28.2383C226.935 38.722 228.94 49.1994 230.86 59.6922C231.106 61.0354 231.634 61.6891 232.964 62.0279C235.641 62.7094 237.401 64.4934 237.946 67.2084C238.198 68.4626 238.757 68.8623 239.93 69.0788C249.875 70.915 259.807 72.8271 269.751 74.6691C270.478 74.8037 271.379 75.1838 272.203 74.0719C261.779 57.2625 248.298 43.2945 231.871 31.7069C229.636 30.3111 227.564 28.6388 225.059 27.4372ZM74.7126 27.8985C74.4243 27.9214 74.1999 27.88 74.0397 27.9628C73.5548 28.2134 73.0866 28.4995 72.6261 28.7941C59.167 37.4047 47.5009 48.0072 37.539 60.4953C34.4159 64.4104 31.5095 68.485 28.8221 72.7131C28.5386 73.159 28.1087 73.6177 28.4365 74.2135C28.7986 74.8713 29.4339 74.8568 30.0646 74.7709C30.4709 74.7155 30.8748 74.6357 31.2757 74.5481C38.8276 72.898 46.3789 71.2453 54.2639 69.4983C55.9987 69.1031 57.7193 68.6148 59.4732 68.3429C60.8195 68.1341 61.4724 67.4622 61.8653 66.2002C62.5188 64.1012 63.9895 62.6605 66.0776 62.0227C67.4615 61.5999 68.0027 60.7414 68.2897 59.4075C70.1473 50.7756 72.1106 42.166 73.9196 33.5242C74.2998 31.7079 75.1978 29.9083 74.7126 27.8985ZM196.156 13.6989C195.17 13.3666 194.423 13.4 193.519 14.0641C191.408 15.6151 189.004 16.1467 186.55 14.9946C185.201 14.3608 184.26 14.7013 183.186 15.4917C180.151 17.725 177.065 19.8883 174.005 22.0874C168.942 25.7259 163.878 29.3636 158.826 33.0171C156.944 34.3778 156.588 36.3734 158 37.639C165.451 44.3158 172.923 50.9687 180.359 57.6621C181.16 58.3831 181.821 58.5672 182.904 58.2251C186.655 57.0405 189.88 58.354 191.758 61.8336C192.327 62.8877 192.996 63.333 194.136 63.3908C197.893 63.581 201.647 63.8359 205.404 64.0475C210.05 64.3091 214.697 64.552 219.725 64.8317C221.095 64.8524 222.467 64.9292 223.835 64.8799C225.601 64.8164 226.859 63.2644 226.532 61.5405C224.547 51.0552 222.518 40.5783 220.563 30.0874C220.342 28.9029 219.861 28.335 218.697 28.0143C215.697 27.1882 213.906 25.1539 213.505 22.0572C213.366 20.9844 212.785 20.5338 211.938 20.1305C206.8 17.6838 201.551 15.516 196.156 13.6989ZM106.449 14.013C105.593 13.3739 104.875 13.4151 103.988 13.7178C98.4703 15.6013 93.0783 17.7883 87.8237 20.3195C86.8285 20.799 86.2831 21.4009 86.0627 22.5828C85.5686 25.2322 84.118 27.3207 81.4427 28.1434C80.0293 28.578 79.5467 29.4306 79.2651 30.7381C77.1456 40.5763 74.982 50.405 72.8302 60.2363C72.2202 63.0231 73.8059 64.9991 76.7094 64.8848C83.0023 64.6368 89.2937 64.3384 95.5826 64.0033C99.3409 63.803 103.092 63.4624 106.85 63.2561C107.851 63.2011 108.502 62.901 108.948 61.9627C110.422 58.8553 113.043 57.3439 116.306 57.9798C118.721 58.4505 120.197 57.6213 121.663 56.0652C122.084 55.6183 122.59 55.2521 123.272 54.6512C129.424 49.0852 135.587 43.5322 141.72 37.945C143.502 36.3216 143.414 34.5516 141.5 33.1775C133.147 27.1806 124.769 21.2172 116.416 15.2206C115.628 14.6553 114.935 14.3863 113.978 14.8651C111.308 16.2009 108.754 15.7321 106.449 14.013ZM146.702 41.2974C146.203 41.0486 145.703 40.8042 144.962 41.4212L126.741 57.8318C126.825 58.0302 126.908 58.2287 126.992 58.427C142.646 54.6882 158.273 54.7685 174.32 58.7359C173.795 58.1609 173.637 57.9554 173.447 57.7852C167.436 52.3818 161.416 46.9879 155.415 41.5728C154.765 40.9858 154.186 40.8858 153.394 41.2978C151.179 42.4501 148.933 42.4086 146.702 41.2974ZM181.636 10.0204C172.044 5.00106 126.073 5.11088 117.774 10.3924C125.221 15.7166 132.542 20.9508 140.099 26.3623C141.106 27.074 142.187 27.7032 143.102 28.5186C144.233 29.5259 145.142 29.6082 146.5 28.7567C148.744 27.3507 151.275 27.333 153.53 28.7221C154.919 29.5779 155.845 29.3219 157.019 28.4748C164.853 22.8199 172.721 17.2118 180.57 11.5759C181.094 11.199 181.821 10.9019 181.636 10.0204Z" fill="#19191B"/>
</g>
</svg>
