<svg width="22" height="22" viewBox="0 0 22 22" fill="none" xmlns="http://www.w3.org/2000/svg">
<path fill-rule="evenodd" clip-rule="evenodd" d="M11.0008 2.52075C10.1039 2.52075 9.33898 3.0937 9.05551 3.89569C8.92898 4.25368 8.53619 4.44132 8.1782 4.31479C7.82021 4.18826 7.63257 3.79547 7.75911 3.43748C8.23067 2.10329 9.50304 1.14575 11.0008 1.14575C12.4986 1.14575 13.771 2.10329 14.2426 3.43748C14.3691 3.79547 14.1814 4.18826 13.8235 4.31479C13.4655 4.44132 13.0727 4.25368 12.9461 3.89569C12.6627 3.0937 11.8978 2.52075 11.0008 2.52075Z" fill="#1C84CF"/>
<path d="M12.834 11.4583H9.16732C8.91419 11.4583 8.70898 11.6635 8.70898 11.9166V13.8979C8.70898 14.0854 8.82309 14.2539 8.9971 14.3235L9.63889 14.5802C10.5131 14.9299 11.4882 14.9299 12.3624 14.5802L13.0042 14.3235C13.1782 14.2539 13.2923 14.0854 13.2923 13.8979V11.9166C13.2923 11.6635 13.0871 11.4583 12.834 11.4583Z" fill="#1C84CF"/>
<path d="M7.34385 14.0883L2.75602 12.712C2.78361 15.5669 2.95038 18.1962 3.95874 19.0925C5.16692 20.1664 7.11147 20.1664 11.0006 20.1664C14.8896 20.1664 16.8342 20.1664 18.0424 19.0925C19.0507 18.1962 19.2175 15.5669 19.2451 12.712L14.6575 14.0883C14.5876 14.7599 14.1514 15.3455 13.5149 15.6002L12.8731 15.8569C11.6711 16.3377 10.3302 16.3377 9.12822 15.8569L8.48643 15.6002C7.84988 15.3455 7.41375 14.7599 7.34385 14.0883Z" fill="#1C84CF"/>
<path d="M6.9755 4.58325H15.0258C17.2718 4.58325 18.3948 4.58325 19.1529 5.20015C19.2987 5.31872 19.4319 5.45191 19.5504 5.59763C20.1673 6.35581 20.1673 7.4788 20.1673 9.72477C20.1673 10.2947 20.1673 10.5796 20.0291 10.8019C20.0022 10.8452 19.9717 10.8862 19.938 10.9244C19.7648 11.1207 19.4918 11.2026 18.9459 11.3663L14.6673 12.6499V11.9166C14.6673 10.9041 13.8465 10.0833 12.834 10.0833H9.16732C8.1548 10.0833 7.33398 10.9041 7.33398 11.9166V12.6499L3.05535 11.3663C2.50948 11.2026 2.23654 11.1207 2.06335 10.9244C2.02961 10.8862 1.99912 10.8452 1.9722 10.8019C1.83398 10.5796 1.83398 10.2947 1.83398 9.72477C1.83398 7.4788 1.83398 6.35581 2.45088 5.59763C2.56945 5.45191 2.70264 5.31872 2.84836 5.20015C3.60654 4.58325 4.72953 4.58325 6.9755 4.58325Z" fill="#1C84CF"/>
</svg>
