<svg width="22" height="22" viewBox="0 0 22 22" fill="none" xmlns="http://www.w3.org/2000/svg">
<path fill-rule="evenodd" clip-rule="evenodd" d="M20.019 10.199L19.8089 12.4313C19.4627 16.1096 19.2896 17.9487 18.2056 19.0576C17.1215 20.1666 15.4967 20.1666 12.2472 20.1666H9.75406C6.50455 20.1666 4.8798 20.1666 3.79574 19.0576C2.71167 17.9487 2.53858 16.1096 2.1924 12.4313L1.98231 10.199C1.8173 8.44581 1.7348 7.56919 2.03472 7.20682C2.19696 7.0108 2.41759 6.89069 2.65347 6.86997C3.08953 6.83167 3.63714 7.45508 4.73237 8.7019C5.29877 9.3467 5.58197 9.6691 5.89791 9.71903C6.07296 9.7467 6.25133 9.71826 6.41297 9.63691C6.7047 9.4901 6.89921 9.09153 7.28822 8.29439L9.33867 4.09271C10.0738 2.5864 10.4413 1.83325 11.0007 1.83325C11.56 1.83325 11.9275 2.5864 12.6626 4.0927L14.7131 8.29439C15.1021 9.09153 15.2966 9.4901 15.5883 9.63691C15.75 9.71826 15.9283 9.7467 16.1034 9.71903C16.4193 9.6691 16.7025 9.3467 17.2689 8.7019C18.3642 7.45508 18.9118 6.83167 19.3478 6.86997C19.5837 6.89069 19.8043 7.0108 19.9666 7.20682C20.2665 7.56919 20.184 8.44581 20.019 10.199ZM7.56315 16.4999C7.56315 16.1202 7.87096 15.8124 8.25065 15.8124H13.7507C14.1303 15.8124 14.4382 16.1202 14.4382 16.4999C14.4382 16.8796 14.1303 17.1874 13.7507 17.1874H8.25065C7.87096 17.1874 7.56315 16.8796 7.56315 16.4999Z" fill="#1C84CF"/>
</svg>
