<svg width="36" height="36" viewBox="0 0 36 36" fill="none" xmlns="http://www.w3.org/2000/svg">
<path fill-rule="evenodd" clip-rule="evenodd" d="M8.81802 4.31802C7.5 5.63604 7.5 7.75736 7.5 12V24C7.5 28.2426 7.5 30.364 8.81802 31.682C10.136 33 12.2574 33 16.5 33H19.5C23.7426 33 25.864 33 27.182 31.682C28.5 30.364 28.5 28.2426 28.5 24V12C28.5 7.75736 28.5 5.63604 27.182 4.31802C25.864 3 23.7426 3 19.5 3H16.5C12.2574 3 10.136 3 8.81802 4.31802ZM12.375 25.5C12.375 24.8787 12.8787 24.375 13.5 24.375H18C18.6213 24.375 19.125 24.8787 19.125 25.5C19.125 26.1213 18.6213 26.625 18 26.625H13.5C12.8787 26.625 12.375 26.1213 12.375 25.5ZM13.5 18.375C12.8787 18.375 12.375 18.8787 12.375 19.5C12.375 20.1213 12.8787 20.625 13.5 20.625H22.5C23.1213 20.625 23.625 20.1213 23.625 19.5C23.625 18.8787 23.1213 18.375 22.5 18.375H13.5ZM12.375 13.5C12.375 12.8787 12.8787 12.375 13.5 12.375H22.5C23.1213 12.375 23.625 12.8787 23.625 13.5C23.625 14.1213 23.1213 14.625 22.5 14.625H13.5C12.8787 14.625 12.375 14.1213 12.375 13.5Z" fill="#B7BBCB"/>
<path opacity="0.5" d="M7.85287 6.0874C7.5 7.41233 7.5 9.26558 7.5 12V24C7.5 26.7346 7.5 28.5878 7.85291 29.9128L7.5 29.8859C6.03737 29.7421 5.05285 29.4169 4.31802 28.6821C3 27.3641 3 25.2427 3 21.0001V15.0001C3 10.7575 3 8.63614 4.31802 7.31812C5.05285 6.58329 6.03737 6.25815 7.5 6.11428L7.85287 6.0874Z" fill="#B7BBCB"/>
<path opacity="0.5" d="M28.1465 29.9128C28.4994 28.5878 28.4994 26.7346 28.4994 24V12C28.4994 9.26558 28.4994 7.41233 28.1465 6.0874L28.4994 6.11428C29.962 6.25815 30.9465 6.58329 31.6814 7.31812C32.9994 8.63614 32.9994 10.7575 32.9994 15.0001V21.0001C32.9994 25.2427 32.9994 27.3641 31.6814 28.6821C30.9465 29.4169 29.962 29.7421 28.4994 29.8859L28.1465 29.9128Z" fill="#B7BBCB"/>
</svg>
