<svg width="18" height="19" viewBox="0 0 18 19" fill="none" xmlns="http://www.w3.org/2000/svg">
<path d="M9.5074 13.6306C9.37715 13.773 9.19302 13.8542 9 13.8542C8.80698 13.8542 8.62285 13.773 8.49261 13.6306L4.82594 9.62015C4.56973 9.33993 4.5892 8.90506 4.86943 8.64886C5.14966 8.39265 5.58452 8.41212 5.84073 8.69235L8.3125 11.3958V1.25C8.3125 0.870305 8.62031 0.5625 9 0.5625C9.3797 0.5625 9.6875 0.870305 9.6875 1.25V11.3958L12.1593 8.69235C12.4155 8.41212 12.8503 8.39265 13.1306 8.64886C13.4108 8.90506 13.4303 9.33993 13.1741 9.62015L9.5074 13.6306Z" fill="white"/>
<path d="M1.4375 12.25C1.4375 11.8703 1.1297 11.5625 0.750001 11.5625C0.370306 11.5625 0.0625005 11.8703 0.0625005 12.25V12.3003C0.062482 13.5539 0.062467 14.5644 0.169314 15.3591C0.280246 16.1842 0.517565 16.8789 1.06932 17.4307C1.62108 17.9824 2.3158 18.2198 3.1409 18.3307C3.93562 18.4375 4.94608 18.4375 6.1997 18.4375H11.8003C13.0539 18.4375 14.0644 18.4375 14.8591 18.3307C15.6842 18.2198 16.3789 17.9824 16.9307 17.4307C17.4824 16.8789 17.7198 16.1842 17.8307 15.3591C17.9375 14.5644 17.9375 13.5539 17.9375 12.3003V12.25C17.9375 11.8703 17.6297 11.5625 17.25 11.5625C16.8703 11.5625 16.5625 11.8703 16.5625 12.25C16.5625 13.5658 16.561 14.4835 16.468 15.1759C16.3775 15.8485 16.2121 16.2047 15.9584 16.4584C15.7047 16.7121 15.3485 16.8775 14.6759 16.9679C13.9835 17.061 13.0658 17.0625 11.75 17.0625H6.25C4.9342 17.0625 4.01652 17.061 3.32411 16.9679C2.65148 16.8775 2.29529 16.7121 2.04159 16.4584C1.78789 16.2047 1.62249 15.8485 1.53205 15.1759C1.43896 14.4835 1.4375 13.5658 1.4375 12.25Z" fill="white"/>
</svg>
