<svg width="20" height="20" viewBox="0 0 20 20" fill="none" xmlns="http://www.w3.org/2000/svg">
<g clip-path="url(#clip0_487_248)">
<path d="M10.8347 16.6151C14.1232 16.205 16.668 13.3997 16.668 10C16.668 6.31812 13.6832 3.33335 10.0013 3.33335C6.3194 3.33335 3.33464 6.31812 3.33464 10C3.33464 13.3997 5.87938 16.205 9.16799 16.6151V11.6667H7.5013V10H9.16799V8.62152C9.16799 7.50715 9.28399 7.10304 9.5019 6.69563C9.71974 6.28822 10.0395 5.96849 10.4469 5.7506C10.7658 5.58005 11.1614 5.47712 11.8527 5.43297C12.1271 5.41545 12.4822 5.4378 12.918 5.50002V7.08335H12.5013C11.7369 7.08335 11.4215 7.11945 11.2329 7.22029C11.116 7.28285 11.0342 7.36467 10.9716 7.48163C10.8707 7.67017 10.8347 7.85713 10.8347 8.62152V10H12.918L12.5013 11.6667H10.8347V16.6151ZM10.0013 18.3334C5.39893 18.3334 1.66797 14.6024 1.66797 10C1.66797 5.39765 5.39893 1.66669 10.0013 1.66669C14.6037 1.66669 18.3347 5.39765 18.3347 10C18.3347 14.6024 14.6037 18.3334 10.0013 18.3334Z" fill="white"/>
</g>
<defs>
<clipPath id="clip0_487_248">
<rect width="20" height="20" fill="white"/>
</clipPath>
</defs>
</svg>
