<svg width="22" height="23" viewBox="0 0 22 23" fill="none" xmlns="http://www.w3.org/2000/svg">
<path fill-rule="evenodd" clip-rule="evenodd" d="M9.70024 1.64588L9.68153 1.64588C9.57747 1.64586 9.49649 1.64585 9.41986 1.65049C8.4478 1.70936 7.59659 2.32288 7.23335 3.22644C7.20471 3.29767 7.17911 3.37453 7.14621 3.47325L7.14031 3.49097L7.11679 3.56153C7.09938 3.61375 7.09453 3.62814 7.09031 3.63981C6.94376 4.04495 6.45677 4.38304 5.94157 4.3961L4.27378 4.47769C3.55308 4.56237 2.93596 4.74268 2.41446 5.167C2.23231 5.31521 2.06582 5.4817 1.91761 5.66385C1.49329 6.18535 1.31298 6.80247 1.2283 7.52317C1.14646 8.21964 1.14647 9.09538 1.14649 10.1816L1.14649 10.2249L1.14649 10.2536C1.14646 10.5138 1.14643 10.7578 1.16728 10.9632C1.19034 11.1905 1.24341 11.432 1.38836 11.6651C1.43548 11.7408 1.48883 11.8126 1.54787 11.8795C1.70289 12.0551 1.88293 12.1684 2.06359 12.2522C2.06623 13.7327 2.08497 15.2292 2.21784 16.5109C2.29569 17.2619 2.41516 17.9669 2.60467 18.568C2.79109 19.1594 3.06636 19.7193 3.50209 20.1066C4.25691 20.7776 5.20691 21.0734 6.39283 21.2151C7.55691 21.3542 9.04895 21.3542 10.9537 21.3542H11.0476C12.9524 21.3542 14.4444 21.3542 15.6085 21.2151C16.7944 21.0734 17.7444 20.7776 18.4992 20.1066C18.9349 19.7193 19.2102 19.1594 19.3966 18.568C19.5861 17.9669 19.7056 17.2619 19.7835 16.5109C19.9163 15.2292 19.9351 13.7327 19.9377 12.2522C20.1184 12.1684 20.2984 12.0551 20.4534 11.8795C20.5125 11.8126 20.5658 11.7409 20.6129 11.6651C20.7579 11.432 20.811 11.1905 20.834 10.9632C20.8549 10.7578 20.8549 10.5138 20.8548 10.2536L20.8548 10.1816C20.8548 9.09537 20.8548 8.21964 20.773 7.52317C20.6883 6.80247 20.508 6.18535 20.0837 5.66385C19.9355 5.4817 19.769 5.31521 19.5868 5.167C19.0653 4.74268 18.4482 4.56237 17.7275 4.47769L16.0597 4.3961C15.5447 4.38305 15.058 4.04508 14.9114 3.63979C14.9072 3.62821 14.9023 3.61349 14.8849 3.56153L14.8555 3.47322C14.8226 3.3745 14.797 3.29766 14.7684 3.22644C14.4051 2.32288 13.5539 1.70936 12.5819 1.65049C12.5052 1.64585 12.4243 1.64586 12.3202 1.64588L9.70024 1.64588ZM6.94011 5.77088L6.97551 5.77088H15.0258L15.0612 5.77088C16.182 5.77091 16.9665 5.77273 17.5671 5.84329C18.1589 5.91283 18.4824 6.04098 18.719 6.23355C18.8283 6.32248 18.9282 6.42237 19.0171 6.53166C19.2097 6.76834 19.3379 7.0918 19.4074 7.68363C19.4787 8.29046 19.4798 9.08518 19.4798 10.2249C19.4798 10.5238 19.479 10.6969 19.4661 10.8244C19.4584 10.8998 19.4487 10.9304 19.4451 10.9393C19.4385 10.9499 19.431 10.96 19.4227 10.9695C19.4152 10.9755 19.3887 10.9935 19.3187 11.0225C19.2002 11.0715 19.0347 11.1221 18.7484 11.2079L13.9798 12.6385V12.4167C13.9798 11.7839 13.4668 11.2709 12.834 11.2709H9.16732C8.5345 11.2709 8.02149 11.7839 8.02149 12.4167V12.6385L3.25291 11.2079C2.96659 11.1221 2.80109 11.0715 2.68262 11.0225C2.61262 10.9935 2.58608 10.9755 2.57865 10.9694L8.02149 12.6385L2.55618 10.9393C2.55257 10.9304 2.5429 10.8998 2.53525 10.8244C2.52231 10.6969 2.52149 10.5238 2.52149 10.2249C2.52149 9.08518 2.5226 8.29046 2.5939 7.68363C2.66344 7.0918 2.79159 6.76834 2.98416 6.53166C3.07309 6.42237 3.17298 6.32248 3.28227 6.23355C3.51895 6.04098 3.84242 5.91283 4.43424 5.84329C5.03477 5.77273 5.8193 5.77091 6.94011 5.77088ZM9.70024 3.02088C9.56881 3.02088 9.53256 3.02118 9.50299 3.02297C9.06114 3.04973 8.67422 3.3286 8.50911 3.73932C8.49806 3.7668 8.48631 3.80111 8.44475 3.92578L8.41875 4.00377C8.40497 4.04512 8.39425 4.0773 8.38331 4.10753C8.34715 4.20751 8.3044 4.3037 8.25576 4.39588H13.746C13.6973 4.3037 13.6546 4.20753 13.6184 4.10755C13.6075 4.07732 13.5967 4.04512 13.583 4.00377L13.557 3.92578C13.5154 3.80111 13.5036 3.7668 13.4926 3.73932C13.3275 3.3286 12.9406 3.04973 12.4987 3.02297C12.4692 3.02118 12.4329 3.02088 12.3015 3.02088H9.70024ZM3.44007 12.6996C3.44631 14.0167 3.47282 15.2821 3.58551 16.3691C3.65869 17.075 3.76575 17.6779 3.91605 18.1546C4.06943 18.6412 4.24723 18.9293 4.41559 19.0789C4.86896 19.4819 5.49531 19.7231 6.55599 19.8498C7.62895 19.9781 9.03879 19.9792 11.0007 19.9792C12.9625 19.9792 14.3724 19.9781 15.4453 19.8498C16.506 19.7231 17.1324 19.4819 17.5857 19.0789C17.7541 18.9293 17.9319 18.6412 18.0853 18.1546C18.2356 17.6779 18.3426 17.075 18.4158 16.3691C18.5285 15.2821 18.555 14.0167 18.5612 12.6996L13.9798 14.0741V14.3981C13.9798 14.8666 13.6946 15.2879 13.2595 15.462L12.6178 15.7187C11.5797 16.1339 10.4216 16.1339 9.38356 15.7187L8.74177 15.462C8.30675 15.2879 8.02149 14.8666 8.02149 14.3981V14.0741L3.44007 12.6996ZM9.39649 12.6459V14.2429L9.89422 14.442C10.6045 14.7261 11.3968 14.7261 12.1071 14.442L12.6048 14.2429V12.6459H9.39649Z" fill="#1C84CF"/>
</svg>
