<svg width="22" height="23" viewBox="0 0 22 23" fill="none" xmlns="http://www.w3.org/2000/svg">
<path d="M8.47852 13.3334C9.9973 13.3334 11.2285 14.5646 11.2285 16.0834C11.2285 17.6022 9.9973 18.8334 8.47852 18.8334C6.95973 18.8334 5.72852 17.6022 5.72852 16.0834C5.72852 14.5646 6.95973 13.3334 8.47852 13.3334Z" fill="#1C84CF"/>
<path d="M13.0618 4.16675C11.5431 4.16675 10.3118 5.39796 10.3118 6.91675C10.3118 8.43553 11.5431 9.66675 13.0618 9.66675C14.5806 9.66675 15.8118 8.43553 15.8118 6.91675C15.8118 5.39797 14.5806 4.16675 13.0618 4.16675Z" fill="#1C84CF"/>
<path d="M8.02018 6.19123C8.39988 6.19123 8.70768 6.49903 8.70768 6.87873C8.70768 7.25842 8.39988 7.56623 8.02018 7.56623L1.60352 7.56622C1.22382 7.56622 0.916016 7.25842 0.916016 6.87872C0.916016 6.49903 1.22382 6.19123 1.60352 6.19123H8.02018Z" fill="#1C84CF"/>
<path d="M13.5202 15.3579C13.1405 15.3579 12.8327 15.6657 12.8327 16.0454C12.8327 16.4251 13.1405 16.7329 13.5202 16.7329H19.9368C20.3165 16.7329 20.6243 16.4251 20.6243 16.0454C20.6243 15.6657 20.3165 15.3579 19.9368 15.3579H13.5202Z" fill="#1C84CF"/>
<path d="M0.916016 16.0454C0.916016 15.6657 1.22382 15.3579 1.60352 15.3579H3.43685C3.81654 15.3579 4.12435 15.6657 4.12435 16.0454C4.12435 16.4251 3.81654 16.7329 3.43685 16.7329H1.60352C1.22382 16.7329 0.916016 16.4251 0.916016 16.0454Z" fill="#1C84CF"/>
<path d="M19.9368 6.19123C20.3165 6.19123 20.6243 6.49903 20.6243 6.87873C20.6243 7.25842 20.3165 7.56623 19.9368 7.56623H18.1035C17.7238 7.56623 17.416 7.25842 17.416 6.87873C17.416 6.49903 17.7238 6.19123 18.1035 6.19123H19.9368Z" fill="#1C84CF"/>
</svg>
