<svg width="22" height="22" viewBox="0 0 22 22" fill="none" xmlns="http://www.w3.org/2000/svg">
<path fill-rule="evenodd" clip-rule="evenodd" d="M1.85938 10.3124C2.21094 5.57091 6.16931 1.83325 11.0006 1.83325C10.239 1.83325 9.56091 2.16711 9.00305 2.67762C8.44799 3.18557 7.97893 3.89463 7.59954 4.73281C7.21792 5.57593 6.92148 6.56204 6.72085 7.63219C6.56001 8.49003 6.46214 9.39439 6.42951 10.3124H1.85938ZM1.85938 11.6874H6.42951C6.46214 12.6054 6.56001 13.5098 6.72085 14.3676C6.92148 15.4378 7.21792 16.4239 7.59954 17.267C7.97893 18.1052 8.44799 18.8143 9.00305 19.3222C9.56091 19.8327 10.239 20.1666 11.0006 20.1666C6.16931 20.1666 2.21094 16.4289 1.85938 11.6874Z" fill="#1C84CF"/>
<path d="M11.0006 3.11232C10.7486 3.11232 10.4229 3.21959 10.0442 3.56613C9.66271 3.91524 9.28081 4.46239 8.94339 5.20784C8.60821 5.94836 8.33604 6.84229 8.14875 7.84126C8.00125 8.62797 7.90975 9.46192 7.87764 10.3124H14.1237C14.0915 9.46192 14 8.62797 13.8525 7.84126C13.6653 6.84229 13.3931 5.94836 13.0579 5.20784C12.7205 4.46239 12.3386 3.91524 11.9571 3.56613C11.5784 3.21959 11.2527 3.11232 11.0006 3.11232Z" fill="#1C84CF"/>
<path d="M8.14875 14.1586C8.33604 15.1575 8.60821 16.0515 8.94339 16.792C9.28081 17.5375 9.66271 18.0846 10.0442 18.4337C10.4229 18.7803 10.7486 18.8875 11.0006 18.8875C11.2527 18.8875 11.5784 18.7803 11.9571 18.4337C12.3386 18.0846 12.7205 17.5375 13.0579 16.792C13.3931 16.0515 13.6653 15.1575 13.8525 14.1586C14 13.3719 14.0915 12.5379 14.1237 11.6874H7.87764C7.90975 12.5379 8.00125 13.3719 8.14875 14.1586Z" fill="#1C84CF"/>
<path d="M11.0006 1.83325C11.7623 1.83325 12.4404 2.16711 12.9982 2.67762C13.5533 3.18557 14.0224 3.89463 14.4018 4.73281C14.7834 5.57593 15.0798 6.56204 15.2805 7.63219C15.4413 8.49003 15.5392 9.39439 15.5718 10.3124H20.1419C19.7904 5.57091 15.832 1.83325 11.0006 1.83325Z" fill="#1C84CF"/>
<path d="M15.2804 14.3676C15.0798 15.4378 14.7834 16.4239 14.4018 17.267C14.0224 18.1052 13.5533 18.8143 12.9982 19.3222C12.4404 19.8327 11.7623 20.1666 11.0006 20.1666C15.832 20.1666 19.7904 16.4289 20.1419 11.6874H15.5718C15.5392 12.6054 15.4413 13.5098 15.2804 14.3676Z" fill="#1C84CF"/>
</svg>
