<svg width="100" height="100" viewBox="0 0 100 100" fill="none" xmlns="http://www.w3.org/2000/svg">
<path fill-rule="evenodd" clip-rule="evenodd" d="M8.44922 46.8749C10.0472 25.3226 28.0398 8.33325 50.0005 8.33325C46.5385 8.33325 43.4562 9.85079 40.9205 12.1713C38.3975 14.4801 36.2654 17.7032 34.5409 21.5131C32.8062 25.3454 31.4588 29.8278 30.5468 34.6921C29.8158 38.5913 29.3709 42.7021 29.2226 46.8749H8.44922ZM8.44922 53.1249H29.2226C29.3709 57.2978 29.8158 61.4085 30.5468 65.3078C31.4588 70.1721 32.8062 74.6544 34.5409 78.4868C36.2654 82.2967 38.3975 85.5197 40.9205 87.8286C43.4562 90.1491 46.5385 91.6666 50.0005 91.6666C28.0398 91.6666 10.0472 74.6772 8.44922 53.1249Z" fill="#1C84CF"/>
<path d="M50.0005 8.33325C53.4624 8.33325 56.5447 9.85079 59.0805 12.1713C61.6035 14.4801 63.7356 17.7032 65.46 21.5131C67.1947 25.3454 68.5421 29.8278 69.4541 34.6921C70.1852 38.5914 70.6301 42.7021 70.7784 46.8749H91.5517C89.9537 25.3226 71.9611 8.33325 50.0005 8.33325Z" fill="#1C84CF"/>
<path d="M69.4541 65.3078C68.5421 70.1721 67.1947 74.6544 65.46 78.4868C63.7356 82.2967 61.6035 85.5197 59.0805 87.8286C56.5447 90.1491 53.4624 91.6666 50.0005 91.6666C71.9611 91.6666 89.9537 74.6772 91.5517 53.1249H70.7784C70.6301 57.2978 70.1852 61.4085 69.4541 65.3078Z" fill="#1C84CF"/>
<path d="M50.0012 14.1479C48.8553 14.1479 47.375 14.6355 45.6537 16.2107C43.9196 17.7976 42.1837 20.2846 40.65 23.673C39.1264 27.039 37.8893 31.1024 37.038 35.6431C36.3675 39.2191 35.9516 43.0098 35.8057 46.8757H64.1967C64.0507 43.0098 63.6348 39.2191 62.9643 35.6431C62.113 31.1024 60.8759 27.039 59.3523 23.6731C57.8186 20.2846 56.0827 17.7976 54.3487 16.2107C52.6273 14.6355 51.147 14.1479 50.0012 14.1479Z" fill="#009990"/>
<path d="M37.038 64.3582C37.8893 68.899 39.1264 72.9623 40.65 76.3283C42.1837 79.7167 43.9196 82.2037 45.6537 83.7906C47.375 85.3658 48.8553 85.8534 50.0012 85.8534C51.147 85.8534 52.6273 85.3658 54.3487 83.7906C56.0827 82.2037 57.8186 79.7167 59.3523 76.3283C60.8759 72.9623 62.113 68.899 62.9643 64.3582C63.6348 60.7822 64.0507 56.9916 64.1967 53.1257H35.8057C35.9516 56.9916 36.3675 60.7822 37.038 64.3582Z" fill="#009990"/>
</svg>
