<svg width="100" height="100" viewBox="0 0 100 100" fill="none" xmlns="http://www.w3.org/2000/svg">
<path opacity="0.5" d="M81.2503 31.2499C81.2503 37.0029 76.5866 41.6666 70.8337 41.6666C65.0807 41.6666 60.417 37.0029 60.417 31.2499C60.417 25.497 65.0807 20.8333 70.8337 20.8333C76.5866 20.8333 81.2503 25.497 81.2503 31.2499Z" fill="#009990"/>
<path opacity="0.5" d="M18.7497 31.2499C18.7497 37.0029 23.4134 41.6666 29.1663 41.6666C34.9193 41.6666 39.583 37.0029 39.583 31.2499C39.583 25.497 34.9193 20.8333 29.1663 20.8333C23.4134 20.8333 18.7497 25.497 18.7497 31.2499Z" fill="#009990"/>
<path opacity="0.5" d="M91.6663 68.7499C91.6663 74.5029 84.2044 79.1666 74.9997 79.1666C65.7949 79.1666 58.333 74.5029 58.333 68.7499C58.333 62.997 65.7949 58.3333 74.9997 58.3333C84.2044 58.3333 91.6663 62.997 91.6663 68.7499Z" fill="#009990"/>
<path opacity="0.5" d="M8.33366 68.7499C8.33366 74.5029 15.7956 79.1666 25.0003 79.1666C34.2051 79.1666 41.667 74.5029 41.667 68.7499C41.667 62.997 34.2051 58.3333 25.0003 58.3333C15.7956 58.3333 8.33366 62.997 8.33366 68.7499Z" fill="#009990"/>
<path d="M64.5837 31.2501C64.5837 39.3042 58.0545 45.8334 50.0003 45.8334C41.9462 45.8334 35.417 39.3042 35.417 31.2501C35.417 23.1959 41.9462 16.6667 50.0003 16.6667C58.0545 16.6667 64.5837 23.1959 64.5837 31.2501Z" fill="#1C84CF"/>
<path d="M75 68.7501C75 76.8042 63.8071 83.3334 50 83.3334C36.1929 83.3334 25 76.8042 25 68.7501C25 60.6959 36.1929 54.1667 50 54.1667C63.8071 54.1667 75 60.6959 75 68.7501Z" fill="#1C84CF"/>
</svg>
