<svg width="100" height="100" viewBox="0 0 100 100" fill="none" xmlns="http://www.w3.org/2000/svg">
<circle cx="41.6667" cy="28.1249" r="16.6667" fill="#1C84CF"/>
<ellipse opacity="0.5" cx="41.6667" cy="73.9584" rx="29.1667" ry="16.6667" fill="#009990"/>
<path fill-rule="evenodd" clip-rule="evenodd" d="M76.4874 9.85093C77.3753 8.37099 79.2949 7.8911 80.7748 8.77906L79.167 11.4587C80.7748 8.77906 80.7734 8.77821 80.7748 8.77906L80.7806 8.78253L80.7872 8.7865L80.8026 8.79589L80.8426 8.82055C80.8732 8.83961 80.9117 8.86394 80.9575 8.8936C81.0492 8.9529 81.1705 9.03362 81.3172 9.13625C81.6101 9.34134 82.0059 9.6351 82.4697 10.0216C83.3951 10.7928 84.6054 11.9448 85.8106 13.5117C88.2393 16.6689 90.6254 21.4893 90.6254 28.1254C90.6254 34.7615 88.2393 39.5818 85.8106 42.7391C84.6054 44.3059 83.3951 45.458 82.4697 46.2292C82.0059 46.6157 81.6101 46.9094 81.3172 47.1145C81.1705 47.2172 81.0492 47.2979 80.9575 47.3572C80.9117 47.3868 80.8732 47.4112 80.8426 47.4302L80.8026 47.4549L80.7872 47.4643L80.7806 47.4683C80.7792 47.4691 80.7748 47.4717 79.167 44.7921L80.7748 47.4717C79.2949 48.3597 77.3753 47.8798 76.4874 46.3999C75.6031 44.9262 76.0753 43.0165 77.5406 42.1237L77.5637 42.1089C77.5941 42.0893 77.6518 42.0512 77.733 41.9943C77.8958 41.8804 78.1511 41.6924 78.4685 41.4278C79.1056 40.8969 79.9787 40.0698 80.8567 38.9284C82.5948 36.6689 84.3754 33.156 84.3754 28.1254C84.3754 23.0948 82.5948 19.5818 80.8567 17.3224C79.9787 16.1809 79.1056 15.3538 78.4685 14.823C78.1511 14.5584 77.8958 14.3704 77.733 14.2565C77.6518 14.1996 77.5941 14.1615 77.5637 14.1419L77.5406 14.1271C76.0753 13.2343 75.6031 11.3246 76.4874 9.85093Z" fill="#1C84CF"/>
<path fill-rule="evenodd" clip-rule="evenodd" d="M68.0386 18.3945C68.8104 16.8508 70.6876 16.2251 72.2312 16.997L70.8337 19.7921C72.2312 16.997 72.2296 16.9961 72.2312 16.997L72.238 17.0004L72.2452 17.004L72.2607 17.0119L72.2965 17.0304L72.3865 17.0788C72.4543 17.1161 72.5378 17.1638 72.6345 17.2226C72.8278 17.3399 73.0758 17.5023 73.3597 17.7152C73.9261 18.14 74.6466 18.7745 75.3572 19.6628C76.8102 21.479 78.1254 24.2413 78.1254 28.1254C78.1254 32.0095 76.8102 34.7717 75.3572 36.588C74.6466 37.4763 73.9261 38.1108 73.3597 38.5355C73.0758 38.7485 72.8278 38.9109 72.6345 39.0282C72.5378 39.087 72.4543 39.1347 72.3865 39.172L72.2965 39.2203L72.2607 39.2389L72.2452 39.2468L72.238 39.2504C72.2363 39.2513 72.2313 39.2538 70.8598 36.511L72.2312 39.2538C70.6876 40.0257 68.8104 39.4 68.0386 37.8563C67.2764 36.3318 67.8771 34.4822 69.3789 33.693C69.382 33.6912 69.386 33.6888 69.3909 33.6858C69.4256 33.6648 69.503 33.6156 69.6097 33.5355C69.8246 33.3744 70.1458 33.0974 70.4768 32.6836C71.1072 31.8957 71.8754 30.4913 71.8754 28.1254C71.8754 25.7595 71.1072 24.3551 70.4768 23.5671C70.1458 23.1534 69.8246 22.8764 69.6097 22.7152C69.503 22.6352 69.4256 22.586 69.3909 22.565C69.386 22.562 69.382 22.5596 69.3789 22.5578C67.8771 21.7686 67.2764 19.919 68.0386 18.3945Z" fill="#1C84CF"/>
</svg>
