<svg width="100" height="100" viewBox="0 0 100 100" fill="none" xmlns="http://www.w3.org/2000/svg">
<path opacity="0.7" d="M49.9997 66.9491L34.2853 83.2199L34.2853 83.2199C32.0348 85.55 30.9095 86.7151 29.9566 87.1183C27.7852 88.037 25.3764 87.2508 24.2342 85.2504C23.7329 84.3726 23.5767 82.7892 23.2643 79.6225C23.0879 77.8346 22.9997 76.9406 22.732 76.1918C22.1326 74.5155 20.8733 73.2116 19.2543 72.591C18.5311 72.3138 17.6677 72.2225 15.941 72.0399L15.9409 72.0399C12.8825 71.7164 11.3532 71.5546 10.5054 71.0356C8.5735 69.8529 7.81416 67.3589 8.70146 65.1106C9.09085 64.1239 10.2161 62.9588 12.4666 60.6286L22.732 49.9998L27.8912 44.8406L49.9997 66.9491L72.1082 44.8406L77.2674 49.9998L87.5328 60.6286C89.7833 62.9588 90.9085 64.1239 91.2979 65.1106C92.1852 67.3589 91.4259 69.8529 89.4939 71.0356C88.6461 71.5547 87.1169 71.7164 84.0585 72.0399C82.3317 72.2225 81.4682 72.3138 80.7451 72.591C79.1261 73.2116 77.8667 74.5155 77.2674 76.1918C76.9997 76.9406 76.9115 77.8345 76.7351 79.6224V79.6225C76.4227 82.7892 76.2665 84.3726 75.7652 85.2504C74.6229 87.2508 72.2142 88.037 70.0427 87.1183C69.0898 86.7151 67.9646 85.55 65.7141 83.2199L49.9997 66.9491Z" fill="#009990"/>
<path fill-rule="evenodd" clip-rule="evenodd" d="M49.9997 66.6666C66.108 66.6666 79.1663 53.6082 79.1663 37.4999C79.1663 21.3916 66.108 8.33325 49.9997 8.33325C33.8914 8.33325 20.833 21.3916 20.833 37.4999C20.833 53.6082 33.8914 66.6666 49.9997 66.6666ZM49.9997 24.9999C48.8161 24.9999 48.0244 26.4201 46.4411 29.2604L46.0315 29.9952C45.5816 30.8023 45.3566 31.2059 45.0059 31.4722C44.6551 31.7385 44.2182 31.8373 43.3445 32.035L42.5491 32.215C39.4745 32.9106 37.9372 33.2584 37.5714 34.4346C37.2057 35.6107 38.2537 36.8363 40.3498 39.2873L40.8921 39.9214C41.4877 40.618 41.7855 40.9662 41.9195 41.3971C42.0535 41.8279 42.0085 42.2926 41.9184 43.2219L41.8364 44.0679C41.5195 47.3382 41.3611 48.9733 42.3186 49.7002C43.2761 50.4271 44.7155 49.7643 47.5943 48.4389L48.339 48.096C49.1571 47.7193 49.5661 47.531 49.9997 47.531C50.4332 47.531 50.8423 47.7193 51.6603 48.096L52.4051 48.4389C55.2838 49.7643 56.7232 50.4271 57.6807 49.7002C58.6383 48.9733 58.4798 47.3382 58.1629 44.0679L58.0809 43.2219C57.9909 42.2926 57.9459 41.8279 58.0798 41.3971C58.2138 40.9662 58.5116 40.618 59.1072 39.9215L59.6496 39.2873C61.7456 36.8363 62.7936 35.6107 62.4279 34.4346C62.0622 33.2584 60.5249 32.9106 57.4502 32.215L56.6548 32.035C55.7811 31.8373 55.3443 31.7385 54.9935 31.4722C54.6427 31.2059 54.4178 30.8023 53.9678 29.9952L53.5582 29.2604C51.9749 26.4201 51.1833 24.9999 49.9997 24.9999Z" fill="#1C84CF"/>
</svg>
