<svg width="18" height="19" viewBox="0 0 18 19" fill="none" xmlns="http://www.w3.org/2000/svg">
<path d="M16.0939 2.40608C13.6358 -0.0520278 9.65037 -0.0520278 7.19226 2.40608L6.53148 3.06686C6.263 3.33535 6.263 3.77065 6.53148 4.03913C6.79997 4.30762 7.23527 4.30762 7.50375 4.03913L8.16453 3.37836C10.0857 1.45722 13.2005 1.45722 15.1216 3.37836C17.0427 5.2995 17.0427 8.41428 15.1216 10.3354L14.4608 10.9962C14.1923 11.2647 14.1923 11.7 14.4608 11.9685C14.7293 12.237 15.1646 12.237 15.4331 11.9685L16.0939 11.3077C18.552 8.84958 18.552 4.86419 16.0939 2.40608Z" fill="#009990"/>
<path d="M3.53913 7.03148C3.80762 7.29997 3.80762 7.73527 3.53913 8.00375L2.87836 8.66453C0.957215 10.5857 0.957215 13.7005 2.87836 15.6216C4.7995 17.5427 7.91428 17.5427 9.83542 15.6216L10.4962 14.9608C10.7647 14.6923 11.2 14.6923 11.4685 14.9608C11.737 15.2293 11.737 15.6646 11.4685 15.9331L10.8077 16.5939C8.34958 19.052 4.36419 19.052 1.90608 16.5939C-0.552028 14.1358 -0.552028 10.1504 1.90608 7.69226L2.56686 7.03148C2.83535 6.763 3.27065 6.763 3.53913 7.03148Z" fill="#009990"/>
<path d="M11.4684 7.03148C11.7369 7.29997 11.7369 7.73527 11.4684 8.00375L7.50375 11.9684C7.23527 12.2369 6.79997 12.2369 6.53148 11.9684C6.263 11.6999 6.263 11.2646 6.53148 10.9962L10.4962 7.03148C10.7646 6.763 11.1999 6.763 11.4684 7.03148Z" fill="#009990"/>
</svg>
