<svg width="22" height="22" viewBox="0 0 22 22" fill="none" xmlns="http://www.w3.org/2000/svg">
<path fill-rule="evenodd" clip-rule="evenodd" d="M10.9993 1.83325C6.94926 1.83325 3.66602 5.50229 3.66602 9.62492C3.66602 13.7152 6.00656 18.1613 9.65833 19.8682C10.5096 20.2661 11.4891 20.2661 12.3404 19.8682C15.9921 18.1613 18.3327 13.7152 18.3327 9.62492C18.3327 5.50229 15.0494 1.83325 10.9993 1.83325ZM10.9993 10.9999C12.0119 10.9999 12.8327 10.1791 12.8327 9.16659C12.8327 8.15406 12.0119 7.33325 10.9993 7.33325C9.98683 7.33325 9.16602 8.15406 9.16602 9.16659C9.16602 10.1791 9.98683 10.9999 10.9993 10.9999Z" fill="#1C84CF"/>
</svg>
