<svg width="20" height="20" viewBox="0 0 20 20" fill="none" xmlns="http://www.w3.org/2000/svg">
<path d="M14.1673 5C12.789 5 11.6673 3.87833 11.6673 2.5C11.6673 1.12167 12.789 0 14.1673 0C15.5457 0 16.6673 1.12167 16.6673 2.5C16.6673 3.87833 15.5457 5 14.1673 5ZM14.1673 20C12.789 20 11.6673 18.8783 11.6673 17.5C11.6673 16.1217 12.789 15 14.1673 15C15.5457 15 16.6673 16.1217 16.6673 17.5C16.6673 18.8783 15.5457 20 14.1673 20ZM14.1673 12.5C12.789 12.5 11.6673 11.3783 11.6673 10C11.6673 8.62167 12.789 7.5 14.1673 7.5C15.5457 7.5 16.6673 8.62167 16.6673 10C16.6673 11.3783 15.5457 12.5 14.1673 12.5ZM5.83398 5C4.45565 5 3.33398 3.87833 3.33398 2.5C3.33398 1.12167 4.45565 0 5.83398 0C7.21232 0 8.33398 1.12167 8.33398 2.5C8.33398 3.87833 7.21232 5 5.83398 5ZM5.83398 20C4.45565 20 3.33398 18.8783 3.33398 17.5C3.33398 16.1217 4.45565 15 5.83398 15C7.21232 15 8.33398 16.1217 8.33398 17.5C8.33398 18.8783 7.21232 20 5.83398 20ZM5.83398 12.5C4.45565 12.5 3.33398 11.3783 3.33398 10C3.33398 8.62167 4.45565 7.5 5.83398 7.5C7.21232 7.5 8.33398 8.62167 8.33398 10C8.33398 11.3783 7.21232 12.5 5.83398 12.5Z" fill="#0B2556"/>
</svg>
