<svg width="70" height="70" viewBox="0 0 70 70" fill="none" xmlns="http://www.w3.org/2000/svg">
<path opacity="0.5" d="M5.83398 34.9998C5.83398 39.7814 7.07346 41.3916 9.55242 44.6122C14.5022 51.0428 22.8035 58.3332 35.0006 58.3332C47.1978 58.3332 55.4991 51.0428 60.4489 44.6122C62.9278 41.3916 64.1673 39.7814 64.1673 34.9998C64.1673 30.2183 62.9278 28.608 60.4489 25.3875C55.4991 18.9569 47.1978 11.6665 35.0006 11.6665C22.8035 11.6665 14.5022 18.9569 9.55242 25.3875C7.07346 28.608 5.83398 30.2183 5.83398 34.9998Z" fill="#009990"/>
<path fill-rule="evenodd" clip-rule="evenodd" d="M24.0625 35C24.0625 28.9594 28.9594 24.0625 35 24.0625C41.0406 24.0625 45.9375 28.9594 45.9375 35C45.9375 41.0406 41.0406 45.9375 35 45.9375C28.9594 45.9375 24.0625 41.0406 24.0625 35ZM28.4375 35C28.4375 31.3756 31.3756 28.4375 35 28.4375C38.6244 28.4375 41.5625 31.3756 41.5625 35C41.5625 38.6244 38.6244 41.5625 35 41.5625C31.3756 41.5625 28.4375 38.6244 28.4375 35Z" fill="#009990"/>
</svg>
