<svg width="36" height="36" viewBox="0 0 36 36" fill="none" xmlns="http://www.w3.org/2000/svg">
<path fill-rule="evenodd" clip-rule="evenodd" d="M33 22.5V27C33 29.8284 33 31.2426 32.1213 32.1213C31.2426 33 29.8284 33 27 33C24.1716 33 22.7574 33 21.8787 32.1213C21 31.2426 21 29.8284 21 27V22.5C21 19.6716 21 18.2574 21.8787 17.3787C22.7574 16.5 24.1716 16.5 27 16.5C29.8284 16.5 31.2426 16.5 32.1213 17.3787C33 18.2574 33 19.6716 33 22.5ZM24.375 30C24.375 29.3787 24.8787 28.875 25.5 28.875H28.5C29.1213 28.875 29.625 29.3787 29.625 30C29.625 30.6213 29.1213 31.125 28.5 31.125H25.5C24.8787 31.125 24.375 30.6213 24.375 30Z" fill="#B7BBCB"/>
<path d="M11.9996 25.5C7.75696 25.5 5.63564 25.5 4.31762 24.182C3.46366 23.328 3.10586 22.1369 3 20.25V19.5H18.7743V20.25C18.7494 20.9048 18.7495 21.6174 18.7496 22.3658V27.1342C18.7494 28.4327 18.7493 29.6232 18.8795 30.5916C19.0229 31.6581 19.3602 32.7852 20.2873 33.7123L20.3254 33.75H11.9996C11.3783 33.75 10.8746 33.2463 10.8746 32.625C10.8746 32.0037 11.3783 31.5 11.9996 31.5H16.8746V25.5H11.9996Z" fill="#B7BBCB"/>
<path opacity="0.5" d="M15.0004 3H21.0004C26.6573 3 29.4857 3 31.2431 4.75736C33.0004 6.51472 33.0004 9.34315 33.0004 15V15.2075C32.238 14.7072 31.3977 14.4882 30.5921 14.3799C29.6236 14.2497 28.4331 14.2498 27.1347 14.25H26.8662C25.5678 14.2498 24.3772 14.2497 23.4088 14.3799C22.3424 14.5233 21.2152 14.8606 20.2881 15.7877C19.4068 16.669 19.0585 17.7311 18.903 18.75V19.5H3.00044L3.00049 18.75C2.99071 18.0742 3.00044 17.3274 3.00044 16.5V15C3.00044 9.34315 3.00044 6.51472 4.7578 4.75736C6.51516 3 9.34359 3 15.0004 3Z" fill="#B7BBCB"/>
</svg>
