<svg width="170" height="167" viewBox="0 0 170 167" fill="none" xmlns="http://www.w3.org/2000/svg">
<path d="M30.3594 142.842C34.2752 143.59 38.4305 142.789 42.7289 140.457C47.028 142.789 51.1825 143.59 55.0984 142.842C55.0472 150.696 50.8862 157.006 42.7289 161.604C34.5723 157.007 30.4114 150.696 30.3594 142.842ZM15.4942 139.877C18.9587 141.268 22.3967 141.816 25.7402 141.51C25.7001 142.096 25.6797 142.678 25.6797 143.249C25.6797 146.012 26.1615 148.681 27.1152 151.203C20.3237 149.96 16.5063 146.24 15.4942 139.877ZM47.3777 137.531C48.7238 136.213 49.7163 134.458 50.3355 132.298C52.2488 131.848 54.0359 130.822 55.6624 129.242C56.3572 130.984 56.7081 132.636 56.7081 134.162C56.7081 135.412 56.4734 136.622 56.0076 137.762C53.1439 138.869 50.3078 138.794 47.3777 137.531ZM29.4498 137.762C28.9843 136.622 28.7496 135.412 28.7496 134.162C28.7496 132.636 29.1001 130.984 29.7955 129.242C31.4228 130.822 33.2098 131.848 35.1219 132.298C35.7411 134.458 36.7336 136.213 38.0801 137.531C35.1495 138.794 32.3134 138.869 29.4498 137.762ZM5.79452 124.622C10.8166 116.206 16.9237 112.168 24.4342 112.302C24.2587 113.274 24.1694 114.252 24.1694 115.218C24.1694 118.358 25.0666 121.438 26.9093 124.622C25.0666 127.807 24.1694 130.887 24.1694 134.027C24.1694 134.992 24.2587 135.971 24.4342 136.943C16.9244 137.077 10.8166 133.038 5.79452 124.622ZM29.4498 111.483C32.3135 110.375 35.1495 110.449 38.0801 111.715C36.7336 113.032 35.7411 114.786 35.1219 116.947C33.2098 117.397 31.4228 118.422 29.7955 120.003C29.1001 118.26 28.7496 116.609 28.7496 115.083C28.7496 113.833 28.9843 112.623 29.4498 111.483ZM59.7172 107.734C59.7572 107.148 59.7777 106.565 59.7777 105.994C59.7777 103.231 59.2958 100.562 58.3423 98.0419C65.135 99.2846 68.9514 103.003 69.9631 109.368C66.4987 107.977 63.0611 107.429 59.7172 107.734ZM27.1152 98.0419C26.1615 100.563 25.6797 103.232 25.6797 105.995C25.6797 106.566 25.7001 107.149 25.7402 107.734C22.3967 107.429 18.9587 107.977 15.4942 109.368C16.5063 103.003 20.3224 99.2846 27.1152 98.0419ZM15.1353 83.6782C15.1786 79.7594 16.7523 75.7648 19.8322 71.7968C22.8897 73.3583 26.2048 74.1684 29.7001 74.2073C33.0909 78.6828 36.6559 81.7967 40.5429 83.6782C36.6559 85.5596 33.0909 88.6746 29.7001 93.1491C26.2048 93.189 22.8897 93.9991 19.8322 95.5596C16.7523 91.5916 15.1786 87.598 15.1353 83.6782ZM15.4942 57.9888C18.9587 59.3801 22.3967 59.9287 25.7402 59.6231C25.7001 60.2076 25.6797 60.79 25.6797 61.3611C25.6797 64.1243 26.1615 66.7943 27.1152 69.3155C20.3237 68.0718 16.5063 64.3529 15.4942 57.9888ZM47.3777 55.6429C48.7238 54.3243 49.7163 52.571 50.3355 50.4106C52.2488 49.9595 54.0359 48.9342 55.6624 47.3541C56.3572 49.0962 56.7081 50.7479 56.7081 52.2736C56.7081 53.5235 56.4734 54.7334 56.0076 55.8736C53.1439 56.9819 50.3078 56.9071 47.3777 55.6429ZM29.4498 55.8736C28.9843 54.7334 28.7496 53.5235 28.7496 52.2736C28.7496 50.7479 29.1001 49.0962 29.7955 47.3541C31.4228 48.9342 33.2098 49.9605 35.1219 50.4106C35.7411 52.571 36.7336 54.3243 38.0801 55.6429C35.1495 56.9071 32.3135 56.9819 29.4498 55.8736ZM5.79452 42.7341C10.8166 34.3183 16.9237 30.2795 24.4342 30.4138C24.2587 31.3868 24.1694 32.364 24.1694 33.3298C24.1694 36.4694 25.0666 39.5505 26.9093 42.7341C25.0666 45.9187 24.1694 48.9998 24.1694 52.1393C24.1694 53.1052 24.2587 54.0823 24.4342 55.0543C16.9244 55.1886 10.8166 51.1509 5.79452 42.7341ZM29.4498 29.5956C32.3135 28.4872 35.1495 28.5621 38.0801 29.8263C36.7336 31.1449 35.7411 32.8981 35.1219 35.0585C33.2098 35.5086 31.4228 36.5339 29.7955 38.115C29.1001 36.3719 28.7496 34.7212 28.7496 33.1955C28.7496 31.9446 28.9843 30.7358 29.4498 29.5956ZM59.7172 25.846C59.7572 25.2605 59.7777 24.6771 59.7777 24.106C59.7777 21.3438 59.2958 18.6739 58.3423 16.1537C65.135 17.3974 68.9514 21.1152 69.9631 27.4793C66.4987 26.089 63.0611 25.5404 59.7172 25.846ZM27.1152 16.1537C26.1615 18.6749 25.6797 21.3449 25.6797 24.1071C25.6797 24.6782 25.7001 25.2605 25.7402 25.846C22.3967 25.5404 18.9587 26.089 15.4942 27.4793C16.5063 21.1152 20.3224 17.3974 27.1152 16.1537ZM42.7289 5.75281C50.8862 10.3503 55.0472 16.6612 55.0984 24.5141C51.1825 23.7667 47.028 24.5674 42.7289 26.9C38.4305 24.5674 34.2752 23.7667 30.3594 24.5141C30.4114 16.6602 34.5723 10.3503 42.7289 5.75281ZM56.0076 29.5956C56.4734 30.7358 56.7081 31.9446 56.7081 33.1955C56.7081 34.7212 56.3572 36.3719 55.6624 38.115C54.0359 36.5339 52.2488 35.5086 50.3355 35.0585C49.7163 32.8981 48.7238 31.1449 47.3777 29.8263C50.3078 28.5621 53.1439 28.4872 56.0076 29.5956ZM46.3624 46.9061C45.7884 50.2199 44.5981 52.3136 42.7289 53.2918C40.8597 52.3136 39.6693 50.2199 39.095 46.9061L38.9977 46.3442L38.4278 46.3165C35.4675 46.171 33.3985 44.998 32.1176 42.7341C33.3985 40.4702 35.4675 39.2972 38.4278 39.1526L38.9977 39.1249L39.095 38.5631C39.6693 35.2492 40.8597 33.1555 42.7289 32.1773C44.5981 33.1555 45.7884 35.2492 46.3624 38.5631L46.4601 39.1249L47.03 39.1526C49.991 39.2972 52.0593 40.4702 53.3409 42.7341C52.0593 44.998 49.991 46.171 47.03 46.3165L46.4601 46.3442L46.3624 46.9061ZM79.6629 42.7341C74.6409 51.1509 68.5341 55.1886 61.0245 55.0543C61.1999 54.0823 61.288 53.1052 61.288 52.1403C61.288 49.0008 60.3921 45.9198 58.5497 42.7341C60.3921 39.5494 61.288 36.4683 61.288 33.3288C61.288 32.3629 61.1999 31.3868 61.0245 30.4138C68.5341 30.2795 74.6409 34.3183 79.6629 42.7341ZM109.074 30.4138C108.898 31.3868 108.809 32.364 108.809 33.3298C108.809 36.4694 109.706 39.5505 111.549 42.7341C109.706 45.9187 108.809 48.9998 108.809 52.1394C108.809 53.1052 108.898 54.0823 109.074 55.0543C101.564 55.1886 95.4568 51.1509 90.4348 42.7341C95.456 34.3183 101.564 30.2795 109.074 30.4138ZM114.089 29.5956C116.954 28.4872 119.79 28.5621 122.72 29.8263C121.374 31.1449 120.381 32.8982 119.762 35.0585C117.849 35.5086 116.063 36.5339 114.435 38.115C113.74 36.3719 113.39 34.7212 113.39 33.1955C113.39 31.9446 113.625 30.7358 114.089 29.5956ZM144.356 25.846C144.398 25.2605 144.418 24.6772 144.418 24.106C144.418 21.3438 143.936 18.6739 142.983 16.1537C149.775 17.3974 153.592 21.1152 154.604 27.4793C151.138 26.089 147.7 25.5404 144.356 25.846ZM111.754 16.1537C110.802 18.6749 110.319 21.3449 110.319 24.1071C110.319 24.6782 110.34 25.2605 110.38 25.846C107.037 25.5404 103.599 26.089 100.133 27.4793C101.146 21.1152 104.963 17.3974 111.754 16.1537ZM127.369 5.75281C135.526 10.3503 139.687 16.6612 139.738 24.5141C135.822 23.7667 131.667 24.5674 127.369 26.9C123.07 24.5674 118.915 23.7667 114.998 24.5141C115.051 16.6602 119.213 10.3503 127.369 5.75281ZM140.648 29.5956C141.113 30.7358 141.348 31.9446 141.348 33.1955C141.348 34.7212 140.997 36.3719 140.302 38.115C138.675 36.5339 136.889 35.5086 134.975 35.0585C134.356 32.8982 133.364 31.1449 132.017 29.8263C134.947 28.5621 137.783 28.4872 140.648 29.5956ZM164.303 42.7341C159.28 51.1509 153.174 55.1886 145.664 55.0543C145.84 54.0823 145.928 53.1052 145.928 52.1404C145.928 49.0008 145.031 45.9198 143.189 42.7341C145.031 39.5494 145.928 36.4683 145.928 33.3288C145.928 32.3629 145.84 31.3869 145.664 30.4138C153.174 30.2795 159.281 34.3183 164.303 42.7341ZM140.648 55.8736C137.783 56.9819 134.947 56.9071 132.017 55.6429C133.364 54.3243 134.356 52.571 134.975 50.4106C136.889 49.9595 138.675 48.9342 140.302 47.3541C140.997 49.0962 141.348 50.748 141.348 52.2736C141.348 53.5235 141.113 54.7334 140.648 55.8736ZM110.38 59.6231C110.34 60.2076 110.319 60.79 110.319 61.3611C110.319 64.1243 110.802 66.7943 111.754 69.3155C104.963 68.0718 101.146 64.3529 100.133 57.9888C103.599 59.3801 107.037 59.9287 110.38 59.6231ZM142.983 69.3155C143.936 66.7943 144.418 64.1253 144.418 61.3621C144.418 60.791 144.398 60.2086 144.356 59.6231C147.7 59.9287 151.138 59.3801 154.604 57.9888C153.592 64.353 149.774 68.0718 142.983 69.3155ZM154.962 83.6782C154.92 87.5969 153.345 91.5906 150.265 95.5596C147.208 93.9991 143.893 93.1891 140.398 93.1491C137.007 88.6746 133.441 85.5596 129.555 83.6782C133.441 81.7967 137.007 78.6828 140.398 74.2073C143.893 74.1684 147.208 73.3583 150.265 71.7968C153.345 75.7658 154.92 79.7594 154.962 83.6782ZM154.604 109.368C151.138 107.977 147.7 107.429 144.356 107.734C144.398 107.148 144.418 106.565 144.418 105.994C144.418 103.231 143.936 100.562 142.983 98.0419C149.775 99.2846 153.592 103.003 154.604 109.368ZM122.72 111.715C121.374 113.032 120.381 114.786 119.762 116.947C117.849 117.397 116.063 118.422 114.435 120.003C113.74 118.26 113.39 116.609 113.39 115.083C113.39 113.833 113.625 112.623 114.089 111.483C116.954 110.375 119.79 110.449 122.72 111.715ZM140.648 111.483C141.113 112.623 141.348 113.833 141.348 115.083C141.348 116.609 140.997 118.26 140.302 120.002C138.675 118.422 136.889 117.397 134.975 116.947C134.356 114.786 133.364 113.032 132.017 111.715C134.947 110.449 137.783 110.375 140.648 111.483ZM164.303 124.622C159.28 133.038 153.174 137.077 145.664 136.943C145.84 135.971 145.928 134.993 145.928 134.028C145.928 130.888 145.031 127.808 143.189 124.622C145.031 121.437 145.928 118.357 145.928 115.216C145.928 114.251 145.84 113.274 145.664 112.302C153.174 112.168 159.281 116.206 164.303 124.622ZM140.648 137.762C137.783 138.869 134.947 138.794 132.017 137.531C133.364 136.213 134.356 134.458 134.975 132.298C136.889 131.848 138.675 130.822 140.302 129.242C140.997 130.984 141.348 132.636 141.348 134.162C141.348 135.412 141.113 136.622 140.648 137.762ZM110.38 141.51C110.34 142.096 110.319 142.678 110.319 143.249C110.319 146.012 110.802 148.681 111.754 151.203C104.963 149.96 101.146 146.24 100.133 139.877C103.599 141.268 107.037 141.816 110.38 141.51ZM142.983 151.203C143.936 148.683 144.418 146.014 144.418 143.25C144.418 142.679 144.398 142.096 144.356 141.51C147.7 141.816 151.138 141.268 154.604 139.877C153.592 146.24 149.774 149.96 142.983 151.203ZM127.369 161.604C119.213 157.007 115.051 150.696 114.998 142.842C118.915 143.59 123.07 142.789 127.369 140.457C131.667 142.789 135.822 143.59 139.738 142.842C139.687 150.696 135.526 157.006 127.369 161.604ZM114.089 137.762C113.625 136.622 113.39 135.412 113.39 134.162C113.39 132.636 113.74 130.984 114.435 129.242C116.063 130.822 117.849 131.848 119.762 132.298C120.381 134.458 121.374 136.213 122.72 137.531C119.79 138.794 116.954 138.869 114.089 137.762ZM123.734 120.451C124.308 117.136 125.499 115.044 127.369 114.065C129.238 115.044 130.429 117.136 131.003 120.451L131.1 121.012L131.669 121.041C134.63 121.185 136.698 122.358 137.98 124.622C136.698 126.886 134.63 128.059 131.669 128.204L131.1 128.232L131.003 128.793C130.429 132.108 129.238 134.202 127.369 135.18C125.499 134.202 124.308 132.108 123.734 128.793L123.637 128.232L123.068 128.204C120.107 128.059 118.039 126.886 116.757 124.622C118.039 122.358 120.107 121.185 123.068 121.041L123.637 121.012L123.734 120.451ZM90.4348 124.622C95.456 116.206 101.564 112.168 109.074 112.302C108.898 113.274 108.809 114.252 108.809 115.218C108.809 118.358 109.706 121.438 111.549 124.622C109.706 127.807 108.809 130.887 108.809 134.027C108.809 134.992 108.898 135.971 109.074 136.943C101.564 137.077 95.4568 133.038 90.4348 124.622ZM46.3624 120.451L46.4601 121.012L47.03 121.041C49.991 121.185 52.0593 122.358 53.3409 124.622C52.0593 126.886 49.991 128.059 47.03 128.204L46.4601 128.232L46.3624 128.793C45.7884 132.108 44.5981 134.202 42.7289 135.18C40.8597 134.202 39.6693 132.108 39.095 128.793L38.9977 128.232L38.4277 128.204C35.4675 128.059 33.3984 126.886 32.1176 124.622C33.3984 122.358 35.4675 121.185 38.4277 121.041L38.9977 121.012L39.095 120.451C39.6693 117.136 40.8597 115.044 42.7289 114.065C44.5981 115.044 45.7884 117.136 46.3624 120.451ZM56.0076 111.483C56.4734 112.623 56.7081 113.833 56.7081 115.083C56.7081 116.609 56.3572 118.26 55.6624 120.002C54.0359 118.422 52.2488 117.397 50.3355 116.947C49.7163 114.786 48.7238 113.032 47.3777 111.715C50.3078 110.449 53.1439 110.375 56.0076 111.483ZM100.133 109.368C101.146 103.003 104.963 99.2846 111.754 98.0419C110.802 100.563 110.319 103.232 110.319 105.995C110.319 106.566 110.34 107.149 110.38 107.734C107.037 107.429 103.599 107.977 100.133 109.368ZM127.369 108.787C123.07 106.456 118.915 105.655 114.998 106.402C115.051 98.5484 119.213 92.2386 127.369 87.64C135.526 92.2386 139.687 98.5495 139.738 106.402C135.822 105.655 131.667 106.456 127.369 108.787ZM114.34 74.2073C117.73 78.6828 121.296 81.7967 125.182 83.6782C121.296 85.5596 117.73 88.6746 114.34 93.1491C110.844 93.1891 107.529 93.9991 104.473 95.5596C101.392 91.5916 99.8176 87.598 99.7756 83.6782C99.8176 79.7594 101.392 75.7648 104.473 71.7968C107.529 73.3583 110.845 74.1684 114.34 74.2073ZM127.369 58.5691C131.667 60.9017 135.822 61.7015 139.738 60.954C139.687 68.808 135.526 75.1188 127.369 79.7164C119.213 75.1188 115.051 68.809 114.998 60.954C118.915 61.7015 123.07 60.9017 127.369 58.5691ZM123.734 46.9061L123.637 46.3442L123.068 46.3166C120.107 46.171 118.039 44.998 116.757 42.7341C118.039 40.4702 120.107 39.2972 123.068 39.1526L123.637 39.1249L123.734 38.5631C124.308 35.2492 125.499 33.1555 127.369 32.1773C129.238 33.1555 130.429 35.2492 131.003 38.5631L131.1 39.1249L131.669 39.1526C134.63 39.2972 136.698 40.4702 137.98 42.7341C136.698 44.998 134.63 46.171 131.669 46.3166L131.1 46.3442L131.003 46.9061C130.429 50.2199 129.238 52.3136 127.369 53.2918C125.499 52.3136 124.308 50.2199 123.734 46.9061ZM119.762 50.4106C120.381 52.571 121.374 54.3243 122.72 55.6429C119.79 56.9071 116.954 56.9819 114.089 55.8736C113.625 54.7334 113.39 53.5235 113.39 52.2736C113.39 50.7479 113.74 49.0962 114.435 47.3541C116.063 48.9342 117.849 49.9605 119.762 50.4106ZM84.3201 95.0695L85.0386 95.0767L85.0386 90.1521L84.3209 90.1572C81.8016 90.1766 76.7255 91.0472 72.3286 93.2311C73.5358 90.8196 74.8346 87.6165 75.1719 84.5528L75.2836 84.5528L75.2572 83.8156L75.2448 83.6782L75.2572 83.5408L75.2836 82.8036L75.1719 82.8036C74.8346 79.741 73.5358 76.5379 72.3286 74.1263C76.7255 76.3092 81.8016 77.1797 84.3209 77.1992L85.0386 77.2043L85.0386 72.2797L84.3201 72.2869C79.7675 72.332 75.1843 70.7335 70.6861 67.5335C73.1304 64.3068 74.5587 60.1512 74.9352 55.1661C79.6341 51.1827 82.9174 47.2168 84.9657 43.0488L85.049 42.8797L85.1319 43.0488C87.1805 47.2168 90.4628 51.1827 95.1628 55.1661C95.5389 60.1512 96.9672 64.3068 99.4116 67.5335C94.9133 70.7335 90.3314 72.332 85.778 72.2869L85.059 72.2797L85.059 77.2043L85.7759 77.1992C88.296 77.1797 93.3713 76.3092 97.769 74.1263C96.5634 76.5379 95.2629 79.7399 94.9257 82.8036L94.814 82.8036L94.8416 83.5408L94.8528 83.6782L94.8416 83.8156L94.814 84.5528L94.9257 84.5528C95.2629 87.6165 96.5634 90.8196 97.769 93.2311C93.3713 91.0472 88.296 90.1766 85.7759 90.1572L85.059 90.1521L85.059 95.0767L85.778 95.0695C90.3314 95.0244 94.9133 96.6228 99.4116 99.8229C96.9672 103.051 95.5389 107.206 95.1628 112.19C90.4628 116.174 87.1805 120.14 85.1319 124.309L85.049 124.478L84.9657 124.309C82.9174 120.141 79.6341 116.174 74.9352 112.19C74.5587 107.205 73.1304 103.05 70.6861 99.8229C75.1843 96.6228 79.7675 95.0244 84.3201 95.0695ZM69.9631 57.9888C68.9514 64.3529 65.1342 68.0718 58.3423 69.3155C59.2958 66.7943 59.7777 64.1253 59.7777 61.3621C59.7777 60.791 59.7572 60.2086 59.7172 59.6231C63.0611 59.9287 66.4987 59.3801 69.9631 57.9888ZM42.7289 58.5691C47.028 60.9017 51.1825 61.7015 55.0984 60.954C55.0472 68.808 50.8862 75.1188 42.7289 79.7164C34.5723 75.1188 30.4114 68.809 30.3594 60.954C34.2752 61.7015 38.4305 60.9017 42.7289 58.5691ZM55.7577 93.1491C52.3677 88.6746 48.8019 85.5596 44.915 83.6782C48.8007 81.7967 52.3677 78.6828 55.7577 74.2073C59.2529 74.1684 62.5688 73.3583 65.6252 71.7968C68.7052 75.7658 70.2804 79.7594 70.3224 83.6782C70.2804 87.5969 68.7052 91.5906 65.6252 95.5596C62.5688 93.9991 59.2538 93.1891 55.7577 93.1491ZM42.7289 108.787C38.4305 106.456 34.2752 105.655 30.3594 106.402C30.4114 98.5484 34.5723 92.2386 42.7289 87.64C50.8862 92.2386 55.0472 98.5495 55.0984 106.402C51.1825 105.655 47.028 106.456 42.7289 108.787ZM61.0245 136.943C61.1999 135.971 61.288 134.993 61.288 134.028C61.288 130.888 60.3921 127.808 58.5497 124.622C60.3921 121.437 61.288 118.357 61.288 115.216C61.288 114.251 61.1999 113.274 61.0245 112.302C68.5341 112.168 74.6408 116.206 79.6629 124.622C74.6408 133.038 68.5341 137.077 61.0245 136.943ZM58.3422 151.203C59.2958 148.682 59.7777 146.014 59.7777 143.25C59.7777 142.679 59.7572 142.096 59.7172 141.51C63.0611 141.816 66.4987 141.268 69.9631 139.877C68.9514 146.24 65.1342 149.96 58.3422 151.203ZM55.7577 156.096C59.2529 156.057 62.5688 155.247 65.6252 153.685C68.7484 157.708 70.3304 161.757 70.3304 165.729L70.3304 166.441L75.2836 166.441L75.2572 165.704C75.135 162.349 73.6687 158.692 72.3286 156.015C76.7255 158.197 81.8016 159.068 84.3209 159.087L85.0386 159.093L85.0386 154.167L84.3201 154.174C79.7674 154.22 75.1843 152.622 70.6861 149.422C73.1304 146.195 74.5587 142.039 74.9352 137.054C79.6341 133.07 82.9174 129.104 84.9657 124.936L85.049 124.767L85.1319 124.936C87.1805 129.105 90.4628 133.071 95.1628 137.054C95.5389 142.039 96.9672 146.194 99.4116 149.422C94.9133 152.622 90.3314 154.22 85.778 154.174L85.059 154.167L85.059 159.093L85.7759 159.087C88.296 159.068 93.3713 158.197 97.769 156.015C96.43 158.692 94.9626 162.349 94.8416 165.704L94.814 166.441L99.7674 166.441L99.7674 165.729C99.7674 161.757 101.349 157.708 104.473 153.685C107.529 155.247 110.845 156.057 114.34 156.096C118.287 161.305 122.47 164.675 127.122 166.397L127.369 166.488L127.615 166.397C132.267 164.676 136.45 161.305 140.398 156.096C143.893 156.057 147.208 155.247 150.265 153.685C153.389 157.708 154.971 161.757 154.971 165.729L154.971 166.441L159.924 166.441L159.896 165.704C159.774 162.349 158.308 158.692 156.969 156.015C161.365 158.197 166.442 159.068 168.961 159.087L169.679 159.093L169.679 154.167L168.96 154.174C164.407 154.22 159.824 152.622 155.325 149.422C157.771 146.195 159.198 142.039 159.575 137.054C164.274 133.07 167.557 129.104 169.605 124.936L169.76 124.622L169.605 124.309C167.557 120.141 164.274 116.174 159.575 112.19C159.198 107.205 157.771 103.05 155.325 99.8229C159.824 96.6228 164.407 95.0244 168.96 95.0695L169.679 95.0767L169.679 90.1521L168.961 90.1572C166.442 90.1767 161.365 91.0472 156.969 93.2311C158.175 90.8196 159.475 87.6165 159.812 84.5528L159.924 84.5528L159.896 83.8156L159.885 83.6782L159.896 83.5408L159.924 82.8036L159.812 82.8036C159.475 79.741 158.175 76.5379 156.969 74.1263C161.365 76.3092 166.442 77.1797 168.961 77.1992L169.679 77.2043L169.679 72.2797L168.96 72.2869C164.407 72.332 159.824 70.7335 155.325 67.5335C157.771 64.3068 159.198 60.1512 159.575 55.1661C164.274 51.1827 167.557 47.2168 169.605 43.0488L169.76 42.7341L169.605 42.4203C167.557 38.2524 164.274 34.2865 159.575 30.3021C159.198 25.318 157.771 21.1624 155.325 17.9347C159.824 14.7357 164.407 13.1372 168.96 13.1823L169.679 13.1895L169.679 8.26382L168.961 8.26998C166.442 8.28844 161.365 9.15995 156.969 11.3429C158.308 8.66472 159.774 5.00741 159.896 1.65358L159.924 0.915332L154.971 0.915332L154.971 1.62795C154.971 5.59902 153.389 9.648 150.265 13.6714C147.208 12.1108 143.893 11.3008 140.398 11.2619C136.45 6.0522 132.267 2.68095 127.615 0.959437L127.369 0.86817L127.122 0.959437C122.47 2.68095 118.287 6.0522 114.34 11.2619C110.844 11.3008 107.529 12.1108 104.473 13.6714C101.349 9.64903 99.7674 5.59901 99.7674 1.62795L99.7674 0.915329L94.814 0.915329L94.8416 1.65358C94.9626 5.00843 96.43 8.66472 97.769 11.3429C93.3713 9.15995 88.296 8.28843 85.7759 8.26998L85.059 8.26382L85.059 13.1895L85.778 13.1823C90.3314 13.1372 94.9133 14.7356 99.4116 17.9346C96.9672 21.1624 95.5389 25.318 95.1628 30.3021C90.4628 34.2854 87.1805 38.2524 85.1319 42.4203L85.049 42.5895L84.9657 42.4203C82.9174 38.2524 79.6341 34.2865 74.9352 30.3021C74.5587 25.318 73.1304 21.1624 70.6861 17.9346C75.1843 14.7356 79.7675 13.1372 84.3201 13.1823L85.0386 13.1895L85.0386 8.26382L84.3209 8.26998C81.8016 8.28843 76.7255 9.15995 72.3287 11.3429C73.6687 8.66472 75.1351 5.0074 75.2572 1.65358L75.2836 0.915328L70.3304 0.915328L70.3304 1.62795C70.3304 5.59901 68.7484 9.648 65.6252 13.6714C62.5688 12.1108 59.2538 11.3008 55.7577 11.2619C51.811 6.0522 47.6276 2.68095 42.976 0.959433L42.7289 0.868166L42.4818 0.959433C37.8298 2.68095 33.6464 6.0522 29.7001 11.2619C26.2048 11.3008 22.8897 12.1108 19.8322 13.6714C16.7102 9.64902 15.1273 5.59901 15.1273 1.62794L15.1273 0.915325L10.1749 0.915325L10.2014 1.65358C10.3224 5.00842 11.7898 8.66472 13.1288 11.3429C8.73231 9.15995 3.65577 8.28843 1.13652 8.26997L0.418798 8.26381L0.418798 13.1895L1.13772 13.1823C5.69119 13.1372 10.2743 14.7356 14.7712 17.9346C12.327 21.1624 10.8987 25.318 10.5234 30.3021C5.82335 34.2854 2.54153 38.2524 0.491687 42.4203L0.337889 42.7341L0.491687 43.0488C2.54153 47.2168 5.82335 51.1827 10.5234 55.1661C10.8987 60.1512 12.327 64.3068 14.7712 67.5335C10.2743 70.7335 5.69119 72.332 1.13772 72.2869L0.418795 72.2797L0.418795 77.2043L1.13652 77.1992C3.65576 77.1797 8.73231 76.3092 13.1288 74.1263C11.9232 76.5379 10.6227 79.7399 10.2855 82.8036L10.1749 82.8036L10.2014 83.5408L10.213 83.6782L10.2014 83.8156L10.1749 84.5528L10.2855 84.5528C10.6227 87.6164 11.9232 90.8196 13.1288 93.2311C8.73231 91.0472 3.65576 90.1766 1.13652 90.1572L0.418794 90.1521L0.418794 95.0767L1.13772 95.0695C5.69119 95.0244 10.2743 96.6228 14.7712 99.8229C12.327 103.051 10.8987 107.206 10.5234 112.19C5.82335 116.174 2.54153 120.14 0.491683 124.309L0.337885 124.622L0.491683 124.936C2.54152 129.105 5.82335 133.071 10.5234 137.054C10.8987 142.039 12.327 146.194 14.7712 149.422C10.2743 152.622 5.69118 154.22 1.13772 154.174L0.418792 154.167L0.418791 159.093L1.13652 159.087C3.65576 159.068 8.73231 158.197 13.1288 156.015C11.7898 158.692 10.3224 162.349 10.2014 165.704L10.1749 166.441L15.1273 166.441L15.1273 165.729C15.1273 161.757 16.7102 157.708 19.8322 153.685C22.8897 155.247 26.2048 156.057 29.7001 156.096C33.6464 161.305 37.8298 164.675 42.4818 166.397L42.7289 166.488L42.976 166.397C47.6268 164.676 51.811 161.305 55.7577 156.096Z" fill="#0B2556"/>
</svg>
