<svg width="150" height="300" viewBox="0 0 120 240" fill="none" xmlns="http://www.w3.org/2000/svg"><g opacity=".1" fill-rule="evenodd" clip-rule="evenodd" fill="#F6F7FB"><path d="M120 120.104h-5.927l-.104.104c-2.808 4.879-5.303 7.681-11.751 8.408-.415 3.839-4.052 7.99-7.898 8.512a16 16 0 0 0 .013-.693c.046-13.129-15.96-19.409-23.83-11.348-2.043 2.131-3.09 5.256-3.08 8.265-.015 3.77 1.627 7.379 5.055 8.655 7.383 2.803 10.399-2.283 10.399-5.916v-.104c0-3.218-4.16-9.759-7.071-4.776-.286.485-.414.961-.403 1.406-.03 1.224.982 2.229 2.69 2.539q.123.384.13.71c-.058 2.144-3.71 2.221-5.017-.295-.601-1.155-.894-2.125-.905-2.993.013-1.036.435-1.928 1.217-2.82 5.497-6.584 15.835-2.051 15.873 7.212a14.2 14.2 0 0 1-.587 3.895c-4.263 14.845-20.797 11.523-20.797 11.523s-2.496 3.114-3.432 3.737l.106.028-.106.076c11.335 3.01 25.997-.519 28.7-13.599 0 0 12.636-2.871 12.585-11.061l-.001-.092-.001-.058c4.65.844 8.613-4.352 11.777-8.499.727-.954 1.412-1.851 2.053-2.608zm-22.149 0h10.607a9 9 0 0 1-.254.402c-2.057 3.075-6.168 5.134-9.928 2.18.038.946.12 5.118-1.257 7.591l-.022-.053-.082.157c-2.018-4.874-5.137-6.656-7.391-7.944-1.347-.77-2.385-1.363-2.696-2.333h4.992c.312.52 1.56 2.284 3.015 2.284s2.808-1.764 3.016-2.284m-28.492 0h-.38l.172-.104h-5.615v.104l-.52 1.661s-1.872-.208-6.032 1.765c-4.159 2.076-6.135 7.578-6.135 7.578l.04-.001-.04.104 3.848-.103s2.495-3.115 5.199-4.36c2.064-.997 4.213-1.313 5.438-1.493.688-.102 1.084-.16 1.01-.272q-.013-.016-.023-.033.049-.032.022-.071c-.057-.076-.086-.193-.091-.341.022-.687.462-1.887 1.027-2.773.624-.934 1.664-1.557 2.08-1.661m-23.71 0h6.552l-.028.031-.004.005c-.447.498-5.37 5.985-5.271 5.985l-5.096.104.07-.108-.173.004zm32.029 37.267.056-.015q-.054-.09-.056-.089l4.575-1.246v.104l.039.454c.132 1.904.224 3.228.221 4.38.005 2.219-.33 3.763-1.387 7.459.884 2.314 1.789 3.945 2.583 5.377.975 1.759 1.784 3.217 2.184 5.271.329 1.704.442 3.245.439 4.739.003 1.688-.146 3.313-.304 5.041-.175 1.923-.363 3.973-.367 6.38.003 3.174.328 6.969 1.417 11.901l.27.278-.219-.049.011.049-.03-.029.03.133-.2-.194c-8.677-1.895-13.825-1.427-18.287-1.02-3.23.294-6.101.555-9.693-.136-2.058-.399-3.519-1.206-5.28-2.18l-.005-.001c-1.442-.798-3.086-1.707-5.425-2.594-5.64 1.608-6.305 1.562-11.819 1.18l-.556-.038 1.248-4.567s1.872 1.349 6.447.415c4.097-.918 6.513-2.642 7.032-3.012.127-.09.141-.1.04.001 2.703 3.634 5.718 5.087 8.526 5.399 6.557.727 10.626.444 14.57.168l.016-.001c2.12-.148 4.206-.293 6.625-.276v-.029l-.003-.524c-.002-2.274.137-4.262.279-6.282.144-2.058.29-4.151.293-6.614-.002-2.224-.12-4.751-.463-7.827-.312-2.802-1.767-5.813-5.407-8.511-.102.101-.092.087-.001-.039l.03-.044-.029-.021c-.102.102-.092.087-.001-.039.371-.519 2.097-2.932 3.017-7.02.235-1.15.326-2.128.33-2.949-.01-2.367-.746-3.383-.746-3.383m-19.03-13.392-2.807-3.425.07-.018-.07-.086s7.175-1.868 13.414 1.038c5.823 2.595 10.814 9.239 10.814 9.239l-.23.073.022.031-4.263 1.349c-2.6-2.699-4.783-4.775-7.28-6.124-2.495-1.558-5.51-2.284-9.67-2.077m5.968-4.396.008.001c1.54.21 2.917.397 2.967.347l-.067-.096q.058 0 .067-.008s-4.991-7.37-13.414-7.681c-5.2-.208-8.423 2.076-8.423 2.076v.104l-.104 5.605v.104c1.976-1.453 4.575-2.595 7.175-2.906 2.808-.519 5.823.622 7.695 1.972.542 0 2.414.254 4.096.482M52.2 145.952l-.032-.051.032-.053-2.288-3.634s-7.175 3.842-7.695 13.392q-.027.545-.026 1.057c-.01 3.61 1.038 6.031 3.146 8.804q.197.264.406.514a13 13 0 0 0-.51-.41c-3.016-2.284-5.615-3.322-9.775-3.114-9.566.519-13.414 7.682-13.414 7.682l3.64 2.283c.523-.307 1.128-.842 1.827-1.459 1.66-1.466 3.845-3.397 6.7-3.835 3.015-.519 7.694.519 8.214 5.502.52 5.294-5.199 1.245-4.783-.934-.52-.519-3.536 9.55 5.095 9.965-4.204 2.398-3.806 8.259-3.597 11.344v.006l.021.313.02.317c.021.364.033.668.02.892 3.847.415 9.667-1.348 11.125-5.393-.006.035.018.283 1.042 1.863 2.233 3.374 6.881 3.671 11.954 3.996 3.67.235 7.562.484 10.923 1.921-.23-2.234-3.882-3.932-7.843-5.772l-.005-.003c-3.212-1.493-6.626-3.079-8.582-5.124-2.847-2.99-4.443-6.673-5.98-10.221-1.31-3.023-2.577-5.948-4.54-8.26 2.289 1.95 5.21 3.212 8.23 4.515 3.555 1.535 7.246 3.129 10.193 5.973 2.05 1.953 3.64 5.364 5.136 8.572 1.844 3.954 3.544 7.6 5.783 7.829l-.047-.109.047.005c-1.44-3.355-1.69-7.24-1.925-10.904-.325-5.064-.623-9.704-4.002-11.933-1.036-.67-1.5-.911-1.708-.996 3.575-1.406 5.318-6.237 5.302-9.951q.003-.623-.059-1.199c-.343.019-.868-.016-1.516-.06l-.014-.001c-3.09-.209-8.962-.606-11.364 3.591-.416-8.616-10.503-5.606-9.983-5.087l.007-.001q-.048.062-.007.106c1.376-.262 3.455 1.909 3.502 3.42-.027.833-.72 1.435-2.566 1.251-4.22-.439-5.615-3.846-5.632-6.707a9 9 0 0 1 .12-1.39c.51-2.831 2.443-5.003 3.916-6.657.632-.71 1.18-1.325 1.492-1.855m5.2 4.879 4.159-1.246-.083-.079.083-.025s-6.967-6.644-6.967-11.626l-3.848.104.015.103-.015.001c.832 6.02 2.808 8.512 6.655 12.768m11.542-2.907-.026-.01.026-.094-4.575-1.764s.103 4.567-5.096 5.501c-3.517.559-6.175-1.276-7.31-2.059-.341-.236-.545-.376-.593-.328l-2.807 3.114.048.05-.048.054c6.03 6.332 17.781 4.983 20.38-4.464m-23.085-4.048-.02-.07.02-.034s-.832-2.803-1.248-6.021c-.416-3.425-.416-7.266-.416-7.266l-3.739 1.451q.03-.007.03.093l-.03.011q.024-.006.028.052-.01.175-.049.532a28 28 0 0 0-.184 3.166 24.6 24.6 0 0 0 .305 3.934c.727 4.878 2.807 8.2 2.807 8.2zm-20.901-8.72c1.238.571 3.438 1.839 3.477 3.405a1.5 1.5 0 0 1-.046.332c-.624 2.283-2.911 3.841-2.911 3.841l.172-.022a5 5 0 0 1-.172.126l5.823-.727c.936 4.256 4.055 5.917 8.11 6.54l-.13-.125.13.021c-3.085-2.905-3.928-5.51-4.644-7.723-.971-3-1.708-5.277-7.483-6.594l.793-1.98 1.144-2.181c4.875 3.425 7.068 2.468 9.985 1.196 2.124-.927 4.632-2.021 8.837-1.715l-.138-.113.138.01c-3.12-2.596-6.448-3.841-10.191-1.661l-3.328-4.776.016.127-.016-.022s.017.11.032.303c.014.167.027.395.029.665-.006.997-.175 2.504-.996 3.703-1.04 1.557-3.952.519-5.304 0-.728 2.699-1.871 5.19-3.327 7.266l.054.025zm12.998 22.525-.104-.103-.005-.014-.307-7.252v-.104l-3.328-2.076-1.226 5.274-5.013 1.161 2.08 3.322 7.799-.207zm20.901 3.426c.304.109.472.439.485.883-.041 1.683-2.172 4.763-7.316 3.934 2.767-.764 4.106-2.435 5.043-3.603.677-.846 1.144-1.428 1.788-1.214m11.74 15.941c-.037-1.735-1.943-4.684-6.93-4.333 2.64.995 3.827 2.792 4.656 4.049.602.912 1.016 1.539 1.66 1.367.382-.101.602-.519.614-1.083m-2.07-13.761c.388.211.587.632.599 1.168-.058 2.646-4.458 7.806-13.254 4.831 4.725-.478 7.417-2.863 9.3-4.532 1.396-1.235 2.348-2.079 3.356-1.467M0 228.581c3.224-2.076 5.407-6.228 2.288-10.069 0 0 10.19 1.038 7.799-1.245-3.014-2.957-5.535-5.474-7.302-7.238-1.77-1.767-2.785-2.78-2.785-2.728v4.879s2.392 1.349 2.392 3.114c0 1.447-1.61 2.615-2.188 2.989l.004-.082a.4.4 0 0 1-.138.088c-.042.015-.07.015-.07.015zm8.423-6.124c-.728 6.436-3.536 8.927-8.423 11.73V240c.758-.64 1.657-1.323 2.612-2.049 4.155-3.158 9.36-7.114 8.515-11.757 8.318.207 11.23-12.561 11.23-12.561 13.102-2.699 16.638-17.232 13.622-28.754-.624.934-3.743 3.426-3.743 3.426s3.327 16.505-11.543 20.761c-11.854 3.425-18.717-9.031-11.23-15.26 1.664-1.453 3.327-1.661 5.927-.311 2.808 1.453 2.392 5.813-.52 4.879-.416-2.284-2.08-3.322-3.847-2.284-4.992 2.907 1.56 7.059 4.783 7.059 3.64 0 8.735-3.01 5.927-10.381-2.288-6.124-12.062-6.539-16.846-1.972-8.215 7.993-1.56 24.394 12.063 23.772-.52 3.841-4.68 7.474-8.527 7.889m11.854-46.298 3.432 2.803c-.208 4.049.52 7.059 2.08 9.758 1.351 2.491 3.431 4.671 6.135 7.266l-1.352 4.256s-6.655-4.982-9.255-10.691c-2.911-6.229-1.04-13.392-1.04-13.392M0 183.737l1.56-.415s-.208-1.869 1.768-6.021c2.08-4.152 7.59-6.125 7.59-6.125l-.103 3.841s-3.12 2.492-4.368 5.191c-.998 2.06-1.315 4.206-1.496 5.428-.101.687-.16 1.082-.272 1.008-.416-.312-2.08.207-3.223.934-1.04.623-1.248 1.868-1.248 1.972v.207c0-.103-.104-.311-.208-.519zm19.306 1.088c-.229-1.681-.485-3.556-.485-4.098-1.351-1.765-2.495-4.775-1.975-7.682.312-2.595 1.456-5.19 2.911-7.162l-5.719.103s-2.288 3.219-2.08 8.409c.312 8.408 7.695 13.391 7.695 13.391.05-.05-.137-1.425-.347-2.961m26.448-12.714c1.248 6.851-4.367 8.512-4.887 7.059-.215-.644.368-1.109 1.215-1.786 1.203-.961 2.94-2.348 3.672-5.273m6.759 11.626c-.624 6.955 5.095 8.097 5.511 6.54.175-.697-.475-1.12-1.41-1.729-1.295-.842-3.136-2.04-4.101-4.811m-3.432-7.786c3.848 10.9-4.783 15.156-6.03 12.873-.618-1.057.242-2.021 1.494-3.422 1.699-1.901 4.117-4.609 4.536-9.451m-19.757 5.918 1.248-4.153c-4.264-3.944-6.76-5.813-12.79-6.643l-.104 3.84c4.991 0 11.646 6.956 11.646 6.956m-3.431 2.803 1.767 4.567c9.463-2.595 10.815-14.325 4.472-20.346l-3.12 2.803c-.048.048.093.251.329.592.784 1.132 2.622 3.785 2.063 7.297-1.04 5.19-5.511 5.087-5.511 5.087m-2.288-18.478 4.055-2.491s-3.327-2.18-8.215-2.803c-3.26-.518-5.835-.245-7.007-.121l-.014.002q-.207.023-.353.035l-.083.008-.116.006q-.132.005-.123-.03l-1.454 3.733s3.847 0 7.279.415a44 44 0 0 1 6.03 1.246m-17.678-4.152-.104 5.086-5.615 5.398-.208-.208v-6.435zm1.664-8.097c1.56-1.142.416-4.256-.104-5.502 2.704-.726 5.2-1.868 7.28-3.218.623 1.246 2.183 4.049 3.95 3.53 2.288-.623 3.848-2.907 3.848-2.907l-.728 5.813c4.264.934 5.927 4.048 6.551 8.097-2.91-3.08-5.52-3.922-7.736-4.637-3.012-.971-5.296-1.708-6.614-7.508l-2.08.83-2.183 1.142c3.43 4.866 2.472 7.055 1.197 9.968-.928 2.12-2.024 4.623-1.717 8.821-2.6-3.114-3.848-6.436-1.664-10.173l-4.783-3.322s2.807.415 4.783-.934"/><path d="M120 120.409h-5.927l-.104-.104c-2.808-4.879-5.303-7.682-11.751-8.409-.415-3.839-4.052-7.989-7.898-8.511q.014.35.013.692c.046 13.13-15.96 19.409-23.83 11.349-2.043-2.132-3.09-5.256-3.08-8.266-.015-3.769 1.627-7.379 5.055-8.654 7.383-2.803 10.399 2.283 10.399 5.916v.104c0 3.218-4.16 9.758-7.071 4.775-.286-.484-.414-.961-.403-1.406-.03-1.223.982-2.228 2.69-2.538q.123-.384.13-.71c-.058-2.144-3.71-2.221-5.017.295-.601 1.155-.894 2.125-.905 2.992.013 1.037.435 1.928 1.217 2.82 5.497 6.585 15.835 2.052 15.873-7.211a14.2 14.2 0 0 0-.587-3.896c-4.263-14.844-20.797-11.522-20.797-11.522s-2.496-3.114-3.432-3.737l.106-.028a2 2 0 0 0-.106-.076c11.335-3.01 25.997.519 28.7 13.599 0 0 12.636 2.871 12.585 11.06l-.001.093-.001.057c4.65-.843 8.613 4.352 11.777 8.5.727.953 1.412 1.851 2.053 2.608zm-22.149-.001.104.001h10.503a9 9 0 0 0-.254-.402c-2.058-3.075-6.168-5.135-9.928-2.181.038-.946.12-5.117-1.257-7.591l-.022.054-.082-.158c-2.018 4.875-5.137 6.657-7.391 7.945-1.347.77-2.385 1.363-2.696 2.333l.104-.001 4.784.001.104-.001c.312-.519 1.56-2.283 3.015-2.283s2.808 1.764 3.016 2.283m-28.492.001h-.38l.172.104h-5.615v-.104l-.52-1.661s-1.872.208-6.032-1.765c-4.159-2.076-6.135-7.578-6.135-7.578l.04.001-.04-.105 3.848.104s2.495 3.114 5.199 4.36c2.064.997 4.213 1.313 5.438 1.493.688.101 1.084.16 1.01.272l-.023.033q.049.032.022.071c-.057.076-.086.193-.091.341.022.686.462 1.886 1.027 2.773.624.934 1.664 1.557 2.08 1.661m-23.71-.001.105.001H52.2l-.028-.031-.004-.005c-.447-.498-5.37-5.985-5.271-5.985l-5.096-.104.07.107-.173-.003zm32.029-37.266.056.015q-.054.09-.056.089l4.575 1.246v-.104l.039-.454c.132-1.904.224-3.229.221-4.38.005-2.22-.33-3.764-1.387-7.46.884-2.313 1.789-3.944 2.583-5.376.975-1.759 1.784-3.217 2.184-5.271.329-1.704.442-3.245.439-4.74.003-1.687-.146-3.312-.304-5.04-.176-1.923-.363-3.973-.367-6.38.003-3.174.328-6.97 1.417-11.901l.27-.278-.219.048.011-.048-.03.029.03-.133-.2.194c-8.677 1.895-13.825 1.427-18.287 1.02-3.23-.294-6.101-.556-9.693.136-2.058.399-3.519 1.206-5.28 2.18l-.005.001c-1.442.798-3.086 1.706-5.425 2.593-5.64-1.608-6.305-1.561-11.819-1.18l-.556.039 1.248 4.567s1.872-1.35 6.447-.415c4.097.918 6.513 2.641 7.032 3.012.127.09.141.1.04-.002 2.703-3.633 5.718-5.086 8.526-5.398 6.557-.727 10.626-.444 14.57-.169l.016.002c2.12.147 4.206.292 6.625.276v.029q-.004.264-.003.524c-.002 2.274.137 4.261.279 6.282.144 2.058.29 4.151.293 6.614-.002 2.223-.12 4.75-.463 7.826-.312 2.803-1.767 5.814-5.407 8.512-.102-.102-.092-.088-.001.04l.03.042-.029.022c-.102-.102-.092-.088-.001.04.371.518 2.097 2.93 3.017 7.02a15 15 0 0 1 .33 2.948c-.01 2.367-.746 3.383-.746 3.383m-19.03 13.391L55.84 99.96l.071.017-.07.087s7.175 1.868 13.414-1.038c5.823-2.596 10.814-9.24 10.814-9.24l-.23-.073.022-.03-4.263-1.35c-2.6 2.7-4.783 4.775-7.28 6.125-2.495 1.557-5.51 2.284-9.67 2.076m5.968 4.397.008-.002c1.54-.209 2.917-.396 2.967-.346l-.067.095q.058 0 .067.009s-4.991 7.37-13.414 7.681c-5.2.208-8.423-2.076-8.423-2.076v-.104l-.104-5.605v-.104c1.976 1.453 4.575 2.595 7.175 2.906 2.808.519 5.823-.622 7.695-1.972.542 0 2.414-.254 4.096-.482M52.2 94.56l-.032.052.032.053-2.288 3.633s-7.175-3.84-7.695-13.391a20 20 0 0 1-.026-1.057c-.01-3.61 1.038-6.032 3.146-8.805q.197-.264.406-.514-.247.21-.51.41c-3.016 2.284-5.615 3.322-9.775 3.115-9.567-.519-13.414-7.682-13.414-7.682l3.64-2.283c.523.307 1.128.841 1.827 1.458 1.66 1.467 3.845 3.397 6.7 3.836 3.015.519 7.694-.52 8.214-5.502.52-5.294-5.199-1.246-4.783.934-.52.519-3.536-9.55 5.095-9.965-4.204-2.399-3.806-8.26-3.597-11.344v-.006l.021-.313.02-.317a9 9 0 0 0 .02-.892c3.847-.416 9.667 1.348 11.125 5.393-.006-.035.018-.283 1.042-1.864 2.233-3.373 6.881-3.67 11.954-3.995 3.67-.235 7.562-.484 10.923-1.922-.23 2.235-3.882 3.933-7.843 5.773l-.005.003c-3.212 1.493-6.626 3.08-8.582 5.124-2.847 2.99-4.443 6.673-5.98 10.22-1.31 3.024-2.577 5.948-4.54 8.26 2.289-1.95 5.21-3.21 8.23-4.514 3.555-1.535 7.246-3.129 10.193-5.973 2.05-1.953 3.64-5.364 5.136-8.572 1.844-3.955 3.544-7.6 5.783-7.83l-.047.11.047-.006c-1.44 3.355-1.69 7.24-1.925 10.905-.325 5.064-.623 9.704-4.002 11.933-1.036.67-1.5.91-1.708.996 3.575 1.406 5.318 6.237 5.302 9.95q.003.625-.059 1.2c-.343-.019-.868.016-1.516.06l-.014.001c-3.09.209-8.962.606-11.364-3.592-.416 8.617-10.503 5.606-9.983 5.087l.007.001q-.048-.062-.007-.105c1.376.262 3.455-1.909 3.502-3.42-.027-.834-.72-1.435-2.566-1.25-4.22.438-5.615 3.844-5.632 6.706a9 9 0 0 0 .12 1.39c.51 2.831 2.443 5.003 3.916 6.656.632.71 1.18 1.325 1.492 1.856m5.2-4.878 4.159 1.245-.083.08.083.025s-6.967 6.643-6.967 11.626l-3.848-.104.015-.104h-.015c.832-6.02 2.808-8.512 6.655-12.768m11.542 2.906-.026.01.026.095-4.576 1.764s.104-4.567-5.095-5.501c-3.517-.559-6.175 1.275-7.31 2.06-.341.235-.545.375-.593.327L48.56 88.23l.048-.05-.048-.054c6.03-6.332 17.781-4.983 20.38 4.463m-23.085 4.049-.02.07.02.034s-.832 2.803-1.248 6.021c-.416 3.425-.416 7.266-.416 7.266l-3.739-1.452q.03.008.03-.092l-.03-.011q.024.006.028-.053a11 11 0 0 0-.049-.531 28 28 0 0 1-.184-3.166 24.6 24.6 0 0 1 .305-3.934c.727-4.879 2.807-8.2 2.807-8.2zm-20.901 8.72c1.238-.571 3.438-1.839 3.477-3.405a1.5 1.5 0 0 0-.046-.332c-.624-2.284-2.911-3.84-2.911-3.84l.172.02c-.109-.082-.172-.125-.172-.125l5.823.727c.936-4.257 4.055-5.918 8.11-6.54l-.13.125.13-.021c-3.085 2.904-3.928 5.51-4.644 7.723-.971 3-1.708 5.277-7.483 6.593l.793 1.981 1.144 2.18c4.875-3.424 7.068-2.468 9.985-1.195 2.124.927 4.632 2.02 8.837 1.714l-.138.114.138-.01c-3.12 2.595-6.448 3.841-10.191 1.661l-3.328 4.775.016-.126-.016.022s.017-.111.032-.304c.014-.166.027-.394.029-.665-.006-.996-.175-2.503-.997-3.702-1.04-1.557-3.95-.519-5.303 0-.728-2.699-1.871-5.19-3.327-7.266l.054-.026zm12.998-22.526-.104.104-.005.013-.307 7.253v.104l-3.328 2.076-1.226-5.274-5.013-1.162 2.08-3.322 7.799.208zm20.901-3.426c.304-.108.472-.439.485-.883-.041-1.682-2.172-4.762-7.316-3.933 2.767.764 4.106 2.435 5.043 3.603.677.845 1.144 1.428 1.788 1.213m11.74-15.94c-.037 1.734-1.943 4.683-6.93 4.333 2.64-.995 3.827-2.792 4.656-4.05.602-.912 1.016-1.539 1.66-1.367.382.102.602.52.614 1.083m-2.07 13.76c.388-.21.587-.631.599-1.167-.058-2.646-4.458-7.807-13.254-4.832 4.725.478 7.417 2.863 9.3 4.532 1.396 1.236 2.348 2.08 3.356 1.467M0 11.931c3.224 2.077 5.407 6.229 2.288 10.07 0 0 10.19-1.038 7.799 1.245a1108 1108 0 0 0-7.302 7.238C1.015 32.25 0 33.264 0 33.212v-4.88s2.392-1.349 2.392-3.114c0-1.447-1.61-2.615-2.188-2.988l.004.082a.4.4 0 0 0-.138-.089C.028 22.21 0 22.21 0 22.21zm8.423 6.125C7.695 11.62 4.887 9.128 0 6.326V.513c.758.64 1.657 1.323 2.612 2.048 4.155 3.159 9.36 7.115 8.515 11.758 8.318-.208 11.23 12.56 11.23 12.56 13.102 2.7 16.638 17.232 13.622 28.755-.624-.934-3.743-3.426-3.743-3.426s3.327-16.505-11.543-20.761C8.84 28.02 1.976 40.478 9.463 46.707c1.664 1.453 3.327 1.66 5.927.31 2.808-1.453 2.392-5.812-.52-4.878-.416 2.283-2.08 3.322-3.847 2.283-4.992-2.906 1.56-7.058 4.783-7.058 3.64 0 8.735 3.01 5.927 10.38-2.288 6.125-12.062 6.54-16.846 1.973-8.215-7.993-1.56-24.395 12.063-23.772-.52-3.84-4.68-7.474-8.527-7.89m11.854 46.297 3.432-2.802c-.208-4.049.52-7.06 2.08-9.758 1.351-2.492 3.431-4.672 6.135-7.267l-1.352-4.256s-6.655 4.983-9.255 10.692c-2.911 6.228-1.04 13.391-1.04 13.391M0 56.776l1.56.415s-.208 1.868 1.768 6.02c2.08 4.153 7.59 6.125 7.59 6.125l-.103-3.84s-3.12-2.492-4.368-5.19c-.998-2.061-1.315-4.207-1.496-5.43-.101-.686-.16-1.082-.272-1.007-.416.312-2.08-.207-3.223-.934-1.04-.623-1.248-1.869-1.248-1.973v-.207c0 .104-.104.311-.208.52zm19.306-1.088c-.229 1.68-.485 3.555-.485 4.097-1.351 1.766-2.495 4.776-1.975 7.683.312 2.595 1.456 5.19 2.911 7.162l-5.719-.104s-2.288-3.218-2.08-8.408c.312-8.409 7.695-13.391 7.695-13.391.05.05-.137 1.425-.347 2.961m26.448 12.714c1.248-6.852-4.367-8.512-4.887-7.059-.215.643.368 1.11 1.215 1.785 1.203.962 2.94 2.349 3.672 5.274m6.759-11.626c-.624-6.955 5.095-8.097 5.511-6.54.175.697-.475 1.12-1.41 1.729-1.295.842-3.136 2.04-4.101 4.81m-3.432 7.785c3.848-10.9-4.783-15.156-6.03-12.872-.618 1.057.242 2.02 1.494 3.421 1.699 1.902 4.117 4.61 4.536 9.451m-19.757-5.917 1.248 4.152c-4.264 3.945-6.76 5.814-12.79 6.644l-.104-3.84c4.991 0 11.646-6.956 11.646-6.956m-3.432-2.803 1.768-4.567c9.463 2.595 10.815 14.325 4.472 20.346l-3.12-2.803c-.048-.048.093-.251.329-.592.784-1.132 2.622-3.785 2.063-7.297-1.04-5.19-5.512-5.087-5.512-5.087m-2.286 18.48 4.055 2.491s-3.327 2.18-8.215 2.803c-3.26.518-5.835.244-7.007.12l-.014-.001-.353-.036-.083-.007-.116-.006q-.132-.005-.123.03l-1.454-3.733s3.847 0 7.279-.415a44 44 0 0 0 6.03-1.246M5.927 78.47l-.104-5.086-5.615-5.398-.208.207v6.436zm1.664 8.097c1.56 1.142.416 4.256-.104 5.502 2.704.726 5.2 1.868 7.279 3.217.624-1.245 2.184-4.048 3.952-3.529 2.287.623 3.847 2.907 3.847 2.907l-.728-5.813c4.264-.934 5.927-4.049 6.551-8.097-2.91 3.08-5.52 3.922-7.736 4.636-3.012.972-5.296 1.709-6.614 7.51l-2.08-.831-2.183-1.142c3.43-4.867 2.472-7.056 1.197-9.968-.928-2.12-2.024-4.623-1.717-8.821-2.6 3.114-3.848 6.436-1.664 10.173l-4.783 3.322s2.807-.415 4.783.934"/></g></svg>