<svg width="96" height="24" viewBox="0 0 96 24" fill="none" xmlns="http://www.w3.org/2000/svg">
<g opacity="0.8" clip-path="url(#clip0_901_478)">
<path fill-rule="evenodd" clip-rule="evenodd" d="M0.0507812 4.79736V19.181L4.83942 23.9752V9.59188H14.4165L9.62781 4.79736H0.0507812Z" fill="white"/>
<path fill-rule="evenodd" clip-rule="evenodd" d="M4.83984 14.3864H14.4169V0.00280762L19.2055 4.79732V19.1809H9.62824L4.83984 14.3864Z" fill="white"/>
<path d="M93.7343 19.1802L93.5293 18.0502H93.4263C93.2213 18.3105 92.9751 18.5364 92.6877 18.7284C92.031 19.1665 91.2512 19.3859 90.3484 19.3859C88.9802 19.3859 87.8341 18.8826 86.9106 17.8758C85.9871 16.8687 85.5254 15.5572 85.5254 13.9409C85.5254 12.3247 85.9871 11.0129 86.9106 10.0061C87.8341 8.99931 88.9802 8.49602 90.3484 8.49602C91.1688 8.49602 91.9215 8.72192 92.6058 9.17397C92.8927 9.36574 93.1324 9.58504 93.3238 9.83147H93.4263V4.79736H95.9917V19.1802H93.7343ZM88.8294 16.2112C89.3218 16.7523 89.9649 17.0229 90.7589 17.0229C91.5522 17.0229 92.1953 16.7523 92.6877 16.2112C93.1801 15.6701 93.4263 14.9134 93.4263 13.9407C93.4263 12.9683 93.1801 12.2113 92.6877 11.6704C92.1953 11.1294 91.5522 10.8587 90.7589 10.8587C89.9649 10.8587 89.3218 11.1294 88.8294 11.6704C88.3371 12.2115 88.0909 12.9683 88.0909 13.9407C88.0909 14.9134 88.3371 15.6701 88.8294 16.2112Z" fill="white"/>
<path d="M73.8281 19.1803V8.70124H76.1875L76.393 9.72858H76.4955C76.6598 9.52313 76.8925 9.31751 77.1934 9.11207C77.8224 8.70124 78.548 8.49585 79.3684 8.49585C80.5587 8.49585 81.5405 8.9035 82.3138 9.71832C83.0865 10.5334 83.4729 11.5983 83.4729 12.9132V19.18H80.908V13.1186C80.908 12.4475 80.6995 11.903 80.2819 11.4851C79.8649 11.0672 79.3207 10.8583 78.6505 10.8583C77.9803 10.8583 77.4361 11.0672 77.0191 11.4851C76.6015 11.903 76.393 12.4472 76.393 13.1186V19.18H73.8281V19.1803Z" fill="white"/>
<path d="M68.6968 16.0984H71.3648C71.2964 16.3587 71.1628 16.6497 70.9649 16.9717C70.7664 17.2937 70.486 17.6499 70.1233 18.0403C69.7605 18.4306 69.2646 18.7526 68.6355 19.0059C68.0059 19.2593 67.3086 19.386 66.5424 19.386C64.9964 19.386 63.7207 18.8758 62.7148 17.8551C61.7094 16.8346 61.207 15.5299 61.207 13.941C61.207 12.3521 61.7094 11.0474 62.7148 10.027C63.7207 9.00646 64.9964 8.49609 66.5424 8.49609C67.9789 8.49609 69.1927 8.99939 70.1851 10.0062C71.1763 11.013 71.6728 12.256 71.6728 13.7353C71.6728 13.8588 71.6522 14.1054 71.611 14.475L71.5697 14.7629H63.7714C63.8809 15.5023 64.1889 16.0984 64.6948 16.5504C65.2013 17.0025 65.8168 17.2286 66.5418 17.2286C67.0889 17.2286 67.5542 17.1089 67.9376 16.869C68.3205 16.6294 68.5737 16.3726 68.6968 16.0986V16.0984ZM63.7719 13.0164H69.1073C68.9842 12.3179 68.7003 11.7495 68.2557 11.3112C67.8116 10.8727 67.2397 10.6534 66.5424 10.6534C65.8032 10.6534 65.1978 10.8691 64.726 11.3007C64.2543 11.7322 63.9363 12.3041 63.7719 13.0162V13.0164Z" fill="white"/>
<path d="M50.4028 10.0267C51.4082 9.00622 52.6839 8.49585 54.2299 8.49585C55.7759 8.49585 57.0516 9.00622 58.0569 10.0267C59.0629 11.0472 59.5658 12.3518 59.5658 13.9408C59.5658 15.5297 59.0629 16.8343 58.0569 17.8548C57.0516 18.8753 55.7759 19.3857 54.2299 19.3857C52.6839 19.3857 51.4082 18.8756 50.4028 17.8548C49.3969 16.8343 48.8945 15.5297 48.8945 13.9408C48.8945 12.3518 49.3969 11.0472 50.4028 10.0267ZM52.2598 16.1598C52.7934 16.7351 53.4501 17.0227 54.2299 17.0227C55.0097 17.0227 55.6664 16.7351 56.2 16.1598C56.7336 15.5846 57.0003 14.8449 57.0003 13.9408C57.0003 13.0366 56.7336 12.297 56.2 11.7217C55.6664 11.1465 55.0097 10.8588 54.2299 10.8588C53.4501 10.8588 52.7934 11.1467 52.2598 11.7217C51.7268 12.297 51.4594 13.0366 51.4594 13.9408C51.4594 14.8449 51.7262 15.5846 52.2598 16.1598Z" fill="white"/>
<path d="M41.916 19.1802V8.70117H44.0709L44.2761 9.62579H44.3787C44.5019 9.46139 44.6523 9.31084 44.8302 9.17374C45.2544 8.85879 45.7196 8.70117 46.2257 8.70117H48.2778V11.1669H46.4308C45.1311 11.1669 44.4813 11.8175 44.4813 13.1188V19.1802H41.916Z" fill="white"/>
<path d="M28.7832 19.1802V4.79736H35.2475C36.602 4.79736 37.6931 5.2355 38.5206 6.11229C39.3483 6.98909 39.7622 8.16008 39.7622 9.62579C39.7622 11.0915 39.3486 12.2628 38.5206 13.1393C37.6929 14.0158 36.6018 14.4543 35.2475 14.4543H31.4511V19.18H28.7832V19.1802ZM31.4511 11.8861H35.1449C35.7334 11.8861 36.2053 11.6873 36.5609 11.2901C36.9166 10.893 37.0944 10.3382 37.0944 9.62579C37.0944 8.91345 36.9166 8.35868 36.5609 7.96153C36.2051 7.56409 35.7334 7.36554 35.1449 7.36554H31.4511V11.8859V11.8861Z" fill="white"/>
</g>
<defs>
<clipPath id="clip0_901_478">
<rect width="96" height="24" fill="white"/>
</clipPath>
</defs>
</svg>
