<svg width="22" height="22" viewBox="0 0 22 22" fill="none" xmlns="http://www.w3.org/2000/svg">
<path fill-rule="evenodd" clip-rule="evenodd" d="M11.1285 4.50041C10.4738 4.81846 9.64416 5.36378 8.46184 6.14333L8.26115 6.27565C8.24587 6.28573 8.2308 6.29567 8.21592 6.30548C7.86741 6.53537 7.62604 6.69459 7.36154 6.81132C7.10088 6.92636 6.82693 7.00854 6.54599 7.05599C6.26092 7.10413 5.97176 7.10407 5.55424 7.10398C5.53643 7.10398 5.51837 7.10397 5.50008 7.10397C4.17671 7.10397 3.73002 7.1189 3.35024 7.29461C2.98324 7.4644 2.59237 7.83217 2.40057 8.18816C2.20048 8.55951 2.16375 8.94011 2.09312 10.0989C2.07373 10.417 2.0625 10.7219 2.0625 10.9998C2.0625 11.2778 2.07373 11.5826 2.09312 11.9007C2.16375 13.0595 2.20048 13.4401 2.40057 13.8115C2.59237 14.1674 2.98324 14.5352 3.35024 14.705C3.73002 14.8807 4.17671 14.8956 5.50008 14.8956C5.51837 14.8956 5.53642 14.8956 5.55424 14.8956C5.97175 14.8955 6.26091 14.8955 6.54599 14.9436C6.82693 14.9911 7.10088 15.0733 7.36154 15.1883C7.62604 15.305 7.86741 15.4642 8.21592 15.6941C8.2308 15.7039 8.24587 15.7139 8.26115 15.724L8.46184 15.8563C9.64416 16.6358 10.4738 17.1812 11.1285 17.4992C11.7815 17.8164 12.1079 17.8291 12.3363 17.7512C12.4623 17.7082 12.5855 17.6455 12.6944 17.5689C12.893 17.4294 13.0741 17.1594 13.2014 16.4523C13.3293 15.742 13.3764 14.7594 13.4416 13.3562C13.4893 12.3299 13.5208 11.4689 13.5208 10.9998C13.5208 10.5307 13.4893 9.66971 13.4416 8.64345C13.3764 7.24026 13.3293 6.25765 13.2014 5.54734C13.0741 4.84025 12.893 4.57023 12.6944 4.43067C12.5855 4.35415 12.4623 4.29144 12.3363 4.24846C12.1079 4.17051 11.7815 4.18323 11.1285 4.50041ZM10.5277 3.26362C11.2849 2.89579 12.0304 2.6912 12.7804 2.94714C13.0297 3.03219 13.2696 3.15428 13.485 3.3057C14.1323 3.76055 14.4062 4.47923 14.5546 5.30373C14.7006 6.11438 14.7505 7.18867 14.8126 8.5269L14.8151 8.57963C14.8626 9.60168 14.8958 10.4938 14.8958 10.9998C14.8958 11.5058 14.8626 12.3979 14.8151 13.42L14.8126 13.4727C14.7505 14.8109 14.7006 15.8852 14.5546 16.6959C14.4062 17.5204 14.1323 18.2391 13.485 18.6939C13.2696 18.8453 13.0297 18.9674 12.7804 19.0525C12.0304 19.3084 11.2849 19.1038 10.5277 18.736C9.78198 18.3737 8.87712 17.7771 7.74883 17.0331L7.50427 16.8719C7.09368 16.6012 6.95244 16.5107 6.80637 16.4462C6.64997 16.3772 6.4856 16.3279 6.31704 16.2994C6.1596 16.2728 5.99188 16.2706 5.50008 16.2706C5.45022 16.2706 5.40103 16.2707 5.35248 16.2707C4.23697 16.2713 3.46188 16.2717 2.77288 15.9529C2.13598 15.6582 1.52296 15.0815 1.19009 14.4637C0.830191 13.7957 0.787961 13.0972 0.727913 12.1039C0.725532 12.0645 0.723122 12.0247 0.720664 11.9843C0.700089 11.6468 0.6875 11.3129 0.6875 10.9998C0.6875 10.6867 0.700089 10.3529 0.720664 10.0153C0.723122 9.97494 0.725532 9.93509 0.727913 9.89569C0.787961 8.90245 0.830191 8.20391 1.19009 7.53595C1.52296 6.91816 2.13598 6.34137 2.77288 6.0467C3.46188 5.72793 4.23697 5.72833 5.35247 5.72892C5.40102 5.72895 5.45022 5.72897 5.50008 5.72897C5.99188 5.72897 6.1596 5.72677 6.31704 5.70018C6.4856 5.67172 6.64997 5.62241 6.80637 5.55338C6.95244 5.48891 7.09368 5.39844 7.50427 5.12772L7.74884 4.96646C8.87713 4.22251 9.78198 3.62589 10.5277 3.26362ZM17.8932 4.97185C18.1849 4.72877 18.6184 4.76818 18.8615 5.05988L18.3333 5.5C18.8615 5.05988 18.8615 5.05988 18.8615 5.05988L18.8625 5.06114L18.8637 5.06256L18.8664 5.06586L18.8733 5.07436C18.8785 5.08087 18.885 5.08905 18.8927 5.09894C18.908 5.11872 18.9279 5.1453 18.9519 5.17882C18.9997 5.24586 19.0635 5.34064 19.1377 5.46425C19.2861 5.71159 19.4757 6.07382 19.6625 6.55945C20.0367 7.53237 20.3958 8.99107 20.3958 11C20.3958 13.0089 20.0367 14.4676 19.6625 15.4405C19.4757 15.9262 19.2861 16.2884 19.1377 16.5357C19.0635 16.6594 18.9997 16.7541 18.9519 16.8212C18.9279 16.8547 18.908 16.8813 18.8927 16.9011C18.8881 16.907 18.8839 16.9123 18.8802 16.917C18.8777 16.9201 18.8754 16.923 18.8733 16.9256L18.8664 16.9341L18.8637 16.9374L18.8625 16.9389C18.8625 16.9389 18.8615 16.9401 18.3333 16.5L18.8615 16.9401C18.6184 17.2318 18.1849 17.2712 17.8932 17.0282C17.6029 16.7862 17.5625 16.3557 17.8017 16.0641M17.8017 16.0641C17.8017 16.0641 17.8033 16.062 17.8049 16.06C17.8097 16.0537 17.8193 16.0411 17.833 16.022C17.8603 15.9838 17.9039 15.9195 17.9587 15.8283C18.0681 15.646 18.2222 15.3551 18.3792 14.947C18.6925 14.1324 19.0208 12.8411 19.0208 11C19.0208 9.15894 18.6925 7.86763 18.3792 7.05305C18.2222 6.64493 18.0681 6.35404 17.9587 6.17169C17.9039 6.08046 17.8603 6.01625 17.833 5.97802C17.8193 5.9589 17.8097 5.94627 17.8049 5.94C17.8033 5.93797 17.8017 5.93591 17.8017 5.93591L17.8049 5.94L17.8035 5.93805L17.8017 5.93591C17.5625 5.64427 17.6029 5.21375 17.8932 4.97185M16.1661 7.64902C16.498 7.46462 16.9166 7.58421 17.101 7.91612L16.5253 8.23594C17.101 7.91613 17.101 7.91612 17.101 7.91612L17.1017 7.91732L17.1024 7.9186L17.1039 7.9214L17.1074 7.92792L17.1162 7.94474C17.1229 7.95764 17.131 7.97392 17.1404 7.99363C17.1592 8.03307 17.183 8.08624 17.2099 8.15366C17.2639 8.28855 17.3304 8.48008 17.3951 8.73237C17.5246 9.2374 17.6458 9.98239 17.6458 11C17.6458 12.0176 17.5246 12.7626 17.3951 13.2676C17.3304 13.5199 17.2639 13.7114 17.2099 13.8463C17.183 13.9138 17.1592 13.9669 17.1404 14.0064C17.131 14.0261 17.1229 14.0424 17.1162 14.0553L17.1074 14.0721L17.1039 14.0786L17.1024 14.0814L17.1017 14.0827C17.1017 14.0827 17.101 14.0839 16.5253 13.7641L17.101 14.0839C16.9166 14.4158 16.498 14.5354 16.1661 14.351C15.837 14.1682 15.7167 13.7551 15.8944 13.4246L15.899 13.4152C15.9053 13.402 15.9173 13.3757 15.9333 13.3357C15.9653 13.2557 16.0133 13.1207 16.0632 12.9261C16.1629 12.5374 16.2708 11.9074 16.2708 11C16.2708 10.0926 16.1629 9.46261 16.0632 9.07388C16.0133 8.8793 15.9653 8.74426 15.9333 8.66432C15.9173 8.62431 15.9053 8.59799 15.899 8.58479L15.8944 8.5754C15.7167 8.24487 15.837 7.83185 16.1661 7.64902Z" fill="white"/>
</svg>
