<svg width="36" height="36" viewBox="0 0 36 36" fill="none" xmlns="http://www.w3.org/2000/svg">
<path opacity="0.5" d="M31.274 13.0696C33.5776 10.766 33.5776 7.03122 31.274 4.72767C28.9705 2.42411 25.2357 2.42411 22.9321 4.72767L21.6016 6.05822C21.6198 6.11324 21.6387 6.16903 21.6583 6.22553C22.146 7.63124 23.0662 9.47401 24.7972 11.205C26.5282 12.9361 28.371 13.8562 29.7767 14.3439C29.8329 14.3634 29.8885 14.3823 29.9432 14.4004L31.274 13.0696Z" fill="#B7BBCB"/>
<path d="M21.6579 6L21.6006 6.05729C21.6188 6.11231 21.6377 6.16809 21.6573 6.2246C22.145 7.63031 23.0652 9.47307 24.7962 11.2041C26.5272 12.9351 28.37 13.8553 29.7757 14.343C29.8315 14.3623 29.8865 14.381 29.9408 14.399L17.1002 27.2397C16.2345 28.1053 15.8015 28.5383 15.3242 28.9106C14.7612 29.3497 14.152 29.7262 13.5075 30.0334C12.961 30.2938 12.3803 30.4874 11.2188 30.8746L5.09376 32.9162C4.52217 33.1068 3.89199 32.958 3.46595 32.532C3.03991 32.1059 2.89114 31.4757 3.08167 30.9041L5.12334 24.7791C5.51051 23.6176 5.7041 23.0369 5.96451 22.4904C6.2717 21.8459 6.6482 21.2367 7.08735 20.6737C7.4596 20.1964 7.89247 19.7635 8.75811 18.8979L21.6579 6Z" fill="#B7BBCB"/>
<g opacity="0.5">
<path d="M8.2375 6.06806L6.06806 8.2375C4.02269 10.2829 3 11.3056 3 12.5764C3 13.8472 4.02268 14.8699 6.06804 16.9153L8.40455 19.2518C8.51389 19.1421 8.63134 19.0246 8.75807 18.8979L19.2524 8.40515L16.9153 6.06806C14.8699 4.02269 13.8472 3 12.5764 3C11.3056 3 10.2829 4.02269 8.2375 6.06806Z" fill="#B7BBCB"/>
<path d="M27.5935 16.7463L17.1002 27.2397C16.9734 27.3664 16.8559 27.484 16.7461 27.5933L19.0847 29.9319C21.1301 31.9773 22.1528 33 23.4236 33C24.6944 33 25.7171 31.9773 27.7625 29.9319L29.9319 27.7625C31.9773 25.7171 33 24.6944 33 23.4236C33 22.1528 31.9773 21.1301 29.9319 19.0847L27.5935 16.7463Z" fill="#B7BBCB"/>
</g>
<path d="M30.1633 19.3154L28.4096 21.0691C27.9702 21.5084 27.9702 22.2208 28.4096 22.6601C28.8489 23.0994 29.5612 23.0994 30.0006 22.6601L31.7258 20.9349C31.3077 20.466 30.7869 19.9397 30.1633 19.3154Z" fill="#B7BBCB"/>
<path d="M14.6493 3.91919L12.6596 5.90889C12.2202 6.34823 12.2202 7.06054 12.6596 7.49988C13.0989 7.93922 13.8112 7.93922 14.2506 7.49988L16.2984 5.45202C15.6597 4.81821 15.1276 4.30727 14.6493 3.91919Z" fill="#B7BBCB"/>
</svg>
