<svg width="20" height="20" viewBox="0 0 20 20" fill="none" xmlns="http://www.w3.org/2000/svg">
<path d="M15.5301 13.0583L16.9604 8.76717C18.21 5.01852 18.8348 3.14419 17.8454 2.1548C16.856 1.16541 14.9816 1.79018 11.233 3.03973L6.94188 4.47011C3.91635 5.47861 2.40359 5.98287 1.97371 6.72232C1.56475 7.42577 1.56475 8.29458 1.97371 8.99803C2.40359 9.73748 3.91635 10.2417 6.94188 11.2502C7.31684 11.3752 7.73867 11.286 8.01944 11.0078L12.6075 6.4623C12.8656 6.20657 13.2821 6.20851 13.5379 6.46663C13.7936 6.72475 13.7916 7.1413 13.5335 7.39702L9.01959 11.8691C8.71012 12.1757 8.61216 12.645 8.74992 13.0583C9.75842 16.0838 10.2627 17.5966 11.0021 18.0265C11.7056 18.4354 12.5744 18.4354 13.2778 18.0265C14.0173 17.5966 14.5216 16.0838 15.5301 13.0583Z" fill="white"/>
</svg>
