<svg width="36" height="36" viewBox="0 0 36 36" fill="none" xmlns="http://www.w3.org/2000/svg">
<path d="M24.7915 3H11.208C9.40378 3 8.50167 3 7.77672 3.44805C7.05176 3.89609 6.64832 4.70297 5.84145 6.31672L3.73603 11.6389C3.24959 12.8686 2.82399 14.3179 3.64281 15.3562C4.19214 16.0528 5.04366 16.5 5.99968 16.5C7.65653 16.5 8.99968 15.1569 8.99968 13.5C8.99968 15.1569 10.3428 16.5 11.9997 16.5C13.6565 16.5 14.9997 15.1569 14.9997 13.5C14.9997 15.1569 16.3428 16.5 17.9997 16.5C19.6565 16.5 20.9997 15.1569 20.9997 13.5C20.9997 15.1569 22.3428 16.5 23.9997 16.5C25.6565 16.5 26.9997 15.1569 26.9997 13.5C26.9997 15.1569 28.3428 16.5 29.9997 16.5C30.9557 16.5 31.8073 16.0528 32.3566 15.3562C33.1755 14.3179 32.7499 12.8686 32.2635 11.6389L30.158 6.31672C29.3512 4.70297 28.9477 3.8961 28.2228 3.44805C27.4978 3 26.5957 3 24.7915 3Z" fill="#B7BBCB"/>
<path d="M14.25 31.875V27.75C14.25 26.3481 14.25 25.6471 14.5514 25.125C14.7489 24.783 15.033 24.4989 15.375 24.3014C15.8971 24 16.5981 24 18 24C19.4019 24 20.1029 24 20.625 24.3014C20.967 24.4989 21.2511 24.783 21.4486 25.125C21.75 25.6471 21.75 26.3481 21.75 27.75V31.875H14.25Z" fill="#B7BBCB"/>
<path opacity="0.5" fill-rule="evenodd" clip-rule="evenodd" d="M6 16.5C7.65671 16.4998 8.99968 15.1567 8.99968 13.5C8.99968 15.1569 10.3428 16.5 11.9997 16.5C13.6565 16.5 14.9997 15.1569 14.9997 13.5C14.9997 15.1569 16.3428 16.5 17.9997 16.5C19.6565 16.5 20.9997 15.1569 20.9997 13.5C20.9997 15.1569 22.3428 16.5 23.9997 16.5C25.6565 16.5 26.9997 15.1569 26.9997 13.5C26.9997 15.1569 28.3428 16.5 29.9997 16.5L30 31.875L21.75 31.875V27.75C21.75 26.3481 21.75 25.6471 21.4486 25.125C21.2511 24.783 20.967 24.4989 20.625 24.3014C20.1029 24 19.4019 24 18 24C16.5981 24 15.8971 24 15.375 24.3014C15.033 24.4989 14.7489 24.783 14.5514 25.125C14.25 25.6471 14.25 26.3481 14.25 27.75V31.875L6 31.875L6 16.5Z" fill="#B7BBCB"/>
<path d="M21.75 31.875H14.25L6 31.875L3 31.875C2.37868 31.875 1.875 32.3787 1.875 33C1.875 33.6213 2.37868 34.125 3 34.125H33C33.6213 34.125 34.125 33.6213 34.125 33C34.125 32.3787 33.6213 31.875 33 31.875L30 31.875L21.75 31.875Z" fill="#B7BBCB"/>
</svg>
