<svg width="22" height="22" viewBox="0 0 22 22" fill="none" xmlns="http://www.w3.org/2000/svg">
<path fill-rule="evenodd" clip-rule="evenodd" d="M10.9486 1.14584H11.052C12.7367 1.14582 14.071 1.14581 15.1153 1.28621C16.19 1.4307 17.0599 1.73514 17.7459 2.42114C18.4319 3.10714 18.7363 3.97701 18.8808 5.05173C19.0212 6.09601 19.0212 7.43035 19.0212 9.11496V12.885C19.0212 14.5697 19.0212 15.904 18.8808 16.9483C18.7363 18.023 18.4319 18.8929 17.7459 19.5789C17.0599 20.2649 16.19 20.5693 15.1153 20.7138C14.071 20.8542 12.7367 20.8542 11.052 20.8542H10.9486C9.264 20.8542 7.92967 20.8542 6.88539 20.7138C5.81067 20.5693 4.9408 20.2649 4.2548 19.5789C3.5688 18.8929 3.26436 18.023 3.11987 16.9483C2.97947 15.904 2.97948 14.5697 2.97949 12.8851V9.11495C2.97948 7.43034 2.97947 6.09601 3.11987 5.05173C3.26436 3.97701 3.5688 3.10714 4.2548 2.42114C4.9408 1.73514 5.81067 1.4307 6.88539 1.28621C7.92967 1.14581 9.264 1.14582 10.9486 1.14584ZM7.0686 2.64895C6.14636 2.77294 5.61501 3.00547 5.22707 3.39341C4.83913 3.78136 4.6066 4.3127 4.4826 5.23495C4.35595 6.17697 4.35449 7.41875 4.35449 9.16667V12.8333C4.35449 14.5813 4.35595 15.823 4.4826 16.7651C4.6066 17.6873 4.83913 18.2186 5.22707 18.6066C5.61501 18.9945 6.14636 19.2271 7.0686 19.3511C8.01063 19.4777 9.25241 19.4792 11.0003 19.4792C12.7482 19.4792 13.99 19.4777 14.932 19.3511C15.8543 19.2271 16.3856 18.9945 16.7736 18.6066C17.1615 18.2186 17.3941 17.6873 17.518 16.7651C17.6447 15.823 17.6462 14.5813 17.6462 12.8333V9.16667C17.6462 7.41875 17.6447 6.17697 17.518 5.23495C17.3941 4.3127 17.1615 3.78136 16.7736 3.39341C16.3856 3.00547 15.8543 2.77294 14.932 2.64895C13.99 2.5223 12.7482 2.52084 11.0003 2.52084C9.25241 2.52084 8.01063 2.5223 7.0686 2.64895ZM7.56283 17.4167C7.56283 17.037 7.87063 16.7292 8.25033 16.7292H13.7503C14.13 16.7292 14.4378 17.037 14.4378 17.4167C14.4378 17.7964 14.13 18.1042 13.7503 18.1042H8.25033C7.87063 18.1042 7.56283 17.7964 7.56283 17.4167Z" fill="white"/>
</svg>
