<svg width="22" height="22" viewBox="0 0 22 22" fill="none" xmlns="http://www.w3.org/2000/svg">
<path d="M13.0331 3.20801C11.7305 2.59733 10.2707 2.59733 8.96814 3.20801L2.83462 6.08354C1.84829 6.54596 1.59113 7.84989 2.06315 8.75111L2.06315 13.2917C2.06315 13.6714 2.37096 13.9792 2.75065 13.9792C3.13035 13.9792 3.43815 13.6714 3.43815 13.2917V9.7827L8.96822 12.3753C10.2708 12.986 11.7306 12.986 13.0332 12.3753L19.1667 9.49979C20.5009 8.8743 20.5009 6.70908 19.1667 6.08358L13.0331 3.20801Z" fill="#1C84CF"/>
<path d="M4.58398 11.8385V15.24C4.58398 16.164 5.04553 17.0291 5.85387 17.4768C7.19988 18.2222 9.35431 19.25 11.0007 19.25C12.647 19.25 14.8014 18.2222 16.1474 17.4768C16.9558 17.0291 17.4173 16.164 17.4173 15.24V11.8385L13.6168 13.6203C11.9444 14.4043 10.0569 14.4043 8.38455 13.6203L4.58398 11.8385Z" fill="#1C84CF"/>
</svg>
