<svg width="36" height="36" viewBox="0 0 36 36" fill="none" xmlns="http://www.w3.org/2000/svg">
<path d="M21.3255 5.24947C19.194 4.25018 16.8053 4.25017 14.6738 5.24947L8.23379 8.26868C9.40671 8.39525 10.479 9.13409 10.9768 10.2957C11.7111 12.0089 10.9175 13.993 9.2042 14.7272L7.59069 15.4188C6.78892 15.7624 6.33391 15.9609 6.02674 16.1184C6.02505 16.1429 6.02346 16.1682 6.02197 16.1943L14.6739 20.2505C16.8054 21.2498 19.1941 21.2498 21.3256 20.2505L31.3623 15.5451C33.5455 14.5216 33.5455 10.9785 31.3623 9.95496L21.3255 5.24947Z" fill="#B7BBCB"/>
<path d="M8.31816 12.6593C8.88925 12.4146 9.15379 11.7532 8.90904 11.1821C8.66429 10.611 8.00293 10.3465 7.43184 10.5913L5.76478 11.3057C4.92857 11.664 4.21992 11.9677 3.66381 12.2806C3.07207 12.6135 2.56277 13.0042 2.18128 13.5827C1.7998 14.1612 1.64132 14.7833 1.56844 15.4583C1.49995 16.0927 1.49997 16.8636 1.5 17.7734V22.1253C1.5 22.7466 2.00368 23.2503 2.625 23.2503C3.24632 23.2503 3.75 22.7466 3.75 22.1253V17.8317C3.75 16.848 3.75152 16.1992 3.80544 15.6998C3.85643 15.2276 3.94569 14.9942 4.05968 14.8213C4.17367 14.6484 4.35303 14.4745 4.767 14.2416C5.20477 13.9953 5.80049 13.7383 6.70465 13.3508L8.31816 12.6593Z" fill="#B7BBCB"/>
<path opacity="0.5" d="M7.5 16.8872L14.6739 20.2505C16.8054 21.2498 19.1941 21.2498 21.3256 20.2505L28.5 16.887V24.9378C28.5 26.4499 27.7447 27.8655 26.422 28.598C24.2194 29.8178 20.694 31.4997 18 31.4997C15.306 31.4997 11.7806 29.8178 9.578 28.598C8.25525 27.8655 7.5 26.4499 7.5 24.9378V16.8872Z" fill="#B7BBCB"/>
</svg>
