<svg width="22" height="22" viewBox="0 0 22 22" fill="none" xmlns="http://www.w3.org/2000/svg">
<path d="M8.39105 4.9576C9.55215 2.8747 10.1327 1.83325 11.0007 1.83325C11.8686 1.83325 12.4492 2.8747 13.6103 4.95759L13.9106 5.49646C14.2406 6.08836 14.4056 6.38431 14.6628 6.57957C14.92 6.77484 15.2404 6.84733 15.8811 6.9923L16.4644 7.12428C18.7191 7.63443 19.8465 7.8895 20.1147 8.75201C20.3829 9.61451 19.6143 10.5132 18.0772 12.3107L17.6796 12.7757C17.2428 13.2865 17.0244 13.5419 16.9261 13.8578C16.8279 14.1738 16.8609 14.5145 16.9269 15.196L16.987 15.8164C17.2194 18.2146 17.3356 19.4137 16.6334 19.9468C15.9312 20.4798 14.8757 19.9938 12.7646 19.0218L12.2185 18.7704C11.6186 18.4941 11.3186 18.356 11.0007 18.356C10.6827 18.356 10.3827 18.4941 9.78285 18.7704L9.23669 19.0218C7.1256 19.9938 6.07006 20.4798 5.36787 19.9468C4.66568 19.4137 4.78187 18.2146 5.01426 15.8165L5.07439 15.196C5.14042 14.5145 5.17344 14.1738 5.07519 13.8578C4.97694 13.5419 4.75854 13.2865 4.32174 12.7757L3.92407 12.3107C2.38696 10.5132 1.61841 9.61451 1.88662 8.75201C2.15483 7.8895 3.28219 7.63443 5.53689 7.12428L6.12021 6.9923C6.76093 6.84733 7.08129 6.77484 7.33852 6.57957C7.59574 6.38431 7.76072 6.08836 8.09066 5.49647L8.39105 4.9576Z" fill="#1C84CF"/>
</svg>
