<svg width="36" height="36" viewBox="0 0 36 36" fill="none" xmlns="http://www.w3.org/2000/svg">
<path d="M27.7251 25.151C26.7706 25.3792 25.7744 25.5 24.75 25.5C17.7084 25.5 12 19.7916 12 12.75C12 12.0248 12.0605 11.3137 12.1769 10.6216C12.1226 10.6738 12.0665 10.7219 12.0074 10.7667C11.5865 11.0863 11.0623 11.2049 10.0138 11.4421L9.0593 11.6581C5.36979 12.4928 3.52503 12.9102 3.08613 14.3216C2.64724 15.733 3.90487 17.2036 6.42015 20.1449L7.07088 20.9058C7.78563 21.7417 8.14302 22.1596 8.30379 22.6766C8.46457 23.1936 8.41054 23.7512 8.30248 24.8663L8.20409 25.8816C7.82382 29.8059 7.63368 31.7681 8.78272 32.6403C9.93176 33.5126 11.659 32.7173 15.1135 31.1268L16.0072 30.7153C16.9889 30.2633 17.4797 30.0373 18 30.0373C18.5203 30.0373 19.0111 30.2633 19.9928 30.7153L20.8865 31.1268C24.341 32.7173 26.0682 33.5126 27.2173 32.6403C28.3663 31.7681 28.1762 29.8059 27.7959 25.8816L27.7251 25.151Z" fill="#B7BBCB"/>
<path opacity="0.5" d="M13.7295 8.11256L13.238 8.99435C12.6981 9.9629 12.4281 10.4472 12.0072 10.7667C12.0663 10.7219 12.1224 10.6738 12.1766 10.6216C12.0603 11.3137 11.9998 12.0248 11.9998 12.75C11.9998 19.7916 17.7082 25.5 24.7498 25.5C25.7742 25.5 26.7704 25.3792 27.7249 25.151L27.6973 24.8663C27.5892 23.7512 27.5352 23.1936 27.696 22.6766C27.8568 22.1596 28.2141 21.7417 28.9289 20.9058L29.5796 20.1449C32.0949 17.2036 33.3526 15.733 32.9137 14.3216C32.4748 12.9102 30.63 12.4928 26.9405 11.658L25.986 11.4421C24.9375 11.2049 24.4133 11.0862 23.9924 10.7667C23.5715 10.4472 23.3015 9.9629 22.7616 8.99436L22.27 8.11256C20.3701 4.70419 19.4201 3 17.9998 3C16.5795 3 15.6295 4.70419 13.7295 8.11256Z" fill="#B7BBCB"/>
</svg>
