<svg width="20" height="18" viewBox="0 0 20 18" fill="none" xmlns="http://www.w3.org/2000/svg">
<path fill-rule="evenodd" clip-rule="evenodd" d="M9.99967 5.5625C8.1012 5.5625 6.56217 7.10152 6.56217 9C6.56217 10.8985 8.1012 12.4375 9.99967 12.4375C11.8982 12.4375 13.4372 10.8985 13.4372 9C13.4372 7.10152 11.8982 5.5625 9.99967 5.5625ZM7.93717 9C7.93717 7.86091 8.86059 6.9375 9.99967 6.9375C11.1388 6.9375 12.0622 7.86091 12.0622 9C12.0622 10.1391 11.1388 11.0625 9.99967 11.0625C8.86059 11.0625 7.93717 10.1391 7.93717 9Z" fill="white"/>
<path fill-rule="evenodd" clip-rule="evenodd" d="M9.99967 0.979164C5.86172 0.979164 3.07453 3.45801 1.45686 5.55962L1.42769 5.59751C1.06184 6.07265 0.724896 6.51026 0.496304 7.0277C0.251515 7.5818 0.145508 8.18571 0.145508 9C0.145508 9.81428 0.251515 10.4182 0.496304 10.9723C0.724898 11.4897 1.06185 11.9273 1.42769 12.4025L1.45686 12.4404C3.07453 14.542 5.86172 17.0208 9.99967 17.0208C14.1376 17.0208 16.9248 14.542 18.5425 12.4404L18.5716 12.4025C18.9375 11.9274 19.2744 11.4897 19.503 10.9723C19.7478 10.4182 19.8538 9.81428 19.8538 9C19.8538 8.18571 19.7478 7.5818 19.503 7.0277C19.2744 6.51025 18.9375 6.07264 18.5716 5.59749L18.5425 5.55962C16.9248 3.45801 14.1376 0.979164 9.99967 0.979164ZM2.54646 6.39831C4.04009 4.45784 6.47084 2.35416 9.99967 2.35416C13.5285 2.35416 15.9593 4.45784 17.4529 6.39831C17.8549 6.92062 18.0904 7.23272 18.2453 7.58333C18.3901 7.91101 18.4788 8.31152 18.4788 9C18.4788 9.68847 18.3901 10.089 18.2453 10.4167C18.0904 10.7673 17.8549 11.0794 17.4529 11.6017C15.9593 13.5422 13.5285 15.6458 9.99967 15.6458C6.47084 15.6458 4.04009 13.5422 2.54646 11.6017C2.14442 11.0794 1.90893 10.7673 1.75404 10.4167C1.60928 10.089 1.52051 9.68847 1.52051 9C1.52051 8.31152 1.60928 7.91101 1.75404 7.58333C1.90893 7.23272 2.14442 6.92062 2.54646 6.39831Z" fill="white"/>
</svg>
