<svg width="36" height="36" viewBox="0 0 36 36" fill="none" xmlns="http://www.w3.org/2000/svg">
<path d="M3 26.25C3 22.5221 6.02208 19.5 9.75 19.5H13.8C14.7451 19.5 15.2176 19.5 15.5786 19.6839C15.8961 19.8457 16.1543 20.1039 16.3161 20.4214C16.5 20.7824 16.5 21.2549 16.5 22.2V26.25C16.5 29.9779 13.4779 33 9.75 33C6.02208 33 3 29.9779 3 26.25Z" fill="#B7BBCB"/>
<path d="M19.5 9.75C19.5 6.02208 22.5221 3 26.25 3C29.9779 3 33 6.02208 33 9.75C33 13.4779 29.9779 16.5 26.25 16.5H21.4286C21.2047 16.5 21.0927 16.5 20.9986 16.4894C20.2162 16.4012 19.5988 15.7838 19.5106 15.0014C19.5 14.9073 19.5 14.7953 19.5 14.5714V9.75Z" fill="#B7BBCB"/>
<g opacity="0.5">
<path d="M3 9.75C3 6.02208 6.02208 3 9.75 3C13.4779 3 16.5 6.02208 16.5 9.75V14.25C16.5 14.7731 16.5 15.0347 16.4425 15.2493C16.2865 15.8316 15.8316 16.2865 15.2493 16.4425C15.0347 16.5 14.7731 16.5 14.25 16.5H9.75C6.02208 16.5 3 13.4779 3 9.75Z" fill="#B7BBCB"/>
<path d="M19.5 21.75C19.5 21.2269 19.5 20.9653 19.5575 20.7507C19.7135 20.1684 20.1684 19.7135 20.7507 19.5575C20.9653 19.5 21.2269 19.5 21.75 19.5H26.25C29.9779 19.5 33 22.5221 33 26.25C33 29.9779 29.9779 33 26.25 33C22.5221 33 19.5 29.9779 19.5 26.25V21.75Z" fill="#B7BBCB"/>
</g>
</svg>
