<svg width="22" height="23" viewBox="0 0 22 23" fill="none" xmlns="http://www.w3.org/2000/svg">
<path fill-rule="evenodd" clip-rule="evenodd" d="M10.0363 1.64588H11.965C12.7886 1.64585 13.4754 1.64583 14.0206 1.71913C14.5961 1.7965 15.1156 1.9667 15.5331 2.38421C15.9507 2.80173 16.1209 3.32129 16.1982 3.89677C16.2191 4.05175 16.234 4.21816 16.2447 4.3959C16.7849 4.39622 17.2416 4.39974 17.618 4.43803C18.0521 4.48218 18.4548 4.57817 18.8178 4.82071C19.0931 5.00463 19.3294 5.24096 19.5133 5.51621C19.7559 5.87921 19.8518 6.28196 19.896 6.71598C19.9382 7.13062 19.9382 7.64279 19.9382 8.25658V19.9792H20.1673C20.547 19.9792 20.8548 20.287 20.8548 20.6667C20.8548 21.0464 20.547 21.3542 20.1673 21.3542H1.83398C1.45429 21.3542 1.14648 21.0464 1.14648 20.6667C1.14648 20.287 1.45429 19.9792 1.83398 19.9792H2.06315L2.06315 8.25656C2.06314 7.64278 2.06312 7.13061 2.1053 6.71598C2.14945 6.28196 2.24544 5.87921 2.48799 5.51621C2.6719 5.24096 2.90823 5.00463 3.18348 4.82071C3.54648 4.57817 3.94924 4.48218 4.38325 4.43803C4.75966 4.39974 5.21644 4.39622 5.75665 4.3959C5.76732 4.21816 5.78223 4.05175 5.80307 3.89677C5.88044 3.32129 6.05064 2.80173 6.46815 2.38421C6.88567 1.9667 7.40523 1.7965 7.98071 1.71913C8.52593 1.64583 9.21271 1.64585 10.0363 1.64588ZM5.72984 5.77097C5.19579 5.77156 4.81852 5.77585 4.52241 5.80597C4.19711 5.83906 4.04681 5.89756 3.94739 5.96398C3.82228 6.04758 3.71486 6.15501 3.63126 6.28012C3.56483 6.37953 3.50633 6.52984 3.47324 6.85514C3.43898 7.19192 3.43815 7.63369 3.43815 8.29171V19.9792H5.72982V14.0209H5.04232C4.66262 14.0209 4.35482 13.7131 4.35482 13.3334C4.35482 12.9537 4.66262 12.6459 5.04232 12.6459H5.72982V11.2709H5.04232C4.66262 11.2709 4.35482 10.9631 4.35482 10.5834C4.35482 10.2037 4.66262 9.89588 5.04232 9.89588H5.72982V8.52088H5.04232C4.66262 8.52088 4.35482 8.21307 4.35482 7.83338C4.35482 7.45368 4.66262 7.14588 5.04232 7.14588H5.72982L5.72982 5.95238C5.72981 5.89115 5.72981 5.83068 5.72984 5.77097ZM7.10482 19.9792H10.3132V17.9167C10.3132 17.537 10.621 17.2292 11.0007 17.2292C11.3803 17.2292 11.6882 17.537 11.6882 17.9167V19.9792H14.8965V6.00004C14.8965 5.11637 14.895 4.52277 14.8355 4.07999C14.7786 3.65698 14.6803 3.47594 14.5609 3.35648C14.4414 3.23703 14.2604 3.13874 13.8374 3.08187C13.3946 3.02234 12.801 3.02088 11.9173 3.02088H10.084C9.20031 3.02088 8.60671 3.02234 8.16393 3.08187C7.74092 3.13874 7.55988 3.23703 7.44042 3.35648C7.32097 3.47594 7.22268 3.65698 7.16581 4.07999C7.10628 4.52277 7.10482 5.11637 7.10482 6.00004V19.9792ZM16.2715 8.52088H16.959C17.3387 8.52088 17.6465 8.21307 17.6465 7.83338C17.6465 7.45368 17.3387 7.14588 16.959 7.14588H16.2715L16.2715 5.95238C16.2715 5.89115 16.2715 5.83068 16.2715 5.77097C16.8055 5.77156 17.1828 5.77585 17.4789 5.80597C17.8042 5.83906 17.9545 5.89756 18.0539 5.96398C18.179 6.04758 18.2864 6.155 18.37 6.28012C18.4365 6.37953 18.495 6.52984 18.5281 6.85514C18.5623 7.19192 18.5632 7.63369 18.5632 8.29171V19.9792H16.2715V14.0209H16.959C17.3387 14.0209 17.6465 13.7131 17.6465 13.3334C17.6465 12.9537 17.3387 12.6459 16.959 12.6459H16.2715V11.2709H16.959C17.3387 11.2709 17.6465 10.9631 17.6465 10.5834C17.6465 10.2037 17.3387 9.89588 16.959 9.89588H16.2715V8.52088ZM11.0007 5.77088C10.3678 5.77088 9.85482 6.28388 9.85482 6.91671C9.85482 7.54954 10.3678 8.06254 11.0007 8.06254C11.6335 8.06254 12.1465 7.54954 12.1465 6.91671C12.1465 6.28388 11.6335 5.77088 11.0007 5.77088ZM8.47982 6.91671C8.47982 5.52449 9.60843 4.39588 11.0007 4.39588C12.3929 4.39588 13.5215 5.52449 13.5215 6.91671C13.5215 8.30893 12.3929 9.43754 11.0007 9.43754C9.60843 9.43754 8.47982 8.30893 8.47982 6.91671ZM8.47982 11.5C8.47982 11.1203 8.78762 10.8125 9.16732 10.8125H12.834C13.2137 10.8125 13.5215 11.1203 13.5215 11.5C13.5215 11.8797 13.2137 12.1875 12.834 12.1875H9.16732C8.78762 12.1875 8.47982 11.8797 8.47982 11.5ZM8.47982 14.25C8.47982 13.8703 8.78762 13.5625 9.16732 13.5625H12.834C13.2137 13.5625 13.5215 13.8703 13.5215 14.25C13.5215 14.6297 13.2137 14.9375 12.834 14.9375H9.16732C8.78762 14.9375 8.47982 14.6297 8.47982 14.25Z" fill="#009990"/>
</svg>
