<svg width="50" height="50" viewBox="0 0 50 50" fill="none" xmlns="http://www.w3.org/2000/svg">
<path fill-rule="evenodd" clip-rule="evenodd" d="M20.833 12.5H29.1663C35.0589 12.5 38.0052 12.5 39.8358 14.3306C41.6663 16.1612 41.6663 19.1074 41.6663 25V27.1994C41.6663 32.2112 41.6663 34.717 40.4218 36.7308C39.1772 38.7446 36.9359 39.8652 32.4532 42.1066C28.7957 43.9353 26.9669 44.8497 24.9997 44.8497C23.0324 44.8497 21.2037 43.9353 17.5461 42.1066C13.0635 39.8652 10.8222 38.7446 9.57758 36.7308C8.33301 34.717 8.33301 32.2112 8.33301 27.1994V25C8.33301 19.1074 8.33301 16.1612 10.1636 14.3306C11.9942 12.5 14.9405 12.5 20.833 12.5ZM24.9997 20.8333C24.4079 20.8333 24.0121 21.5434 23.2204 22.9636L23.0156 23.331C22.7906 23.7345 22.6781 23.9363 22.5028 24.0695C22.3274 24.2026 22.109 24.252 21.6721 24.3509L21.2744 24.4409C19.7371 24.7887 18.9684 24.9626 18.7856 25.5507C18.6027 26.1387 19.1267 26.7515 20.1747 27.977L20.4459 28.2941C20.7437 28.6424 20.8926 28.8165 20.9596 29.0319C21.0266 29.2473 21.0041 29.4797 20.959 29.9443L20.918 30.3673C20.7596 32.0025 20.6804 32.82 21.1591 33.1835C21.6379 33.5469 22.3576 33.2155 23.797 32.5528L24.1694 32.3814C24.5784 32.193 24.7829 32.0989 24.9997 32.0989C25.2165 32.0989 25.421 32.193 25.83 32.3814L26.2024 32.5528C27.6418 33.2155 28.3614 33.5469 28.8402 33.1835C29.319 32.82 29.2397 32.0025 29.0813 30.3673L29.0403 29.9443C28.9953 29.4797 28.9728 29.2473 29.0398 29.0319C29.1067 28.8165 29.2556 28.6424 29.5535 28.2941L29.8246 27.977C30.8726 26.7515 31.3967 26.1387 31.2138 25.5507C31.0309 24.9626 30.2623 24.7887 28.725 24.4409L28.3272 24.3509C27.8904 24.252 27.672 24.2026 27.4966 24.0695C27.3212 23.9363 27.2087 23.7345 26.9838 23.331L26.7789 22.9636C25.9873 21.5434 25.5915 20.8333 24.9997 20.8333Z" fill="#009990"/>
<path d="M22.9168 4.1665H27.0834C31.0118 4.1665 32.976 4.1665 34.1964 5.38689C35.0586 6.24917 35.3117 7.48277 35.3859 9.51815C33.6758 9.3746 31.6542 9.37472 29.3725 9.37484H20.6277C18.346 9.37472 16.3244 9.3746 14.6143 9.51816C14.6885 7.48277 14.9415 6.24917 15.8038 5.38689C17.0242 4.1665 18.9884 4.1665 22.9168 4.1665Z" fill="#009990"/>
</svg>
